<svg width="140" height="143" viewBox="0 0 140 143" fill="none" xmlns="http://www.w3.org/2000/svg">
<path d="M1.84492 131V103.7H15.5339C17.3279 103.7 18.9009 104.064 20.2529 104.792C21.6309 105.52 22.7099 106.534 23.4899 107.834C24.2699 109.108 24.6599 110.59 24.6599 112.28C24.6599 113.892 24.2699 115.335 23.4899 116.609C22.7099 117.883 21.6309 118.884 20.2529 119.612C18.8749 120.34 17.3019 120.704 15.5339 120.704H7.49992V131H1.84492ZM7.49992 116.024H14.9099C16.1319 116.024 17.1069 115.686 17.8349 115.01C18.5889 114.334 18.9659 113.437 18.9659 112.319C18.9659 111.175 18.5889 110.265 17.8349 109.589C17.1069 108.913 16.1319 108.575 14.9099 108.575H7.49992V116.024ZM28.0017 131V110.681H33.3447V112.943C33.9947 112.059 34.7747 111.383 35.6847 110.915C36.5947 110.447 37.6217 110.213 38.7657 110.213C39.7537 110.239 40.4947 110.395 40.9887 110.681V115.361C40.5987 115.179 40.1697 115.049 39.7017 114.971C39.2337 114.867 38.7527 114.815 38.2587 114.815C37.2187 114.815 36.2697 115.075 35.4117 115.595C34.5537 116.115 33.8647 116.856 33.3447 117.818V131H28.0017ZM53.0278 131.39C50.9998 131.39 49.1668 130.922 47.5288 129.986C45.8908 129.05 44.5908 127.789 43.6288 126.203C42.6668 124.617 42.1858 122.836 42.1858 120.86C42.1858 118.884 42.6538 117.103 43.5898 115.517C44.5518 113.905 45.8518 112.631 47.4898 111.695C49.1538 110.759 50.9998 110.291 53.0278 110.291C55.0558 110.291 56.8888 110.759 58.5268 111.695C60.1908 112.631 61.4908 113.905 62.4268 115.517C63.3888 117.103 63.8698 118.884 63.8698 120.86C63.8698 122.836 63.3888 124.617 62.4268 126.203C61.4908 127.789 60.2038 129.05 58.5658 129.986C56.9278 130.922 55.0818 131.39 53.0278 131.39ZM53.0278 126.749C54.0938 126.749 55.0428 126.489 55.8748 125.969C56.7328 125.449 57.4088 124.747 57.9028 123.863C58.4228 122.953 58.6828 121.952 58.6828 120.86C58.6828 119.742 58.4228 118.741 57.9028 117.857C57.4088 116.973 56.7328 116.271 55.8748 115.751C55.0428 115.205 54.0938 114.932 53.0278 114.932C51.9878 114.932 51.0388 115.205 50.1808 115.751C49.3228 116.271 48.6468 116.973 48.1528 117.857C47.6588 118.741 47.4118 119.742 47.4118 120.86C47.4118 121.952 47.6588 122.953 48.1528 123.863C48.6468 124.747 49.3228 125.449 50.1808 125.969C51.0388 126.489 51.9878 126.749 53.0278 126.749ZM69.4743 131V115.127H64.9503V110.681H69.4743V108.731C69.4743 106.443 70.1373 104.701 71.4633 103.505C72.7893 102.283 74.7003 101.672 77.1963 101.672C77.7423 101.672 78.3013 101.698 78.8733 101.75C79.4453 101.802 79.9393 101.893 80.3553 102.023V106.508C79.8613 106.404 79.4323 106.326 79.0683 106.274C78.7043 106.222 78.3013 106.196 77.8593 106.196C76.8453 106.196 76.0783 106.417 75.5583 106.859C75.0643 107.275 74.8173 107.938 74.8173 108.848V110.681H80.3553V115.127H74.8173V131H69.4743ZM83.1502 131V110.681H88.4932V131H83.1502ZM85.8022 108.263C84.9702 108.263 84.2552 107.964 83.6572 107.366C83.0592 106.768 82.7602 106.053 82.7602 105.221C82.7602 104.363 83.0592 103.648 83.6572 103.076C84.2552 102.478 84.9702 102.179 85.8022 102.179C86.6602 102.179 87.3752 102.478 87.9472 103.076C88.5452 103.648 88.8442 104.363 88.8442 105.221C88.8442 106.053 88.5452 106.768 87.9472 107.366C87.3752 107.964 86.6602 108.263 85.8022 108.263ZM92.6717 131V103.7L98.0147 102.803V131H92.6717ZM112.138 131.39C110.11 131.39 108.264 130.922 106.6 129.986C104.962 129.05 103.662 127.789 102.7 126.203C101.738 124.617 101.257 122.836 101.257 120.86C101.257 118.884 101.712 117.103 102.622 115.517C103.558 113.931 104.819 112.67 106.405 111.734C107.991 110.798 109.759 110.33 111.709 110.33C113.659 110.33 115.388 110.811 116.896 111.773C118.404 112.735 119.587 114.035 120.445 115.673C121.329 117.311 121.771 119.17 121.771 121.25V122.654H106.717C106.951 123.46 107.328 124.188 107.848 124.838C108.394 125.488 109.057 125.995 109.837 126.359C110.643 126.723 111.501 126.905 112.411 126.905C113.321 126.905 114.153 126.762 114.907 126.476C115.687 126.19 116.35 125.787 116.896 125.267L120.406 128.465C119.158 129.479 117.871 130.22 116.545 130.688C115.245 131.156 113.776 131.39 112.138 131.39ZM106.639 118.832H116.506C116.324 118.026 115.986 117.324 115.492 116.726C115.024 116.102 114.452 115.621 113.776 115.283C113.126 114.919 112.398 114.737 111.592 114.737C110.76 114.737 110.006 114.906 109.33 115.244C108.654 115.582 108.082 116.063 107.614 116.687C107.172 117.285 106.847 118 106.639 118.832ZM125.045 131V110.681H130.388V112.943C131.038 112.059 131.818 111.383 132.728 110.915C133.638 110.447 134.665 110.213 135.809 110.213C136.797 110.239 137.538 110.395 138.032 110.681V115.361C137.642 115.179 137.213 115.049 136.745 114.971C136.277 114.867 135.796 114.815 135.302 114.815C134.262 114.815 133.313 115.075 132.455 115.595C131.597 116.115 130.908 116.856 130.388 117.818V131H125.045Z" fill="#407BFF"/>
<path d="M32.7383 63.104C32.8522 63.4522 32.9661 63.607 32.9661 63.607L32.7383 63.104Z" fill="#407BFF"/>
<path d="M106.276 11.6074C106.276 11.6074 104.375 6.50021 88.0626 7.97045C71.3703 9.47938 57.2256 16.7145 48.8985 21.8216C40.6094 26.9288 32.1682 33.9318 27.2631 44.9972C26.0464 47.783 27.9476 52.155 27.9476 52.155L32.7385 63.1044C31.864 60.899 29.7727 51.4585 50.2673 36.2919C53.3092 34.0478 57.3777 31.1847 69.6593 25.652C70.8 25.149 71.9407 24.646 73.0814 24.2204L73.0434 89.3365H88.9752L88.9371 20.0032C93.2718 19.3454 96.5038 19.3068 97.8727 19.3068C107.721 19.3068 111.219 23.3693 112.322 25.3812L106.276 11.6074Z" fill="#407BFF"/>
<path d="M92.4736 38.8453L92.5117 53.1221C92.5117 53.1221 98.8996 50.762 107.265 41.4375C110.04 38.3423 111.333 34.1637 111.067 31.2233C110.687 27.2768 109.812 25.0715 105.173 23.8721C102.664 30.6429 92.4736 38.8453 92.4736 38.8453Z" fill="#407BFF"/>
<path d="M36.9589 56.2949C35.59 59.4675 35.3239 62.3693 36.7687 65.0003C37.8334 66.9348 39.6585 68.8306 42.8525 69.4884C46.6929 70.3009 50.0389 70.0687 50.0389 70.0687V57.5717C50.0389 57.5717 45.8563 57.4943 42.5863 57.4943C40.457 57.533 38.784 56.6044 36.9589 56.2949Z" fill="#407BFF"/>
<path d="M53.1567 38.2651V89.2978L69.1646 89.3752L69.2026 29.6758C63.4231 32.3841 59.4686 34.2413 53.1567 38.2651Z" fill="#407BFF"/>
<path d="M69.0887 8.27976L69.1267 0H53.2329V15.5923C57.7577 13.1548 61.4079 10.9881 69.0887 8.27976Z" fill="#407BFF"/>
</svg>
