<svg width="478" height="400" viewBox="0 0 478 400" fill="none" xmlns="http://www.w3.org/2000/svg">
<path d="M213.281 163H184C187.957 137.816 207.424 111.659 240.978 111.009C274.532 110.359 290.307 145.399 294 163H266.302C265.247 155.147 258.705 139.116 240.978 137.816C223.252 136.516 215.127 154.064 213.281 163Z" fill="#407BFF"/>
<path d="M264.719 226H294C290.043 251.184 270.576 277.341 237.022 277.991C203.468 278.641 187.693 243.601 184 226H211.698C212.753 233.853 219.295 249.884 237.022 251.184C254.748 252.484 262.873 234.936 264.719 226Z" fill="#407BFF"/>
<path d="M156 194H128V278H156V194Z" fill="#407BFF"/>
<path d="M431 194H403V278H431V194Z" fill="#407BFF"/>
<path d="M131 111H100.383L47 223H78.4019L131 111Z" fill="#407BFF"/>
<path d="M406 111H375.383L322 223H353.402L406 111Z" fill="#407BFF"/>
</svg>
