<svg width="172" height="176" viewBox="0 0 172 176" fill="none" xmlns="http://www.w3.org/2000/svg">
<path d="M3.19588 161V127.4H20.0439C22.2519 127.4 24.1879 127.848 25.8519 128.744C27.5479 129.64 28.8759 130.888 29.8359 132.488C30.7959 134.056 31.2759 135.88 31.2759 137.96C31.2759 139.944 30.7959 141.72 29.8359 143.288C28.8759 144.856 27.5479 146.088 25.8519 146.984C24.1559 147.88 22.2199 148.328 20.0439 148.328H10.1559V161H3.19588ZM10.1559 142.568H19.2759C20.7799 142.568 21.9799 142.152 22.8759 141.32C23.8039 140.488 24.2679 139.384 24.2679 138.008C24.2679 136.6 23.8039 135.48 22.8759 134.648C21.9799 133.816 20.7799 133.4 19.2759 133.4H10.1559V142.568ZM35.3889 161V135.992H41.9649V138.776C42.7649 137.688 43.7249 136.856 44.8449 136.28C45.9649 135.704 47.2289 135.416 48.6369 135.416C49.8529 135.448 50.7649 135.64 51.3729 135.992V141.752C50.8929 141.528 50.3649 141.368 49.7889 141.272C49.2129 141.144 48.6209 141.08 48.0129 141.08C46.7329 141.08 45.5649 141.4 44.5089 142.04C43.4529 142.68 42.6049 143.592 41.9649 144.776V161H35.3889ZM66.1903 161.48C63.6943 161.48 61.4383 160.904 59.4223 159.752C57.4063 158.6 55.8063 157.048 54.6223 155.096C53.4383 153.144 52.8463 150.952 52.8463 148.52C52.8463 146.088 53.4223 143.896 54.5742 141.944C55.7583 139.96 57.3583 138.392 59.3743 137.24C61.4223 136.088 63.6943 135.512 66.1903 135.512C68.6863 135.512 70.9423 136.088 72.9583 137.24C75.0063 138.392 76.6063 139.96 77.7583 141.944C78.9423 143.896 79.5343 146.088 79.5343 148.52C79.5343 150.952 78.9423 153.144 77.7583 155.096C76.6063 157.048 75.0223 158.6 73.0063 159.752C70.9903 160.904 68.7183 161.48 66.1903 161.48ZM66.1903 155.768C67.5023 155.768 68.6703 155.448 69.6943 154.808C70.7503 154.168 71.5823 153.304 72.1903 152.216C72.8303 151.096 73.1503 149.864 73.1503 148.52C73.1503 147.144 72.8303 145.912 72.1903 144.824C71.5823 143.736 70.7503 142.872 69.6943 142.232C68.6703 141.56 67.5023 141.224 66.1903 141.224C64.9103 141.224 63.7423 141.56 62.6863 142.232C61.6303 142.872 60.7983 143.736 60.1903 144.824C59.5823 145.912 59.2783 147.144 59.2783 148.52C59.2783 149.864 59.5823 151.096 60.1903 152.216C60.7983 153.304 61.6303 154.168 62.6863 154.808C63.7423 155.448 64.9103 155.768 66.1903 155.768ZM86.432 161V141.464H80.864V135.992H86.432V133.592C86.432 130.776 87.248 128.632 88.88 127.16C90.512 125.656 92.864 124.904 95.936 124.904C96.608 124.904 97.296 124.936 98 125C98.704 125.064 99.312 125.176 99.824 125.336V130.856C99.216 130.728 98.688 130.632 98.24 130.568C97.792 130.504 97.296 130.472 96.752 130.472C95.504 130.472 94.56 130.744 93.92 131.288C93.312 131.8 93.008 132.616 93.008 133.736V135.992H99.824V141.464H93.008V161H86.432ZM103.264 161V135.992H109.84V161H103.264ZM106.528 133.016C105.504 133.016 104.624 132.648 103.888 131.912C103.152 131.176 102.784 130.296 102.784 129.272C102.784 128.216 103.152 127.336 103.888 126.632C104.624 125.896 105.504 125.528 106.528 125.528C107.584 125.528 108.464 125.896 109.168 126.632C109.904 127.336 110.272 128.216 110.272 129.272C110.272 130.296 109.904 131.176 109.168 131.912C108.464 132.648 107.584 133.016 106.528 133.016ZM114.983 161V127.4L121.559 126.296V161H114.983ZM138.941 161.48C136.445 161.48 134.173 160.904 132.125 159.752C130.109 158.6 128.509 157.048 127.325 155.096C126.141 153.144 125.549 150.952 125.549 148.52C125.549 146.088 126.109 143.896 127.229 141.944C128.381 139.992 129.933 138.44 131.885 137.288C133.837 136.136 136.013 135.56 138.413 135.56C140.813 135.56 142.941 136.152 144.797 137.336C146.653 138.52 148.109 140.12 149.165 142.136C150.253 144.152 150.797 146.44 150.797 149V150.728H132.269C132.557 151.72 133.021 152.616 133.661 153.416C134.333 154.216 135.149 154.84 136.109 155.288C137.101 155.736 138.157 155.96 139.277 155.96C140.397 155.96 141.421 155.784 142.349 155.432C143.309 155.08 144.125 154.584 144.797 153.944L149.117 157.88C147.581 159.128 145.997 160.04 144.365 160.616C142.765 161.192 140.957 161.48 138.941 161.48ZM132.173 146.024H144.317C144.093 145.032 143.677 144.168 143.069 143.432C142.493 142.664 141.789 142.072 140.957 141.656C140.157 141.208 139.261 140.984 138.269 140.984C137.245 140.984 136.317 141.192 135.485 141.608C134.653 142.024 133.949 142.616 133.373 143.384C132.829 144.12 132.429 145 132.173 146.024ZM154.826 161V135.992H161.402V138.776C162.202 137.688 163.162 136.856 164.282 136.28C165.402 135.704 166.666 135.416 168.074 135.416C169.29 135.448 170.202 135.64 170.81 135.992V141.752C170.33 141.528 169.802 141.368 169.226 141.272C168.65 141.144 168.058 141.08 167.45 141.08C166.17 141.08 165.002 141.4 163.946 142.04C162.89 142.68 162.042 143.592 161.402 144.776V161H154.826Z" fill="#407BFF"/>
<path d="M40.2217 77.6666C40.3619 78.0952 40.502 78.2857 40.502 78.2857L40.2217 77.6666Z" fill="#407BFF"/>
<path d="M130.568 14.2857C130.568 14.2857 128.232 7.99998 108.191 9.80951C87.6836 11.6667 70.3058 20.5714 60.0753 26.8571C49.8916 33.1428 39.5209 41.7619 33.4948 55.3809C31.9999 58.8095 34.3356 64.1905 34.3356 64.1905L40.2217 77.6667C39.1472 74.9524 36.5779 63.3333 61.7571 44.6667C65.4942 41.9047 70.4927 38.3809 85.5814 31.5714C86.9829 30.9524 88.3843 30.3333 89.7858 29.8095L89.739 109.952H109.312L109.266 24.619C114.591 23.8095 118.562 23.7619 120.244 23.7619C132.343 23.7619 136.64 28.7619 137.995 31.2381L130.568 14.2857Z" fill="#407BFF"/>
<path d="M113.61 47.8096L113.657 65.381C113.657 65.381 121.505 62.4762 131.782 51C135.192 47.1905 136.781 42.0476 136.454 38.4286C135.987 33.5715 134.912 30.8572 129.213 29.381C126.13 37.7143 113.61 47.8096 113.61 47.8096Z" fill="#407BFF"/>
<path d="M45.4069 69.2858C43.7252 73.1905 43.3982 76.762 45.1734 80.0001C46.4814 82.381 48.7237 84.7143 52.6477 85.5239C57.3659 86.5239 61.4767 86.2381 61.4767 86.2381V70.8572C61.4767 70.8572 56.3381 70.762 52.3207 70.762C49.7047 70.8096 47.6492 69.6667 45.4069 69.2858Z" fill="#407BFF"/>
<path d="M65.3076 47.0952V109.905L84.9744 110L85.0211 36.5238C77.9205 39.8571 73.0622 42.1429 65.3076 47.0952Z" fill="#407BFF"/>
<path d="M84.8813 10.1905L84.928 0H65.4014V19.1905C70.9604 16.1905 75.445 13.5238 84.8813 10.1905Z" fill="#407BFF"/>
</svg>
