<svg width="174" height="56" viewBox="0 0 174 56" fill="none" xmlns="http://www.w3.org/2000/svg">
<path d="M3.57886 38.8333C3.64807 39.0475 3.71728 39.1428 3.71728 39.1428L3.57886 38.8333Z" fill="#407BFF"/>
<path d="M48.3216 7.14279C48.3216 7.14279 47.1648 3.99993 37.24 4.90469C27.0838 5.83326 18.4777 10.2856 13.4112 13.4285C8.36777 16.5714 3.23184 20.8809 0.247451 27.6904C-0.492863 29.4047 0.663877 32.0952 0.663877 32.0952L3.57886 38.8333C3.04676 37.4761 1.77435 31.6666 14.244 22.3333C16.0948 20.9523 18.5702 19.1904 26.0428 15.7856C26.7368 15.4761 27.4308 15.1666 28.1249 14.9047L28.1018 54.9761H37.7952L37.7721 12.3095C40.4095 11.9047 42.3759 11.8809 43.2088 11.8809C49.2007 11.8809 51.3291 14.3809 52 15.619L48.3216 7.14279Z" fill="#407BFF"/>
<path d="M39.9241 23.9048L39.9472 32.6905C39.9472 32.6905 43.8339 31.2381 48.9235 25.5C50.6124 23.5953 51.3989 21.0238 51.237 19.2143C51.0056 16.7857 50.4735 15.4286 47.6511 14.6905C46.1242 18.8572 39.9241 23.9048 39.9241 23.9048Z" fill="#407BFF"/>
<path d="M6.14665 34.6429C5.3138 36.5953 5.15185 38.381 6.03098 40.0001C6.67875 41.1906 7.78922 42.3572 9.73254 42.762C12.0692 43.262 14.105 43.1191 14.105 43.1191V35.4287C14.105 35.4287 11.5602 35.381 9.5706 35.381C8.27505 35.4049 7.25712 34.8334 6.14665 34.6429Z" fill="#407BFF"/>
<path d="M16.0022 23.5476V54.9524L25.7419 55L25.7651 18.2619C22.2486 19.9286 19.8426 21.0714 16.0022 23.5476Z" fill="#407BFF"/>
<path d="M25.6958 5.09524L25.7189 0H16.0486V9.59524C18.8016 8.09524 21.0226 6.76191 25.6958 5.09524Z" fill="#407BFF"/>
<path d="M61.2973 55V32.6H72.5293C74.0013 32.6 75.2919 32.8987 76.4013 33.496C77.5319 34.0933 78.4173 34.9253 79.0573 35.992C79.6973 37.0373 80.0173 38.2533 80.0173 39.64C80.0173 40.9627 79.6973 42.1467 79.0573 43.192C78.4173 44.2373 77.5319 45.0587 76.4013 45.656C75.2706 46.2533 73.9799 46.552 72.5293 46.552H65.9373V55H61.2973ZM65.9373 42.712H72.0173C73.0199 42.712 73.8199 42.4347 74.4173 41.88C75.0359 41.3253 75.3453 40.5893 75.3453 39.672C75.3453 38.7333 75.0359 37.9867 74.4173 37.432C73.8199 36.8773 73.0199 36.6 72.0173 36.6H65.9373V42.712ZM82.7593 55V38.328H87.1433V40.184C87.6766 39.4587 88.3166 38.904 89.0633 38.52C89.8099 38.136 90.6526 37.944 91.5913 37.944C92.4019 37.9653 93.0099 38.0933 93.4153 38.328V42.168C93.0953 42.0187 92.7433 41.912 92.3593 41.848C91.9753 41.7627 91.5806 41.72 91.1753 41.72C90.3219 41.72 89.5433 41.9333 88.8393 42.36C88.1353 42.7867 87.5699 43.3947 87.1433 44.184V55H82.7593ZM103.294 55.32C101.63 55.32 100.126 54.936 98.7815 54.168C97.4375 53.4 96.3708 52.3653 95.5815 51.064C94.7922 49.7627 94.3975 48.3013 94.3975 46.68C94.3975 45.0587 94.7815 43.5973 95.5495 42.296C96.3388 40.9733 97.4055 39.928 98.7495 39.16C100.115 38.392 101.63 38.008 103.294 38.008C104.958 38.008 106.462 38.392 107.806 39.16C109.171 39.928 110.238 40.9733 111.006 42.296C111.795 43.5973 112.19 45.0587 112.19 46.68C112.19 48.3013 111.795 49.7627 111.006 51.064C110.238 52.3653 109.182 53.4 107.838 54.168C106.494 54.936 104.979 55.32 103.294 55.32ZM103.294 51.512C104.168 51.512 104.947 51.2987 105.63 50.872C106.334 50.4453 106.888 49.8693 107.294 49.144C107.72 48.3973 107.934 47.576 107.934 46.68C107.934 45.7627 107.72 44.9413 107.294 44.216C106.888 43.4907 106.334 42.9147 105.63 42.488C104.947 42.04 104.168 41.816 103.294 41.816C102.44 41.816 101.662 42.04 100.958 42.488C100.254 42.9147 99.6988 43.4907 99.2935 44.216C98.8882 44.9413 98.6855 45.7627 98.6855 46.68C98.6855 47.576 98.8882 48.3973 99.2935 49.144C99.6988 49.8693 100.254 50.4453 100.958 50.872C101.662 51.2987 102.44 51.512 103.294 51.512ZM116.788 55V41.976H113.076V38.328H116.788V36.728C116.788 34.8507 117.332 33.4213 118.42 32.44C119.508 31.4373 121.076 30.936 123.124 30.936C123.572 30.936 124.031 30.9573 124.5 31C124.969 31.0427 125.375 31.1173 125.716 31.224V34.904C125.311 34.8187 124.959 34.7547 124.66 34.712C124.361 34.6693 124.031 34.648 123.668 34.648C122.836 34.648 122.207 34.8293 121.78 35.192C121.375 35.5333 121.172 36.0773 121.172 36.824V38.328H125.716V41.976H121.172V55H116.788ZM128.009 55V38.328H132.393V55H128.009ZM130.185 36.344C129.503 36.344 128.916 36.0987 128.425 35.608C127.935 35.1173 127.689 34.5307 127.689 33.848C127.689 33.144 127.935 32.5573 128.425 32.088C128.916 31.5973 129.503 31.352 130.185 31.352C130.889 31.352 131.476 31.5973 131.945 32.088C132.436 32.5573 132.681 33.144 132.681 33.848C132.681 34.5307 132.436 35.1173 131.945 35.608C131.476 36.0987 130.889 36.344 130.185 36.344ZM135.822 55V32.6L140.206 31.864V55H135.822ZM151.794 55.32C150.13 55.32 148.616 54.936 147.25 54.168C145.906 53.4 144.84 52.3653 144.05 51.064C143.261 49.7627 142.866 48.3013 142.866 46.68C142.866 45.0587 143.24 43.5973 143.986 42.296C144.754 40.9947 145.789 39.96 147.09 39.192C148.392 38.424 149.842 38.04 151.442 38.04C153.042 38.04 154.461 38.4347 155.698 39.224C156.936 40.0133 157.906 41.08 158.61 42.424C159.336 43.768 159.698 45.2933 159.698 47V48.152H147.346C147.538 48.8133 147.848 49.4107 148.274 49.944C148.722 50.4773 149.266 50.8933 149.906 51.192C150.568 51.4907 151.272 51.64 152.018 51.64C152.765 51.64 153.448 51.5227 154.066 51.288C154.706 51.0533 155.25 50.7227 155.698 50.296L158.578 52.92C157.554 53.752 156.498 54.36 155.41 54.744C154.344 55.128 153.138 55.32 151.794 55.32ZM147.282 45.016H155.378C155.229 44.3547 154.952 43.7787 154.546 43.288C154.162 42.776 153.693 42.3813 153.138 42.104C152.605 41.8053 152.008 41.656 151.346 41.656C150.664 41.656 150.045 41.7947 149.49 42.072C148.936 42.3493 148.466 42.744 148.082 43.256C147.72 43.7467 147.453 44.3333 147.282 45.016ZM162.384 55V38.328H166.768V40.184C167.302 39.4587 167.942 38.904 168.688 38.52C169.435 38.136 170.278 37.944 171.216 37.944C172.027 37.9653 172.635 38.0933 173.04 38.328V42.168C172.72 42.0187 172.368 41.912 171.984 41.848C171.6 41.7627 171.206 41.72 170.8 41.72C169.947 41.72 169.168 41.9333 168.464 42.36C167.76 42.7867 167.195 43.3947 166.768 44.184V55H162.384Z" fill="#407BFF"/>
</svg>
