<svg width="123" height="32" viewBox="0 0 123 32" fill="none" xmlns="http://www.w3.org/2000/svg">
<path d="M1.99585 21.8879C2.03486 22.0087 2.07387 22.0623 2.07387 22.0623L1.99585 21.8879Z" fill="#407BFF"/>
<path d="M26.9486 4.02599C26.9486 4.02599 26.3035 2.25456 20.7685 2.76452C15.1044 3.28789 10.3049 5.79742 7.4793 7.56885C4.66664 9.34027 1.80237 11.7693 0.138002 15.6074C-0.274866 16.5736 0.370239 18.0901 0.370239 18.0901L1.9959 21.8879C1.69916 21.123 0.98954 17.8485 7.94377 12.5879C8.97594 11.8095 10.3565 10.8165 14.5238 8.89742C14.9109 8.72296 15.298 8.5485 15.685 8.40088L15.6721 30.9866H21.0781L21.0652 6.93811C22.536 6.70997 23.6327 6.69655 24.0972 6.69655C27.4388 6.69655 28.6258 8.10564 29 8.80348L26.9486 4.02599Z" fill="#407BFF"/>
<path d="M22.2651 13.4737L22.278 18.4256C22.278 18.4256 24.4456 17.607 27.2841 14.3728C28.2259 13.2992 28.6646 11.8498 28.5743 10.8299C28.4452 9.4611 28.1485 8.69617 26.5744 8.28015C25.7229 10.6286 22.2651 13.4737 22.2651 13.4737Z" fill="#407BFF"/>
<path d="M3.42803 19.5261C2.96355 20.6265 2.87324 21.633 3.36352 22.5455C3.72478 23.2165 4.34408 23.8741 5.42786 24.1023C6.73097 24.3841 7.86635 24.3036 7.86635 24.3036V19.9689C7.86635 19.9689 6.44712 19.9421 5.33754 19.9421C4.61502 19.9555 4.04733 19.6334 3.42803 19.5261Z" fill="#407BFF"/>
<path d="M8.92432 13.2723V30.9732L14.3561 31L14.369 10.2931C12.4079 11.2325 11.0661 11.8766 8.92432 13.2723Z" fill="#407BFF"/>
<path d="M14.3304 2.87186L14.3433 0H8.9502V5.40823C10.4855 4.56277 11.7241 3.81126 14.3304 2.87186Z" fill="#407BFF"/>
<path d="M38.5979 31V14.2H47.0219C48.1259 14.2 49.0939 14.424 49.9259 14.872C50.7739 15.32 51.4379 15.944 51.9179 16.744C52.3979 17.528 52.6379 18.44 52.6379 19.48C52.6379 20.472 52.3979 21.36 51.9179 22.144C51.4379 22.928 50.7739 23.544 49.9259 23.992C49.0779 24.44 48.1099 24.664 47.0219 24.664H42.0779V31H38.5979ZM42.0779 21.784H46.6379C47.3899 21.784 47.9899 21.576 48.4379 21.16C48.9019 20.744 49.1339 20.192 49.1339 19.504C49.1339 18.8 48.9019 18.24 48.4379 17.824C47.9899 17.408 47.3899 17.2 46.6379 17.2H42.0779V21.784ZM54.6944 31V18.496H57.9824V19.888C58.3824 19.344 58.8624 18.928 59.4224 18.64C59.9824 18.352 60.6144 18.208 61.3184 18.208C61.9264 18.224 62.3824 18.32 62.6864 18.496V21.376C62.4464 21.264 62.1824 21.184 61.8944 21.136C61.6064 21.072 61.3104 21.04 61.0064 21.04C60.3664 21.04 59.7824 21.2 59.2544 21.52C58.7264 21.84 58.3024 22.296 57.9824 22.888V31H54.6944ZM70.0951 31.24C68.8471 31.24 67.7191 30.952 66.7111 30.376C65.7031 29.8 64.9031 29.024 64.3111 28.048C63.7191 27.072 63.4231 25.976 63.4231 24.76C63.4231 23.544 63.7111 22.448 64.2871 21.472C64.8791 20.48 65.6791 19.696 66.6871 19.12C67.7111 18.544 68.8471 18.256 70.0951 18.256C71.3431 18.256 72.4711 18.544 73.4791 19.12C74.5031 19.696 75.3031 20.48 75.8791 21.472C76.4711 22.448 76.7671 23.544 76.7671 24.76C76.7671 25.976 76.4711 27.072 75.8791 28.048C75.3031 29.024 74.5111 29.8 73.5031 30.376C72.4951 30.952 71.3591 31.24 70.0951 31.24ZM70.0951 28.384C70.7511 28.384 71.3351 28.224 71.8471 27.904C72.3751 27.584 72.7911 27.152 73.0951 26.608C73.4151 26.048 73.5751 25.432 73.5751 24.76C73.5751 24.072 73.4151 23.456 73.0951 22.912C72.7911 22.368 72.3751 21.936 71.8471 21.616C71.3351 21.28 70.7511 21.112 70.0951 21.112C69.4551 21.112 68.8711 21.28 68.3431 21.616C67.8151 21.936 67.3991 22.368 67.0951 22.912C66.7911 23.456 66.6391 24.072 66.6391 24.76C66.6391 25.432 66.7911 26.048 67.0951 26.608C67.3991 27.152 67.8151 27.584 68.3431 27.904C68.8711 28.224 69.4551 28.384 70.0951 28.384ZM80.216 31V21.232H77.432V18.496H80.216V17.296C80.216 15.888 80.624 14.816 81.44 14.08C82.256 13.328 83.432 12.952 84.968 12.952C85.304 12.952 85.648 12.968 86 13C86.352 13.032 86.656 13.088 86.912 13.168V15.928C86.608 15.864 86.344 15.816 86.12 15.784C85.896 15.752 85.648 15.736 85.376 15.736C84.752 15.736 84.28 15.872 83.96 16.144C83.656 16.4 83.504 16.808 83.504 17.368V18.496H86.912V21.232H83.504V31H80.216ZM88.6319 31V18.496H91.9199V31H88.6319ZM90.2639 17.008C89.7519 17.008 89.3119 16.824 88.9439 16.456C88.5759 16.088 88.3919 15.648 88.3919 15.136C88.3919 14.608 88.5759 14.168 88.9439 13.816C89.3119 13.448 89.7519 13.264 90.2639 13.264C90.7919 13.264 91.2319 13.448 91.5839 13.816C91.9519 14.168 92.1359 14.608 92.1359 15.136C92.1359 15.648 91.9519 16.088 91.5839 16.456C91.2319 16.824 90.7919 17.008 90.2639 17.008ZM94.4913 31V14.2L97.7793 13.648V31H94.4913ZM106.471 31.24C105.223 31.24 104.087 30.952 103.063 30.376C102.055 29.8 101.255 29.024 100.663 28.048C100.071 27.072 99.7747 25.976 99.7747 24.76C99.7747 23.544 100.055 22.448 100.615 21.472C101.191 20.496 101.967 19.72 102.943 19.144C103.919 18.568 105.007 18.28 106.207 18.28C107.407 18.28 108.471 18.576 109.399 19.168C110.327 19.76 111.055 20.56 111.583 21.568C112.127 22.576 112.399 23.72 112.399 25V25.864H103.135C103.279 26.36 103.511 26.808 103.831 27.208C104.167 27.608 104.575 27.92 105.055 28.144C105.551 28.368 106.079 28.48 106.639 28.48C107.199 28.48 107.711 28.392 108.175 28.216C108.655 28.04 109.063 27.792 109.399 27.472L111.559 29.44C110.791 30.064 109.999 30.52 109.183 30.808C108.383 31.096 107.479 31.24 106.471 31.24ZM103.087 23.512H109.159C109.047 23.016 108.839 22.584 108.535 22.216C108.247 21.832 107.895 21.536 107.479 21.328C107.079 21.104 106.631 20.992 106.135 20.992C105.623 20.992 105.159 21.096 104.743 21.304C104.327 21.512 103.975 21.808 103.687 22.192C103.415 22.56 103.215 23 103.087 23.512ZM114.413 31V18.496H117.701V19.888C118.101 19.344 118.581 18.928 119.141 18.64C119.701 18.352 120.333 18.208 121.037 18.208C121.645 18.224 122.101 18.32 122.405 18.496V21.376C122.165 21.264 121.901 21.184 121.613 21.136C121.325 21.072 121.029 21.04 120.725 21.04C120.085 21.04 119.501 21.2 118.973 21.52C118.445 21.84 118.021 22.296 117.701 22.888V31H114.413Z" fill="#407BFF"/>
</svg>
