<svg width="20" height="44" viewBox="0 0 20 44" fill="none" xmlns="http://www.w3.org/2000/svg">
<path d="M20 37.0995V10.0169C20 7.36023 18.9464 4.8124 17.0711 2.93387C15.1957 1.05535 12.6522 0 10 0C7.34784 0 4.8043 1.05535 2.92893 2.93387C1.05357 4.8124 0 7.36023 0 10.0169V15.0759H2.22222V10.0169C2.22222 7.95059 3.04166 5.96895 4.50028 4.50787C5.9589 3.04679 7.9372 2.22597 10 2.22597C12.0628 2.22597 14.0411 3.04679 15.4997 4.50787C16.9583 5.96895 17.7778 7.95059 17.7778 10.0169V37.0995C17.7778 39.6779 15.6111 41.774 12.963 41.774C10.3148 41.774 8.14815 39.6779 8.14815 37.0995V10.3879C8.14815 9.89589 8.34325 9.42407 8.69054 9.07619C9.03783 8.72831 9.50886 8.53288 10 8.53288C10.4911 8.53288 10.9622 8.72831 11.3095 9.07619C11.6567 9.42407 11.8519 9.89589 11.8519 10.3879V31.1636C11.8519 31.4588 11.9689 31.7418 12.1773 31.9506C12.3857 32.1593 12.6683 32.2766 12.963 32.2766C13.2576 32.2766 13.5403 32.1593 13.7486 31.9506C13.957 31.7418 14.0741 31.4588 14.0741 31.1636V10.3879C14.0741 9.30552 13.6448 8.26752 12.8808 7.50219C12.1168 6.73687 11.0805 6.30691 10 6.30691C8.91949 6.30691 7.88323 6.73687 7.11919 7.50219C6.35516 8.26752 5.92593 9.30552 5.92593 10.3879V37.0995C5.92593 40.9022 9.07407 44 12.963 44C16.8519 44 20 40.9022 20 37.0995Z" fill="#BFBFCD"/>
</svg>
