<svg width="21" height="15" viewBox="0 0 21 15" fill="none" xmlns="http://www.w3.org/2000/svg">
<g clip-path="url(#clip0_123_3049)">
<path d="M0 0H21V15H0V0Z" fill="#00008B"/>
<path d="M17.2922 12.3969L16.6195 12.4781L16.6917 13.1188L16.2061 12.6688L15.7238 13.1219L15.7894 12.4813L15.1167 12.4063L15.6844 12.0563L15.3267 11.5094L15.9699 11.7125L16.1963 11.1031L16.4292 11.7094L17.0691 11.5L16.718 12.05L17.2889 12.3969H17.2922ZM17.1708 8.73439L17.2594 8.32814L16.9378 8.04689L17.3709 8.00001L17.5514 7.62189L17.7319 8.00001L18.165 8.04689L17.8434 8.32814L17.932 8.73439L17.5514 8.52814L17.1708 8.73439V8.73439ZM13.755 6.85939L13.0889 6.92814L13.148 7.56251L12.6755 7.10939L12.1899 7.55001L12.2686 6.91564L11.6058 6.83126L12.1734 6.49376L11.8289 5.94689L12.4622 6.15939L12.6984 5.56251L12.9183 6.16564L13.5549 5.96876L13.1972 6.50939L13.7583 6.85939H13.755ZM20.4422 5.83439L19.7564 5.91876L19.8319 6.57189L19.3364 6.11251L18.8442 6.57501L18.9131 5.91876L18.2274 5.84376L18.8081 5.48439L18.4439 4.92501L19.1002 5.13439L19.3299 4.51564L19.5661 5.13439L20.2191 4.91876L19.8581 5.48126L20.4422 5.83439ZM17.2889 3.22501L16.6097 3.29689L16.672 3.94689L16.1897 3.48439L15.6942 3.93439L15.773 3.28751L15.0938 3.20001L15.6745 2.85626L15.3234 2.29689L15.9699 2.51251L16.2094 1.90314L16.4325 2.51876L17.0822 2.31564L16.718 2.86564L17.2889 3.22501V3.22501ZM7.67813 12.0531L6.17532 12.2219L6.32626 13.6563L5.25001 12.6438L4.1672 13.65L4.32798 12.2156L2.82516 12.0344L4.10157 11.2594L3.31407 10.0281L4.7447 10.4969L5.26313 9.14064L5.77173 10.5L7.20563 10.0406L6.40829 11.2656L7.68141 12.05L7.67813 12.0531Z" fill="white"/>
<path d="M1.23047 0L5.23359 2.82812L9.22031 0H10.5V0.96875L6.5625 3.76562L10.5 6.54688V7.5H9.1875L5.25 4.70312L1.32891 7.5H0V6.5625L3.92109 3.78125L0 1V0H1.23047Z" fill="white"/>
<path d="M6.95625 4.39062L10.5 6.875V7.5L6.05391 4.39062H6.95625ZM3.9375 4.70312L4.03594 5.25L0.885937 7.5H0L3.9375 4.70312ZM10.5 0V0.046875L6.41484 2.98438L6.44766 2.29688L9.67969 0H10.5ZM0 0L3.92109 2.75H2.93672L0 0.65625V0Z" fill="#FF0000"/>
<path d="M3.95391 0V7.5H6.57891V0H3.95391ZM0 2.5V5H10.5V2.5H0Z" fill="white"/>
<path d="M0 3.01562V4.51562H10.5V3.01562H0ZM4.47891 0V7.5H6.05391V0H4.47891Z" fill="#FF0000"/>
</g>
<defs>
<clipPath id="clip0_123_3049">
<rect width="21" height="15" rx="3" fill="white"/>
</clipPath>
</defs>
</svg>
