<svg width="21" height="15" viewBox="0 0 21 15" fill="none" xmlns="http://www.w3.org/2000/svg">
<g clip-path="url(#clip0_237_2394)">
<rect width="21" height="15" rx="3" fill="#F93939"/>
<path d="M3.5 15.0832H18.6667C19.2855 15.0832 19.879 14.8373 20.3166 14.3998C20.7542 13.9622 21 13.3687 21 12.7498V10.4165H3.5V15.0832Z" fill="#4AA657"/>
<path d="M18.6667 -0.0834961H3.5V10.4165H21V2.24984C21 1.631 20.7542 1.03751 20.3166 0.599921C19.879 0.162336 19.2855 -0.0834961 18.6667 -0.0834961Z" fill="#C8313E"/>
<path d="M2.33333 -0.0834961C1.71449 -0.0834961 1.121 0.162336 0.683417 0.599921C0.245833 1.03751 0 1.631 0 2.24984L0 12.7498C0 13.3687 0.245833 13.9622 0.683417 14.3998C1.121 14.8373 1.71449 15.0832 2.33333 15.0832H3.5V-0.0834961H2.33333Z" fill="white"/>
<path d="M0.446888 14.0262L0.811471 13.3793L1.18539 14.0448L0.869221 14.5529C0.968687 14.6341 1.07484 14.7067 1.18655 14.7699L1.64855 13.9317L0.820221 12.604L0.168638 13.6108C0.275388 13.8792 0.431721 14.1195 0.624221 14.3283L0.446888 14.0262ZM3.48897 13.9731L2.61572 12.6769L1.73955 13.9433L2.48972 15.0832H2.86714L3.48897 13.9731ZM2.64139 13.3787L3.0153 14.0443L2.64139 14.6457L2.2768 14.0262L2.64139 13.3787ZM3.50005 7.69409V7.17259L3.31747 7.42692L3.50005 7.69409ZM1.64797 1.09834L1.12647 0.261837C0.669803 0.539421 0.322692 0.965841 0.143555 1.46934L0.893138 2.46859L1.64797 1.09834ZM0.446888 1.19284L0.811471 0.545921L1.18539 1.2115L0.811471 1.81234L0.446888 1.19284ZM2.6933 2.55959L3.48897 1.13917L2.6653 -0.0834961H2.56555L1.74014 1.11L2.6933 2.55959ZM3.01472 1.21092L2.64139 1.81234L2.2768 1.19284L2.64139 0.545921L3.01472 1.21092Z" fill="#C8313E"/>
<path d="M2.88925 5.74967L3.39967 4.90209L3.5 4.94642V4.58301L2.67983 3.30667L1.69517 4.67401L0.820167 3.27051L0 4.53809V4.91726L0.501083 5.74967L0.856333 5.22992L0.601417 4.87467L0.79275 4.61917L1.34867 5.33901L0.5285 6.68767L0 5.96026V6.86617L0.0338333 6.82126L0.58975 7.54109L0 8.51176V9.19834L0.5285 8.47034L1.34867 9.81901L0.887833 10.4163L0.79275 10.5394L0.700583 10.4163L0.601417 10.2839L0.856917 9.92867L0.501667 9.40893L0 10.2419V10.5773L0.838833 11.8566L1.6555 10.4163L1.68642 10.3615L1.72025 10.4163L2.66175 11.9383L3.5 10.4525V10.2244L3.42708 10.2571L2.91667 9.40893L2.56083 9.92867L2.81633 10.2839L2.71717 10.4163L2.625 10.5394L2.52992 10.4163L2.06908 9.81959L2.88925 8.47093L3.5 9.31151V8.64534L2.82508 7.53584L3.381 6.81601L3.5 6.97467V5.80976L2.86183 6.68884L2.04167 5.33959L2.59758 4.61976L2.78892 4.87467L2.53342 5.22992L2.88925 5.74967ZM2.49958 6.93442V8.05909L1.68583 9.34418L0.919333 8.05384V6.94084L1.68583 5.64992L2.49958 6.93442Z" fill="#C8313E"/>
<path d="M1.18521 6.81336L1.53404 7.44978L1.18521 8.08619L1.44071 8.22619L1.70029 7.75311L1.95987 8.22619L2.21537 8.08619L1.86654 7.44978L2.21537 6.81336L1.95987 6.67336L1.70029 7.14644L1.44071 6.67336L1.18521 6.81336ZM0.015625 12.2763L0.380208 12.8958L0.754125 12.2944L0.380208 11.6288L0.015625 12.2763ZM0.899958 12.2763L1.26454 12.8958L1.63787 12.2944L1.26454 11.6288L0.899958 12.2763ZM1.76562 12.2763L2.13021 12.8958L2.50412 12.2944L2.13021 11.6288L1.76562 12.2763ZM2.69429 12.2763L3.05887 12.8958L3.43221 12.2944L3.05887 11.6288L2.69429 12.2763ZM0.015625 2.90619L0.380208 3.52628L0.754125 2.92428L0.380208 2.25928L0.015625 2.90619ZM0.899958 2.90619L1.26454 3.52628L1.63787 2.92428L1.26454 2.25928L0.899958 2.90619ZM1.76562 2.90619L2.13021 3.52628L2.50412 2.92428L2.13021 2.25928L1.76562 2.90619ZM2.69429 2.90619L3.05887 3.52628L3.43221 2.92428L3.05887 2.25928L2.69429 2.90619Z" fill="#C8313E"/>
</g>
<defs>
<clipPath id="clip0_237_2394">
<rect width="21" height="15" rx="3" fill="white"/>
</clipPath>
</defs>
</svg>
