<svg width="21" height="15" viewBox="0 0 21 15" fill="none" xmlns="http://www.w3.org/2000/svg">
<g clip-path="url(#clip0_974_13129)">
<rect width="21" height="15" rx="3" fill="#249F58"/>
<path fill-rule="evenodd" clip-rule="evenodd" d="M0 0H21V15H0V0Z" fill="#BE0027"/>
<path fill-rule="evenodd" clip-rule="evenodd" d="M0 15L21 14.9906V7.5L0 15Z" fill="#B4D7F4"/>
<path fill-rule="evenodd" clip-rule="evenodd" d="M0 0L21 0.009375V7.5L0 0Z" fill="#239E46"/>
<path fill-rule="evenodd" clip-rule="evenodd" d="M6.11004 11.2625C5.75895 11.3562 5.55879 11.6156 5.56207 11.8594L7.29457 11.8531C7.3077 11.5906 7.08129 11.3469 6.73676 11.25C8.42988 11.2188 9.89988 10.6125 10.1689 10.225C9.90645 10.1156 9.59801 10.2906 9.38145 10.25C9.8966 10.0219 11.4486 9.06562 11.196 8.04062C10.9991 8.60937 10.4085 9.08125 10.1525 9.20938C10.7333 8.37188 11.5241 7.49688 10.8383 6.82188C10.8711 7.2125 10.5758 7.64375 10.4446 7.67812C10.7825 6.79062 11.1008 5.67813 10.3757 4.94688C10.4708 5.2125 10.4314 5.95938 10.3002 5.99375C10.2608 5.39062 10.1525 4.125 9.48645 4.14062C9.69645 4.32187 9.78832 4.80937 9.79488 5.30312C9.65951 4.9614 9.418 4.66707 9.10254 4.45937C8.77329 3.91701 8.30472 3.46322 7.74082 3.14062C7.79988 3.5375 7.8491 3.85 8.42988 4.2625C8.12801 4.24375 7.82613 3.69688 7.50129 3.68125C7.24207 3.66875 7.04191 3.90312 6.61863 3.76875C6.66457 3.9 6.86145 3.95938 6.9041 4.05625C6.81223 4.11875 6.59895 4.04688 6.42176 3.9625C6.66785 4.275 7.0452 4.4625 7.36676 4.4C7.75066 4.33125 8.16082 4.36875 8.55457 4.58125C8.31165 4.62966 8.06157 4.63601 7.81629 4.6C8.0427 4.81875 8.19363 4.96563 8.59066 4.9625C8.94176 4.9625 9.12879 4.78125 9.21738 4.89375C9.44051 5.14375 9.58816 5.39375 9.7752 5.6875C9.36504 5.72813 9.48973 5.24688 9.03363 5C8.77441 5.5 9.32895 6.1 9.69973 6.35C9.68921 6.69156 9.76934 7.03014 9.9327 7.33437C10.0475 7.5375 10.1952 7.74688 10.1394 8.20625C9.91301 8.05 9.69645 7.525 9.77848 7.10938C9.49629 7.18125 9.38473 7.65312 9.51598 7.89062C9.61441 8.06875 9.68004 8.41563 9.56848 8.56875C9.45691 8.7125 9.44707 8.69375 9.44707 9.00625C9.45035 9.1875 9.34207 9.40625 9.16816 9.55937C9.21908 9.39948 9.23142 9.2307 9.20426 9.06563C9.06645 9.29063 8.71535 9.52187 8.60707 9.76562C8.49879 10.0062 8.47254 10.4281 7.95082 10.525C7.27488 10.65 7.04191 10.7625 6.61207 10.9312C6.56285 10.6187 6.70723 9.9625 6.98285 10.0031C7.24863 10.0469 8.06566 9.73438 7.77035 9.08125C7.71457 9.2875 7.52426 9.4875 7.31426 9.49687C7.54066 9.22187 7.9377 8.93438 7.7441 8.47188C7.6269 8.70482 7.44106 8.90026 7.20926 9.03438C7.48488 8.53438 7.24207 8.37813 6.91395 8.79688C6.78926 8.95625 6.71379 9.27812 6.63504 9.6875C6.50379 9.35625 6.51363 8.91875 6.35941 8.5625C6.20191 8.17812 6.5727 8.07812 6.7466 8.10938C7.17316 8.21875 7.89176 8.21875 7.83926 7.54375C7.65223 7.77187 7.33066 7.84062 6.97957 7.7625C7.37332 7.4875 7.68176 6.97187 7.24207 6.7C7.22241 6.85947 7.16144 7.01178 7.06465 7.14324C6.96785 7.2747 6.83826 7.38119 6.68754 7.45312C6.61708 7.19953 6.61369 6.93327 6.6777 6.67812C6.50707 6.85312 6.38238 7.20937 6.28066 7.62187C6.27082 7.21562 6.35285 6.925 6.41191 6.70625C6.50379 6.39063 6.72691 6.59688 7.06816 6.61875C7.40285 6.6375 7.85566 6.4625 7.77035 6.03438C7.65879 6.20625 7.42582 6.27188 7.18957 6.25313C7.47504 6.0875 7.97051 5.79688 7.69816 5.34688C7.58332 5.51563 7.54723 5.65938 7.21582 5.7125C7.30113 5.525 7.31426 5.25313 7.57676 5.15C7.11738 5.05938 6.85488 5.34687 6.71707 5.79688C6.66457 5.48438 6.59895 5.37188 6.58582 5.14062C6.8352 4.88125 6.86145 4.36563 6.32332 4.25313C6.28806 4.43464 6.3016 4.62169 6.3627 4.79688C6.11004 4.65313 5.75566 4.575 5.51613 4.775C5.6802 4.94063 5.92629 5.0875 6.3102 4.90625C6.21832 5.1875 5.98207 5.14062 5.66051 5.03125C5.85738 5.38438 6.10676 5.44688 6.38238 5.40625C6.52676 5.76875 6.53332 6.04375 6.11004 6.56875C6.12973 6.24375 6.10676 6 5.83441 5.73438C5.59816 5.51562 5.40785 5.74375 5.77535 6.22813C5.55223 6.07188 5.30285 5.75937 5.22738 5.44375C5.1552 5.83125 5.22082 6.29063 5.44723 6.55C5.33895 6.65938 5.21754 6.5375 5.03707 6.26875C5.1027 7.125 5.4866 7.29063 6.00176 7.1C6.01488 7.56875 6.01488 8.00313 6.04441 8.56875C5.74582 8.15625 5.3652 7.85 5.1552 7.775C5.08957 8.00313 5.33566 8.30625 5.47676 8.47188C5.26348 8.42813 4.8041 8.09688 4.8041 8.09688C4.75816 8.475 5.27332 8.82812 5.60801 8.98438C5.21426 8.96875 5.04035 8.82812 4.7877 8.59688C4.79426 9.65313 5.98863 9.46875 6.21504 9.30625L6.31348 10.9469C5.97551 10.8906 6.00176 10.7906 5.71301 10.7688C4.9091 10.7375 4.27254 9.85 4.06254 9.19687C4.0002 9.30312 4.04941 9.41563 3.99363 9.55C3.86238 9.22813 3.69832 8.8125 3.47191 8.61875C3.53098 8.80625 3.53754 8.99688 3.51785 9.34688C3.4391 9.12188 3.3702 9.05 3.36363 8.78438C3.36691 8.58125 3.57035 8.43125 3.56051 8.14375C3.55066 7.93438 3.35051 7.47813 3.32098 7.12813C3.22254 7.49063 3.16348 7.87188 3.01254 8.09688C3.08801 7.70938 3.06504 7.44063 3.18973 7.18125C3.3341 6.90938 3.45551 6.6625 3.36035 6.3875C3.26848 6.49375 3.29801 6.59062 3.06504 6.85C3.01582 6.56875 3.36691 6.11562 3.70816 5.93437C3.9477 5.81562 4.24957 5.38437 4.0527 5.09062C3.82629 5.24687 3.72457 5.45312 3.40629 5.80937C3.63598 4.96562 4.2266 4.74063 4.93207 4.7375C5.08629 4.7375 5.40129 4.68438 5.48988 4.4875C5.29301 4.55938 5.05676 4.56875 4.84676 4.53125C5.00098 4.31562 5.31926 4.34375 5.62113 4.34375C5.8541 4.34375 6.2216 4.3125 6.36926 3.99375C6.04502 4.11419 5.68933 4.13495 5.35207 4.05312C5.8016 3.83437 6.50051 3.80937 6.86145 3.51875C6.45129 3.22812 5.42754 3.5875 4.78113 4.00938C4.9616 3.85313 5.24707 3.57187 5.40457 3.34687C5.0502 3.18437 4.1577 4.12813 3.84926 4.69063C3.55395 4.84688 3.4391 5.09688 3.32426 5.26875C3.47848 4.76563 3.49488 4.4 3.62613 3.9875C2.62535 4.3125 3.03879 6.08125 2.82223 6.50625C2.84848 6.0375 2.82551 5.44062 2.62535 5.13125C2.31691 5.35625 2.29066 6.67812 2.57941 7.77812C2.47441 7.48438 2.27754 7.20937 2.2152 6.85C1.75582 7.64375 2.48426 8.58437 3.09129 9.325C2.63191 9.09687 2.18238 8.60938 1.88379 8.2C1.96582 9.625 3.52441 9.91875 3.76723 10.2688C3.4391 10.1219 2.81238 9.83437 2.54332 10.1375C2.91711 10.2035 3.27584 10.3315 3.60316 10.5156C4.01004 10.9969 4.77457 11.2094 6.11004 11.2625Z" fill="#F3E295"/>
</g>
<defs>
<clipPath id="clip0_974_13129">
<rect width="21" height="15" rx="3" fill="white"/>
</clipPath>
</defs>
</svg>
