<svg width="21" height="15" viewBox="0 0 21 15" fill="none" xmlns="http://www.w3.org/2000/svg">
<g clip-path="url(#clip0_123_3125)">
<path d="M0 0V15H21V0H0Z" fill="#68BFE5"/>
<path d="M13.8107 6.03745V10.2999C13.8107 11.6937 16.4554 12.5187 16.4554 12.5187C16.4554 12.5187 19.0968 11.6937 19.0968 10.2999V6.03745H13.8107Z" fill="white"/>
<path d="M16.088 7.53741V9.45616H13.8108V10.153H16.088V12.3874L16.4555 12.5218L16.8197 12.3874V10.1562H19.0969V9.45616H16.8197V7.53741H16.088Z" fill="#D21034"/>
<path d="M13.8107 6.03745H19.0968V7.68745H13.8075L13.8107 6.03745Z" fill="#D21034"/>
<path d="M14.2337 7.26874C14.3976 7.26874 14.5304 7.16641 14.5304 7.04019C14.5304 6.91397 14.3976 6.81165 14.2337 6.81165C14.0699 6.81165 13.937 6.91397 13.937 7.04019C13.937 7.16641 14.0699 7.26874 14.2337 7.26874Z" fill="white" stroke="black" stroke-width="0.044047" stroke-miterlimit="3"/>
<path d="M14.2338 7.04849C14.3795 7.04849 14.4977 6.99175 14.4977 6.92175C14.4977 6.85176 14.3795 6.79501 14.2338 6.79501C14.088 6.79501 13.9698 6.85176 13.9698 6.92175C13.9698 6.99175 14.088 7.04849 14.2338 7.04849Z" fill="white" stroke="black" stroke-width="0.044047" stroke-miterlimit="3"/>
<path d="M14.2338 7.30408C14.3795 7.30408 14.4977 7.24733 14.4977 7.17734C14.4977 7.10734 14.3795 7.0506 14.2338 7.0506C14.088 7.0506 13.9698 7.10734 13.9698 7.17734C13.9698 7.24733 14.088 7.30408 14.2338 7.30408Z" fill="white" stroke="black" stroke-width="0.044047" stroke-miterlimit="3"/>
<path d="M14.2338 7.16696C14.3795 7.16696 14.4977 7.11022 14.4977 7.04022C14.4977 6.97023 14.3795 6.91348 14.2338 6.91348C14.088 6.91348 13.9698 6.97023 13.9698 7.04022C13.9698 7.11022 14.088 7.16696 14.2338 7.16696Z" fill="white" stroke="black" stroke-width="0.044047" stroke-miterlimit="3"/>
<path d="M18.9657 7.35623L18.923 7.24373C18.923 7.24373 18.8049 7.19686 18.795 7.13748C18.7753 6.97811 18.7163 6.91873 18.6244 6.89373C18.5749 6.88038 18.5219 6.88598 18.4768 6.90936C18.4505 6.94686 18.3127 6.94686 18.2405 6.94998C18.165 6.94998 18.1618 6.91873 18.1618 6.91873C18.106 6.91873 18.0797 6.87811 18.0797 6.87811C18.0436 6.80623 18.0141 6.77811 17.9944 6.76873C18.0928 6.76873 18.165 6.72811 18.2766 6.61873C18.3947 6.49998 18.48 6.54373 18.48 6.54373C18.421 6.65623 18.4997 6.64686 18.4997 6.64686C18.6572 6.56873 18.5194 6.37498 18.4735 6.38436C18.4243 6.39373 18.4111 6.36248 18.4111 6.36248C18.4111 6.39686 18.3586 6.41248 18.3586 6.41248C18.398 6.19061 18.2602 6.13123 18.2602 6.13123C18.2405 6.14998 18.2274 6.19061 18.2274 6.19061C18.188 6.32498 18.06 6.30311 17.9157 6.23748C17.7713 6.17498 17.3907 6.30623 17.2693 6.35311C17.1478 6.39998 16.928 6.46873 16.7311 6.36561C16.5343 6.25936 16.485 6.27811 16.4063 6.29998C16.3308 6.31873 16.193 6.34998 16.1438 6.32498C16.1091 6.3083 16.0711 6.29872 16.0322 6.29686C16.0453 6.29061 16.0257 6.25936 16.0257 6.25936C15.9633 6.18123 16.0322 6.13436 16.0322 6.13436C16.0322 6.13436 15.9207 6.16561 15.9666 6.34686L15.9863 6.37186C15.9863 6.37186 15.9994 6.43123 16.0322 6.44686V6.45936C16.0322 6.45936 16.0618 6.44686 16.0683 6.48436C16.0782 6.52186 16.1208 6.48436 16.1372 6.45311C16.1372 6.45311 16.1077 6.62186 16.3243 6.66248C16.3243 6.66248 16.3013 6.63436 16.3078 6.61873C16.3177 6.59998 16.2816 6.58748 16.2849 6.56248C16.2882 6.53436 16.2324 6.52498 16.275 6.50311C16.321 6.48436 16.3407 6.44373 16.4391 6.49998C16.5343 6.55311 16.6097 6.54061 16.6097 6.54061C16.6097 6.54061 16.5507 6.42811 16.5835 6.42811C16.6163 6.42811 16.7607 6.59686 16.8296 6.59061C16.9018 6.58123 17.0396 6.50311 17.1085 6.53123C17.1085 6.53123 17.115 6.49998 17.3775 6.45623C17.64 6.41248 17.9682 6.28748 18.0896 6.39686C18.0896 6.39686 18.1027 6.48436 18.1552 6.50623C18.1552 6.50623 18.1453 6.68748 17.8205 6.58748L17.7024 6.55623C17.7024 6.55623 17.6827 6.50311 17.0625 6.65623C17.0625 6.65623 17.0264 6.66873 17.0002 6.68436C16.9772 6.69998 16.9444 6.67498 16.8197 6.71561C16.6983 6.76248 16.2389 6.90311 15.9568 6.85311C15.8944 6.83436 15.8386 6.84373 15.8353 6.83436C15.8353 6.82498 15.8682 6.83748 15.8682 6.83748C15.8485 6.81561 15.8386 6.81248 15.8386 6.81248C15.6024 6.78748 15.6418 6.68748 15.6418 6.68748L15.6549 6.71873C15.6943 6.66873 15.6418 6.55623 15.6418 6.55623H15.6385C15.6386 6.55311 15.6386 6.54998 15.6385 6.54686L15.6549 6.53436C15.7697 6.44061 15.901 6.42498 15.901 6.42498C15.8222 6.33123 15.6582 6.38123 15.6582 6.38123C15.6614 6.27186 15.6122 6.14061 15.6122 6.14061C15.5112 6.15641 15.4205 6.20909 15.3596 6.28748C15.353 6.17186 15.1988 6.10623 15.1988 6.10623C15.2578 6.17186 15.2218 6.33123 15.2218 6.33123H15.2283H15.2119L15.2086 6.36561H15.2021C15.2021 6.36561 15.1463 6.38436 15.0807 6.52811C15.0807 6.52811 15.0741 6.55936 15.0478 6.59061V6.57811C15.0478 6.57811 14.9724 6.67186 14.805 6.57811C14.805 6.57811 14.5753 6.44998 14.49 6.45311C14.4113 6.45936 14.3588 6.49373 14.3621 6.51561C14.3621 6.51561 14.175 6.50311 14.1127 6.60311C14.1127 6.60311 13.9716 6.65311 14.093 6.75936C14.093 6.75936 14.1094 6.80936 14.1422 6.83436C14.1422 6.83436 14.1389 6.73436 14.1652 6.76248L14.1816 6.78123C14.1849 6.79373 14.198 6.83123 14.221 6.85311L14.2407 6.84686C14.2407 6.82186 14.2472 6.79061 14.2538 6.77811H14.2603L14.2932 6.82811L14.326 6.80936C14.3457 6.80936 14.3686 6.82498 14.3686 6.82498L14.4113 6.79061C14.4539 6.79686 14.4671 6.71561 14.4671 6.71561C14.4843 6.71967 14.5021 6.72038 14.5196 6.7177C14.5371 6.71501 14.5538 6.70899 14.5688 6.69998C14.5885 6.76248 14.7394 6.83436 14.7394 6.83436H14.746L14.7263 6.84686C14.7952 6.89373 14.9232 6.88123 14.9232 6.88123C14.8707 6.89998 14.8772 6.99686 14.8772 6.99686C14.8444 7.00936 14.8444 7.03748 14.8444 7.03748C14.9494 7.07811 15.0183 7.04373 15.0183 7.04373C15.0249 7.07498 15.0183 7.08123 15.0183 7.08123C14.9757 7.16561 14.956 7.24998 14.956 7.24998H14.9593V7.25623C14.9593 7.25623 14.7722 7.31873 14.6935 7.40311C14.6935 7.40311 14.6836 7.37811 14.6607 7.37811C14.6377 7.37811 14.5688 7.32186 14.536 7.31248C14.5032 7.30311 14.4539 7.32186 14.4375 7.30623C14.4277 7.29373 14.4343 7.19373 14.4113 7.18123L14.3883 7.11873C14.3752 7.14998 14.3096 7.14373 14.3096 7.14373L14.2833 7.16248L14.2571 7.15936C14.2505 7.15936 14.2439 7.17498 14.2407 7.19061L14.2308 7.19998V7.18123C14.221 7.19061 14.1947 7.17811 14.1849 7.17811C14.1783 7.17811 14.1718 7.19061 14.1685 7.20623L14.1061 7.20936C14.0963 7.21561 14.1061 7.29061 14.1061 7.29061C14.0307 7.32811 14.0668 7.38748 14.0668 7.38748C14.1061 7.57498 14.4441 7.49061 14.4703 7.51561C14.4966 7.54061 14.5557 7.54686 14.5852 7.54686C14.618 7.54686 14.6541 7.61561 14.6968 7.62186C14.7394 7.62811 14.6968 7.56561 14.8969 7.52186C15.0971 7.47498 15.166 7.39686 15.166 7.39686C15.2283 7.38436 15.2447 7.31248 15.248 7.28436L15.2546 7.32811C15.2644 7.39373 15.2152 7.42186 15.2152 7.42186L15.3891 7.36873C15.458 7.35311 15.4482 7.29373 15.4482 7.29373C15.5138 7.47498 15.6352 7.48748 15.6352 7.48748C15.6582 7.41873 15.6549 7.39686 15.6549 7.39686H15.7107C15.7107 7.35623 15.6778 7.32811 15.6549 7.31561L15.7402 7.36248L15.773 7.35936C15.773 7.38748 15.8157 7.41248 15.8157 7.41248L15.8222 7.37498C15.8616 7.42498 15.9338 7.40623 15.9338 7.40623C15.9321 7.39779 15.9299 7.38944 15.9272 7.38123C16.0814 7.47186 16.3275 7.35623 16.3275 7.35623C16.3932 7.36873 16.403 7.33123 16.403 7.33123C16.4752 7.34061 16.4949 7.29061 16.4949 7.29061C16.6688 7.27811 16.7935 7.15936 16.7935 7.15936C16.8821 7.15311 16.8853 7.09373 16.8853 7.09373C16.8853 7.09373 16.9707 7.10936 17.056 7.00936C17.2528 6.74373 17.5416 6.88436 17.5416 6.88436L17.3743 6.89373C16.9313 6.89061 17.115 7.17498 17.115 7.17498H17.1413C17.1839 7.18123 17.3283 7.29061 17.2725 7.36873V7.37498C17.1807 7.49061 17.0166 7.38123 16.9674 7.28123C16.9214 7.18123 16.823 7.20311 16.823 7.20311C16.823 7.20311 16.5769 7.24373 16.6786 7.43123C16.6819 7.47811 16.7114 7.53123 16.8033 7.58123C16.8525 7.64998 17.0166 7.65623 17.1347 7.63123C17.1938 7.62498 17.4891 7.49998 17.4891 7.49998C17.5121 7.43748 17.5875 7.45311 17.6532 7.36248C17.7188 7.27498 17.558 7.24373 17.5219 7.19373C17.4891 7.14686 17.5318 7.15623 17.5318 7.15623C17.6761 7.22811 17.6893 6.99373 17.6893 6.99373C17.6935 7.03208 17.709 7.06851 17.734 7.09889C17.7589 7.12927 17.7923 7.15239 17.8303 7.16561C17.9058 7.09373 17.85 6.94061 17.85 6.94061C18.0371 7.25936 18.1486 7.20623 18.1486 7.20623C18.0502 7.14998 18.0994 7.06873 18.0994 7.06873C18.188 7.40623 18.5588 7.11248 18.5588 7.11248C18.5391 7.16248 18.5588 7.19061 18.5916 7.22186C18.6244 7.25311 18.6638 7.26561 18.6441 7.32498C18.6277 7.38123 18.4538 7.36873 18.4538 7.36873C18.4538 7.36873 18.2897 7.36248 18.3028 7.49373C18.3127 7.52498 18.421 7.53748 18.4669 7.52811C18.4669 7.52811 18.4472 7.53436 18.5096 7.54061H18.5818C18.6507 7.54061 18.7294 7.52811 18.7294 7.52811C18.8246 7.50936 18.8082 7.47811 18.8082 7.47811C18.9558 7.45311 18.9722 7.35936 18.9722 7.35936L18.9657 7.35623Z" fill="#FFD100" stroke="black" stroke-width="0.06625" stroke-miterlimit="3"/>
<path d="M14.0963 6.77184C14.0963 6.77184 14.1061 6.75621 14.1193 6.75309C14.1324 6.75309 14.1455 6.75934 14.1586 6.77809L14.1685 6.77184C14.1685 6.77184 14.1291 6.71559 14.1422 6.67809C14.1521 6.65934 14.1685 6.64684 14.1947 6.64371V6.63434C14.1619 6.64059 14.1422 6.65309 14.1357 6.67496C14.1321 6.68181 14.1299 6.68923 14.1291 6.69684C14.1291 6.71559 14.1357 6.73434 14.1455 6.74996C14.1379 6.74472 14.1285 6.74248 14.1193 6.74371C14.1135 6.74437 14.1081 6.74645 14.1035 6.74974C14.0989 6.75303 14.0953 6.75742 14.093 6.76246L14.0963 6.77184ZM18.7228 7.52184C18.6244 7.53746 18.4768 7.54371 18.4636 7.51559C18.4636 7.50934 18.4636 7.49059 18.5424 7.44059L18.5358 7.42496C18.4669 7.46871 18.4374 7.49684 18.4472 7.51871C18.4702 7.57496 18.6835 7.54371 18.7261 7.53746L18.7228 7.52184ZM16.8066 7.57496C16.7836 7.54371 16.7968 7.49684 16.8394 7.44059L16.823 7.43121C16.7771 7.49371 16.7672 7.54371 16.7902 7.58746L16.8066 7.57496Z" fill="black"/>
<path d="M16.6721 7.4312C16.6721 7.49058 16.718 7.5437 16.8 7.59058L16.8099 7.57495C16.7311 7.5312 16.6918 7.4812 16.6918 7.4312C16.6852 7.35308 16.7738 7.29058 16.7771 7.29058L16.7672 7.27808C16.7607 7.27808 16.6688 7.3437 16.6721 7.43433V7.4312ZM18.3783 7.45308C18.3521 7.4937 18.3619 7.54058 18.3619 7.54058H18.3783C18.3783 7.53745 18.3718 7.49683 18.3947 7.46245C18.4025 7.45234 18.4123 7.44382 18.4236 7.43738C18.4348 7.43094 18.4473 7.42671 18.4603 7.42495V7.40933C18.4243 7.41558 18.3947 7.4312 18.3816 7.45308H18.3783ZM14.4703 6.72183H14.4638V6.72808C14.4638 6.72808 14.4572 6.77808 14.431 6.79058C14.4247 6.79301 14.4176 6.79301 14.4113 6.79058L14.3686 6.7687C14.3621 6.76245 14.3555 6.75933 14.3424 6.76245C14.3371 6.75643 14.3332 6.74943 14.331 6.7419C14.3287 6.73436 14.3281 6.72646 14.3293 6.7187C14.3325 6.69683 14.3489 6.67495 14.3818 6.6562L14.3752 6.64683C14.3424 6.6687 14.3227 6.6937 14.3194 6.7187C14.3194 6.74995 14.3358 6.7687 14.3358 6.7687V6.77183H14.3424C14.3522 6.7687 14.3522 6.77183 14.3621 6.77808L14.408 6.80308H14.4408C14.4638 6.78745 14.4736 6.7437 14.4736 6.73433C14.5786 6.7562 14.6639 6.6312 14.6705 6.62808L14.6607 6.62183C14.6607 6.62183 14.5721 6.74683 14.4703 6.72183Z" fill="black"/>
<path d="M14.2111 6.70306C14.2077 6.72471 14.2123 6.74682 14.2242 6.76556C14.2341 6.78118 14.2472 6.79056 14.257 6.79368C14.2734 6.79368 14.2833 6.78431 14.2964 6.77493C14.303 6.76868 14.3095 6.76243 14.3161 6.76243L14.3259 6.76868L14.3325 6.76243L14.3161 6.75306C14.3062 6.75306 14.2964 6.75931 14.2898 6.76868C14.2833 6.77806 14.2702 6.78431 14.257 6.78431C14.2505 6.78431 14.2406 6.77493 14.2308 6.75931C14.2255 6.75154 14.2218 6.74283 14.2202 6.7337C14.2185 6.72457 14.2187 6.71521 14.2209 6.70618C14.2341 6.66243 14.2898 6.62806 14.2898 6.62806L14.2866 6.61868C14.2833 6.61868 14.2242 6.65618 14.2111 6.70306V6.70306ZM14.0667 7.34993C14.07 7.33118 14.0864 7.31868 14.1094 7.30618C14.1028 7.30618 14.1291 7.32493 14.152 7.32493L14.1684 7.31556C14.175 7.32181 14.2144 7.35618 14.2144 7.39993C14.2144 7.40931 14.2144 7.41868 14.2078 7.42806L14.2177 7.43118C14.2472 7.36556 14.1717 7.30618 14.1717 7.30618H14.1652L14.152 7.31556C14.1323 7.31556 14.1094 7.29681 14.1094 7.29681C14.0766 7.30931 14.0634 7.32806 14.0569 7.34681L14.0667 7.34993ZM14.4047 7.18118C14.3817 7.18431 14.3227 7.19368 14.303 7.22493C14.2964 7.23743 14.2931 7.24993 14.2997 7.26243L14.3062 7.28118C14.3259 7.33118 14.3456 7.38118 14.3686 7.39368L14.3719 7.38431C14.3522 7.37493 14.3325 7.32181 14.3161 7.27806L14.3095 7.25931C14.3066 7.25456 14.3051 7.24917 14.3051 7.24368C14.3051 7.2382 14.3066 7.23281 14.3095 7.22806C14.3259 7.20618 14.3817 7.19681 14.408 7.19368C14.4211 7.19368 14.4244 7.24056 14.4277 7.26868H14.4375C14.4342 7.22493 14.4277 7.18118 14.4047 7.18118V7.18118Z" fill="black"/>
<path d="M14.2373 7.23121C14.2242 7.24058 14.2275 7.25621 14.2275 7.25933C14.2275 7.26246 14.2341 7.38433 14.2931 7.40933L14.2964 7.39996C14.2439 7.37808 14.2373 7.25933 14.2373 7.25621C14.2373 7.25621 14.2373 7.24371 14.2439 7.23746C14.2537 7.23121 14.2701 7.22808 14.2964 7.23746L14.2997 7.22808C14.2701 7.21871 14.2505 7.22183 14.2373 7.22808V7.23121Z" fill="black"/>
<path d="M14.1881 7.24054C14.1619 7.25929 14.1652 7.30929 14.1652 7.31241H14.175C14.175 7.31241 14.175 7.26241 14.1947 7.24991C14.2045 7.24366 14.2144 7.24366 14.2275 7.24991L14.2308 7.23741C14.2144 7.23116 14.198 7.23116 14.1881 7.23741V7.24054Z" fill="black"/>
<path d="M15.6322 6.56852C15.6322 6.56852 15.6605 6.63085 15.6605 6.67864C15.6605 6.68695 15.6562 6.69318 15.654 6.69941L15.6431 6.6724L15.6365 6.69318C15.6365 6.69318 15.6234 6.72227 15.6431 6.75343C15.6693 6.79499 15.7347 6.81992 15.8394 6.83031V6.83239C15.8364 6.83234 15.8334 6.83306 15.8307 6.83446L15.8263 6.83862V6.84693C15.8307 6.85732 15.8416 6.85732 15.8656 6.85732L15.8809 6.8594L15.894 6.86355L15.8918 6.86147C15.9136 6.86147 15.942 6.86771 15.9703 6.87809L15.9485 6.88225L15.9725 6.89264C15.9747 6.89264 16.1623 6.96536 16.2386 7.02353C16.2168 7.04223 16.123 7.10664 15.9616 7.06924L15.9354 7.06301L15.9529 7.08379C15.9529 7.08379 16.0598 7.20014 16.0816 7.27078C16.0445 7.27078 15.9027 7.27078 15.8525 7.22922L15.8416 7.23961C15.8416 7.23961 15.907 7.33519 15.9245 7.40791C15.9027 7.41206 15.8591 7.41414 15.8307 7.37882L15.8176 7.36427L15.8111 7.40583C15.798 7.39544 15.7805 7.38297 15.7805 7.36635V7.35804L15.7412 7.36427L15.6584 7.31649C15.6541 7.31353 15.6498 7.31076 15.6453 7.30818L15.6365 7.32272L15.6496 7.32895C15.6671 7.34142 15.6976 7.36427 15.6998 7.39752H15.6474V7.40791C15.6474 7.41414 15.6474 7.43699 15.6278 7.48478C15.6038 7.48062 15.5122 7.44946 15.4576 7.30194L15.4402 7.3061V7.31025C15.4402 7.3248 15.4358 7.35804 15.3878 7.37051L15.246 7.41206C15.2585 7.39505 15.2646 7.37458 15.2635 7.35389V7.33726C15.2608 7.31936 15.2594 7.30132 15.2591 7.28324C15.2591 7.25208 15.2657 7.23338 15.2897 7.22091L15.2809 7.20429C15.2788 7.20429 15.0715 7.28532 14.969 7.25208C14.9733 7.2313 14.9908 7.16482 15.0257 7.09417L15.0213 7.09833C15.0279 7.09417 15.0344 7.08586 15.0279 7.05262V7.04223L15.017 7.04639C15.017 7.04639 14.9515 7.07548 14.8555 7.04223C14.8555 7.03392 14.8621 7.02146 14.8817 7.01314L14.8883 7.01107V6.99445C14.8883 6.96951 14.8904 6.91134 14.9275 6.89887L14.9232 6.88225C14.9232 6.88225 14.8119 6.89056 14.7443 6.85524C14.7735 6.83524 14.807 6.82175 14.8424 6.81576H14.849V6.80745C14.8487 6.79099 14.845 6.77475 14.8381 6.75967C14.8643 6.76798 14.8948 6.77421 14.9057 6.7659L14.9101 6.76382L14.9057 6.69941H14.8883L14.8904 6.75343L14.825 6.73889L14.7988 6.73058L14.8163 6.75136C14.8268 6.766 14.8322 6.78347 14.8315 6.80122C14.7919 6.80936 14.7547 6.82568 14.7225 6.84901L14.7115 6.85732L14.7225 6.86355C14.7748 6.89679 14.8555 6.90095 14.897 6.89887C14.8784 6.92685 14.8686 6.95927 14.8686 6.99237V7.00068C14.8599 7.0055 14.8525 7.01211 14.8468 7.02002C14.8412 7.02792 14.8374 7.03693 14.8359 7.04639V7.05262L14.8403 7.0547C14.8944 7.07841 14.9558 7.08211 15.0126 7.06509V7.08379C14.969 7.17105 14.9472 7.25623 14.9472 7.25623V7.26454H14.9537C15.0388 7.29779 15.1871 7.25416 15.2548 7.2313C15.246 7.24585 15.2395 7.26247 15.2395 7.28324C15.2398 7.30692 15.2419 7.33053 15.246 7.35389C15.246 7.40167 15.2133 7.42037 15.2111 7.42037L15.2177 7.43699L15.3922 7.38713C15.4315 7.37674 15.4467 7.35389 15.4533 7.33519C15.5209 7.48893 15.6278 7.5014 15.6344 7.50348H15.6409L15.6431 7.49725C15.6546 7.47072 15.662 7.44271 15.6649 7.41414C15.6823 7.41349 15.6998 7.4128 15.7173 7.41206V7.40167C15.7173 7.38713 15.7151 7.37466 15.7085 7.36427L15.7391 7.3809L15.7674 7.37674C15.774 7.40375 15.8089 7.4266 15.8132 7.42868L15.8241 7.43492L15.8307 7.39959C15.8743 7.43492 15.9332 7.42453 15.9376 7.42453L15.9441 7.42245V7.41414C15.9354 7.35804 15.8961 7.29155 15.8721 7.25623C15.9485 7.28948 16.0881 7.2874 16.0947 7.2874H16.1034V7.27701C16.0746 7.20827 16.0333 7.14495 15.9812 7.09002C16.1601 7.12118 16.2561 7.03184 16.2605 7.02769L16.267 7.02146L16.2583 7.0173C16.1799 6.96394 16.0949 6.91998 16.0052 6.88641L16.0249 6.88225L16.003 6.87186C15.9639 6.85281 15.9205 6.84284 15.8765 6.84277C15.8547 6.81784 15.8438 6.81576 15.8416 6.81369C15.7194 6.80122 15.6758 6.77006 15.6584 6.74512V6.73889L15.6627 6.73266C15.6736 6.71811 15.678 6.69941 15.678 6.67864C15.678 6.62462 15.6496 6.56436 15.6496 6.56229L15.6322 6.56852V6.56852Z" fill="black"/>
<path d="M15.0759 6.53523C15.0759 6.53523 15.0628 6.59756 15.0061 6.62873C14.9624 6.64951 14.9079 6.64951 14.8403 6.6225L14.8315 6.62042V6.62873C14.8364 6.65547 14.8521 6.67933 14.8752 6.69522C14.9035 6.71599 14.9472 6.7243 15.0039 6.72015C14.9842 6.74092 14.9253 6.81157 14.9253 6.88221V6.8926C14.9341 6.89675 15.0257 6.92168 15.0693 6.86974C15.0693 6.89052 15.078 6.96324 15.1064 6.99025C15.1239 7.00687 15.1282 7.02765 15.1282 7.04634C15.1282 7.06297 15.1239 7.07543 15.1239 7.07543L15.1195 7.0879L15.1304 7.07959C15.1348 7.07751 15.2198 7.01726 15.246 6.94038C15.246 6.94038 15.2613 6.91961 15.2875 6.91337V6.92376C15.2875 6.95493 15.3006 7.00895 15.3922 7.04219L15.3987 7.04427V7.03803C15.3985 7.03319 15.3985 7.02834 15.3987 7.02349C15.3987 7.00064 15.3987 6.96116 15.4227 6.94038C15.4324 6.93183 15.4389 6.92053 15.4413 6.90817C15.4436 6.89582 15.4417 6.88306 15.4358 6.87182C15.4555 6.87597 15.4991 6.89052 15.5165 6.92168C15.5427 6.96739 15.6322 6.92999 15.6365 6.92999L15.6343 6.91961C15.6343 6.91961 15.5951 6.92792 15.5711 6.91337C15.5661 6.90962 15.5619 6.90491 15.5589 6.89955C15.5559 6.89418 15.5541 6.88827 15.5536 6.88221L15.5493 6.83234C15.5493 6.81157 15.5449 6.79702 15.534 6.78663C15.5449 6.78663 15.5689 6.78663 15.5776 6.80741C15.5951 6.84065 15.6496 6.84273 15.6518 6.84273L15.6714 6.84481L15.6562 6.83442C15.6562 6.83442 15.6082 6.80533 15.6169 6.76586L15.6234 6.73677C15.6365 6.68483 15.6583 6.59964 15.6387 6.54562L15.63 6.54978C15.6343 6.56224 15.6365 6.57887 15.6365 6.59549C15.6365 6.6412 15.6213 6.69937 15.6147 6.73469L15.606 6.76378C15.6056 6.76723 15.6056 6.77071 15.606 6.77417C15.606 6.80118 15.6213 6.81988 15.6343 6.83027C15.6191 6.82819 15.5973 6.81988 15.5907 6.80326C15.5754 6.77417 15.5405 6.77417 15.5253 6.77625L15.5122 6.77832L15.5209 6.78663C15.5362 6.79494 15.5384 6.80741 15.5384 6.83442L15.5427 6.88221C15.5449 6.89883 15.5536 6.9113 15.5645 6.91961C15.5776 6.92792 15.5907 6.92792 15.6016 6.92999C15.5754 6.93623 15.5384 6.94038 15.5253 6.91753C15.5013 6.87182 15.4315 6.86143 15.4293 6.85935H15.4184L15.4227 6.86766C15.4227 6.86766 15.4315 6.88013 15.4315 6.89675C15.4315 6.90714 15.4271 6.92168 15.4162 6.93207C15.3922 6.95493 15.3878 6.99856 15.3878 7.02141V7.02972C15.3093 6.99856 15.2962 6.95285 15.2962 6.92584V6.90506L15.3006 6.89883H15.2918C15.2804 6.90069 15.2695 6.90502 15.26 6.91151C15.2506 6.91799 15.2428 6.92644 15.2373 6.93623C15.2156 6.98701 15.1802 7.03144 15.1348 7.06504C15.136 7.05818 15.1368 7.05123 15.1369 7.04427C15.1369 7.02557 15.1326 7.00271 15.1151 6.98401C15.0824 6.95493 15.078 6.85935 15.078 6.85935V6.84273L15.0693 6.85728C15.0344 6.91545 14.9341 6.88636 14.9319 6.88636C14.9275 6.81364 15.0191 6.71807 15.0191 6.71599L15.0279 6.70768H15.0148C14.9559 6.71599 14.9101 6.70768 14.8795 6.6869C14.8622 6.67374 14.8499 6.65547 14.8446 6.63496C14.9101 6.65782 14.9668 6.6599 15.0104 6.63704C15.0293 6.62613 15.0456 6.61165 15.0584 6.5945C15.0711 6.57734 15.08 6.55788 15.0846 6.53731C15.15 6.40018 15.2046 6.37733 15.2046 6.37733L15.2024 6.36902C15.198 6.36902 15.1413 6.3898 15.0759 6.53523V6.53523Z" fill="black"/>
<path d="M15.222 6.32957H15.2176L15.1653 6.39813H15.1806C15.3433 6.41034 15.496 6.47824 15.6103 6.58928L15.6169 6.59551L15.667 6.54357L15.6627 6.53733C15.5209 6.32541 15.2242 6.32957 15.2198 6.32957H15.222ZM15.2264 6.34826C15.2613 6.34826 15.5143 6.3545 15.6452 6.54149L15.6169 6.57058C15.5018 6.46641 15.3537 6.40139 15.1958 6.38566C15.206 6.37318 15.2162 6.36071 15.2264 6.34826V6.34826Z" fill="black"/>
<path d="M15.1806 6.47082C15.1571 6.50006 15.1414 6.53427 15.1348 6.57054L15.137 6.57886C15.1218 6.59401 15.1101 6.61198 15.1026 6.63165C15.0951 6.65131 15.0919 6.67224 15.0933 6.69313C15.0933 6.72014 15.0977 6.74715 15.1064 6.77208L15.113 6.78662C15.1391 6.85727 15.1631 6.9196 15.2831 6.8822C15.3966 6.84896 15.4009 6.84064 15.4293 6.79493L15.438 6.78455C15.4533 6.75961 15.4707 6.75546 15.4882 6.74923C15.51 6.74299 15.5318 6.73676 15.5536 6.69936L15.5711 6.67235C15.5929 6.64534 15.6191 6.61002 15.6213 6.56847H15.6125C15.606 6.60453 15.5895 6.63827 15.5645 6.66612L15.5427 6.69521C15.538 6.70669 15.5303 6.71688 15.5204 6.72485C15.5105 6.73283 15.4987 6.73835 15.486 6.74092C15.4743 6.74303 15.4633 6.74745 15.4535 6.75389C15.4437 6.76033 15.4355 6.76865 15.4293 6.77831L15.4206 6.79078C15.3944 6.83441 15.39 6.84064 15.2788 6.87389C15.1697 6.90713 15.1479 6.85519 15.1217 6.78247L15.1151 6.76793C15.0846 6.68897 15.1086 6.61002 15.15 6.58093L15.1631 6.57054L15.1435 6.57262V6.57054C15.1435 6.556 15.1588 6.51653 15.1871 6.47705C15.2133 6.44381 15.2744 6.41264 15.2744 6.41056L15.27 6.40225C15.2657 6.40433 15.2068 6.43757 15.1806 6.47082V6.47082Z" fill="black"/>
<path d="M15.1282 6.75966C15.1479 6.77212 15.174 6.77005 15.2089 6.75966C15.2089 6.77005 15.2089 6.79498 15.2308 6.8116C15.2569 6.83238 15.2962 6.83653 15.3507 6.82407V6.81368C15.2984 6.82614 15.2591 6.82199 15.2373 6.80329C15.2304 6.79687 15.225 6.78908 15.2216 6.78045C15.2182 6.77183 15.2169 6.7626 15.2177 6.75342V6.74511L15.2111 6.74927C15.1784 6.76173 15.1522 6.76381 15.1326 6.74927C15.0999 6.72849 15.102 6.67239 15.102 6.67239H15.0933C15.0933 6.67239 15.089 6.73472 15.1282 6.75966V6.75966Z" fill="black"/>
<path d="M15.1893 6.68281C15.1762 6.68697 15.1718 6.69736 15.1718 6.70567V6.7119C15.1762 6.73683 15.2046 6.75345 15.2286 6.75969C15.2547 6.76592 15.2853 6.768 15.2962 6.75345C15.3006 6.74722 15.3049 6.73683 15.2962 6.71813C15.2868 6.7006 15.2707 6.68716 15.2512 6.68059C15.2317 6.67402 15.2104 6.67481 15.1915 6.68281H15.1893ZM15.2329 6.75138C15.2111 6.74514 15.1849 6.7306 15.1827 6.70982C15.1827 6.70982 15.1806 6.69528 15.1937 6.69112C15.2105 6.68462 15.2293 6.68443 15.2463 6.69059C15.2633 6.69676 15.2772 6.70883 15.2853 6.72437C15.2918 6.73268 15.2918 6.74099 15.2875 6.74514C15.2809 6.75553 15.2569 6.75761 15.2329 6.75138V6.75138ZM15.2242 6.80747C15.2177 6.85942 15.2242 6.86149 15.2264 6.86149H15.2307L15.2351 6.85942L15.2656 6.81786L15.2264 6.80124V6.80747H15.2242ZM15.2351 6.81578L15.2504 6.82202L15.2329 6.84487V6.81578H15.2351ZM15.1435 6.76592L15.1413 6.81371L15.1849 6.76384L15.1413 6.75969V6.76592H15.1435ZM15.1522 6.77008H15.1653L15.1522 6.7867V6.77008Z" fill="black"/>
<path d="M15.113 6.74925C15.113 6.74925 15.1457 6.8095 15.1522 6.83235C15.1544 6.84482 15.1741 6.86144 15.1959 6.86767C15.2177 6.87598 15.2395 6.87598 15.2548 6.8656L15.2831 6.84274C15.2919 6.83235 15.2962 6.83027 15.305 6.83235V6.82196C15.2919 6.82196 15.2853 6.82612 15.2766 6.83443L15.2482 6.85521C15.2308 6.86767 15.2111 6.86352 15.2002 6.85936C15.1784 6.85313 15.1632 6.83859 15.161 6.8282C15.1544 6.80742 15.1239 6.74717 15.1217 6.74509L15.113 6.74925V6.74925ZM15.1566 6.57056C15.132 6.58289 15.1133 6.6037 15.1042 6.62874L15.113 6.63082C15.113 6.63082 15.1282 6.59342 15.1588 6.57887C15.167 6.57532 15.1759 6.57347 15.185 6.57347C15.194 6.57347 15.2029 6.57532 15.2111 6.57887L15.2133 6.57056C15.1915 6.56225 15.1741 6.56225 15.1544 6.57056H15.1566ZM15.3922 6.6786C15.3966 6.6786 15.462 6.72847 15.4249 6.78664L15.4315 6.79288C15.4751 6.72431 15.3988 6.67029 15.3988 6.66822L15.3922 6.6786ZM15.1915 6.68691C15.1915 6.68691 15.1806 6.72224 15.2351 6.7347C15.2351 6.7347 15.185 6.7347 15.1806 6.72224C15.1784 6.70977 15.1806 6.68276 15.1915 6.68691V6.68691ZM15.3551 6.72847C15.3551 6.73262 15.3508 6.7347 15.3486 6.7347C15.3472 6.73478 15.3458 6.73441 15.3446 6.73366C15.3434 6.73292 15.3425 6.73182 15.342 6.73055C15.342 6.72639 15.3442 6.72431 15.3486 6.72431C15.3508 6.72431 15.3551 6.72639 15.3551 6.73055V6.72847ZM15.3595 6.7534C15.3595 6.75548 15.3595 6.75756 15.3551 6.75756C15.3537 6.75763 15.3523 6.75727 15.3511 6.75652C15.3499 6.75577 15.3491 6.75467 15.3486 6.7534C15.3486 6.75175 15.3493 6.75016 15.3505 6.74899C15.3517 6.74782 15.3534 6.74717 15.3551 6.74717C15.3573 6.74717 15.3595 6.74924 15.3595 6.7534Z" fill="black"/>
<path d="M15.32 6.74744C15.3235 6.74744 15.3264 6.74459 15.3264 6.74106C15.3264 6.73754 15.3235 6.73468 15.32 6.73468C15.3165 6.73468 15.3136 6.73754 15.3136 6.74106C15.3136 6.74459 15.3165 6.74744 15.32 6.74744Z" fill="black"/>
<path d="M15.3376 6.77415C15.3376 6.7758 15.337 6.77739 15.3357 6.77856C15.3345 6.77973 15.3328 6.78038 15.3311 6.78038C15.3294 6.78038 15.3277 6.77973 15.3265 6.77856C15.3252 6.77739 15.3246 6.7758 15.3246 6.77415C15.3246 6.77207 15.3267 6.76999 15.3311 6.76999L15.3376 6.77415V6.77415ZM15.1828 6.62248C15.1828 6.62413 15.1821 6.62572 15.1808 6.62688C15.1796 6.62805 15.1779 6.62871 15.1762 6.62871C15.1745 6.62871 15.1728 6.62805 15.1716 6.62688C15.1704 6.62572 15.1697 6.62413 15.1697 6.62248C15.1703 6.62162 15.1711 6.62092 15.172 6.62043C15.173 6.61994 15.174 6.61969 15.1751 6.61969C15.1762 6.61969 15.1773 6.61994 15.1782 6.62043C15.1792 6.62092 15.18 6.62162 15.1806 6.62248H15.1828Z" fill="black"/>
<path d="M15.1804 6.65192C15.1839 6.65192 15.1868 6.64907 15.1868 6.64554C15.1868 6.64202 15.1839 6.63916 15.1804 6.63916C15.1769 6.63916 15.174 6.64202 15.174 6.64554C15.174 6.64907 15.1769 6.65192 15.1804 6.65192Z" fill="black"/>
<path d="M15.1477 6.64152C15.1512 6.64152 15.1541 6.63866 15.1541 6.63513C15.1541 6.63161 15.1512 6.62875 15.1477 6.62875C15.1442 6.62875 15.1413 6.63161 15.1413 6.63513C15.1413 6.63866 15.1442 6.64152 15.1477 6.64152Z" fill="black"/>
<path d="M15.1631 6.66826C15.1632 6.66961 15.1628 6.67095 15.162 6.67207C15.1612 6.6732 15.1601 6.67405 15.1588 6.6745C15.157 6.6745 15.1554 6.67384 15.1541 6.67267C15.1529 6.6715 15.1522 6.66992 15.1522 6.66826C15.1522 6.66661 15.1529 6.66503 15.1541 6.66386C15.1554 6.66269 15.157 6.66203 15.1588 6.66203C15.1601 6.66248 15.1612 6.66333 15.162 6.66445C15.1628 6.66558 15.1632 6.66692 15.1631 6.66826V6.66826ZM15.2678 6.46881C15.2678 6.46881 15.3442 6.51452 15.27 6.5997C15.27 6.5997 15.3071 6.57269 15.3093 6.52906C15.3136 6.48543 15.2831 6.45011 15.2656 6.46881H15.2678ZM15.5623 6.59139C15.5362 6.60386 15.5013 6.581 15.4838 6.56022C15.4664 6.53945 15.4293 6.53321 15.4053 6.57269C15.3835 6.61009 15.3507 6.62463 15.3507 6.62463C15.3507 6.62463 15.3835 6.60801 15.4162 6.57269C15.4489 6.53945 15.4685 6.56646 15.5013 6.58308C15.5318 6.5997 15.5383 6.60386 15.5602 6.59347V6.59139H15.5623Z" fill="black"/>
<path d="M15.5558 6.59758C15.5489 6.60272 15.5402 6.60533 15.5314 6.60495C15.5226 6.60457 15.5143 6.60122 15.5078 6.59551C15.486 6.57889 15.4707 6.55811 15.4467 6.57058C15.4206 6.58304 15.3747 6.61628 15.3747 6.61628C15.3747 6.61628 15.4511 6.56642 15.4664 6.57889C15.4795 6.58927 15.5144 6.61628 15.534 6.60797L15.5558 6.59758V6.59758Z" fill="black"/>
<path d="M15.4969 6.6267C15.4729 6.61008 15.4489 6.64748 15.4293 6.64332C15.4075 6.63917 15.3922 6.60593 15.3922 6.60593C15.3922 6.60593 15.4096 6.63917 15.4358 6.63294C15.4642 6.62463 15.4816 6.608 15.4991 6.62047C15.5143 6.63294 15.4969 6.6267 15.4969 6.6267V6.6267Z" fill="black"/>
<path d="M15.4595 6.6327C15.4533 6.63391 15.4469 6.63381 15.4408 6.63242C15.4346 6.63102 15.4289 6.62836 15.4239 6.62463C15.419 6.62089 15.4149 6.61616 15.4121 6.61078C15.4092 6.6054 15.4077 6.59949 15.4075 6.59348C15.4075 6.59348 15.4227 6.63064 15.4639 6.62445L15.4595 6.6327Z" fill="black"/>
<path d="M15.4576 6.60379C15.4598 6.61418 15.4598 6.62041 15.4467 6.62041C15.4336 6.62041 15.4249 6.61626 15.4249 6.60379C15.4249 6.5934 15.4554 6.59548 15.4576 6.60379ZM15.2875 6.54146C15.2869 6.54495 15.2851 6.54813 15.2823 6.55043C15.2795 6.55272 15.2759 6.55396 15.2722 6.55393C15.2635 6.55393 15.2613 6.54977 15.2613 6.54146C15.2613 6.53315 15.2613 6.52692 15.2722 6.52692C15.2831 6.52692 15.2875 6.53315 15.2875 6.54146Z" fill="black"/>
<path d="M15.2329 6.48955C15.2329 6.48955 15.3158 6.48955 15.2765 6.5872C15.2765 6.5872 15.3071 6.53942 15.2874 6.5041C15.2656 6.47085 15.2373 6.47916 15.2373 6.47916C15.2373 6.47916 15.2285 6.4854 15.2329 6.48955Z" fill="black"/>
<path d="M15.233 6.52906C15.233 6.54984 15.246 6.56854 15.2722 6.58932L15.2788 6.581C15.2548 6.56231 15.2417 6.54568 15.2417 6.52906C15.2417 6.51244 15.2548 6.50205 15.2548 6.50205L15.2482 6.49582C15.2482 6.49582 15.233 6.50829 15.2308 6.52906H15.233Z" fill="black"/>
<path d="M15.2503 6.54562C15.2525 6.55601 15.2634 6.56639 15.2765 6.57055L15.2809 6.56224C15.27 6.55808 15.2613 6.54977 15.2591 6.54146C15.2547 6.52484 15.2678 6.50614 15.2678 6.50614L15.2591 6.49991C15.2591 6.49991 15.2438 6.52484 15.2503 6.54562V6.54562ZM15.3616 6.59964C15.3616 6.59964 15.3769 6.6308 15.3551 6.66405L15.3332 6.69729C15.3332 6.69729 15.3594 6.6495 15.3485 6.6308C15.3398 6.61003 15.3616 6.59964 15.3616 6.59964V6.59964ZM15.6801 6.92791C15.763 6.94246 15.9528 7.08374 15.9528 7.08374L15.9637 7.07127C15.9572 7.06504 15.7696 6.92583 15.6823 6.91129L15.6779 6.92791H15.6801ZM15.7543 7.12529C15.7587 7.19801 15.8416 7.24164 15.8416 7.24372L15.8525 7.22918C15.8525 7.22918 15.7761 7.18762 15.7717 7.12529H15.7543ZM15.5514 7.14191C15.5514 7.22087 15.6299 7.31644 15.6343 7.3206L15.6474 7.31021C15.6474 7.31021 15.5689 7.21463 15.5689 7.14191H15.5514ZM15.2874 7.15022C15.3005 7.17723 15.3005 7.1897 15.2962 7.19593C15.2918 7.20424 15.2831 7.20424 15.2831 7.20424L15.2853 7.22087C15.2918 7.22087 15.3049 7.21671 15.3114 7.20424C15.3202 7.1897 15.318 7.16892 15.3027 7.14191L15.2874 7.15022Z" fill="black"/>
<path d="M14.0962 6.75934C14.0962 6.75934 14.0995 6.81246 14.1422 6.84371C14.1422 6.84371 14.1389 6.78746 14.152 6.76246C14.152 6.76246 14.129 6.73746 14.0962 6.75934ZM14.1815 6.79059C14.1815 6.79059 14.1914 6.84059 14.2209 6.86246L14.2406 6.85934C14.2406 6.85934 14.2472 6.79684 14.257 6.79059C14.2668 6.78434 14.2143 6.81246 14.1815 6.79059V6.79059Z" fill="white" stroke="black" stroke-width="0.0165625" stroke-miterlimit="3"/>
<path d="M14.257 6.79051L14.2898 6.84051L14.3292 6.81863L14.3226 6.76238C14.3226 6.76238 14.2996 6.75613 14.257 6.79051ZM14.4112 6.79988L14.3686 6.83426C14.3686 6.83426 14.3456 6.81863 14.3292 6.81863L14.3357 6.76551C14.3357 6.76551 14.3686 6.74363 14.4112 6.79988ZM14.1061 7.29988C14.1061 7.29988 14.0995 7.22488 14.1061 7.22176C14.1061 7.22176 14.1389 7.23113 14.152 7.22176C14.152 7.22176 14.1684 7.27801 14.1651 7.30301C14.1586 7.32801 14.129 7.31863 14.1061 7.30301V7.29988ZM14.3029 7.22488C14.3029 7.22488 14.2996 7.16238 14.3095 7.15301C14.3095 7.15301 14.3751 7.16238 14.3882 7.12801L14.4112 7.19051C14.4112 7.19051 14.3423 7.18113 14.2996 7.22176L14.3029 7.22488Z" fill="white" stroke="black" stroke-width="0.0165625" stroke-miterlimit="3"/>
<path d="M14.2341 7.23743C14.2341 7.23743 14.2439 7.17181 14.257 7.16868C14.257 7.16868 14.2898 7.17806 14.2997 7.16556V7.24681C14.2997 7.24681 14.2997 7.21243 14.2341 7.23743ZM14.1586 7.24681C14.1586 7.24681 14.175 7.18743 14.1848 7.18743C14.1947 7.18743 14.2176 7.20306 14.2308 7.19368V7.23743C14.2308 7.23743 14.1783 7.22493 14.1684 7.29681L14.1586 7.24681Z" fill="white" stroke="black" stroke-width="0.0165625" stroke-miterlimit="3"/>
<path d="M15.1495 8.4499C15.1495 8.4499 15.3201 8.60303 15.2775 8.7374C15.2775 8.7374 15.3858 8.50928 15.2676 8.44053C15.1495 8.37803 15.1462 8.4249 15.1495 8.4499V8.4499Z" fill="#00A651" stroke="black" stroke-width="0.0414062" stroke-miterlimit="4.8"/>
<path d="M14.9297 8.5968C14.9297 8.5968 14.887 8.6593 14.9362 8.69992C14.9362 8.69992 14.8805 8.77492 14.9231 8.83742C14.9231 8.83742 14.8903 8.90305 14.8969 8.97492C14.8969 8.97492 14.8706 9.0843 14.9297 9.1343C14.9297 9.1343 14.9953 9.16555 15.0281 9.13742C15.0281 9.13742 15.0839 9.05617 15.0478 8.9718C15.0478 8.9718 15.0872 8.89992 15.0412 8.8093C15.0412 8.8093 15.0544 8.7593 15.0183 8.69992C15.0183 8.69992 15.0412 8.66242 15.0216 8.63117C15.0216 8.63117 14.9395 8.5468 14.9297 8.59992V8.5968Z" fill="#964B36" stroke="black" stroke-width="0.0414062" stroke-miterlimit="4.8"/>
<path d="M14.9789 8.40616C14.9789 8.40616 14.7755 8.03116 14.6311 8.01554C14.4867 7.99991 14.4801 7.86554 14.4801 7.86554C14.4801 7.86554 14.4966 7.92804 14.6114 7.92804C14.7262 7.92804 14.9461 8.08429 14.9723 8.19991C14.9953 8.31554 15.0216 8.29991 15.0216 8.29991L14.9789 8.40616V8.40616Z" fill="#00A651" stroke="black" stroke-width="0.0414062" stroke-miterlimit="4.8"/>
<path d="M14.9789 8.37802C14.9789 8.37802 15.0544 7.90614 15.3792 7.89677C15.7041 7.89052 15.5958 7.92177 15.6745 7.87177C15.6745 7.87177 15.458 7.97802 15.3235 7.99677C15.1856 8.00927 15.0741 8.26239 15.0806 8.30927C15.0806 8.35614 15.0052 8.44676 14.9691 8.41551C14.9297 8.38426 14.9789 8.37802 14.9789 8.37802V8.37802Z" fill="#00A651" stroke="black" stroke-width="0.0414062" stroke-miterlimit="4.8"/>
<path d="M15.0544 8.55616C15.0544 8.55616 15.1298 8.36866 15.2545 8.43116C15.2545 8.43116 15.1561 8.24991 14.9789 8.40616C14.9789 8.40616 15.0576 8.50928 15.0544 8.55616V8.55616ZM14.8083 8.36866C14.8083 8.36866 14.9133 8.78741 14.7492 8.91553C14.7492 8.91553 14.7558 8.69991 14.6541 8.57178C14.5556 8.44053 14.7525 8.29991 14.8083 8.36866Z" fill="#00A651" stroke="black" stroke-width="0.0414062" stroke-miterlimit="4.8"/>
<path d="M14.8214 8.44058C14.8214 8.44058 15.015 8.6187 15.0248 8.67808C15.0379 8.73433 15.0839 8.49995 14.992 8.43433C14.9001 8.3687 14.805 8.3562 14.805 8.3562L14.8214 8.4437V8.44058Z" fill="#00A651" stroke="black" stroke-width="0.0414062" stroke-miterlimit="4.8"/>
<path d="M14.4637 8.90619C14.4637 8.90619 14.4801 8.97806 14.5293 8.99369C14.5293 8.99369 14.5293 9.04681 14.5752 9.06244C14.5752 9.06244 14.5523 9.10931 14.5884 9.13744C14.5884 9.13744 14.5818 9.23119 14.6146 9.24681C14.6146 9.24681 14.7032 9.24369 14.7327 9.21869C14.7327 9.21869 14.7492 9.15931 14.6999 9.09994C14.6999 9.09994 14.7098 9.04369 14.6606 9.01244C14.6606 9.01244 14.677 8.93431 14.6146 8.90619C14.6146 8.90619 14.6048 8.84369 14.5687 8.81244C14.5687 8.81244 14.4965 8.90931 14.4637 8.90619V8.90619Z" fill="#964B36" stroke="black" stroke-width="0.0414062" stroke-miterlimit="4.8"/>
<path d="M14.5589 8.81243C14.5589 8.81243 14.3063 8.72493 14.1652 8.84993C14.1652 8.84993 14.3817 8.88118 14.408 8.9218C14.4342 8.96243 14.5688 8.85305 14.5589 8.81243Z" fill="#00A651" stroke="black" stroke-width="0.0414062" stroke-miterlimit="4.8"/>
<path d="M14.4801 8.96243L14.4342 8.93118C14.4112 8.91243 14.198 8.8593 14.1684 9.05618C14.1684 9.05618 14.0897 8.8593 14.2012 8.83743C14.3161 8.80618 14.4047 8.86868 14.4801 8.96243ZM14.3161 8.56243C14.3161 8.56243 14.3916 8.72493 14.4211 8.73118C14.4506 8.74055 14.4703 8.71243 14.4703 8.71243C14.4703 8.71243 14.3686 8.56868 14.3128 8.56243H14.3161ZM14.257 8.31555C14.257 8.31555 14.1914 8.1093 14.1126 8.16555C14.0339 8.21868 14.0536 8.36868 14.0536 8.36868C14.0536 8.36868 13.8994 8.21243 13.988 8.09368C14.0798 7.9718 14.257 8.10618 14.257 8.31555Z" fill="#00A651" stroke="black" stroke-width="0.0414062" stroke-miterlimit="4.8"/>
<path d="M14.4342 8.74368C14.4342 8.74368 14.4342 8.78431 14.4637 8.79368C14.49 8.80618 14.5457 8.82493 14.5457 8.80306C14.5457 8.78118 14.5031 8.68743 14.4867 8.69993C14.4703 8.71243 14.4407 8.71243 14.4342 8.74368V8.74368Z" fill="#964B36" stroke="black" stroke-width="0.0414062" stroke-miterlimit="4.8"/>
<path d="M14.385 8.49996C14.385 8.49996 14.3751 8.32183 14.4998 8.25308C14.4998 8.25308 14.5228 8.25933 14.5359 8.22183C14.5359 8.22183 14.4375 8.44996 14.467 8.56558L14.4637 8.57808" fill="#00A651"/>
<path d="M14.385 8.49996C14.385 8.49996 14.3751 8.32183 14.4998 8.25308C14.4998 8.25308 14.5228 8.25933 14.5359 8.22183C14.5359 8.22183 14.4375 8.44996 14.467 8.56558L14.4637 8.57808" stroke="black" stroke-width="0.0414062" stroke-miterlimit="4.8"/>
<path d="M14.408 8.28121C14.408 8.28121 14.6311 7.84371 14.9001 7.99684C14.9001 7.99684 14.618 8.04996 14.5162 8.24371L14.4145 8.38746L14.408 8.28121V8.28121Z" fill="#00A651" stroke="black" stroke-width="0.0414062" stroke-miterlimit="4.8"/>
<path d="M14.2898 8.44059C14.2898 8.44059 14.2242 8.14684 14.1816 8.10934C14.1422 8.06872 14.0733 8.02809 13.988 8.09372C13.988 8.09372 14.1323 7.97184 14.2833 8.07497C14.4375 8.17497 14.4047 8.33747 14.4047 8.33747L14.3883 8.54059L14.2866 8.44997" fill="#00A651"/>
<path d="M14.2898 8.44059C14.2898 8.44059 14.2242 8.14684 14.1816 8.10934C14.1422 8.06872 14.0733 8.02809 13.988 8.09372C13.988 8.09372 14.1323 7.97184 14.2833 8.07497C14.4375 8.17497 14.4047 8.33747 14.4047 8.33747L14.3883 8.54059L14.2866 8.44997" stroke="black" stroke-width="0.0414062" stroke-miterlimit="4.8"/>
<path d="M14.5294 8.79053C14.5294 8.79053 14.257 8.29991 14.0798 8.64991C14.0798 8.64991 14.047 8.74053 14.0831 8.77491C14.0831 8.77491 13.9847 8.70303 14.0306 8.53116C14.0765 8.35928 14.3751 8.43741 14.4637 8.57803C14.549 8.71866 14.572 8.79053 14.5622 8.79678C14.549 8.80616 14.5294 8.79053 14.5294 8.79053ZM15.2939 8.93116C15.2939 8.93116 15.4908 8.54366 15.6056 8.71866C15.6056 8.71866 15.6384 8.80616 15.5892 8.84366C15.5892 8.84366 15.5104 8.74991 15.4415 8.86241C15.3694 8.97178 15.3989 8.96241 15.3989 8.96241C15.3989 8.96241 15.3267 8.98116 15.2939 8.93116Z" fill="#00A651" stroke="black" stroke-width="0.0414062" stroke-miterlimit="4.8"/>
<path d="M15.5859 8.84372C15.5859 8.84372 15.6942 8.89684 15.6581 9.00622C15.6581 9.00622 15.8025 8.74372 15.6056 8.71872C15.6056 8.71872 15.6417 8.80309 15.5892 8.84372H15.5859ZM15.6023 8.57497C15.6023 8.57497 15.8615 8.64684 15.8681 8.75309C15.8681 8.75309 15.914 8.54684 15.7664 8.48434C15.7664 8.48434 15.5892 8.51559 15.6023 8.57809V8.57497Z" fill="#00A651" stroke="black" stroke-width="0.0414062" stroke-miterlimit="4.8"/>
<path d="M15.7172 8.24994C15.8287 8.04369 15.9666 8.31556 15.9666 8.31556C15.9666 8.31556 16.0158 8.09994 15.878 8.06244C15.7369 8.02181 15.6483 8.52181 15.6483 8.52181L15.4842 8.55306C15.4842 8.55306 15.5269 8.12181 15.773 8.08431H15.8058" fill="#00A651"/>
<path d="M15.7172 8.24994C15.8287 8.04369 15.9666 8.31556 15.9666 8.31556C15.9666 8.31556 16.0158 8.09994 15.878 8.06244C15.7369 8.02181 15.6483 8.52181 15.6483 8.52181L15.4842 8.55306C15.4842 8.55306 15.5269 8.12181 15.773 8.08431H15.8058" stroke="black" stroke-width="0.0414062" stroke-miterlimit="4.8"/>
<path d="M15.5203 8.37491C15.5203 8.37491 15.3628 8.06867 15.2578 8.03742C15.1528 8.00617 15.3136 7.95929 15.3792 8.01867C15.4449 8.07804 15.5695 8.15304 15.5564 8.30929L15.5203 8.37491ZM15.3563 8.79366C15.3563 8.79366 15.4022 8.58741 15.5269 8.52491C15.6516 8.46241 15.7664 8.48429 15.7664 8.48429C15.7664 8.48429 15.6188 8.51554 15.5925 8.58741C15.5695 8.65616 15.5269 8.66242 15.5269 8.66242L15.3595 8.79366H15.3563Z" fill="#00A651" stroke="black" stroke-width="0.0414062" stroke-miterlimit="4.8"/>
<path d="M15.2906 8.93118C15.2906 8.93118 15.225 9.05618 15.2381 9.07493C15.2381 9.07493 15.1659 9.17806 15.1954 9.23118C15.1954 9.23118 15.2676 9.28431 15.3004 9.26243C15.3004 9.26243 15.3857 9.14681 15.3628 9.08431C15.3628 9.08431 15.4218 9.00931 15.3989 8.96243C15.3989 8.96243 15.3135 8.96556 15.2939 8.93118H15.2906Z" fill="#964B36" stroke="black" stroke-width="0.0414062" stroke-miterlimit="4.8"/>
<path d="M14.9296 8.70616C14.9362 8.70929 14.9789 8.72804 15.0051 8.71866L15.0248 8.70304L15.0084 8.69679C14.9985 8.71554 14.9526 8.69991 14.9395 8.69366L14.9329 8.70616H14.9296ZM14.9264 8.83116L14.9198 8.84679C14.9231 8.84679 15.0084 8.86241 15.0478 8.82804L15.0346 8.81554C15.0018 8.84366 14.9264 8.82804 14.9231 8.82804L14.9264 8.83116ZM14.9034 8.96866L14.8935 8.98116C14.8935 8.98116 14.992 9.04679 15.0543 8.97491L15.0379 8.96554C14.9887 9.02491 14.9067 8.97179 14.9034 8.96554V8.96866ZM14.526 8.98741L14.5293 8.99679C14.5326 8.99679 14.6146 8.96554 14.6212 8.90616H14.6114C14.6081 8.95616 14.5293 8.98741 14.526 8.98741V8.98741ZM14.572 9.05929V9.06866C14.5785 9.06866 14.654 9.06241 14.6671 9.01241H14.6573C14.6442 9.05304 14.5753 9.05929 14.572 9.05929V9.05929ZM14.5884 9.13429V9.14366C14.5917 9.14366 14.677 9.14679 14.7065 9.10304L14.6967 9.09679C14.6704 9.13741 14.5884 9.13429 14.5884 9.13429ZM15.2348 9.08116C15.2348 9.08116 15.2709 9.11866 15.3135 9.11554C15.3242 9.11535 15.3346 9.11302 15.3442 9.10871C15.3539 9.1044 15.3624 9.09821 15.3693 9.09054L15.3562 9.07804C15.3431 9.09366 15.33 9.09991 15.3135 9.09991C15.2807 9.09991 15.2479 9.06866 15.2479 9.06866L15.2348 9.08116Z" fill="black"/>
<path d="M17.7844 9.3687C17.7806 9.37119 17.7772 9.37437 17.7746 9.37808L17.7877 9.3687H17.7844ZM18.0896 9.29683C18.0863 9.29058 18.083 9.2937 18.0798 9.29058L18.0666 9.26558H18.0568L18.0338 9.22183C18.0351 9.21882 18.0351 9.21546 18.0338 9.21245C18.0339 9.20829 18.0339 9.20412 18.0338 9.19995C18.0338 9.19995 18.0273 9.19995 18.024 9.1937V9.1437L18.0207 9.12808C18.014 9.11777 18.0106 9.10583 18.0108 9.0937V9.06245C18.0141 9.04995 18.0076 9.0437 18.0076 9.0312L18.0108 9.00308V8.83433L18.0076 8.80308L18.0043 8.79058V8.74058V8.82183L17.9977 8.68745L17.8862 8.63745C17.8862 8.63745 17.8763 8.8312 17.8796 8.8562C17.8796 8.88433 17.8927 9.06558 17.8862 9.08745L17.8698 9.22183C17.8698 9.22183 17.8173 9.25933 17.7976 9.29683C17.7746 9.33745 17.7812 9.34995 17.7746 9.34995L17.8238 9.3437L17.7877 9.3687C17.7915 9.36723 17.7956 9.36675 17.7997 9.3673C17.8037 9.36785 17.8075 9.36941 17.8107 9.37183L17.8173 9.37808L17.8238 9.37183C17.8337 9.37183 17.8402 9.38433 17.8468 9.3812L17.8599 9.37495L17.8665 9.36245C17.8698 9.35933 17.8763 9.36245 17.8796 9.36245H17.9026C17.9124 9.36245 17.9223 9.34683 17.9321 9.34058C17.9387 9.33433 17.9452 9.3312 17.9551 9.3312C17.9649 9.3312 17.9748 9.34058 17.9879 9.34058C17.9944 9.34058 17.9977 9.34058 18.0043 9.33433L18.0174 9.31558L18.0437 9.31245L18.0568 9.31558H18.0765L18.0863 9.32183L18.0929 9.30933L18.0896 9.29683V9.29683Z" fill="#964B36" stroke="black" stroke-width="0.0248437" stroke-miterlimit="4.8"/>
<path d="M17.8664 9.3656H17.8861V9.37185C17.8871 9.3724 17.8882 9.37268 17.8894 9.37268C17.8905 9.37268 17.8916 9.3724 17.8926 9.37185L17.9025 9.3781H17.9123L17.9254 9.38122C17.932 9.38435 17.9386 9.38122 17.9451 9.3781C17.9517 9.37185 17.955 9.3781 17.9648 9.38435C17.9681 9.38747 17.9681 9.38747 17.9714 9.38435L17.9747 9.38122L17.9845 9.3781L17.9944 9.37497L18.0075 9.36872L18.0206 9.37497C18.0228 9.37471 18.025 9.37471 18.0272 9.37497L18.0501 9.35935C18.06 9.3531 18.0665 9.35935 18.0731 9.35935H18.0829C18.0862 9.35622 18.0895 9.35935 18.0961 9.35935C18.0961 9.35622 18.0961 9.3531 18.1026 9.34997L18.1256 9.36247C18.1289 9.3656 18.1486 9.36872 18.1453 9.35622C18.1453 9.34372 18.1322 9.3531 18.1289 9.34372V9.32497C18.1273 9.31979 18.1238 9.31534 18.119 9.31247C18.1125 9.31247 18.1125 9.3156 18.1059 9.31247L18.0994 9.29372L18.0895 9.29997C18.0829 9.29997 18.0829 9.29685 18.0797 9.2906C18.0698 9.28122 18.0665 9.29685 18.0567 9.29372C18.0501 9.29372 18.0436 9.2781 18.0403 9.27185C18.037 9.26872 18.0304 9.25622 18.0239 9.25935C18.0173 9.26247 18.0239 9.27497 18.0239 9.28122H18.0075C18.0009 9.28122 18.0009 9.28122 17.9976 9.28747C17.9911 9.29997 17.9878 9.30935 17.9747 9.30622C17.9714 9.30622 17.9648 9.3031 17.9615 9.30622L17.9451 9.31247C17.9408 9.31331 17.9363 9.31331 17.932 9.31247L17.9189 9.29997C17.9189 9.29914 17.9185 9.29835 17.9179 9.29776C17.9173 9.29718 17.9165 9.29685 17.9156 9.29685C17.9147 9.29685 17.9139 9.29718 17.9133 9.29776C17.9127 9.29835 17.9123 9.29914 17.9123 9.29997C17.9113 9.29788 17.9102 9.29579 17.909 9.29372C17.9025 9.29372 17.9025 9.29372 17.8992 9.3031L17.8959 9.31872L17.8861 9.33122L17.8729 9.33435C17.8664 9.33435 17.8598 9.34372 17.8598 9.33435C17.8533 9.32185 17.8697 9.29997 17.8533 9.3031C17.85 9.3031 17.8467 9.3031 17.8434 9.30935V9.33122C17.8401 9.3406 17.8204 9.35622 17.8237 9.36247C17.8237 9.37185 17.8369 9.36247 17.8369 9.36247L17.8434 9.37497C17.85 9.38435 17.8664 9.36247 17.8664 9.37497M17.7975 9.2906V9.28435L17.7844 9.28122C17.7778 9.28122 17.7712 9.2906 17.7679 9.29372C17.7614 9.30622 17.7614 9.32497 17.7483 9.32497H17.7319V9.35622C17.7319 9.35622 17.7253 9.35622 17.7253 9.36247C17.722 9.37497 17.7319 9.36872 17.7384 9.36872H17.7712L17.7876 9.3656C17.7942 9.3656 17.8008 9.3656 17.804 9.35935C17.8067 9.3554 17.8089 9.35122 17.8106 9.34685V9.33435C17.8106 9.3281 17.8204 9.33122 17.8204 9.32185C17.8237 9.29997 17.8008 9.3156 17.804 9.29372" fill="#964B36"/>
<path d="M17.8664 9.3656H17.8861V9.37185C17.8871 9.3724 17.8882 9.37268 17.8894 9.37268C17.8905 9.37268 17.8916 9.3724 17.8926 9.37185L17.9025 9.3781H17.9123L17.9254 9.38122C17.932 9.38435 17.9386 9.38122 17.9451 9.3781C17.9517 9.37185 17.955 9.3781 17.9648 9.38435C17.9681 9.38747 17.9681 9.38747 17.9714 9.38435L17.9747 9.38122L17.9845 9.3781L17.9944 9.37497L18.0075 9.36872L18.0206 9.37497C18.0228 9.37471 18.025 9.37471 18.0272 9.37497L18.0501 9.35935C18.06 9.3531 18.0665 9.35935 18.0731 9.35935H18.0829C18.0862 9.35622 18.0895 9.35935 18.0961 9.35935C18.0961 9.35622 18.0961 9.3531 18.1026 9.34997L18.1256 9.36247C18.1289 9.3656 18.1486 9.36872 18.1453 9.35622C18.1453 9.34372 18.1322 9.3531 18.1289 9.34372V9.32497C18.1273 9.31979 18.1238 9.31534 18.119 9.31247C18.1125 9.31247 18.1125 9.3156 18.1059 9.31247L18.0994 9.29372L18.0895 9.29997C18.0829 9.29997 18.0829 9.29685 18.0797 9.2906C18.0698 9.28122 18.0665 9.29685 18.0567 9.29372C18.0501 9.29372 18.0436 9.2781 18.0403 9.27185C18.037 9.26872 18.0304 9.25622 18.0239 9.25935C18.0173 9.26247 18.0239 9.27497 18.0239 9.28122H18.0075C18.0009 9.28122 18.0009 9.28122 17.9976 9.28747C17.9911 9.29997 17.9878 9.30935 17.9747 9.30622C17.9714 9.30622 17.9648 9.3031 17.9615 9.30622L17.9451 9.31247C17.9408 9.31331 17.9363 9.31331 17.932 9.31247L17.9189 9.29997C17.9189 9.29914 17.9185 9.29835 17.9179 9.29776C17.9173 9.29718 17.9165 9.29685 17.9156 9.29685C17.9147 9.29685 17.9139 9.29718 17.9133 9.29776C17.9127 9.29835 17.9123 9.29914 17.9123 9.29997C17.9113 9.29788 17.9102 9.29579 17.909 9.29372C17.9025 9.29372 17.9025 9.29372 17.8992 9.3031L17.8959 9.31872L17.8861 9.33122L17.8729 9.33435C17.8664 9.33435 17.8598 9.34372 17.8598 9.33435C17.8533 9.32185 17.8697 9.29997 17.8533 9.3031C17.85 9.3031 17.8467 9.3031 17.8434 9.30935V9.33122C17.8401 9.3406 17.8204 9.35622 17.8237 9.36247C17.8237 9.37185 17.8369 9.36247 17.8369 9.36247L17.8434 9.37497C17.85 9.38435 17.8664 9.36247 17.8664 9.37497M17.7975 9.2906V9.28435L17.7844 9.28122C17.7778 9.28122 17.7712 9.2906 17.7679 9.29372C17.7614 9.30622 17.7614 9.32497 17.7483 9.32497H17.7319V9.35622C17.7319 9.35622 17.7253 9.35622 17.7253 9.36247C17.722 9.37497 17.7319 9.36872 17.7384 9.36872H17.7712L17.7876 9.3656C17.7942 9.3656 17.8008 9.3656 17.804 9.35935C17.8067 9.3554 17.8089 9.35122 17.8106 9.34685V9.33435C17.8106 9.3281 17.8204 9.33122 17.8204 9.32185C17.8237 9.29997 17.8008 9.3156 17.804 9.29372" stroke="black" stroke-width="0.0248437" stroke-miterlimit="4.8"/>
<path d="M18.0731 8.68428C18.0731 8.7124 18.0534 8.73428 18.0272 8.73428C18.0042 8.73428 17.9813 8.7124 17.9813 8.68428C17.9813 8.65615 18.0042 8.63428 18.0272 8.63428C18.0534 8.63428 18.0731 8.65615 18.0731 8.68428ZM17.9255 8.62178C17.9255 8.6499 17.9058 8.67178 17.8795 8.67178C17.8533 8.67178 17.8336 8.6499 17.8336 8.62178C17.8336 8.59053 17.8566 8.57178 17.8795 8.57178C17.9025 8.57178 17.9255 8.59365 17.9255 8.62178Z" fill="black" stroke="black" stroke-width="0.0414062" stroke-miterlimit="4.8"/>
<path d="M18.0042 8.64055C18.0042 8.6718 17.9845 8.69055 17.9582 8.69055C17.932 8.69055 17.9123 8.66867 17.9123 8.64055C17.9123 8.61242 17.932 8.59055 17.9582 8.59055C17.9845 8.59055 18.0042 8.61242 18.0042 8.64055Z" fill="black" stroke="black" stroke-width="0.0414062" stroke-miterlimit="4.8"/>
<path d="M17.9287 8.68739C17.9287 8.71552 17.909 8.73739 17.8828 8.73739C17.8565 8.73739 17.8368 8.71552 17.8368 8.68739C17.8368 8.65927 17.8565 8.63739 17.8828 8.63739C17.909 8.63739 17.9287 8.65927 17.9287 8.68739Z" fill="black" stroke="black" stroke-width="0.0414062" stroke-miterlimit="4.8"/>
<path d="M17.9977 8.72802C17.9977 8.75302 17.978 8.77802 17.9517 8.77802C17.9287 8.77802 17.9058 8.75615 17.9058 8.72802C17.9058 8.69677 17.9287 8.6749 17.9517 8.6749C17.978 8.6749 17.9977 8.69677 17.9977 8.7249V8.72802Z" fill="black" stroke="black" stroke-width="0.0414062" stroke-miterlimit="4.8"/>
<path d="M18.0206 8.17183C18.0206 8.17183 18.4767 7.56558 18.9656 8.1937C18.9656 8.1937 18.9689 8.2562 18.9229 8.32495L18.9131 8.27183L18.8803 8.2812L18.8737 8.24995L18.8212 8.24683L18.8376 8.17808L18.7818 8.22183L18.7884 8.17495L18.7228 8.23745L18.7326 8.10308L18.6604 8.2187L18.6703 8.14058L18.644 8.17495L18.6309 8.12808L18.6079 8.17495L18.5751 8.15308V8.18433L18.5161 8.13745L18.4964 8.19995L18.4668 8.1312L18.4603 8.17808L18.4307 8.12495L18.4275 8.18433L18.3323 8.1437L18.352 8.19995L18.3093 8.1687L18.3159 8.19995L18.2536 8.18745L18.2601 8.22183L18.1945 8.20933L18.2043 8.24058L18.1157 8.2312L18.1486 8.26245L18.1387 8.2812C18.1387 8.2812 18.6309 8.12495 18.6637 8.71245L18.5751 8.75308L18.6014 8.7062L18.5751 8.69058L18.4997 8.63745L18.5226 8.56245L18.4964 8.57183L18.4931 8.52808L18.48 8.53433L18.4504 8.4937L18.4439 8.50933L18.4242 8.4562L18.4012 8.4937L18.3914 8.4062L18.3586 8.46245L18.352 8.4312L18.3422 8.44995L18.2995 8.40308L18.2864 8.43433L18.27 8.40933L18.2601 8.44058L18.2142 8.39683V8.42808L18.1814 8.4062L18.1715 8.42183L18.1026 8.38745L18.0993 8.4187L18.06 8.38745L18.0501 8.4187C18.0501 8.4187 18.4964 8.66245 18.3586 9.0562L18.3323 9.1062L18.3257 8.97495L18.2831 9.0437L18.3126 8.89058L18.2831 8.92183L18.2798 8.85933L18.2437 8.92183L18.2306 8.85308L18.2142 8.87183L18.1879 8.77183L18.1682 8.81245L18.1354 8.69995L18.1092 8.74683L18.0928 8.64995L18.0764 8.70933L18.0272 8.62183L18.0206 8.6562L17.9911 8.58745L17.9747 8.60933C17.9747 8.60933 17.8926 8.6062 17.8664 8.58745C17.8434 8.56558 17.7745 8.70308 17.7745 8.70308L17.7811 8.62183L17.7515 8.67808V8.62183L17.699 8.78745L17.6859 8.6687L17.6597 8.77183L17.6465 8.74058L17.6367 8.7812L17.6203 8.76558L17.6072 8.81245L17.5809 8.7937V8.8562L17.5547 8.82495L17.535 8.9187L17.5218 8.8812V8.92183L17.5022 8.89995L17.4825 8.9937L17.4497 8.95308V9.02183L17.4595 9.07183L17.4267 9.0562L17.4398 9.13745C17.4398 9.13745 17.3118 8.91245 17.4661 8.6937C17.617 8.47495 17.8237 8.41245 17.8237 8.41245L17.8007 8.3937V8.37495L17.6761 8.43433V8.39995L17.6432 8.42495L17.6367 8.38745L17.617 8.42183L17.6137 8.4062L17.5809 8.44995L17.5678 8.38745L17.5481 8.46245L17.5284 8.40933L17.4857 8.5187V8.43745L17.4529 8.52495L17.4398 8.4312L17.4168 8.53745V8.4437L17.3775 8.53745L17.3545 8.4437L17.3381 8.53745L17.3118 8.46558L17.2889 8.57183L17.2495 8.47808L17.2298 8.6187L17.2068 8.56245L17.2003 8.66558L17.174 8.60308L17.2003 8.73433L17.1675 8.68433L17.1773 8.76558L17.1248 8.67495V8.7812L17.0986 8.74683L17.0854 8.78745C17.0854 8.78745 17.0756 8.3812 17.3676 8.29995C17.6597 8.22183 17.8467 8.32495 17.8467 8.32495L17.7351 8.23745L17.7482 8.20933H17.7089L17.7253 8.17808L17.6367 8.1812L17.6629 8.14995L17.5973 8.15933V8.14058L17.5547 8.17183L17.5711 8.13433L17.5153 8.17183L17.512 8.1187L17.4792 8.16245L17.4661 8.11558L17.3348 8.24058L17.3676 8.11245L17.3447 8.14058L17.3414 8.10933L17.3053 8.16558L17.2954 8.12808L17.279 8.17495L17.2659 8.1187L17.2397 8.17495L17.2068 8.12495L17.197 8.19058L17.1773 8.1562L17.1511 8.2062L17.1182 8.17495V8.2062L17.0526 8.17808L17.0657 8.22495L17.0165 8.18745L17.0034 8.24995L16.9772 8.2187L16.9542 8.29683L16.9345 8.22183L16.9148 8.2812C16.9148 8.2812 17.1707 7.64995 17.8204 8.06245C17.8204 8.06245 17.8926 8.12808 17.909 8.17495C17.9254 8.22183 17.9123 8.1812 17.9123 8.1812L17.8992 7.74683L17.9254 7.93433L17.9418 7.87183L17.9386 7.96558L18.0042 7.8312C18.0042 7.8312 17.9254 8.0562 17.955 8.14058C17.955 8.14058 17.9845 7.87808 18.0829 7.84683L17.9911 8.03433L18.0206 8.0312L18.0009 8.0687H18.0239L17.9943 8.1312L17.9779 8.16245L17.9943 8.1937L18.0206 8.17183V8.17183Z" fill="#00A651" stroke="black" stroke-width="0.0414062" stroke-miterlimit="4.8"/>
<path d="M17.9518 8.42497L17.9649 8.43747C17.9649 8.43747 18.0075 8.39372 18.0764 8.44997L18.0863 8.43747C18.0043 8.37184 17.955 8.42497 17.955 8.42497H17.9518ZM17.9321 8.21247V8.22809L17.9616 8.21559L17.9386 8.25309L17.9878 8.23747L17.9288 8.30934L17.9419 8.31872L18.0371 8.20309L17.978 8.22184L18.0043 8.18122L17.9518 8.19997L17.9616 8.14059H17.9452L17.9321 8.21247V8.21247Z" fill="black"/>
<path d="M17.8468 8.21866L17.8664 8.25929L17.8336 8.24679L17.9288 8.40929L17.9419 8.39366L17.9222 8.44054L17.9386 8.44679L17.978 8.34679L17.9649 8.33741L17.9321 8.37804L17.873 8.28116L17.8993 8.29054L17.873 8.23741L17.9091 8.25616V8.19679H17.8927V8.22804L17.8336 8.19366L17.8468 8.21866V8.21866ZM17.7844 8.41866L17.791 8.43429C17.8172 8.42491 17.8402 8.42179 17.8566 8.42804C17.873 8.43741 17.8796 8.45616 17.8796 8.45929L17.896 8.45304C17.896 8.45304 17.8894 8.42491 17.8632 8.41554C17.8435 8.40616 17.8172 8.40616 17.7844 8.41866V8.41866ZM17.8599 8.58741L17.8435 8.49991H17.8632L17.8763 8.58429L17.8599 8.58741ZM17.9846 8.57491L17.9616 8.50616L17.978 8.50304L18.001 8.56554L17.9846 8.57491ZM18.0305 8.62179L18.0141 8.55616L18.0305 8.55304L18.0502 8.61866L18.0305 8.62179Z" fill="black"/>
<path d="M14.5228 10.6312C14.5228 10.6312 14.4441 10.5999 14.408 10.6249C14.3752 10.6468 14.3784 10.6843 14.3489 10.6812C14.3489 10.6812 14.467 10.7062 14.49 10.6781L14.5228 10.6406M14.5359 10.6624C14.5359 10.6624 14.4834 10.7249 14.5031 10.7656C14.5195 10.8031 14.5589 10.8062 14.5491 10.8343C14.5491 10.8343 14.5983 10.7312 14.5753 10.6999C14.5523 10.6687 14.5425 10.6656 14.5425 10.6656M14.4506 10.4843C14.4506 10.4843 14.3686 10.5093 14.3587 10.5468C14.3522 10.5906 14.3784 10.6124 14.3555 10.6312C14.3555 10.6312 14.4605 10.5749 14.4572 10.5374V10.4906M14.4966 10.5124C14.4966 10.5124 14.5359 10.4406 14.513 10.4062C14.4867 10.3687 14.4473 10.3749 14.4539 10.3437C14.4539 10.3437 14.4211 10.4531 14.4539 10.4812L14.49 10.5124M14.4178 10.4843C14.4178 10.4843 14.4178 10.4031 14.385 10.3843C14.3456 10.3624 14.3128 10.3812 14.303 10.3531C14.303 10.3531 14.3259 10.4656 14.362 10.4781L14.4112 10.4874M14.5556 10.6187C14.5556 10.6187 14.6442 10.5874 14.6541 10.6812C14.6606 10.7749 14.6475 10.7437 14.6475 10.7437C14.6475 10.7437 14.6016 10.6437 14.5491 10.6281L14.5556 10.6187Z" fill="#00A651"/>
<path d="M14.5228 10.6312C14.5228 10.6312 14.4441 10.5999 14.408 10.6249C14.3752 10.6468 14.3784 10.6843 14.3489 10.6812C14.3489 10.6812 14.467 10.7062 14.49 10.6781L14.5228 10.6406M14.5359 10.6624C14.5359 10.6624 14.4834 10.7249 14.5031 10.7656C14.5195 10.8031 14.5589 10.8062 14.5491 10.8343C14.5491 10.8343 14.5983 10.7312 14.5753 10.6999C14.5523 10.6687 14.5425 10.6656 14.5425 10.6656M14.4506 10.4843C14.4506 10.4843 14.3686 10.5093 14.3587 10.5468C14.3522 10.5906 14.3784 10.6124 14.3555 10.6312C14.3555 10.6312 14.4605 10.5749 14.4572 10.5374V10.4906M14.4966 10.5124C14.4966 10.5124 14.5359 10.4406 14.513 10.4062C14.4867 10.3687 14.4473 10.3749 14.4539 10.3437C14.4539 10.3437 14.4211 10.4531 14.4539 10.4812L14.49 10.5124M14.4178 10.4843C14.4178 10.4843 14.4178 10.4031 14.385 10.3843C14.3456 10.3624 14.3128 10.3812 14.303 10.3531C14.303 10.3531 14.3259 10.4656 14.362 10.4781L14.4112 10.4874M14.5556 10.6187C14.5556 10.6187 14.6442 10.5874 14.6541 10.6812C14.6606 10.7749 14.6475 10.7437 14.6475 10.7437C14.6475 10.7437 14.6016 10.6437 14.5491 10.6281L14.5556 10.6187Z" stroke="black" stroke-width="0.0414062" stroke-miterlimit="4.8"/>
<path d="M14.536 10.6656L14.5425 10.7343H14.5557L14.5458 10.6656L14.5786 10.5125H14.5655L14.5327 10.6656H14.536Z" fill="black"/>
<path d="M14.4539 10.6437L14.4507 10.6531C14.4933 10.6687 14.5491 10.6218 14.5524 10.6218L14.5458 10.6124C14.5458 10.6124 14.49 10.6531 14.4539 10.6437ZM14.5655 10.5531L14.3686 10.4593L14.3752 10.4437L14.5721 10.5374L14.5655 10.5531Z" fill="black"/>
<path d="M14.4211 10.5312L14.408 10.5187L14.4473 10.4812L14.4605 10.4937L14.4211 10.5312ZM14.49 10.5124L14.4473 10.4249L14.4638 10.4187L14.5064 10.5062L14.49 10.5124ZM14.5491 10.6187V10.6374C14.6048 10.6343 14.6147 10.6687 14.6147 10.6687L14.6344 10.6624C14.6344 10.653 14.6114 10.6155 14.5491 10.6187V10.6187Z" fill="black"/>
<path d="M15.4613 10.6562C15.5269 10.6249 15.54 10.4999 15.54 10.4999C15.5236 10.5437 15.4022 10.5906 15.4022 10.5906C15.4908 10.5374 15.5991 10.2968 15.5991 10.2968C15.5728 10.3812 15.3366 10.4531 15.1856 10.5343C15.0347 10.6156 15.1134 10.8468 15.1134 10.8468C15.0708 10.8187 14.9888 10.6968 14.9723 10.5874C14.9559 10.4781 14.9133 10.4343 14.8083 10.4218C14.7066 10.4093 14.6442 10.5218 14.6442 10.5218L14.49 10.5968L14.6475 10.6031C14.6475 10.6031 14.7591 10.6374 14.7591 10.7218C14.7591 10.8031 14.6606 11.1374 14.8247 11.3249C14.933 11.4531 15.3497 11.5281 15.3497 11.5281" fill="white"/>
<path d="M15.4613 10.6562C15.5269 10.6249 15.54 10.4999 15.54 10.4999C15.5236 10.5437 15.4022 10.5906 15.4022 10.5906C15.4908 10.5374 15.5991 10.2968 15.5991 10.2968C15.5728 10.3812 15.3366 10.4531 15.1856 10.5343C15.0347 10.6156 15.1134 10.8468 15.1134 10.8468C15.0708 10.8187 14.9888 10.6968 14.9723 10.5874C14.9559 10.4781 14.9133 10.4343 14.8083 10.4218C14.7066 10.4093 14.6442 10.5218 14.6442 10.5218L14.49 10.5968L14.6475 10.6031C14.6475 10.6031 14.7591 10.6374 14.7591 10.7218C14.7591 10.8031 14.6606 11.1374 14.8247 11.3249C14.933 11.4531 15.3497 11.5281 15.3497 11.5281" stroke="black" stroke-width="0.0579687" stroke-miterlimit="4.8"/>
<path d="M15.1561 10.9155C15.1561 10.9155 15.1889 10.7655 15.2906 10.7718C15.3923 10.778 15.4219 10.6593 15.4842 10.6437C15.5466 10.6249 15.8616 10.5437 15.8944 10.3999C15.8944 10.3999 15.8648 10.6374 15.5761 10.7562C15.5761 10.7562 15.8091 10.6843 15.8386 10.6343C15.8386 10.6343 15.7336 10.8468 15.4809 10.8812C15.4809 10.8812 15.7172 10.8624 15.75 10.803C15.75 10.803 15.645 10.9343 15.4711 10.953C15.4711 10.953 15.6352 11.0155 15.6745 10.9624C15.6745 10.9624 15.5859 11.0624 15.4777 11.0687L15.5105 11.0749C15.5105 11.0749 15.4055 11.1937 15.2906 11.1155C15.1758 11.0374 15.1725 11.1343 15.1725 11.1343" fill="white"/>
<path d="M15.1561 10.9155C15.1561 10.9155 15.1889 10.7655 15.2906 10.7718C15.3923 10.778 15.4219 10.6593 15.4842 10.6437C15.5466 10.6249 15.8616 10.5437 15.8944 10.3999C15.8944 10.3999 15.8648 10.6374 15.5761 10.7562C15.5761 10.7562 15.8091 10.6843 15.8386 10.6343C15.8386 10.6343 15.7336 10.8468 15.4809 10.8812C15.4809 10.8812 15.7172 10.8624 15.75 10.803C15.75 10.803 15.645 10.9343 15.4711 10.953C15.4711 10.953 15.6352 11.0155 15.6745 10.9624C15.6745 10.9624 15.5859 11.0624 15.4777 11.0687L15.5105 11.0749C15.5105 11.0749 15.4055 11.1937 15.2906 11.1155C15.1758 11.0374 15.1725 11.1343 15.1725 11.1343" stroke="black" stroke-width="0.0579687" stroke-miterlimit="4.8"/>
<path d="M15.3891 11.1405C15.3891 11.1405 15.5236 11.353 15.5368 11.4655C15.5368 11.4655 15.7927 11.7312 15.8878 11.7468C15.8878 11.7468 15.8419 11.7655 15.7566 11.6999C15.7566 11.6999 15.8288 11.7687 15.8419 11.7718C15.855 11.7718 15.7861 11.7655 15.7763 11.7468C15.7887 11.7648 15.8042 11.7807 15.8222 11.7937L15.8058 11.7874C15.8058 11.7874 15.773 11.7843 15.7533 11.7718C15.7369 11.7593 15.75 11.803 15.75 11.803C15.75 11.803 15.7107 11.7937 15.6975 11.7812C15.6844 11.7687 15.7008 11.8093 15.7008 11.8093L15.668 11.7999L15.6418 11.8155C15.6418 11.8155 15.6418 11.8312 15.6253 11.8155C15.6089 11.8062 15.5794 11.8155 15.5794 11.8155C15.5794 11.8155 15.5597 11.8343 15.5466 11.8218C15.5368 11.8093 15.4974 11.8718 15.4974 11.8718L15.3333 11.4874" fill="white"/>
<path d="M15.3891 11.1405C15.3891 11.1405 15.5236 11.353 15.5368 11.4655C15.5368 11.4655 15.7927 11.7312 15.8878 11.7468C15.8878 11.7468 15.8419 11.7655 15.7566 11.6999C15.7566 11.6999 15.8288 11.7687 15.8419 11.7718C15.855 11.7718 15.7861 11.7655 15.7763 11.7468C15.7887 11.7648 15.8042 11.7807 15.8222 11.7937L15.8058 11.7874C15.8058 11.7874 15.773 11.7843 15.7533 11.7718C15.7369 11.7593 15.75 11.803 15.75 11.803C15.75 11.803 15.7107 11.7937 15.6975 11.7812C15.6844 11.7687 15.7008 11.8093 15.7008 11.8093L15.668 11.7999L15.6418 11.8155C15.6418 11.8155 15.6418 11.8312 15.6253 11.8155C15.6089 11.8062 15.5794 11.8155 15.5794 11.8155C15.5794 11.8155 15.5597 11.8343 15.5466 11.8218C15.5368 11.8093 15.4974 11.8718 15.4974 11.8718L15.3333 11.4874" stroke="black" stroke-width="0.0579687" stroke-miterlimit="4.8"/>
<path d="M15.5498 11.8343L15.3398 11.4531L15.3595 11.4406L15.5695 11.8249L15.5498 11.8343ZM15.7336 11.8093L15.3727 11.4249L15.3923 11.4093L15.7533 11.7937L15.7336 11.8093ZM15.8156 11.7781L15.4055 11.4062L15.4219 11.3906L15.832 11.7562L15.8156 11.7781Z" fill="black"/>
<path d="M14.7835 10.5431C14.7835 10.5431 14.7574 10.4974 14.7334 10.5161C14.7115 10.5327 14.6985 10.5369 14.6941 10.5348C14.6941 10.5348 14.7159 10.5348 14.7312 10.5244C14.7443 10.5119 14.7661 10.5182 14.7835 10.5452V10.5431ZM14.6396 10.5223L14.6548 10.5514L14.6374 10.5992L14.6505 10.6034L14.6657 10.5514L14.6505 10.5182L14.6396 10.5223V10.5223Z" fill="black"/>
<path d="M14.7792 10.5369C14.7792 10.5369 14.7573 10.5587 14.7312 10.5543L14.7028 10.5478H14.7421C14.7573 10.5478 14.777 10.5413 14.7792 10.5369Z" fill="black"/>
<path d="M14.7724 10.5418C14.7724 10.5418 14.7464 10.5158 14.729 10.5245C14.729 10.5245 14.7594 10.5136 14.7767 10.5397L14.7724 10.5418Z" fill="black"/>
<path d="M14.7679 10.5371C14.7679 10.5371 14.7397 10.5566 14.7094 10.5371L14.7072 10.5327H14.7115C14.7115 10.5327 14.7484 10.5479 14.7679 10.5371Z" fill="black"/>
<path d="M14.7441 10.5415C14.7488 10.5415 14.7526 10.5377 14.7526 10.533C14.7526 10.5283 14.7488 10.5244 14.7441 10.5244C14.7394 10.5244 14.7355 10.5283 14.7355 10.533C14.7355 10.5377 14.7394 10.5415 14.7441 10.5415Z" fill="black"/>
<path d="M14.7656 11.2374C14.7656 11.2374 14.7427 11.2749 14.7558 11.2999C14.7656 11.3218 14.8214 11.3311 14.8247 11.3624C14.8313 11.3936 14.8509 11.3936 14.8739 11.3936L14.9034 11.3843C14.9034 11.3843 14.8017 11.3343 14.7722 11.2499L14.7656 11.2374Z" fill="black"/>
<path d="M18.0272 10.4625C18.0272 10.4625 18.211 10.2312 18.375 10.2906C18.5391 10.3531 18.6408 10.3844 18.6408 10.3844C18.6408 10.3844 18.6441 10.5375 18.5588 10.5375C18.4735 10.5375 18.3882 10.3812 18.3094 10.4281C18.2499 10.46 18.1992 10.505 18.1618 10.5594C18.1585 10.5812 17.955 10.5844 18.0272 10.4625V10.4625Z" fill="#964B36" stroke="black" stroke-width="0.0248437" stroke-miterlimit="4.8"/>
<path d="M17.3316 11.575C17.3316 11.575 17.2791 11.625 17.302 11.6375C17.325 11.65 17.3709 11.6375 17.3709 11.6187C17.3709 11.6 17.3381 11.5687 17.3316 11.575Z" fill="#964B36" stroke="black" stroke-width="0.0414062" stroke-miterlimit="4.8"/>
<path d="M17.2922 11.625C17.2922 11.625 17.1938 11.5719 17.1216 11.6937C17.0461 11.8125 16.9871 12.0094 16.9444 12.0375C16.9017 12.0625 17.3644 11.8437 17.371 11.75C17.371 11.75 17.4005 11.6312 17.3513 11.6344C17.3021 11.6344 17.2988 11.6406 17.2889 11.6219L17.2922 11.625Z" fill="#964B36" stroke="black" stroke-width="0.0414062" stroke-miterlimit="4.8"/>
<path d="M17.302 11.6375C17.302 11.6375 17.2036 11.6594 17.1839 11.7906C17.1642 11.9219 17.0297 11.9875 17.0199 11.9938M18.6408 10.3813C18.6408 10.3813 18.4964 10.4313 18.5194 10.5281Z" fill="#964B36"/>
<path d="M17.302 11.6375C17.302 11.6375 17.2036 11.6594 17.1839 11.7906C17.1642 11.9219 17.0297 11.9875 17.0199 11.9938M18.6408 10.3813C18.6408 10.3813 18.4964 10.4313 18.5194 10.5281" stroke="black" stroke-width="0.0248437" stroke-miterlimit="4.8"/>
<path d="M17.512 10.6655C17.512 10.6655 17.5186 10.3343 17.8041 10.3468C17.8566 10.353 17.8303 10.4124 17.8303 10.4124C17.8303 10.4124 17.8959 10.3718 17.9222 10.4374C17.9222 10.4374 18.0108 10.3999 18.0206 10.4843C18.0206 10.4843 18.1191 10.4718 18.1059 10.5468C18.1059 10.5468 18.1716 10.5312 18.1716 10.5843C18.1716 10.5843 18.247 10.5562 18.2372 10.6312C18.2372 10.6312 18.3225 10.578 18.3126 10.6749C18.3126 10.6749 18.398 10.6155 18.4275 10.7124C18.4603 10.8124 18.3422 11.0187 18.2273 11.0718" fill="#FFF200"/>
<path d="M17.512 10.6655C17.512 10.6655 17.5186 10.3343 17.8041 10.3468C17.8566 10.353 17.8303 10.4124 17.8303 10.4124C17.8303 10.4124 17.8959 10.3718 17.9222 10.4374C17.9222 10.4374 18.0108 10.3999 18.0206 10.4843C18.0206 10.4843 18.1191 10.4718 18.1059 10.5468C18.1059 10.5468 18.1716 10.5312 18.1716 10.5843C18.1716 10.5843 18.247 10.5562 18.2372 10.6312C18.2372 10.6312 18.3225 10.578 18.3126 10.6749C18.3126 10.6749 18.398 10.6155 18.4275 10.7124C18.4603 10.8124 18.3422 11.0187 18.2273 11.0718" stroke="black" stroke-width="0.0248437" stroke-miterlimit="4.8"/>
<path d="M18.3061 10.6874C18.3061 10.6874 18.3422 10.9437 18.1912 11.0406L18.1945 11.0468C18.3553 10.9531 18.3159 10.6874 18.3159 10.6843H18.3061V10.6874ZM18.119 10.9687L18.1256 10.9749C18.224 10.8843 18.247 10.6437 18.247 10.6312H18.2372C18.2372 10.6312 18.2142 10.8812 18.119 10.9687V10.9687ZM18.0304 10.9093H18.0403C18.0603 10.794 18.1062 10.6843 18.1748 10.5874L18.1683 10.5843C18.1683 10.5843 18.0436 10.7562 18.0304 10.9093V10.9093ZM17.9583 10.8656H17.9681C17.9845 10.6874 18.1125 10.5531 18.1125 10.5499L18.1059 10.5437C18.1059 10.5437 17.9747 10.6843 17.9583 10.8656V10.8656ZM17.8598 10.8031H17.8697C17.8795 10.5937 18.0272 10.4906 18.0272 10.4906L18.0206 10.4812C18.0206 10.4812 17.8697 10.5874 17.8565 10.8062L17.8598 10.8031ZM17.7679 10.7531H17.7778C17.7712 10.5593 17.9254 10.4406 17.9287 10.4406L17.9222 10.4343C17.9222 10.4343 17.7581 10.5531 17.7679 10.7531V10.7531ZM17.6039 10.6812H17.6137C17.6214 10.6219 17.6463 10.5659 17.6858 10.5195C17.7252 10.4731 17.7776 10.4381 17.8368 10.4187V10.4093C17.775 10.429 17.7202 10.465 17.679 10.5131C17.6378 10.5612 17.6117 10.6195 17.6039 10.6812V10.6812Z" fill="black"/>
<path d="M17.3447 11.0686C17.3447 11.0686 17.2955 10.7593 17.4891 10.6624C17.4891 10.6624 17.5252 10.6561 17.5449 10.6999C17.5449 10.6999 17.6466 10.6593 17.6499 10.7405C17.6499 10.7405 17.7024 10.703 17.7155 10.7561C17.7155 10.7561 17.8238 10.7343 17.8041 10.8124C17.8041 10.8124 17.896 10.7874 17.8861 10.8624C17.8861 10.8624 17.978 10.8311 17.9649 10.8936C17.9649 10.8936 18.0633 10.8749 18.037 10.9499C18.037 10.9499 18.1585 10.9374 18.1224 11.0155C18.1224 11.0155 18.211 10.9936 18.188 11.0593C18.188 11.0593 18.3061 11.0811 18.2536 11.153C18.1676 11.2507 18.0569 11.3259 17.932 11.3718" fill="#00A651"/>
<path d="M17.3447 11.0686C17.3447 11.0686 17.2955 10.7593 17.4891 10.6624C17.4891 10.6624 17.5252 10.6561 17.5449 10.6999C17.5449 10.6999 17.6466 10.6593 17.6499 10.7405C17.6499 10.7405 17.7024 10.703 17.7155 10.7561C17.7155 10.7561 17.8238 10.7343 17.8041 10.8124C17.8041 10.8124 17.896 10.7874 17.8861 10.8624C17.8861 10.8624 17.978 10.8311 17.9649 10.8936C17.9649 10.8936 18.0633 10.8749 18.037 10.9499C18.037 10.9499 18.1585 10.9374 18.1224 11.0155C18.1224 11.0155 18.211 10.9936 18.188 11.0593C18.188 11.0593 18.3061 11.0811 18.2536 11.153C18.1676 11.2507 18.0569 11.3259 17.932 11.3718" stroke="black" stroke-width="0.0248437" stroke-miterlimit="4.8"/>
<path d="M17.2397 11.3781C17.2397 11.3781 17.1609 11.1218 17.3118 11.0562C17.3118 11.0562 17.3414 11.0499 17.3446 11.0749C17.3446 11.0749 17.3775 11.0343 17.4037 11.0718C17.4037 11.0718 17.4792 11.0374 17.4989 11.0906C17.4989 11.0906 17.5481 11.0499 17.5743 11.1093C17.5743 11.1093 17.6236 11.0906 17.6236 11.1406C17.6236 11.1406 17.6892 11.1093 17.6892 11.1718C17.6892 11.1718 17.7548 11.1468 17.7384 11.2093C17.7384 11.2093 17.8368 11.2249 17.8073 11.2687C17.8073 11.2687 17.8959 11.2906 17.8631 11.3249C17.8631 11.3249 17.955 11.3156 17.9057 11.3749C17.9057 11.3749 17.9779 11.3531 17.9386 11.4281C17.8959 11.5031 17.7679 11.5843 17.6761 11.5968" fill="#00A651"/>
<path d="M17.2397 11.3781C17.2397 11.3781 17.1609 11.1218 17.3118 11.0562C17.3118 11.0562 17.3414 11.0499 17.3446 11.0749C17.3446 11.0749 17.3775 11.0343 17.4037 11.0718C17.4037 11.0718 17.4792 11.0374 17.4989 11.0906C17.4989 11.0906 17.5481 11.0499 17.5743 11.1093C17.5743 11.1093 17.6236 11.0906 17.6236 11.1406C17.6236 11.1406 17.6892 11.1093 17.6892 11.1718C17.6892 11.1718 17.7548 11.1468 17.7384 11.2093C17.7384 11.2093 17.8368 11.2249 17.8073 11.2687C17.8073 11.2687 17.8959 11.2906 17.8631 11.3249C17.8631 11.3249 17.955 11.3156 17.9057 11.3749C17.9057 11.3749 17.9779 11.3531 17.9386 11.4281C17.8959 11.5031 17.7679 11.5843 17.6761 11.5968" stroke="black" stroke-width="0.0248437" stroke-miterlimit="4.8"/>
<path d="M17.3348 11.5812C17.3348 11.5812 17.1675 11.4249 17.2462 11.3812C17.2462 11.3812 17.279 11.3906 17.2954 11.4249C17.2954 11.4249 17.3348 11.3687 17.3611 11.4249C17.3611 11.4249 17.4201 11.4062 17.4201 11.4468L17.4661 11.4781C17.4661 11.4781 17.5219 11.4749 17.512 11.5093C17.512 11.5093 17.5744 11.4999 17.5711 11.5312C17.5711 11.5312 17.6236 11.5343 17.6203 11.5687C17.6203 11.5687 17.7122 11.5843 17.6695 11.6281C17.6695 11.6281 17.512 11.6593 17.3972 11.6156C17.3972 11.6156 17.3414 11.5968 17.3348 11.5812V11.5812Z" fill="#00A651" stroke="black" stroke-width="0.0248437" stroke-miterlimit="4.8"/>
<path d="M17.9124 11.325V11.3343C18.022 11.2597 18.1175 11.1678 18.1945 11.0625L18.1847 11.0562C18.1847 11.0593 18.0075 11.2906 17.9124 11.325V11.325ZM17.8533 11.2843L17.8599 11.2937C17.9452 11.2468 18.1191 11.0281 18.1224 11.0187L18.1191 11.0125C18.1158 11.0156 17.9386 11.2375 17.8566 11.2843H17.8533ZM17.8041 11.2656L17.8106 11.2718C17.9015 11.1745 17.9788 11.0663 18.0403 10.95L18.0338 10.9468C18.0338 10.9468 17.8959 11.1937 17.8041 11.2656V11.2656ZM17.7614 11.2093H17.7713C17.7877 11.0906 17.9681 10.9 17.9681 10.8968L17.9583 10.8937C17.9517 10.9 17.7778 11.0875 17.7614 11.2093ZM17.4038 11.0625H17.4136C17.4005 10.8906 17.5481 10.7031 17.5514 10.7031L17.5416 10.6968C17.5416 10.6968 17.3874 10.8906 17.4038 11.0625ZM17.4989 11.0781H17.5088C17.4825 10.9406 17.6531 10.7468 17.6531 10.7437L17.6466 10.7375C17.64 10.7468 17.4727 10.9375 17.4989 11.0781V11.0781ZM17.6433 11.1281H17.6531C17.6466 10.9718 17.8041 10.8156 17.8074 10.8156L17.8008 10.8062C17.8008 10.8093 17.6367 10.9687 17.6433 11.1281ZM17.2988 11.4093H17.3086C17.2495 11.2625 17.348 11.0781 17.3513 11.0781L17.3414 11.0718C17.3414 11.0718 17.2397 11.2625 17.2988 11.4125V11.4093ZM17.3644 11.4218L17.3742 11.4187C17.3217 11.2718 17.407 11.075 17.407 11.075L17.4005 11.0687C17.4005 11.0687 17.3119 11.2718 17.3644 11.4218V11.4218ZM17.6367 11.5687V11.575C17.8008 11.5218 17.9091 11.3781 17.9091 11.3781L17.8992 11.3718C17.8992 11.3718 17.7942 11.5125 17.6367 11.5687ZM17.6039 11.5343V11.5437C17.7352 11.4875 17.8566 11.3312 17.8566 11.3312L17.85 11.325C17.85 11.325 17.7286 11.4812 17.6039 11.5343ZM17.5711 11.5218L17.5777 11.5312C17.6761 11.4593 17.8074 11.2812 17.8074 11.2812L17.8008 11.275C17.8008 11.275 17.6695 11.4531 17.5711 11.5218ZM17.407 11.4312H17.4202C17.4147 11.3127 17.443 11.195 17.5022 11.0906L17.4924 11.0875C17.4924 11.0875 17.3874 11.275 17.4103 11.4312H17.407ZM17.4792 11.475L17.4858 11.4812C17.5908 11.3906 17.6269 11.15 17.6269 11.1375H17.617C17.617 11.1375 17.5842 11.3875 17.4792 11.475ZM17.5514 11.5L17.558 11.5093C17.6534 11.433 17.7192 11.3285 17.745 11.2125H17.7352C17.7352 11.2125 17.6958 11.4 17.5514 11.5031V11.5ZM17.5678 11.0812V11.1093L17.4563 11.4531L17.4661 11.4562L17.5777 11.1125C17.5613 10.9437 17.7155 10.7593 17.7188 10.7593L17.7089 10.7531C17.7089 10.7531 17.5678 10.9187 17.5678 11.0812Z" fill="black"/>
<path d="M17.6859 11.1655C17.6859 11.1718 17.6498 11.4062 17.5153 11.4937L17.5219 11.503C17.6597 11.4124 17.6925 11.1812 17.6925 11.1687C17.7516 11.103 17.8894 10.8655 17.8894 10.8655L17.8828 10.8593C17.8828 10.8593 17.745 11.0968 17.6859 11.1655V11.1655ZM17.2922 11.4249C17.2922 11.428 17.3119 11.5499 17.3381 11.5874L17.348 11.5843C17.3217 11.5437 17.2988 11.4249 17.2988 11.4218L17.2889 11.4249H17.2922ZM17.3545 11.4249L17.3513 11.5905H17.3611V11.4249H17.3545V11.4249Z" fill="black"/>
<path d="M17.3578 11.5937L17.3676 11.5968C17.4103 11.5093 17.4234 11.4468 17.4234 11.4468H17.4136C17.4136 11.4468 17.4004 11.5062 17.3578 11.5937ZM17.3676 11.5968L17.3742 11.6062C17.423 11.5784 17.4583 11.5335 17.4726 11.4812H17.4628C17.4628 11.4812 17.4431 11.5562 17.3676 11.5968V11.5968ZM17.384 11.6031V11.6124C17.4628 11.6062 17.5153 11.5156 17.5153 11.5093H17.5087C17.5087 11.5093 17.4562 11.5968 17.384 11.6031Z" fill="black"/>
<path d="M17.3906 11.6093V11.6187C17.5186 11.6093 17.5744 11.5374 17.5744 11.5343L17.5678 11.5312C17.5678 11.5312 17.512 11.5999 17.3906 11.6093Z" fill="black"/>
<path d="M17.4005 11.6093V11.6186C17.4037 11.6186 17.5645 11.653 17.6203 11.5749L17.6105 11.5686C17.5612 11.6436 17.4005 11.6124 17.4005 11.6093V11.6093Z" fill="black"/>
<path d="M13.8107 6.03745V10.2999C13.8107 11.6937 16.4554 12.5187 16.4554 12.5187C16.4554 12.5187 19.0968 11.6937 19.0968 10.2999V6.03745H13.8107Z" stroke="black" stroke-width="0.231875" stroke-miterlimit="4.8"/>
<path d="M0 0H10.5V7.5H0V0Z" fill="#012169"/>
<path d="M1.23047 0L5.23359 2.82812L9.22031 0H10.5V0.96875L6.5625 3.76562L10.5 6.54688V7.5H9.1875L5.25 4.70312L1.32891 7.5H0V6.5625L3.92109 3.78125L0 1V0H1.23047Z" fill="white"/>
<path d="M6.95625 4.39062L10.5 6.875V7.5L6.05391 4.39062H6.95625ZM3.9375 4.70312L4.03594 5.25L0.885937 7.5H0L3.9375 4.70312ZM10.5 0V0.046875L6.41484 2.98438L6.44766 2.29688L9.67969 0H10.5ZM0 0L3.92109 2.75H2.93672L0 0.65625V0Z" fill="#C8102E"/>
<path d="M3.95391 0V7.5H6.57891V0H3.95391ZM0 2.5V5H10.5V2.5H0Z" fill="white"/>
<path d="M0 3.01562V4.51562H10.5V3.01562H0ZM4.47891 0V7.5H6.05391V0H4.47891Z" fill="#C8102E"/>
</g>
<defs>
<clipPath id="clip0_123_3125">
<rect width="21" height="15" rx="3" fill="white"/>
</clipPath>
</defs>
</svg>
