<svg width="21" height="15" viewBox="0 0 21 15" fill="none" xmlns="http://www.w3.org/2000/svg">
<g clip-path="url(#clip0_123_1932)">
<rect width="21" height="15" rx="3" fill="#249F58"/>
<path d="M0 0H21V15H0V0Z" fill="#DA000C"/>
<path d="M0 0H21V10.05H0V0Z" fill="white"/>
<path d="M7.28918 7.09558H10.7486V9.42055H7.28918V7.09558Z" fill="black"/>
<path d="M9.08378 9.08237H6.97567L6.5054 9.38356V9.70061H9.08378M8.2027 7.74552C8.5054 7.74552 8.75405 7.99387 8.75405 8.30034V9.07709H9.14864V6.11804H6.97027V9.07709H7.65135V8.30034C7.65135 8.00444 7.89459 7.74552 8.2027 7.74552V7.74552Z" fill="#DA000C"/>
<path d="M9.08378 9.08237H6.97567L6.5054 9.38356V9.70061H9.08378M8.2027 7.74552C8.5054 7.74552 8.75405 7.99387 8.75405 8.30034V9.07709H9.14864V6.11804H6.97027V9.07709H7.65135V8.30034C7.65135 8.00444 7.89459 7.74552 8.2027 7.74552V7.74552Z" stroke="black" stroke-width="0.05" stroke-linecap="square"/>
<path d="M7.71622 4.12061H8.72162V5.91717H7.71622V4.12061Z" fill="black"/>
<path d="M8.71622 5.63704H7.84054V5.33057H7.1973V5.63704H6.76486V5.33057H6.5V5.88011H8.71622M6.75946 5.88011H8.65135V6.11789H6.75946V5.88011ZM7.51622 3.46531V5.33586H7.84054V4.82331C7.84054 4.63308 7.97568 4.47456 8.17027 4.46399H8.19189C8.24016 4.46399 8.28796 4.47329 8.33255 4.49134C8.37715 4.5094 8.41767 4.53587 8.4518 4.56923C8.48593 4.6026 8.51301 4.64221 8.53148 4.6858C8.54995 4.7294 8.55946 4.77612 8.55946 4.82331V5.33586H8.86757V3.46531H7.51622ZM7.39189 3.21168V3.46531H8.97568V3.21168H7.39189ZM7.19189 2.73083V3.21168H9.08378V2.73083H8.7973V2.97918H8.44054V2.73083H7.9V2.97918H7.54865V2.73083H7.19189ZM10.7703 9.23546H9.01892L8.70334 9.38341L8.48919 9.48381V9.85369H10.7703" fill="#DA000C"/>
<path d="M8.71622 5.63704H7.84054V5.33057H7.1973V5.63704H6.76486V5.33057H6.5V5.88011H8.71622M6.5 9.38341H8.70334M10.7703 9.23546H9.01892L8.70334 9.38341M10.7703 9.85369H8.48919V9.48381L8.70334 9.38341M6.75946 5.88011H8.65135V6.11789H6.75946V5.88011ZM7.51622 3.46531V5.33586H7.84054V4.82331C7.84054 4.63308 7.97568 4.47456 8.17027 4.46399H8.19189C8.24016 4.46399 8.28796 4.47329 8.33255 4.49134C8.37715 4.5094 8.41767 4.53587 8.4518 4.56923C8.48593 4.6026 8.51301 4.64221 8.53148 4.6858C8.54995 4.7294 8.55946 4.77612 8.55946 4.82331V5.33586H8.86757V3.46531H7.51622ZM7.39189 3.21168V3.46531H8.97568V3.21168H7.39189ZM7.19189 2.73083V3.21168H9.08378V2.73083H8.7973V2.97918H8.44054V2.73083H7.9V2.97918H7.54865V2.73083H7.19189Z" stroke="black" stroke-width="0.05" stroke-linecap="square"/>
<path d="M8.48917 9.48389H10.8243Z" fill="#DA000C"/>
<path d="M8.48917 9.48389H10.8243" stroke="black" stroke-width="0.05"/>
<path d="M13.7108 7.09558H10.2513V9.42055H13.7108V7.09558Z" fill="black"/>
<path d="M11.9162 9.08237H14.0243L14.4946 9.38356V9.70061H11.9162M12.7973 7.74552C12.4946 7.74552 12.2459 7.99387 12.2459 8.30034V9.07709H11.8513V6.11804H14.0297V9.07709H13.3486V8.30034C13.3486 8.00444 13.1054 7.74552 12.7973 7.74552V7.74552Z" fill="#DA000C"/>
<path d="M11.9162 9.08237H14.0243L14.4946 9.38356V9.70061H11.9162M12.7973 7.74552C12.4946 7.74552 12.2459 7.99387 12.2459 8.30034V9.07709H11.8513V6.11804H14.0297V9.07709H13.3486V8.30034C13.3486 8.00444 13.1054 7.74552 12.7973 7.74552V7.74552Z" stroke="black" stroke-width="0.05" stroke-linecap="square"/>
<path d="M13.2838 4.12061H12.2784V5.91717H13.2838V4.12061Z" fill="black"/>
<path d="M12.2838 5.63704H13.1595V5.33057H13.8027V5.63704H14.2351V5.33057H14.5V5.88011H12.2838M14.2405 5.88011H12.3486V6.11789H14.2405V5.88011ZM13.4838 3.46531V5.33586H13.1595V4.82331C13.1595 4.63308 13.0243 4.47456 12.8297 4.46399H12.8081C12.7598 4.46399 12.712 4.47329 12.6674 4.49134C12.6229 4.5094 12.5823 4.53587 12.5482 4.56923C12.5141 4.6026 12.487 4.64221 12.4685 4.6858C12.45 4.7294 12.4405 4.77612 12.4405 4.82331V5.33586H12.1324V3.46531H13.4838ZM13.6081 3.21168V3.46531H12.0243V3.21168H13.6081ZM13.8081 2.73083V3.21168H11.9162V2.73083H12.2027V2.97918H12.5595V2.73083H13.1V2.97918H13.4514V2.73083H13.8081ZM10.2297 9.23546H11.9811L12.2967 9.38341L12.5108 9.48381V9.85369H10.2297" fill="#DA000C"/>
<path d="M12.2838 5.63704H13.1595V5.33057H13.8027V5.63704H14.2351V5.33057H14.5V5.88011H12.2838M14.5 9.38341H12.2967M10.2297 9.23546H11.9811L12.2967 9.38341M10.2297 9.85369H12.5108V9.48381L12.2967 9.38341M14.2405 5.88011H12.3486V6.11789H14.2405V5.88011ZM13.4838 3.46531V5.33586H13.1595V4.82331C13.1595 4.63308 13.0243 4.47456 12.8297 4.46399H12.8081C12.7598 4.46399 12.712 4.47329 12.6674 4.49134C12.6229 4.5094 12.5823 4.53587 12.5482 4.56923C12.5141 4.6026 12.487 4.64221 12.4685 4.6858C12.45 4.7294 12.4405 4.77612 12.4405 4.82331V5.33586H12.1324V3.46531H13.4838ZM13.6081 3.21168V3.46531H12.0243V3.21168H13.6081ZM13.8081 2.73083V3.21168H11.9162V2.73083H12.2027V2.97918H12.5595V2.73083H13.1V2.97918H13.4514V2.73083H13.8081Z" stroke="black" stroke-width="0.05" stroke-linecap="square"/>
<path d="M12.5108 9.48389H10.1757Z" fill="#DA000C"/>
<path d="M12.5108 9.48389H10.1757" stroke="black" stroke-width="0.05"/>
<path d="M11.4351 8.87585C11.2892 8.92869 11.1649 9.00267 11.0297 9.07665C10.8616 9.17055 10.7008 9.27652 10.5487 9.39369C10.4946 9.43068 10.4405 9.46766 10.4027 9.5205C10.3487 9.56278 10.2946 9.62618 10.3054 9.70544C10.3054 9.73715 10.3487 9.66317 10.3811 9.65789C10.4324 9.63103 10.492 9.62351 10.5487 9.63675C10.6189 9.56278 10.7108 9.51522 10.7865 9.4571C11.0068 9.30123 11.2422 9.16673 11.4892 9.05551L11.4351 8.87585Z" fill="#F8D80E" stroke="black" stroke-width="0.05" stroke-linecap="round"/>
<path d="M10.7378 9.2669V9.47298ZM10.8676 9.17708V9.38315ZM10.9973 9.09781V9.29861ZM11.1324 9.01855V9.22992Z" fill="#F8D80E"/>
<path d="M10.7378 9.2669V9.47298M10.8676 9.17708V9.38315M10.9973 9.09781V9.29861M11.1324 9.01855V9.22992" stroke="black" stroke-width="0.05" stroke-linecap="round"/>
<path d="M9.57568 8.88641L9.51082 9.06079C9.80953 9.17279 10.0957 9.31444 10.3649 9.48351C10.4568 9.54692 10.5541 9.60504 10.6243 9.68958C10.6405 9.73186 10.5973 9.76884 10.5541 9.75299C10.5162 9.74242 10.473 9.72657 10.4351 9.75299C10.3757 9.77941 10.3216 9.86924 10.4081 9.89566C10.5378 9.98021 10.7378 9.94322 10.7973 9.80055C10.8297 9.72657 10.8351 9.63146 10.7703 9.56805C10.6622 9.44652 10.5108 9.35669 10.3703 9.26686C10.1179 9.11651 9.85192 8.98916 9.57568 8.88641V8.88641Z" fill="#F8D80E" stroke="black" stroke-width="0.05" stroke-linecap="round"/>
<path d="M10.3919 9.29854L10.3757 9.47819ZM10.5433 9.38837L10.5 9.56274ZM10.7054 9.5099L10.6081 9.64728ZM10.7541 9.83751L10.6135 9.76353ZM10.7973 9.68955L10.6352 9.70541ZM10.5919 9.91677L10.5811 9.77938ZM10.527 9.76353L10.3973 9.85864ZM9.88921 9.02905V9.19286ZM10.2297 9.20871V9.39365ZM10.0568 9.11888V9.29325Z" fill="#F8D80E"/>
<path d="M10.3919 9.29854L10.3757 9.47819M10.5433 9.38837L10.5 9.56274M10.7054 9.5099L10.6081 9.64728M10.7541 9.83751L10.6135 9.76353M10.7973 9.68955L10.6352 9.70541M10.5919 9.91677L10.5811 9.77938M10.527 9.76353L10.3973 9.85864M9.88921 9.02905V9.19286M10.2297 9.20871V9.39365M10.0568 9.11888V9.29325" stroke="black" stroke-width="0.05" stroke-linecap="round"/>
<path d="M9.40808 12.9764V13.3992H9.67835V13.1878H10.0513V13.3992H10.3432V12.9764H9.40808ZM9.40808 13.5577V13.9804H10.3378V13.5577H10.0459V13.769H9.67295V13.5577H9.40808Z" fill="#F8D80E" stroke="black" stroke-width="0.05"/>
<path d="M10.3378 11.1851H10.6081V14.2498H10.3378V11.1851Z" fill="#F8D80E" stroke="black" stroke-width="0.05"/>
<path d="M10.3378 11.4493H10.6081V14.0913H10.3378V11.4493ZM10.4784 10.4295L11.0513 10.7571L10.4784 11.0847L9.89999 10.7571L10.4784 10.4295ZM9.70539 10.6408H9.55945V10.8733H9.70539L10.4784 11.3119L11.2459 10.8733H11.3973V10.6408H11.2459L10.4784 10.2023L9.70539 10.6408Z" fill="#F8D80E" stroke="black" stroke-width="0.05"/>
<path d="M10.4622 9.63159C10.3993 9.64409 10.343 9.67807 10.3033 9.72745C10.2637 9.77683 10.2434 9.83837 10.2459 9.90108V10.4929C10.2509 10.5557 10.2787 10.6148 10.3243 10.6594C10.3699 10.7039 10.4303 10.7311 10.4946 10.736C10.5481 10.7399 10.6015 10.7278 10.6479 10.7014C10.6942 10.675 10.7312 10.6354 10.7541 10.588L10.6622 10.5352C10.6494 10.5661 10.6267 10.5921 10.5974 10.6093C10.5681 10.6265 10.5339 10.6338 10.5 10.6303C10.4135 10.6303 10.3432 10.5457 10.3541 10.4665V9.87466C10.3581 9.83589 10.3772 9.80011 10.4073 9.77459C10.4374 9.74907 10.4764 9.73572 10.5162 9.73727C10.5486 9.7267 10.5973 9.77426 10.6189 9.73727C10.6514 9.68972 10.5973 9.65801 10.5649 9.63159H10.4622V9.63159ZM10.7757 9.83767C10.7493 9.87385 10.7139 9.90292 10.673 9.92221V10.3185L10.7811 10.3766V9.83767H10.7757Z" fill="#F8D80E" stroke="black" stroke-width="0.05"/>
<path d="M9.67838 2.97906H11.2622V5.79016H9.67838V2.97906Z" fill="black"/>
<path d="M9.57026 2.97895V5.33034H10.073V4.63285C10.073 4.47433 10.1811 4.24711 10.5 4.24711C10.8189 4.24711 10.9324 4.47433 10.9324 4.63285V5.33562H11.4297V2.97895H9.57026ZM10.4243 3.24315H10.5757V4.04632H10.4243V3.24315ZM9.97567 3.40167H10.1378V3.9882H9.97567V3.40167ZM10.8676 3.40167H11.0243V3.9882H10.8622L10.8676 3.40167ZM9.39729 2.64077V2.97367H11.6027V2.64077H9.39729ZM9.19189 2.24976V2.64077H11.8135V2.24976H11.4838V2.46112H11.1054V2.24976H10.6838V2.46112H10.3162V2.24976H9.88918V2.46112H9.52702V2.24976H9.19189ZM8.7054 6.11766V6.36072H12.3V6.11766H8.7054Z" fill="#DA000C" stroke="black" stroke-width="0.05"/>
<path d="M8.55405 5.33044V6.12305H12.4459V5.33044H12.0784V5.63692H11.5811V5.33044H10.9216V5.63692H10.0676V5.33044H9.4081V5.63692H8.92161V5.33044H8.55405Z" fill="#DA000C" stroke="black" stroke-width="0.05"/>
<path d="M9.02434 6.36084V9.23534H9.71623V8.1574C9.71623 7.65542 10.0622 7.41764 10.5 7.41764C10.9216 7.41764 11.2838 7.65542 11.2838 8.1574V9.23534H11.9757V6.36084H9.02434Z" fill="#DA000C" stroke="black" stroke-width="0.05" stroke-linejoin="round"/>
</g>
<defs>
<clipPath id="clip0_123_1932">
<rect width="21" height="15" rx="3" fill="white"/>
</clipPath>
</defs>
</svg>
