<svg width="21" height="15" viewBox="0 0 21 15" fill="none" xmlns="http://www.w3.org/2000/svg">
<g clip-path="url(#clip0_132_5128)">
<path d="M0 0H21V15H0V0Z" fill="#D21034"/>
<path d="M0 0H21V7.5H0V0Z" fill="#00209F"/>
<path d="M8.01619 5.61563H12.984V9.38126H8.01619V5.61563Z" fill="white"/>
<path d="M11.5008 8.33749L10.4836 8.36874L9.47625 8.37812C9.47625 8.37812 8.95782 8.55937 8.74454 8.59999C8.53454 8.64062 8.56079 8.70624 8.4 8.74374C8.26875 8.77187 8.25235 8.77812 8.17688 8.78437C8.12766 8.78437 8.07188 8.82187 8.01282 8.85937V9.38124H12.9839V8.88437C12.9314 8.85624 12.8789 8.83749 12.8264 8.82187C12.7542 8.79687 12.705 8.77187 12.5738 8.74374C12.4097 8.70937 12.4359 8.64062 12.2259 8.59999C12.0127 8.55937 11.5008 8.33749 11.5008 8.33749Z" fill="#016A16" stroke="#016A16" stroke-width="0.0253125"/>
<path d="M10.2113 7.17499H10.2848L10.4213 7.70999L10.3898 7.87999L10.2113 7.17999V7.17499Z" fill="#F1B517" stroke="black" stroke-width="0.027"/>
<path d="M10.1325 6.815L10.185 7.23H10.2375L10.1325 6.82V6.815Z" fill="white" stroke="black" stroke-width="0.027"/>
<path d="M10.2743 7.73002L10.0485 7.15502L10.1325 7.15002L10.395 7.85002L10.2743 7.73002Z" fill="#F1B517" stroke="black" stroke-width="0.027"/>
<path d="M9.94351 6.82501L10.038 7.22501H10.1115L9.94351 6.82501Z" fill="white" stroke="black" stroke-width="0.027"/>
<path d="M10.0748 7.53L9.94351 7.255L9.99601 7.245L10.2428 7.695L10.0748 7.53Z" fill="#F1B517" stroke="black" stroke-width="0.027"/>
<path d="M9.76501 6.94L9.91726 7.32H9.99076L9.77026 6.94H9.76501Z" fill="white" stroke="black" stroke-width="0.027"/>
<path d="M10.0958 7.57001L9.49202 6.94501C9.30302 7.08501 9.33976 7.34501 9.33976 7.34501L10.0223 7.85501L10.0905 7.57001H10.0958Z" fill="#0A328C" stroke="black" stroke-width="0.027"/>
<path d="M10.4423 7.91001L9.99601 7.48001C9.80701 7.49001 9.95401 7.75501 9.96451 7.79001L10.437 8.17501V7.91001H10.4423Z" fill="#D20014" stroke="black" stroke-width="0.027"/>
<path d="M10.4003 7.84L9.48152 6.9L9.44477 6.925L10.4213 7.955L10.4003 7.84ZM9.42902 6.84L9.40802 6.815V6.77L9.21902 6.655L9.30302 6.84L9.37127 6.85L9.38702 6.87L9.42902 6.84Z" fill="#F1B517" stroke="black" stroke-width="0.027"/>
<path d="M9.32927 6.90501C9.36793 6.85932 9.41622 6.82185 9.47102 6.79501L9.52352 6.87001L9.40802 6.96001L9.32927 6.91001V6.90501Z" fill="#F1B517" stroke="black" stroke-width="0.027"/>
<path d="M9.22952 7.06502L9.26102 7.11502C9.28202 7.11002 9.47102 6.94002 9.47102 6.94002H9.61277L9.64952 6.89502C9.54452 6.79502 9.45527 6.91002 9.45527 6.91002L9.22952 7.06002V7.06502Z" fill="#0A328C" stroke="#0A328C" stroke-width="0.027"/>
<path d="M9.34502 7.14999C9.34502 7.09999 9.43952 6.98999 9.45002 6.98499C9.51827 7.00499 9.58127 7.04499 9.65477 6.89499C9.59177 6.96499 9.47102 6.89499 9.47102 6.89499L9.41852 6.93499V6.95499L9.26102 7.09499L9.33977 7.14999H9.34502Z" fill="#D20014" stroke="#D20014" stroke-width="0.027"/>
<path d="M9.83326 7.73501L9.07726 7.16501C8.94601 7.29001 9.05626 7.67501 9.05626 7.67501L9.79126 8.05501L9.82801 7.73501H9.83326Z" fill="#0A328C" stroke="black" stroke-width="0.027"/>
<path d="M10.458 8.2L9.83328 7.72C9.62328 7.75 9.79128 8.045 9.80178 8.08L10.458 8.42V8.195V8.2Z" fill="#D20014" stroke="black" stroke-width="0.027"/>
<path d="M10.4318 8.10001L9.08776 7.14001L9.06151 7.17001L10.4685 8.22001L10.4318 8.10001ZM9.02476 7.09001L9.00376 7.07001L8.99326 7.03001L8.78326 6.94501L8.90401 7.11001H8.97226L8.99326 7.13001L9.02476 7.09001Z" fill="#F1B517" stroke="black" stroke-width="0.027"/>
<path d="M8.94077 7.17001C8.97081 7.11896 9.01199 7.07464 9.06152 7.04001L9.12452 7.10501L9.03002 7.21001L8.94077 7.17001Z" fill="#F1B517" stroke="black" stroke-width="0.027"/>
<path d="M8.87251 7.33V7.385C8.89351 7.375 9.06676 7.2 9.06676 7.2L9.19801 7.175L9.22951 7.135C9.13501 7.03 9.03526 7.17 9.03526 7.17L8.86726 7.33H8.87251Z" fill="#0A328C" stroke="#0A328C" stroke-width="0.027"/>
<path d="M8.97751 7.425C8.96701 7.375 9.04051 7.235 9.05101 7.225C9.13501 7.25 9.20851 7.285 9.23476 7.125C9.18226 7.205 9.05101 7.145 9.05101 7.145L9.00901 7.195V7.22L8.87776 7.385L8.97751 7.425Z" fill="#D20014" stroke="#D20014" stroke-width="0.027"/>
<path d="M9.77552 8.085C9.45107 7.91118 9.12732 7.73618 8.80427 7.56C8.73602 7.675 8.79902 7.835 8.83052 7.86C8.83052 7.935 8.79902 7.975 8.86727 8.135C8.88827 8.235 8.93552 8.33 9.00902 8.385C9.09302 8.705 9.43952 8.73 9.57077 8.465L9.78077 8.085H9.77552Z" fill="#0A328C" stroke="black" stroke-width="0.027"/>
<path d="M10.4108 8.425L9.75452 8.06C9.54452 8.085 9.75452 8.46 9.77027 8.495L10.4108 8.71V8.425Z" fill="#D20014" stroke="black" stroke-width="0.027"/>
<path d="M10.3005 8.29002L8.81477 7.54002L8.78852 7.57002L10.3635 8.40502L10.3005 8.29002ZM8.74127 7.50002L8.71502 7.48502L8.69927 7.44502L8.48402 7.39502L8.62577 7.54002L8.68877 7.53002L8.72027 7.54502L8.74127 7.50002Z" fill="#F1B517" stroke="black" stroke-width="0.027"/>
<path d="M8.67302 7.59C8.69402 7.54 8.71502 7.495 8.76752 7.44L8.84102 7.495L8.76752 7.615L8.67302 7.59Z" fill="#F1B517" stroke="black" stroke-width="0.027"/>
<path d="M8.61526 7.76L8.64676 7.82L8.80426 7.59L8.93551 7.545L8.96176 7.495C8.85676 7.405 8.77801 7.565 8.77801 7.565L8.61526 7.76Z" fill="#0A328C" stroke="#0A328C" stroke-width="0.027"/>
<path d="M8.75701 7.84C8.74651 7.79 8.78326 7.63 8.79376 7.625C8.87251 7.65 8.94076 7.655 8.96176 7.495C8.90926 7.57 8.78851 7.545 8.78851 7.545L8.75176 7.595L8.75701 7.615L8.65201 7.815L8.75701 7.84Z" fill="#D20014" stroke="#D20014" stroke-width="0.027"/>
<path d="M10.7835 7.17502H10.71L10.5735 7.71002L10.605 7.88002L10.7835 7.18002V7.17502Z" fill="#F1B517" stroke="black" stroke-width="0.027"/>
<path d="M10.8623 6.815L10.8098 7.23H10.7573L10.8623 6.82V6.815Z" fill="white" stroke="black" stroke-width="0.027"/>
<path d="M10.7205 7.73002L10.9463 7.15502L10.8623 7.15002L10.5998 7.85002L10.7205 7.73002Z" fill="#F1B517" stroke="black" stroke-width="0.027"/>
<path d="M11.0513 6.82501L10.9568 7.22501H10.8833L11.0513 6.82501Z" fill="white" stroke="black" stroke-width="0.027"/>
<path d="M10.92 7.53L11.0513 7.255L10.9988 7.245L10.752 7.695L10.92 7.53Z" fill="#F1B517" stroke="black" stroke-width="0.027"/>
<path d="M11.2298 6.94003L11.0775 7.32003H11.004L11.2245 6.94003H11.2298Z" fill="white" stroke="black" stroke-width="0.027"/>
<path d="M10.899 7.57001L11.5028 6.94501C11.6918 7.08501 11.655 7.34501 11.655 7.34501L10.9725 7.85501L10.9043 7.57001H10.899Z" fill="#0A328C" stroke="black" stroke-width="0.027"/>
<path d="M10.5525 7.91001L10.9988 7.48001C11.1878 7.49001 11.0408 7.75501 11.0303 7.79001L10.5578 8.17501V7.91001H10.5525Z" fill="#D20014" stroke="black" stroke-width="0.027"/>
<path d="M10.5945 7.84003L11.5133 6.90003L11.55 6.92503L10.5735 7.95503L10.5945 7.84003ZM11.5658 6.84003L11.5868 6.81503V6.77003L11.7758 6.65503L11.6918 6.84003L11.6235 6.85003L11.6078 6.87003L11.5658 6.84003Z" fill="#F1B517" stroke="black" stroke-width="0.027"/>
<path d="M11.6655 6.90501C11.6269 6.85932 11.5786 6.82185 11.5238 6.79501L11.4713 6.87001L11.5868 6.96001L11.6655 6.91001V6.90501Z" fill="#F1B517" stroke="black" stroke-width="0.027"/>
<path d="M11.7653 7.06502L11.7338 7.11502C11.7128 7.11002 11.5238 6.94002 11.5238 6.94002H11.382L11.3453 6.89502C11.4503 6.79502 11.5395 6.91002 11.5395 6.91002L11.7653 7.06002V7.06502Z" fill="#0A328C" stroke="#0A328C" stroke-width="0.027"/>
<path d="M11.6498 7.15002C11.6498 7.10002 11.5553 6.99002 11.5448 6.98502C11.4765 7.00502 11.4135 7.04502 11.34 6.89502C11.403 6.96502 11.5238 6.89502 11.5238 6.89502L11.5763 6.93502V6.95502L11.7338 7.09502L11.655 7.15002H11.6498Z" fill="#D20014" stroke="#D20014" stroke-width="0.027"/>
<path d="M11.1615 7.73501L11.9175 7.16501C12.0488 7.29001 11.9385 7.67501 11.9385 7.67501L11.2035 8.05501L11.1668 7.73501H11.1615Z" fill="#0A328C" stroke="black" stroke-width="0.027"/>
<path d="M10.5368 8.2L11.1615 7.72C11.3715 7.75 11.2035 8.045 11.193 8.08L10.5368 8.42V8.195V8.2Z" fill="#D20014" stroke="black" stroke-width="0.027"/>
<path d="M10.563 8.10001L11.907 7.14001L11.9333 7.17001L10.5263 8.22001L10.563 8.10001ZM11.97 7.09001L11.991 7.07001L12.0015 7.03001L12.2115 6.94501L12.0908 7.11001H12.0225L12.0015 7.13001L11.97 7.09001Z" fill="#F1B517" stroke="black" stroke-width="0.027"/>
<path d="M12.054 7.17001C12.024 7.11896 11.9828 7.07464 11.9333 7.04001L11.8703 7.10501L11.9648 7.21001L12.054 7.17001Z" fill="#F1B517" stroke="black" stroke-width="0.027"/>
<path d="M12.1223 7.33V7.385C12.1013 7.375 11.928 7.2 11.928 7.2L11.7968 7.175L11.7653 7.135C11.8598 7.03 11.9595 7.17 11.9595 7.17L12.1275 7.33H12.1223Z" fill="#0A328C" stroke="#0A328C" stroke-width="0.027"/>
<path d="M12.0173 7.42503C12.0278 7.37503 11.9543 7.23503 11.9438 7.22503C11.8598 7.25003 11.7863 7.28503 11.76 7.12503C11.8125 7.20503 11.9438 7.14503 11.9438 7.14503L11.9858 7.19503V7.22003L12.117 7.38503L12.0173 7.42503Z" fill="#D20014" stroke="#D20014" stroke-width="0.027"/>
<path d="M11.2193 8.08503C11.5437 7.91121 11.8675 7.73621 12.1905 7.56003C12.2588 7.67503 12.1958 7.83503 12.1643 7.86003C12.1643 7.93503 12.1958 7.97503 12.1275 8.13503C12.1065 8.23503 12.0593 8.33003 11.9858 8.38503C11.9018 8.70503 11.5553 8.73003 11.424 8.46503L11.214 8.08503H11.2193Z" fill="#0A328C" stroke="black" stroke-width="0.027"/>
<path d="M10.584 8.425L11.2403 8.06C11.4503 8.085 11.2403 8.46 11.2245 8.495L10.584 8.71V8.425Z" fill="#D20014" stroke="black" stroke-width="0.027"/>
<path d="M10.6943 8.29002L12.18 7.54002L12.2063 7.57002L10.6313 8.40502L10.6943 8.29002ZM12.2535 7.50002L12.2798 7.48502L12.2955 7.44502L12.5108 7.39502L12.369 7.54002L12.306 7.53002L12.2745 7.54502L12.2535 7.50002Z" fill="#F1B517" stroke="black" stroke-width="0.027"/>
<path d="M12.3218 7.59C12.3008 7.54 12.2798 7.495 12.2273 7.44L12.1538 7.495L12.2273 7.615L12.3218 7.59Z" fill="#F1B517" stroke="black" stroke-width="0.027"/>
<path d="M12.3795 7.76L12.348 7.82L12.1905 7.59L12.0593 7.545L12.033 7.495C12.138 7.405 12.2168 7.565 12.2168 7.565L12.3795 7.76Z" fill="#0A328C" stroke="#0A328C" stroke-width="0.027"/>
<path d="M12.2378 7.84003C12.2483 7.79003 12.2115 7.63003 12.201 7.62503C12.1223 7.65003 12.054 7.65503 12.033 7.49503C12.0855 7.57003 12.2063 7.54503 12.2063 7.54503L12.243 7.59503L12.2378 7.61503L12.3428 7.81503L12.2378 7.84003Z" fill="#D20014" stroke="#D20014" stroke-width="0.027"/>
<path d="M10.437 6.27999L10.4108 6.72999H10.563L10.542 6.27999L10.6995 6.26499L10.6838 6.08499L10.29 6.09999V6.25999L10.437 6.27999Z" fill="#016A16" stroke="#016A16" stroke-width="0.027"/>
<path d="M10.4895 6.09498C10.08 5.70498 9.75975 5.89498 9.68625 5.94998C9.73875 5.95998 9.78075 5.92998 9.807 5.92498L9.7545 5.98498C9.7545 5.98498 9.88575 5.93498 9.9015 5.93498C9.8805 5.94998 9.8595 5.98498 9.8595 5.98498C9.87 5.98498 9.9435 5.92998 9.954 5.92998C9.933 5.94998 9.92775 6.00498 9.92775 6.00498L9.99075 5.97998C10.0065 5.98998 9.9855 6.00998 9.996 6.00998C10.101 5.99998 10.2427 6.09498 10.2585 6.12498" fill="#016A16"/>
<path d="M10.4895 6.09498C10.08 5.70498 9.75975 5.89498 9.68625 5.94998C9.73875 5.95998 9.78075 5.92998 9.807 5.92498L9.7545 5.98498C9.7545 5.98498 9.88575 5.93498 9.9015 5.93498C9.8805 5.94998 9.8595 5.98498 9.8595 5.98498C9.87 5.98498 9.9435 5.92998 9.954 5.92998C9.933 5.94998 9.92775 6.00498 9.92775 6.00498L9.99075 5.97998C10.0065 5.98998 9.9855 6.00998 9.996 6.00998C10.101 5.99998 10.2427 6.09498 10.2585 6.12498" stroke="black" stroke-width="0.027"/>
<path d="M10.3898 6.16498C10.3478 6.07498 9.57075 5.91498 9.41325 6.17998C9.47625 6.19498 9.534 6.12998 9.534 6.12998V6.18998L9.63375 6.10998L9.597 6.18998L9.67575 6.12498V6.18998L9.78075 6.08998L9.765 6.14498L9.85425 6.10998L9.84375 6.15998" fill="#016A16"/>
<path d="M10.3898 6.16498C10.3478 6.07498 9.57075 5.91498 9.41325 6.17998C9.47625 6.19498 9.534 6.12998 9.534 6.12998V6.18998L9.63375 6.10998L9.597 6.18998L9.67575 6.12498V6.18998L9.78075 6.08998L9.765 6.14498L9.85425 6.10998L9.84375 6.15998" stroke="black" stroke-width="0.027"/>
<path d="M10.353 6.17998C10.1535 6.05498 9.849 6.13998 9.849 6.13998C9.6495 6.23998 9.5445 6.22498 9.5235 6.41998C9.53925 6.41498 9.59175 6.34998 9.59175 6.34998L9.63375 6.42498L9.64425 6.31998L9.67575 6.40498L9.72825 6.26498L9.73875 6.35998L9.81225 6.26498L9.84375 6.29498L9.87525 6.21998L9.90675 6.26998C9.90675 6.26998 9.95925 6.23998 9.9855 6.25498L10.038 6.19498L10.0537 6.23998L10.1062 6.18998L10.122 6.22498L10.1692 6.18498V6.21498H10.3267" fill="#016A16"/>
<path d="M10.353 6.17998C10.1535 6.05498 9.849 6.13998 9.849 6.13998C9.6495 6.23998 9.5445 6.22498 9.5235 6.41998C9.53925 6.41498 9.59175 6.34998 9.59175 6.34998L9.63375 6.42498L9.64425 6.31998L9.67575 6.40498L9.72825 6.26498L9.73875 6.35998L9.81225 6.26498L9.84375 6.29498L9.87525 6.21998L9.90675 6.26998C9.90675 6.26998 9.95925 6.23998 9.9855 6.25498L10.038 6.19498L10.0537 6.23998L10.1062 6.18998L10.122 6.22498L10.1692 6.18498V6.21498H10.3267" stroke="black" stroke-width="0.027"/>
<path d="M10.311 6.19998C10.1693 6.19998 9.77025 6.34498 9.6705 6.48998C9.69267 6.47882 9.71545 6.46881 9.73875 6.45998L9.7545 6.51998L9.78075 6.45998L9.786 6.50998C9.80175 6.46998 9.8175 6.46998 9.849 6.50498L9.8595 6.44998L9.87525 6.49998L9.9015 6.44498C9.9015 6.44498 9.91725 6.50498 9.92775 6.50498C9.92775 6.50498 9.96975 6.39498 9.99075 6.38998L9.996 6.45998L10.0223 6.38998L10.0485 6.43998V6.36998L10.08 6.41998C10.08 6.41998 10.0905 6.36998 10.1115 6.35998L10.1535 6.39498L10.332 6.26998" fill="#016A16"/>
<path d="M10.311 6.19998C10.1693 6.19998 9.77025 6.34498 9.6705 6.48998C9.69267 6.47882 9.71545 6.46881 9.73875 6.45998L9.7545 6.51998L9.78075 6.45998L9.786 6.50998C9.80175 6.46998 9.8175 6.46998 9.849 6.50498L9.8595 6.44998L9.87525 6.49998L9.9015 6.44498C9.9015 6.44498 9.91725 6.50498 9.92775 6.50498C9.92775 6.50498 9.96975 6.39498 9.99075 6.38998L9.996 6.45998L10.0223 6.38998L10.0485 6.43998V6.36998L10.08 6.41998C10.08 6.41998 10.0905 6.36998 10.1115 6.35998L10.1535 6.39498L10.332 6.26998" stroke="black" stroke-width="0.027"/>
<path d="M10.3373 6.23499C10.1535 6.29999 9.98551 6.54499 10.0013 6.64499C10.08 6.54499 10.0643 6.55999 10.101 6.67499C10.101 6.67499 10.1115 6.57499 10.1273 6.56499L10.1535 6.63499L10.1588 6.53999H10.185L10.1798 6.48499L10.2165 6.50999C10.206 6.47499 10.2008 6.46499 10.2375 6.43499C10.2375 6.43499 10.185 6.43999 10.227 6.35999L10.2638 6.38999C10.2638 6.38999 10.2533 6.35499 10.2638 6.33999L10.4003 6.29999" fill="#016A16"/>
<path d="M10.3373 6.23499C10.1535 6.29999 9.98551 6.54499 10.0013 6.64499C10.08 6.54499 10.0643 6.55999 10.101 6.67499C10.101 6.67499 10.1115 6.57499 10.1273 6.56499L10.1535 6.63499L10.1588 6.53999H10.185L10.1798 6.48499L10.2165 6.50999C10.206 6.47499 10.2008 6.46499 10.2375 6.43499C10.2375 6.43499 10.185 6.43999 10.227 6.35999L10.2638 6.38999C10.2638 6.38999 10.2533 6.35499 10.2638 6.33999L10.4003 6.29999" stroke="black" stroke-width="0.027"/>
<path d="M10.353 6.25L10.2847 6.38L10.3215 6.39L10.2375 6.445L10.3057 6.44C10.3057 6.44 10.2007 6.475 10.1902 6.575L10.2952 6.525C10.2952 6.525 10.206 6.615 10.1902 6.67L10.2585 6.62C10.2585 6.62 10.1955 6.68 10.206 6.77L10.2532 6.72C10.2427 6.835 10.2427 6.845 10.2952 6.93C10.2952 6.93 10.2847 6.8 10.2952 6.78L10.416 6.9L10.353 6.735C10.353 6.735 10.4265 6.835 10.4685 6.83L10.374 6.695L10.4685 6.765L10.3635 6.615L10.458 6.645C10.458 6.645 10.3897 6.56 10.395 6.505L10.4632 6.575C10.4632 6.575 10.437 6.5 10.4422 6.475L10.479 6.48L10.4107 6.41L10.458 6.4L10.4527 6.35L10.4842 6.345V6.29M10.4265 6.29C10.311 6.44 10.3687 6.665 10.3005 6.785L10.4265 6.29Z" fill="#016A16"/>
<path d="M10.353 6.25L10.2847 6.38L10.3215 6.39L10.2375 6.445L10.3057 6.44C10.3057 6.44 10.2007 6.475 10.1902 6.575L10.2952 6.525C10.2952 6.525 10.206 6.615 10.1902 6.67L10.2585 6.62C10.2585 6.62 10.1955 6.68 10.206 6.77L10.2532 6.72C10.2427 6.835 10.2427 6.845 10.2952 6.93C10.2952 6.93 10.2847 6.8 10.2952 6.78L10.416 6.9L10.353 6.735C10.353 6.735 10.4265 6.835 10.4685 6.83L10.374 6.695L10.4685 6.765L10.3635 6.615L10.458 6.645C10.458 6.645 10.3897 6.56 10.395 6.505L10.4632 6.575C10.4632 6.575 10.437 6.5 10.4422 6.475L10.479 6.48L10.4107 6.41L10.458 6.4L10.4527 6.35L10.4842 6.345V6.29M10.4265 6.29C10.311 6.44 10.3687 6.665 10.3005 6.785" stroke="black" stroke-width="0.027"/>
<path d="M10.5053 6.09498C10.9148 5.70498 11.235 5.89498 11.3085 5.94998C11.256 5.95998 11.214 5.92998 11.1878 5.92498L11.2403 5.98498C11.2403 5.98498 11.109 5.93498 11.0933 5.93498C11.1143 5.94998 11.1353 5.98498 11.1353 5.98498C11.1248 5.98498 11.0513 5.92998 11.0408 5.92998C11.0618 5.94998 11.067 6.00498 11.067 6.00498L11.004 5.97998C10.9883 5.98998 11.0093 6.00998 10.9988 6.00998C10.8938 5.99998 10.752 6.09498 10.7363 6.12498" fill="#016A16"/>
<path d="M10.5053 6.09498C10.9148 5.70498 11.235 5.89498 11.3085 5.94998C11.256 5.95998 11.214 5.92998 11.1878 5.92498L11.2403 5.98498C11.2403 5.98498 11.109 5.93498 11.0933 5.93498C11.1143 5.94998 11.1353 5.98498 11.1353 5.98498C11.1248 5.98498 11.0513 5.92998 11.0408 5.92998C11.0618 5.94998 11.067 6.00498 11.067 6.00498L11.004 5.97998C10.9883 5.98998 11.0093 6.00998 10.9988 6.00998C10.8938 5.99998 10.752 6.09498 10.7363 6.12498" stroke="black" stroke-width="0.027"/>
<path d="M10.605 6.16498C10.647 6.07498 11.424 5.91498 11.5815 6.17998C11.5185 6.19498 11.4607 6.12998 11.4607 6.12998V6.18998L11.361 6.10998L11.3977 6.18998L11.319 6.12498V6.18998L11.214 6.08998L11.2297 6.14498L11.1405 6.10998L11.151 6.15998" fill="#016A16"/>
<path d="M10.605 6.16498C10.647 6.07498 11.424 5.91498 11.5815 6.17998C11.5185 6.19498 11.4607 6.12998 11.4607 6.12998V6.18998L11.361 6.10998L11.3977 6.18998L11.319 6.12498V6.18998L11.214 6.08998L11.2297 6.14498L11.1405 6.10998L11.151 6.15998" stroke="black" stroke-width="0.027"/>
<path d="M10.6417 6.17998C10.8412 6.05498 11.1457 6.13998 11.1457 6.13998C11.3452 6.23998 11.4502 6.22498 11.4712 6.41998C11.4555 6.41498 11.403 6.34998 11.403 6.34998L11.361 6.42498L11.3505 6.31998L11.319 6.40498L11.2665 6.26498L11.256 6.35998L11.1825 6.26498L11.151 6.29498L11.1195 6.21998L11.088 6.26998C11.088 6.26998 11.0355 6.23998 11.0092 6.25498L10.9567 6.19498L10.941 6.23998L10.8885 6.18998L10.8727 6.22498L10.8255 6.18498V6.21498H10.668" fill="#016A16"/>
<path d="M10.6417 6.17998C10.8412 6.05498 11.1457 6.13998 11.1457 6.13998C11.3452 6.23998 11.4502 6.22498 11.4712 6.41998C11.4555 6.41498 11.403 6.34998 11.403 6.34998L11.361 6.42498L11.3505 6.31998L11.319 6.40498L11.2665 6.26498L11.256 6.35998L11.1825 6.26498L11.151 6.29498L11.1195 6.21998L11.088 6.26998C11.088 6.26998 11.0355 6.23998 11.0092 6.25498L10.9567 6.19498L10.941 6.23998L10.8885 6.18998L10.8727 6.22498L10.8255 6.18498V6.21498H10.668" stroke="black" stroke-width="0.027"/>
<path d="M10.6837 6.19998C10.8255 6.19998 11.2245 6.34498 11.3242 6.48998C11.3021 6.47882 11.2793 6.46881 11.256 6.45998L11.2402 6.51998L11.214 6.45998L11.2087 6.50998C11.193 6.46998 11.1772 6.46998 11.1457 6.50498L11.1352 6.44998L11.1195 6.49998L11.0932 6.44498C11.0932 6.44498 11.0775 6.50498 11.067 6.50498C11.067 6.50498 11.025 6.39498 11.004 6.38998L10.9987 6.45998L10.9725 6.38998L10.9462 6.43998V6.36998L10.9147 6.41998C10.9147 6.41998 10.9042 6.36998 10.8832 6.35998L10.8412 6.39498L10.6627 6.26998" fill="#016A16"/>
<path d="M10.6837 6.19998C10.8255 6.19998 11.2245 6.34498 11.3242 6.48998C11.3021 6.47882 11.2793 6.46881 11.256 6.45998L11.2402 6.51998L11.214 6.45998L11.2087 6.50998C11.193 6.46998 11.1772 6.46998 11.1457 6.50498L11.1352 6.44998L11.1195 6.49998L11.0932 6.44498C11.0932 6.44498 11.0775 6.50498 11.067 6.50498C11.067 6.50498 11.025 6.39498 11.004 6.38998L10.9987 6.45998L10.9725 6.38998L10.9462 6.43998V6.36998L10.9147 6.41998C10.9147 6.41998 10.9042 6.36998 10.8832 6.35998L10.8412 6.39498L10.6627 6.26998" stroke="black" stroke-width="0.027"/>
<path d="M10.6575 6.23499C10.8412 6.29999 11.0092 6.54499 10.9935 6.64499C10.9147 6.54499 10.9305 6.55999 10.8937 6.67499C10.8937 6.67499 10.8832 6.57499 10.8675 6.56499L10.8412 6.63499L10.836 6.53999H10.8097L10.815 6.48499L10.7782 6.50999C10.7887 6.47499 10.794 6.46499 10.7572 6.43499C10.7572 6.43499 10.8097 6.43999 10.7677 6.35999L10.731 6.38999C10.731 6.38999 10.7415 6.35499 10.731 6.33999L10.5945 6.29999" fill="#016A16"/>
<path d="M10.6575 6.23499C10.8412 6.29999 11.0092 6.54499 10.9935 6.64499C10.9147 6.54499 10.9305 6.55999 10.8937 6.67499C10.8937 6.67499 10.8832 6.57499 10.8675 6.56499L10.8412 6.63499L10.836 6.53999H10.8097L10.815 6.48499L10.7782 6.50999C10.7887 6.47499 10.794 6.46499 10.7572 6.43499C10.7572 6.43499 10.8097 6.43999 10.7677 6.35999L10.731 6.38999C10.731 6.38999 10.7415 6.35499 10.731 6.33999L10.5945 6.29999" stroke="black" stroke-width="0.027"/>
<path d="M10.6417 6.25L10.71 6.38L10.6732 6.39L10.7572 6.445L10.689 6.44C10.689 6.44 10.794 6.475 10.8045 6.575L10.6995 6.525C10.6995 6.525 10.7887 6.615 10.8045 6.67L10.7362 6.62C10.7362 6.62 10.7992 6.68 10.7887 6.77L10.7415 6.72C10.752 6.835 10.752 6.845 10.6995 6.93C10.6995 6.93 10.71 6.8 10.6995 6.78L10.5787 6.9L10.6417 6.735C10.6417 6.735 10.5682 6.835 10.5262 6.83L10.6207 6.695L10.5262 6.765L10.6312 6.615L10.5367 6.645C10.5367 6.645 10.605 6.56 10.5997 6.505L10.5315 6.575C10.5315 6.575 10.5577 6.5 10.5525 6.475L10.5157 6.48L10.584 6.41L10.5367 6.4L10.542 6.35L10.5105 6.345V6.29M10.5682 6.29C10.6837 6.44 10.626 6.665 10.6942 6.785L10.5682 6.29Z" fill="#016A16"/>
<path d="M10.6417 6.25L10.71 6.38L10.6732 6.39L10.7572 6.445L10.689 6.44C10.689 6.44 10.794 6.475 10.8045 6.575L10.6995 6.525C10.6995 6.525 10.7887 6.615 10.8045 6.67L10.7362 6.62C10.7362 6.62 10.7992 6.68 10.7887 6.77L10.7415 6.72C10.752 6.835 10.752 6.845 10.6995 6.93C10.6995 6.93 10.71 6.8 10.6995 6.78L10.5787 6.9L10.6417 6.735C10.6417 6.735 10.5682 6.835 10.5262 6.83L10.6207 6.695L10.5262 6.765L10.6312 6.615L10.5367 6.645C10.5367 6.645 10.605 6.56 10.5997 6.505L10.5315 6.575C10.5315 6.575 10.5577 6.5 10.5525 6.475L10.5157 6.48L10.584 6.41L10.5367 6.4L10.542 6.35L10.5105 6.345V6.29M10.5682 6.29C10.6837 6.44 10.626 6.665 10.6942 6.785" stroke="black" stroke-width="0.027"/>
<path d="M10.5525 8.32498C10.5525 8.32498 10.6103 7.82498 10.6103 7.61498C10.6103 7.44498 10.5683 7.07498 10.5683 7.07498H10.395C10.395 7.07498 10.3688 7.44498 10.374 7.61498C10.374 7.82498 10.4318 8.32498 10.4318 8.32498H10.5525Z" fill="#F1B517" stroke="black" stroke-width="0.027"/>
<path d="M10.3793 7.1H10.5893L10.563 6.965H10.4108L10.3793 7.095V7.1Z" fill="#F1B517" stroke="black" stroke-width="0.027"/>
<path d="M10.395 6.98998H10.5788L10.542 6.85498H10.4265L10.3898 6.98998H10.395Z" fill="#F1B517" stroke="black" stroke-width="0.027"/>
<path d="M10.4055 6.885H10.563L10.5315 6.75H10.4318L10.4055 6.885Z" fill="#F1B517" stroke="black" stroke-width="0.027"/>
<path d="M10.5367 6.73499H10.4317L10.416 6.78499H10.5472L10.5367 6.73499ZM10.5577 8.21999H10.4212H10.5577ZM10.5682 8.11999H10.4107H10.5682ZM10.5892 8.01999H10.3897H10.5892ZM10.5997 7.91499H10.3897H10.5997ZM10.5997 7.80499H10.3845H10.5997ZM10.605 7.70499H10.374H10.605ZM10.605 7.61999H10.3635H10.605ZM10.605 7.50999H10.3635H10.605ZM10.5997 7.40499H10.3635H10.5997ZM10.5892 7.29499H10.374H10.5892ZM10.5787 7.19499H10.3845H10.5787Z" fill="#F1B517"/>
<path d="M10.5577 8.21999H10.4212M10.5682 8.11999H10.4107M10.5892 8.01999H10.3897M10.5997 7.91499H10.3897M10.5997 7.80499H10.3845M10.605 7.70499H10.374M10.605 7.61999H10.3635M10.605 7.50999H10.3635M10.5997 7.40499H10.3635M10.5892 7.29499H10.374M10.5787 7.19499H10.3845M10.5367 6.73499H10.4317L10.416 6.78499H10.5472L10.5367 6.73499Z" stroke="black" stroke-width="0.027"/>
<path d="M10.5 5.94999C10.458 5.93499 10.3793 5.88499 10.4003 5.85499L10.437 5.79499C10.4895 5.68499 10.437 5.72499 10.437 5.69499C10.4265 5.65499 10.6365 5.68499 10.6365 5.75999C10.6365 5.78499 10.6208 5.76999 10.626 5.88999L10.584 5.96499C10.5538 5.96874 10.5232 5.96531 10.4948 5.95499L10.5 5.94999Z" fill="#0A328C" stroke="#0A328C" stroke-width="0.027"/>
<path d="M10.521 6.25001L10.4685 6.20501L10.4843 5.85001L10.5368 5.86501L10.521 6.24501V6.25001Z" fill="#F1B517" stroke="black" stroke-width="0.027"/>
<path d="M10.5893 5.96501C10.6208 5.94501 10.6418 5.89001 10.6208 5.86001C10.5683 5.79501 10.5315 5.82001 10.4423 5.79001C10.4265 5.81001 10.3898 5.84001 10.395 5.87001C10.5158 5.92001 10.4685 5.88001 10.5105 5.88501C10.5315 5.88501 10.542 5.91001 10.5893 5.96001V5.96501Z" fill="#D20014" stroke="#D20014" stroke-width="0.027"/>
<path d="M9.89627 8.01501C9.88577 7.99001 9.84377 7.97001 9.79127 7.97001C9.73877 7.97001 9.70202 7.99001 9.68627 8.01501C9.68449 8.00846 9.68449 8.00157 9.68627 7.99501C9.68627 7.96001 9.73352 7.93502 9.79127 7.93502C9.85427 7.93502 9.90152 7.96001 9.90152 7.99501C9.9033 8.00157 9.9033 8.00846 9.90152 8.01501H9.89627Z" fill="#016A16" stroke="white" stroke-width="0.027" stroke-linecap="round"/>
<path d="M9.89103 8.09002C9.89103 8.15002 9.84378 8.20502 9.79128 8.20502C9.73878 8.20502 9.69678 8.15502 9.69678 8.08502V8.02502H9.89103V8.08502V8.09002Z" fill="#016A16" stroke="white" stroke-width="0.027" stroke-linecap="round"/>
<path d="M9.79128 8.05002C9.84347 8.05002 9.88578 8.02988 9.88578 8.00502C9.88578 7.98017 9.84347 7.96002 9.79128 7.96002C9.73909 7.96002 9.69678 7.98017 9.69678 8.00502C9.69678 8.02988 9.73909 8.05002 9.79128 8.05002Z" fill="white"/>
<path d="M9.77027 8.05001L9.75452 7.89001H9.82802L9.81752 8.05501H9.77027V8.05001Z" fill="#016A16" stroke="#F1B517" stroke-width="0.027"/>
<path d="M9.89627 8.005C9.88577 8.03 9.84377 8.05 9.79127 8.05C9.73877 8.05 9.70202 8.03 9.68627 8.005C9.68449 8.01156 9.68449 8.01845 9.68627 8.025C9.68627 8.06 9.73352 8.085 9.79127 8.085C9.85427 8.085 9.90152 8.06 9.90152 8.025C9.9033 8.01845 9.9033 8.01156 9.90152 8.005H9.89627Z" fill="#016A16" stroke="white" stroke-width="0.027" stroke-linecap="round"/>
<path d="M10.29 8.64002L9.92252 8.53002L9.75976 8.26502L9.18752 8.24002L9.20851 8.44002L9.69677 8.52502L9.73877 8.60502L10.3005 8.75502L10.29 8.64002Z" fill="#F1B517" stroke="black" stroke-width="0.027"/>
<path d="M9.90678 8.71501L9.31878 7.89001L9.29253 7.91501L9.87003 8.73501L9.90678 8.71501Z" fill="#503200" stroke="black" stroke-width="0.027"/>
<path d="M9.37652 7.92503L9.31352 7.82503C9.29777 7.80503 9.28202 7.80003 9.25577 7.81503C9.22952 7.82503 9.23477 7.85003 9.24527 7.87003L9.29777 7.96503L9.37652 7.92503Z" fill="white" stroke="black" stroke-width="0.027"/>
<path d="M9.97502 8.20503L8.79377 8.09003L8.76227 8.25503L9.93827 8.37003L9.97502 8.20503Z" fill="#F1B517" stroke="black" stroke-width="0.027"/>
<path d="M8.76752 8.05002L8.74127 8.27502H8.79377L8.82527 8.07002L8.77277 8.05002H8.76752ZM8.96702 8.08502L8.95652 8.29002H8.98802L9.01427 8.11502L8.97227 8.08502H8.96702ZM9.77027 8.17502L9.73877 8.36502H9.79652L9.82277 8.17502H9.77027ZM9.94352 8.18002L9.90677 8.40002L9.96977 8.41002L9.99077 8.29502C9.99077 8.32002 10.017 8.33502 10.0433 8.33502C10.0748 8.33502 10.0958 8.31002 10.0958 8.28502C10.0958 8.25502 10.0748 8.23502 10.0433 8.23502C10.0323 8.23416 10.0214 8.23659 10.012 8.24198C10.0025 8.24736 9.99513 8.25542 9.99077 8.26502L10.0065 8.18502L9.94352 8.18002ZM9.52352 8.21502L9.35552 8.39002L9.37652 8.41002L9.58652 8.27502L9.51827 8.21502H9.52352ZM9.13502 8.65002L9.29777 8.47502L9.28202 8.45502L9.07202 8.59002L9.13502 8.65002ZM9.56027 8.60502L9.36602 8.46002L9.34502 8.47502L9.50252 8.66502L9.56027 8.60502ZM9.07202 8.27002L9.27677 8.41002L9.29777 8.39502L9.14027 8.20502L9.07202 8.27002ZM9.29252 8.15502L9.31352 8.38502H9.33977L9.40277 8.16002L9.29252 8.15502ZM9.35552 8.70502L9.33977 8.48002H9.30827L9.27152 8.71002H9.35552V8.70502ZM9.62327 8.40502L9.37127 8.42502V8.45002L9.62327 8.48002V8.40002V8.40502ZM9.02477 8.48002L9.27152 8.44502V8.42502L9.01952 8.40002V8.48002H9.02477Z" fill="#F1B517" stroke="black" stroke-width="0.027"/>
<path d="M9.32927 8.49003C9.36696 8.49003 9.39752 8.46316 9.39752 8.43003C9.39752 8.39689 9.36696 8.37003 9.32927 8.37003C9.29157 8.37003 9.26102 8.39689 9.26102 8.43003C9.26102 8.46316 9.29157 8.49003 9.32927 8.49003Z" fill="#F1B517" stroke="black" stroke-width="0.027"/>
<path fill-rule="evenodd" clip-rule="evenodd" d="M9.68102 8.43002C9.68102 8.60502 9.52352 8.75502 9.32927 8.75502C9.28377 8.75568 9.23857 8.7478 9.19627 8.73182C9.15396 8.71585 9.11538 8.69209 9.08271 8.66191C9.05005 8.63173 9.02395 8.59572 9.0059 8.55593C8.98785 8.51614 8.97821 8.47336 8.97752 8.43002C8.97752 8.25002 9.13502 8.10502 9.32927 8.10502C9.37478 8.10436 9.41997 8.11224 9.46228 8.12821C9.50459 8.14419 9.54317 8.16795 9.57584 8.19813C9.6085 8.22831 9.6346 8.26432 9.65265 8.30411C9.6707 8.3439 9.68034 8.38668 9.68102 8.43002ZM9.61277 8.43002C9.61209 8.46482 9.60422 8.49915 9.5896 8.53106C9.57498 8.56296 9.55391 8.59181 9.52758 8.61595C9.50125 8.6401 9.47019 8.65906 9.43616 8.67177C9.40214 8.68448 9.36582 8.69068 9.32927 8.69002C9.29229 8.69068 9.25555 8.68432 9.22118 8.6713C9.18681 8.65828 9.15552 8.63887 9.12912 8.61419C9.10272 8.58952 9.08176 8.56008 9.06744 8.5276C9.05313 8.49512 9.04577 8.46024 9.04577 8.42502C9.04851 8.35561 9.07975 8.29 9.13277 8.24231C9.1858 8.19462 9.25636 8.16866 9.32927 8.17002C9.36582 8.16936 9.40214 8.17556 9.43616 8.18826C9.47019 8.20097 9.50125 8.21994 9.52758 8.24409C9.55391 8.26823 9.57498 8.29708 9.5896 8.32898C9.60422 8.36088 9.61209 8.39522 9.61277 8.43002Z" fill="#F1B517" stroke="black" stroke-width="0.027" stroke-linecap="round"/>
<path d="M9.10877 8.26501L9.05627 8.22501L9.10877 8.26501ZM9.50252 8.22501L9.55502 8.17501L9.50252 8.22501ZM9.60752 8.63501L9.54977 8.59001L9.60752 8.63501ZM9.10877 8.68501L9.16127 8.63501L9.10877 8.68501ZM10.3005 8.10501L10.3583 8.40501L10.311 8.42501L10.2585 8.11001H10.3005V8.10501Z" fill="#F1B517"/>
<path d="M9.10877 8.26501L9.05627 8.22501M9.50252 8.22501L9.55502 8.17501M9.60752 8.63501L9.54977 8.59001M9.10877 8.68501L9.16127 8.63501M10.3005 8.10501L10.3583 8.40501L10.311 8.42501L10.2585 8.11001H10.3005V8.10501Z" stroke="black" stroke-width="0.027"/>
<path d="M10.269 8.07C10.2428 8.055 10.206 8.075 10.143 8.005C10.0433 8.09 10.143 8.105 10.1535 8.19C10.1798 8.2 10.2008 8.12 10.2743 8.115L10.395 8.105L10.3688 8.07H10.2638H10.269Z" fill="white" stroke="black" stroke-width="0.027"/>
<path d="M10.311 8.12501L10.3005 8.04001C10.2848 8.00501 10.248 8.03501 10.248 8.05001L10.2585 8.13501L10.311 8.12501Z" fill="white" stroke="black" stroke-width="0.027"/>
<path fill-rule="evenodd" clip-rule="evenodd" d="M10.017 8.37003V8.45003C9.98552 8.46003 9.99077 8.48003 9.99077 8.51003V8.74503C9.98552 8.76503 9.95402 8.76503 9.93827 8.77503C9.92252 8.79003 9.92777 8.81503 9.99077 8.82503L10.0433 8.83003C10.122 8.81503 10.1378 8.79003 10.0958 8.78003C10.08 8.77003 10.0485 8.76003 10.0433 8.75003V8.69003H10.0958C10.1063 8.69003 10.1325 8.66003 10.1325 8.63503V8.51003C10.1325 8.44003 10.08 8.43003 10.059 8.43503V8.37003H10.017ZM10.101 8.50503C10.101 8.48503 10.0695 8.46503 10.059 8.46503C10.0485 8.46503 10.0223 8.49003 10.0223 8.51003V8.56003C10.0223 8.58003 10.038 8.64003 10.0695 8.64503C10.08 8.64503 10.101 8.62503 10.101 8.60503V8.50503Z" fill="#F1B517" stroke="black" stroke-width="0.027"/>
<path d="M9.67576 8.61502C9.63901 8.60502 9.63902 8.67502 9.63902 8.67502H9.69152C9.71777 8.68502 9.73351 8.71502 9.72301 8.73502C9.70726 8.74502 9.60751 8.71002 9.60226 8.73502C9.61801 8.83002 9.75451 8.86502 9.80176 8.82502C9.84901 8.78002 9.85951 8.67502 9.70726 8.64002L9.67576 8.61502ZM9.70726 8.64502L9.69152 8.67502L9.70726 8.64502Z" fill="white"/>
<path d="M9.70726 8.64502L9.69152 8.67502M9.67576 8.61502C9.63901 8.60502 9.63902 8.67502 9.63902 8.67502H9.69152C9.71777 8.68502 9.73351 8.71502 9.72301 8.73502C9.70726 8.74502 9.60751 8.71002 9.60226 8.73502C9.61801 8.83002 9.75451 8.86502 9.80176 8.82502C9.84901 8.78002 9.85951 8.67502 9.70726 8.64002L9.67576 8.61502Z" stroke="black" stroke-width="0.027"/>
<path d="M8.66252 8.65001L8.61002 8.45001L8.66252 8.65001ZM8.72027 8.64001L8.64152 8.48501L8.72027 8.64001ZM8.85152 8.60001L8.67827 8.51001L8.85152 8.60001ZM8.93027 8.58001L8.60477 8.44501L8.93027 8.58001Z" fill="#F1B517"/>
<path d="M8.66252 8.65001L8.61002 8.45001M8.72027 8.64001L8.64152 8.48501M8.85152 8.60001L8.67827 8.51001M8.93027 8.58001L8.60477 8.44501" stroke="black" stroke-width="0.027"/>
<path d="M8.41052 8.3L8.27403 8.305C8.26353 8.31 8.30027 8.35 8.29502 8.36C8.26352 8.415 8.06402 8.41 8.04827 8.4C8.02202 8.375 8.23202 8.36 8.23727 8.35C8.23727 8.33 8.20577 8.29 8.21102 8.265C8.21102 8.23 8.30028 8.215 8.30028 8.215L8.41052 8.3Z" fill="#D20014" stroke="#D20014" stroke-width="0.027"/>
<path d="M8.56801 8.40002L8.30551 8.19002C8.30551 8.19002 8.28976 8.18002 8.27926 8.19002C8.26876 8.20002 8.27926 8.21002 8.27926 8.21002L8.56276 8.43002L8.56801 8.40502V8.40002Z" fill="#503200" stroke="black" stroke-width="0.027"/>
<path d="M8.83052 8.61L8.61002 8.43L8.59427 8.38L8.55227 8.41C8.53652 8.42 8.52077 8.45 8.52077 8.45H8.57852L8.76752 8.62L8.82527 8.61H8.83052Z" fill="#F1B517" stroke="black" stroke-width="0.027"/>
<path d="M9.58127 8.89001C9.60157 8.89001 9.61802 8.87434 9.61802 8.85501C9.61802 8.83568 9.60157 8.82001 9.58127 8.82001C9.56098 8.82001 9.54453 8.83568 9.54453 8.85501C9.54453 8.87434 9.56098 8.89001 9.58127 8.89001Z" fill="#F1B517" stroke="black" stroke-width="0.027"/>
<path d="M9.48153 8.82C9.50183 8.82 9.51828 8.80433 9.51828 8.785C9.51828 8.76567 9.50183 8.75 9.48153 8.75C9.46123 8.75 9.44478 8.76567 9.44478 8.785C9.44478 8.80433 9.46123 8.82 9.48153 8.82Z" fill="#F1B517" stroke="black" stroke-width="0.027"/>
<path d="M9.35027 8.86501C9.37057 8.86501 9.38702 8.84934 9.38702 8.83001C9.38702 8.81068 9.37057 8.79501 9.35027 8.79501C9.32998 8.79501 9.31352 8.81068 9.31352 8.83001C9.31352 8.84934 9.32998 8.86501 9.35027 8.86501Z" fill="#F1B517" stroke="black" stroke-width="0.027"/>
<path d="M9.14551 8.90502C9.16581 8.90502 9.18226 8.88935 9.18226 8.87002C9.18226 8.85069 9.16581 8.83502 9.14551 8.83502C9.12522 8.83502 9.10876 8.85069 9.10876 8.87002C9.10876 8.88935 9.12522 8.90502 9.14551 8.90502Z" fill="#F1B517" stroke="black" stroke-width="0.027"/>
<path d="M9.05627 8.915C9.07656 8.915 9.09302 8.89933 9.09302 8.88C9.09302 8.86067 9.07656 8.845 9.05627 8.845C9.03597 8.845 9.01952 8.86067 9.01952 8.88C9.01952 8.89933 9.03597 8.915 9.05627 8.915Z" fill="#F1B517" stroke="black" stroke-width="0.027"/>
<path d="M8.96702 8.915C8.98731 8.915 9.00377 8.89933 9.00377 8.88C9.00377 8.86067 8.98731 8.845 8.96702 8.845C8.94672 8.845 8.93027 8.86067 8.93027 8.88C8.93027 8.89933 8.94672 8.915 8.96702 8.915Z" fill="#F1B517" stroke="black" stroke-width="0.027"/>
<path d="M8.88302 8.915C8.90331 8.915 8.91977 8.89933 8.91977 8.88C8.91977 8.86067 8.90331 8.845 8.88302 8.845C8.86272 8.845 8.84627 8.86067 8.84627 8.88C8.84627 8.89933 8.86272 8.915 8.88302 8.915Z" fill="#F1B517" stroke="black" stroke-width="0.027"/>
<path d="M8.92502 8.85003C8.94532 8.85003 8.96177 8.83436 8.96177 8.81503C8.96177 8.7957 8.94532 8.78003 8.92502 8.78003C8.90473 8.78003 8.88828 8.7957 8.88828 8.81503C8.88828 8.83436 8.90473 8.85003 8.92502 8.85003Z" fill="#F1B517" stroke="black" stroke-width="0.027"/>
<path d="M9.00903 8.855C9.02932 8.855 9.04578 8.83933 9.04578 8.82C9.04578 8.80067 9.02932 8.785 9.00903 8.785C8.98873 8.785 8.97227 8.80067 8.97227 8.82C8.97227 8.83933 8.98873 8.855 9.00903 8.855Z" fill="#F1B517" stroke="black" stroke-width="0.027"/>
<path d="M9.08778 8.84499C9.10807 8.84499 9.12453 8.82932 9.12453 8.80999C9.12453 8.79066 9.10807 8.77499 9.08778 8.77499C9.06748 8.77499 9.05103 8.79066 9.05103 8.80999C9.05103 8.82932 9.06748 8.84499 9.08778 8.84499Z" fill="#F1B517" stroke="black" stroke-width="0.027"/>
<path d="M9.05102 8.78503C9.07131 8.78503 9.08777 8.76936 9.08777 8.75003C9.08777 8.7307 9.07131 8.71503 9.05102 8.71503C9.03072 8.71503 9.01427 8.7307 9.01427 8.75003C9.01427 8.76936 9.03072 8.78503 9.05102 8.78503Z" fill="#F1B517" stroke="black" stroke-width="0.027"/>
<path d="M8.96702 8.78002C8.98731 8.78002 9.00377 8.76435 9.00377 8.74502C9.00377 8.72569 8.98731 8.71002 8.96702 8.71002C8.94672 8.71002 8.93027 8.72569 8.93027 8.74502C8.93027 8.76435 8.94672 8.78002 8.96702 8.78002Z" fill="#F1B517" stroke="black" stroke-width="0.027"/>
<path fill-rule="evenodd" clip-rule="evenodd" d="M9.79127 8.90002C9.79127 8.88502 9.74927 8.89002 9.74927 8.87002C9.74927 8.85002 9.81227 8.87002 9.81752 8.88502C9.85427 8.85502 9.87002 8.87502 9.89102 8.88502C9.92252 8.84502 9.95927 8.84502 9.99602 8.87502C10.017 8.85502 10.0695 8.86002 10.0853 8.88502C10.122 8.85502 10.1535 8.86002 10.1745 8.88502C10.185 8.87002 10.2008 8.87002 10.2113 8.88502C10.227 8.85002 10.2743 8.86002 10.2953 8.88502C10.311 8.86502 10.332 8.88002 10.353 8.89002C10.3688 8.88002 10.395 8.88002 10.395 8.89002C10.395 8.91002 10.3635 8.90502 10.3635 8.92002C10.3635 8.93002 10.3845 8.92002 10.3845 8.94002C10.3845 8.95502 10.353 8.96002 10.3478 8.94002C10.332 8.96002 10.29 8.95002 10.2848 8.93002C10.2808 8.93428 10.276 8.93769 10.2705 8.94002C10.2651 8.94236 10.2592 8.94356 10.2533 8.94356C10.2473 8.94356 10.2414 8.94236 10.236 8.94002C10.2306 8.93769 10.2257 8.93428 10.2218 8.93002C10.206 8.94002 10.185 8.94002 10.1798 8.93002C10.1535 8.95502 10.1063 8.95002 10.0905 8.92002H10.0748C10.0698 8.92534 10.0638 8.9296 10.057 8.93252C10.0502 8.93544 10.0428 8.93695 10.0354 8.93695C10.0279 8.93695 10.0206 8.93544 10.0138 8.93252C10.007 8.9296 10.0009 8.92534 9.99602 8.92002C9.94877 8.95002 9.92252 8.94002 9.89627 8.92002C9.87002 8.95502 9.82277 8.95502 9.81752 8.92002C9.79652 8.93502 9.75452 8.94002 9.75452 8.92002C9.75452 8.91002 9.79127 8.91502 9.79127 8.90002ZM9.87527 8.90502C9.87527 8.91502 9.86477 8.92002 9.85427 8.92002C9.84377 8.92002 9.83327 8.91502 9.83327 8.90502C9.83327 8.89502 9.83852 8.89502 9.85427 8.89502C9.87002 8.89502 9.87527 8.90002 9.87527 8.90502ZM9.97502 8.89502C9.97502 8.90502 9.95927 8.91002 9.94352 8.91002C9.92777 8.91002 9.91727 8.90502 9.91727 8.89502C9.91727 8.89002 9.92777 8.88002 9.94352 8.88002C9.95927 8.88002 9.96977 8.89002 9.96977 8.89502H9.97502ZM10.1588 8.90502C10.1588 8.91502 10.1483 8.92002 10.1325 8.92002C10.1168 8.92002 10.1115 8.91502 10.1115 8.90502C10.1115 8.90002 10.122 8.89002 10.1325 8.89002C10.143 8.89002 10.1588 8.89502 10.1588 8.90502ZM10.059 8.90502C10.059 8.91502 10.0485 8.92002 10.0328 8.92002C10.017 8.92002 10.0118 8.91502 10.0118 8.90002C10.0118 8.89002 10.0223 8.88002 10.0328 8.88002C10.0433 8.88002 10.059 8.89002 10.059 8.90002V8.90502ZM10.269 8.90502C10.269 8.91002 10.2638 8.92002 10.2533 8.92002C10.2375 8.92002 10.227 8.91002 10.227 8.90002C10.227 8.89002 10.2375 8.88502 10.2533 8.88502C10.2638 8.88502 10.2743 8.89002 10.2743 8.90002L10.269 8.90502ZM10.206 8.90502C10.206 8.91502 10.206 8.92002 10.1955 8.92002C10.185 8.92002 10.1798 8.91502 10.1798 8.90502C10.1798 8.89502 10.185 8.89502 10.1955 8.89502L10.206 8.90502ZM10.332 8.91002C10.332 8.92002 10.332 8.93002 10.3163 8.93002C10.311 8.93002 10.3005 8.92002 10.3005 8.91002C10.3005 8.90002 10.311 8.89502 10.3163 8.89502C10.3268 8.89502 10.332 8.90002 10.332 8.91002Z" fill="#F1B517" stroke="black" stroke-width="0.027"/>
<path d="M10.7048 8.64005L11.0723 8.53005L11.235 8.26505L11.8073 8.24005L11.7863 8.44005L11.298 8.52505L11.256 8.60505L10.6943 8.75505L10.7048 8.64005Z" fill="#F1B517" stroke="black" stroke-width="0.027"/>
<path d="M11.088 8.71505L11.676 7.89005L11.7023 7.91505L11.1248 8.73504L11.088 8.71505Z" fill="#503200" stroke="black" stroke-width="0.027"/>
<path d="M11.6183 7.92506L11.6813 7.82506C11.697 7.80506 11.7128 7.80006 11.739 7.81506C11.7653 7.82506 11.76 7.85006 11.7495 7.87006L11.697 7.96506L11.6183 7.92506Z" fill="white" stroke="black" stroke-width="0.027"/>
<path d="M11.0198 8.20506L12.201 8.09006L12.2325 8.25506L11.0565 8.37006L11.0198 8.20506Z" fill="#F1B517" stroke="black" stroke-width="0.027"/>
<path d="M12.2273 8.05005L12.2535 8.27505H12.201L12.1695 8.07005L12.222 8.05005H12.2273ZM12.0278 8.08505L12.0383 8.29005H12.0068L11.9805 8.11505L12.0225 8.08505H12.0278ZM11.2245 8.17505L11.256 8.36505H11.1983L11.172 8.17505H11.2245ZM11.0513 8.18005L11.088 8.40005L11.025 8.41005L11.004 8.29505C11.004 8.32005 10.9778 8.33505 10.9515 8.33505C10.92 8.33505 10.899 8.31005 10.899 8.28505C10.899 8.25505 10.92 8.23505 10.9515 8.23505C10.9625 8.23419 10.9734 8.23662 10.9828 8.24201C10.9923 8.24739 10.9997 8.25545 11.004 8.26505L10.9883 8.18505L11.0513 8.18005ZM11.4713 8.21505L11.6393 8.39005L11.6183 8.41005L11.4083 8.27505L11.4765 8.21505H11.4713ZM11.8598 8.65005L11.697 8.47505L11.7128 8.45505L11.9228 8.59005L11.8598 8.65005ZM11.4345 8.60505L11.6288 8.46005L11.6498 8.47505L11.4923 8.66505L11.4345 8.60505ZM11.9228 8.27005L11.718 8.41005L11.697 8.39505L11.8545 8.20505L11.9228 8.27005ZM11.7023 8.15505L11.6813 8.38505H11.655L11.592 8.16005L11.7023 8.15505ZM11.6393 8.70505L11.655 8.48005H11.6865L11.7233 8.71005H11.6393V8.70505ZM11.3715 8.40505L11.6235 8.42505V8.45005L11.3715 8.48005V8.40005V8.40505ZM11.97 8.48005L11.7233 8.44505V8.42505L11.9753 8.40005V8.48005H11.97Z" fill="#F1B517" stroke="black" stroke-width="0.027"/>
<path d="M11.6655 8.49006C11.6278 8.49006 11.5973 8.46319 11.5973 8.43006C11.5973 8.39692 11.6278 8.37006 11.6655 8.37006C11.7032 8.37006 11.7338 8.39692 11.7338 8.43006C11.7338 8.46319 11.7032 8.49006 11.6655 8.49006Z" fill="#F1B517" stroke="black" stroke-width="0.027"/>
<path fill-rule="evenodd" clip-rule="evenodd" d="M11.3138 8.43005C11.3138 8.60505 11.4713 8.75505 11.6655 8.75505C11.711 8.75571 11.7562 8.74783 11.7985 8.73185C11.8408 8.71588 11.8794 8.69212 11.9121 8.66194C11.9448 8.63176 11.9709 8.59575 11.9889 8.55596C12.007 8.51617 12.0166 8.47339 12.0173 8.43005C12.0173 8.25005 11.8598 8.10505 11.6655 8.10505C11.62 8.10439 11.5748 8.11227 11.5325 8.12825C11.4902 8.14422 11.4516 8.16798 11.419 8.19816C11.3863 8.22834 11.3602 8.26435 11.3422 8.30414C11.3241 8.34393 11.3145 8.38671 11.3138 8.43005ZM11.382 8.43005C11.3827 8.46485 11.3906 8.49918 11.4052 8.53109C11.4198 8.56299 11.4409 8.59184 11.4672 8.61598C11.4936 8.64013 11.5246 8.65909 11.5586 8.6718C11.5927 8.68451 11.629 8.69071 11.6655 8.69005C11.7025 8.69071 11.7393 8.68435 11.7736 8.67133C11.808 8.65831 11.8393 8.6389 11.8657 8.61422C11.8921 8.58955 11.9131 8.56011 11.9274 8.52763C11.9417 8.49515 11.949 8.46027 11.949 8.42505C11.9463 8.35564 11.9151 8.29003 11.862 8.24234C11.809 8.19465 11.7385 8.16869 11.6655 8.17005C11.629 8.16939 11.5927 8.17559 11.5586 8.18829C11.5246 8.201 11.4936 8.21997 11.4672 8.24412C11.4409 8.26826 11.4198 8.29711 11.4052 8.32901C11.3906 8.36091 11.3827 8.39525 11.382 8.43005Z" fill="#F1B517" stroke="black" stroke-width="0.027" stroke-linecap="round"/>
<path d="M11.886 8.26504L11.9385 8.22504L11.886 8.26504ZM11.4923 8.22504L11.4398 8.17504L11.4923 8.22504ZM11.3873 8.63504L11.445 8.59004L11.3873 8.63504ZM11.886 8.68504L11.8335 8.63504L11.886 8.68504ZM10.6943 8.10504L10.6365 8.40504L10.6838 8.42504L10.7363 8.11004H10.6943V8.10504Z" fill="#F1B517"/>
<path d="M11.886 8.26504L11.9385 8.22504M11.4923 8.22504L11.4398 8.17504M11.3873 8.63504L11.445 8.59004M11.886 8.68504L11.8335 8.63504M10.6943 8.10504L10.6365 8.40504L10.6838 8.42504L10.7363 8.11004H10.6943V8.10504Z" stroke="black" stroke-width="0.027"/>
<path d="M10.7258 8.07003C10.752 8.05503 10.7888 8.07504 10.8518 8.00504C10.9515 8.09004 10.8518 8.10504 10.8413 8.19004C10.815 8.20004 10.794 8.12004 10.7205 8.11504L10.5998 8.10504L10.626 8.07003H10.731H10.7258Z" fill="white" stroke="black" stroke-width="0.027"/>
<path d="M10.6838 8.12504L10.6943 8.04005C10.71 8.00505 10.7468 8.03504 10.7468 8.05004L10.7363 8.13504L10.6838 8.12504Z" fill="white" stroke="black" stroke-width="0.027"/>
<path fill-rule="evenodd" clip-rule="evenodd" d="M10.9778 8.37006V8.45006C11.0093 8.46006 11.004 8.48006 11.004 8.51006V8.74506C11.0093 8.76506 11.0408 8.76506 11.0565 8.77506C11.0723 8.79006 11.067 8.81506 11.004 8.82506L10.9515 8.83006C10.8728 8.81506 10.857 8.79006 10.899 8.78006C10.9148 8.77006 10.9463 8.76006 10.9515 8.75006V8.69006H10.899C10.8885 8.69006 10.8623 8.66006 10.8623 8.63506V8.51006C10.8623 8.44006 10.9148 8.43006 10.9358 8.43506V8.37006H10.9778ZM10.8938 8.50506C10.8938 8.48506 10.9253 8.46506 10.9358 8.46506C10.9463 8.46506 10.9725 8.49006 10.9725 8.51006V8.56006C10.9725 8.58006 10.9568 8.64006 10.9253 8.64506C10.9148 8.64506 10.8938 8.62506 10.8938 8.60506V8.50506Z" fill="#F1B517" stroke="black" stroke-width="0.027"/>
<path d="M11.319 8.61505C11.3558 8.60505 11.3558 8.67505 11.3558 8.67505H11.3033C11.277 8.68505 11.2613 8.71505 11.2718 8.73505C11.2875 8.74505 11.3873 8.71005 11.3925 8.73505C11.3768 8.83005 11.2403 8.86505 11.193 8.82505C11.1458 8.78005 11.1353 8.67505 11.2875 8.64005L11.319 8.61505ZM11.2875 8.64505L11.3033 8.67505L11.2875 8.64505Z" fill="white"/>
<path d="M11.2875 8.64505L11.3033 8.67505M11.319 8.61505C11.3558 8.60505 11.3558 8.67505 11.3558 8.67505H11.3033C11.277 8.68505 11.2613 8.71505 11.2718 8.73505C11.2875 8.74505 11.3873 8.71005 11.3925 8.73505C11.3768 8.83005 11.2403 8.86505 11.193 8.82505C11.1458 8.78005 11.1353 8.67505 11.2875 8.64005L11.319 8.61505Z" stroke="black" stroke-width="0.027"/>
<path d="M12.3323 8.65004L12.3848 8.45004L12.3323 8.65004ZM12.2745 8.64004L12.3533 8.48504L12.2745 8.64004ZM12.1433 8.60004L12.3165 8.51004L12.1433 8.60004ZM12.0645 8.58004L12.39 8.44504L12.0645 8.58004Z" fill="#F1B517"/>
<path d="M12.3323 8.65004L12.3848 8.45004M12.2745 8.64004L12.3533 8.48504M12.1433 8.60004L12.3165 8.51004M12.0645 8.58004L12.39 8.44504" stroke="black" stroke-width="0.027"/>
<path d="M12.5843 8.30003L12.7208 8.30503C12.7313 8.31003 12.6945 8.35003 12.6998 8.36003C12.7313 8.41503 12.9308 8.41003 12.9465 8.40003C12.9728 8.37503 12.7628 8.36003 12.7575 8.35003C12.7575 8.33003 12.789 8.29003 12.7838 8.26503C12.7838 8.23003 12.6945 8.21503 12.6945 8.21503L12.5843 8.30003Z" fill="#D20014" stroke="#D20014" stroke-width="0.027"/>
<path d="M12.4268 8.40005L12.6893 8.19005C12.6893 8.19005 12.705 8.18005 12.7155 8.19005C12.726 8.20005 12.7155 8.21005 12.7155 8.21005L12.432 8.43005L12.4268 8.40505V8.40005Z" fill="#503200" stroke="black" stroke-width="0.027"/>
<path d="M12.1643 8.61003L12.3848 8.43004L12.4005 8.38004L12.4425 8.41003C12.4583 8.42003 12.474 8.45004 12.474 8.45004H12.4163L12.2273 8.62003L12.1695 8.61003H12.1643Z" fill="#F1B517" stroke="black" stroke-width="0.027"/>
<path d="M11.4135 8.89004C11.3932 8.89004 11.3768 8.87437 11.3768 8.85504C11.3768 8.83571 11.3932 8.82004 11.4135 8.82004C11.4338 8.82004 11.4503 8.83571 11.4503 8.85504C11.4503 8.87437 11.4338 8.89004 11.4135 8.89004Z" fill="#F1B517" stroke="black" stroke-width="0.027"/>
<path d="M11.5133 8.82003C11.493 8.82003 11.4765 8.80436 11.4765 8.78503C11.4765 8.7657 11.493 8.75003 11.5133 8.75003C11.5336 8.75003 11.55 8.7657 11.55 8.78503C11.55 8.80436 11.5336 8.82003 11.5133 8.82003Z" fill="#F1B517" stroke="black" stroke-width="0.027"/>
<path d="M11.6445 8.86504C11.6242 8.86504 11.6078 8.84937 11.6078 8.83004C11.6078 8.81071 11.6242 8.79504 11.6445 8.79504C11.6648 8.79504 11.6813 8.81071 11.6813 8.83004C11.6813 8.84937 11.6648 8.86504 11.6445 8.86504Z" fill="#F1B517" stroke="black" stroke-width="0.027"/>
<path d="M11.8493 8.90505C11.829 8.90505 11.8125 8.88938 11.8125 8.87005C11.8125 8.85072 11.829 8.83505 11.8493 8.83505C11.8696 8.83505 11.886 8.85072 11.886 8.87005C11.886 8.88938 11.8696 8.90505 11.8493 8.90505Z" fill="#F1B517" stroke="black" stroke-width="0.027"/>
<path d="M11.9385 8.91503C11.9182 8.91503 11.9018 8.89936 11.9018 8.88003C11.9018 8.8607 11.9182 8.84503 11.9385 8.84503C11.9588 8.84503 11.9753 8.8607 11.9753 8.88003C11.9753 8.89936 11.9588 8.91503 11.9385 8.91503Z" fill="#F1B517" stroke="black" stroke-width="0.027"/>
<path d="M12.0278 8.91503C12.0075 8.91503 11.991 8.89936 11.991 8.88003C11.991 8.8607 12.0075 8.84503 12.0278 8.84503C12.0481 8.84503 12.0645 8.8607 12.0645 8.88003C12.0645 8.89936 12.0481 8.91503 12.0278 8.91503Z" fill="#F1B517" stroke="black" stroke-width="0.027"/>
<path d="M12.1118 8.91503C12.0915 8.91503 12.075 8.89936 12.075 8.88003C12.075 8.8607 12.0915 8.84503 12.1118 8.84503C12.1321 8.84503 12.1485 8.8607 12.1485 8.88003C12.1485 8.89936 12.1321 8.91503 12.1118 8.91503Z" fill="#F1B517" stroke="black" stroke-width="0.027"/>
<path d="M12.0698 8.85006C12.0495 8.85006 12.033 8.83439 12.033 8.81506C12.033 8.79573 12.0495 8.78006 12.0698 8.78006C12.0901 8.78006 12.1065 8.79573 12.1065 8.81506C12.1065 8.83439 12.0901 8.85006 12.0698 8.85006Z" fill="#F1B517" stroke="black" stroke-width="0.027"/>
<path d="M11.9858 8.85503C11.9655 8.85503 11.949 8.83936 11.949 8.82003C11.949 8.8007 11.9655 8.78503 11.9858 8.78503C12.0061 8.78503 12.0225 8.8007 12.0225 8.82003C12.0225 8.83936 12.0061 8.85503 11.9858 8.85503Z" fill="#F1B517" stroke="black" stroke-width="0.027"/>
<path d="M11.907 8.84502C11.8867 8.84502 11.8703 8.82935 11.8703 8.81002C11.8703 8.79069 11.8867 8.77502 11.907 8.77502C11.9273 8.77502 11.9438 8.79069 11.9438 8.81002C11.9438 8.82935 11.9273 8.84502 11.907 8.84502Z" fill="#F1B517" stroke="black" stroke-width="0.027"/>
<path d="M11.9438 8.78506C11.9235 8.78506 11.907 8.76939 11.907 8.75006C11.907 8.73073 11.9235 8.71506 11.9438 8.71506C11.9641 8.71506 11.9805 8.73073 11.9805 8.75006C11.9805 8.76939 11.9641 8.78506 11.9438 8.78506Z" fill="#F1B517" stroke="black" stroke-width="0.027"/>
<path d="M12.0278 8.78005C12.0075 8.78005 11.991 8.76438 11.991 8.74505C11.991 8.72572 12.0075 8.71005 12.0278 8.71005C12.0481 8.71005 12.0645 8.72572 12.0645 8.74505C12.0645 8.76438 12.0481 8.78005 12.0278 8.78005Z" fill="#F1B517" stroke="black" stroke-width="0.027"/>
<path fill-rule="evenodd" clip-rule="evenodd" d="M11.2035 8.90005C11.2035 8.88505 11.2455 8.89005 11.2455 8.87005C11.2455 8.85005 11.1825 8.87005 11.1773 8.88505C11.1405 8.85505 11.1248 8.87505 11.1038 8.88505C11.0723 8.84505 11.0355 8.84505 10.9988 8.87505C10.9778 8.85505 10.9253 8.86005 10.9095 8.88505C10.8728 8.85505 10.8413 8.86005 10.8203 8.88505C10.8098 8.87005 10.794 8.87005 10.7835 8.88505C10.7678 8.85005 10.7205 8.86005 10.6995 8.88505C10.6838 8.86505 10.6628 8.88005 10.6418 8.89005C10.626 8.88005 10.5998 8.88005 10.5998 8.89005C10.5998 8.91005 10.6313 8.90505 10.6313 8.92005C10.6313 8.93005 10.6103 8.92005 10.6103 8.94005C10.6103 8.95505 10.6418 8.96005 10.647 8.94005C10.6628 8.96005 10.7048 8.95005 10.71 8.93005C10.714 8.93431 10.7188 8.93772 10.7242 8.94005C10.7297 8.94239 10.7356 8.9436 10.7415 8.9436C10.7475 8.9436 10.7534 8.94239 10.7588 8.94005C10.7642 8.93772 10.7691 8.93431 10.773 8.93005C10.7888 8.94005 10.8098 8.94005 10.815 8.93005C10.8413 8.95505 10.8885 8.95005 10.9043 8.92005H10.92C10.925 8.92537 10.931 8.92963 10.9378 8.93255C10.9446 8.93547 10.952 8.93698 10.9594 8.93698C10.9669 8.93698 10.9742 8.93547 10.981 8.93255C10.9878 8.92963 10.9939 8.92537 10.9988 8.92005C11.046 8.95005 11.0723 8.94005 11.0985 8.92005C11.1248 8.95505 11.172 8.95505 11.1773 8.92005C11.1983 8.93505 11.2403 8.94005 11.2403 8.92005C11.2403 8.91005 11.2035 8.91505 11.2035 8.90005ZM11.1195 8.90505C11.1195 8.91505 11.13 8.92005 11.1405 8.92005C11.151 8.92005 11.1615 8.91505 11.1615 8.90505C11.1615 8.89505 11.1563 8.89505 11.1405 8.89505C11.1248 8.89505 11.1195 8.90005 11.1195 8.90505ZM11.0198 8.89505C11.0198 8.90505 11.0355 8.91005 11.0513 8.91005C11.067 8.91005 11.0775 8.90505 11.0775 8.89505C11.0775 8.89005 11.067 8.88005 11.0513 8.88005C11.0355 8.88005 11.025 8.89005 11.025 8.89505H11.0198ZM10.836 8.90505C10.836 8.91505 10.8465 8.92005 10.8623 8.92005C10.878 8.92005 10.8833 8.91505 10.8833 8.90505C10.8833 8.90005 10.8728 8.89005 10.8623 8.89005C10.8518 8.89005 10.836 8.89505 10.836 8.90505ZM10.9358 8.90505C10.9358 8.91505 10.9463 8.92005 10.962 8.92005C10.9778 8.92005 10.983 8.91505 10.983 8.90005C10.983 8.89005 10.9725 8.88005 10.962 8.88005C10.9515 8.88005 10.9358 8.89005 10.9358 8.90005V8.90505ZM10.7258 8.90505C10.7258 8.91005 10.731 8.92005 10.7415 8.92005C10.7573 8.92005 10.7678 8.91005 10.7678 8.90005C10.7678 8.89005 10.7573 8.88505 10.7415 8.88505C10.731 8.88505 10.7205 8.89005 10.7205 8.90005L10.7258 8.90505ZM10.7888 8.90505C10.7888 8.91505 10.7888 8.92005 10.7993 8.92005C10.8098 8.92005 10.815 8.91505 10.815 8.90505C10.815 8.89505 10.8098 8.89505 10.7993 8.89505L10.7888 8.90505ZM10.6628 8.91005C10.6628 8.92005 10.6628 8.93005 10.6785 8.93005C10.6838 8.93005 10.6943 8.92005 10.6943 8.91005C10.6943 8.90005 10.6838 8.89505 10.6785 8.89505C10.668 8.89505 10.6628 8.90005 10.6628 8.91005Z" fill="#F1B517" stroke="black" stroke-width="0.027"/>
<path d="M10.4895 8.285C10.3583 8.285 10.2533 8.335 10.2533 8.39C10.2533 8.4 10.2533 8.41 10.2638 8.42C10.29 8.45 10.3845 8.47 10.4948 8.47C10.5998 8.47 10.6838 8.455 10.7153 8.425C10.7258 8.415 10.731 8.405 10.731 8.39C10.731 8.335 10.626 8.29 10.4895 8.29V8.285Z" fill="#0A328C" stroke="#0A328C" stroke-width="0.027"/>
<path d="M10.731 8.40002V8.75002C10.731 8.79502 10.626 8.82502 10.4948 8.82502C10.3635 8.82502 10.2533 8.79502 10.2533 8.75002V8.40002C10.2533 8.44002 10.3583 8.47502 10.4895 8.47502C10.626 8.47502 10.731 8.44002 10.731 8.40002Z" fill="#F1B517" stroke="black" stroke-width="0.027"/>
<path d="M10.2533 8.40002V8.45002L10.3688 8.80002L10.4633 8.53002L10.5683 8.80502L10.6365 8.54502L10.731 8.72002V8.62502L10.647 8.45502C10.6367 8.45874 10.6261 8.46207 10.6155 8.46502L10.563 8.65502L10.4843 8.47502C10.472 8.47531 10.4598 8.47531 10.4475 8.47502L10.3688 8.65502L10.2848 8.43502C10.2638 8.42502 10.2533 8.41002 10.2533 8.40002Z" fill="#D20014" stroke="#D20014" stroke-width="0.027"/>
<path d="M10.731 8.685V8.75C10.731 8.795 10.626 8.825 10.4948 8.825C10.3635 8.825 10.2533 8.795 10.2533 8.75V8.685C10.2533 8.73 10.3583 8.76 10.4895 8.76C10.626 8.76 10.731 8.73 10.731 8.685Z" fill="#0A328C" stroke="#0A328C" stroke-width="0.027"/>
<path d="M10.5893 8.75L10.5315 8.76V8.825L10.5945 8.82V8.755L10.5893 8.75ZM10.3373 8.745V8.81L10.395 8.82V8.755C10.3756 8.75282 10.3563 8.74948 10.3373 8.745ZM10.2533 8.685V8.75C10.2533 8.765 10.2638 8.775 10.2795 8.785V8.72C10.2638 8.71 10.2533 8.7 10.2533 8.685ZM10.731 8.695C10.731 8.705 10.71 8.72 10.689 8.73V8.795C10.7153 8.785 10.731 8.77 10.731 8.75V8.7V8.695Z" fill="#F1B517" stroke="black" stroke-width="0.027"/>
<path d="M10.731 8.40002V8.75002C10.731 8.79502 10.626 8.82502 10.4948 8.82502C10.3635 8.82502 10.2533 8.79502 10.2533 8.75002V8.40002" stroke="black" stroke-width="0.027"/>
<path d="M10.6785 8.37499C10.6785 8.39999 10.5945 8.42499 10.4948 8.42499C10.3898 8.42499 10.3058 8.39999 10.3058 8.37499C10.3058 8.34999 10.3898 8.32999 10.4895 8.32999C10.5945 8.32999 10.6785 8.34999 10.6785 8.37999V8.37499Z" fill="white" stroke="white" stroke-width="0.027"/>
<path d="M10.4318 8.41003L10.4423 8.47003H10.4948L10.5 8.41003H10.4318ZM10.647 8.39503L10.5945 8.40503L10.5998 8.46503L10.6523 8.45503V8.40003L10.647 8.39503ZM10.3635 8.29503L10.3268 8.31003L10.332 8.36003L10.3635 8.35003V8.30003V8.29503ZM10.4895 8.28003H10.4738L10.4843 8.34003H10.5158L10.5263 8.28003C10.514 8.27961 10.5018 8.27961 10.4895 8.28003ZM10.6313 8.30003L10.626 8.35003L10.6628 8.36503V8.31503C10.6526 8.3094 10.6421 8.30439 10.6313 8.30003ZM10.29 8.44003L10.3005 8.37503L10.248 8.35003V8.42503L10.29 8.44003ZM10.731 8.42503V8.36003L10.689 8.37503L10.731 8.42503ZM11.2193 8.00003C11.2613 8.00003 11.3243 8.05003 11.3295 8.12503C11.3295 8.17503 11.2403 8.17503 11.2403 8.17503C11.2403 8.20003 11.1878 8.22003 11.1458 8.22503C11.1038 8.22503 11.1563 8.15003 11.1563 8.15003C11.13 8.08503 11.1668 8.01503 11.1668 8.01503L11.2193 8.00003Z" fill="#F1B517" stroke="black" stroke-width="0.027"/>
<path d="M11.1563 8.15002H11.1983C11.1983 8.15002 11.1983 8.16502 11.2088 8.16502C11.2193 8.16502 11.2245 8.14502 11.2245 8.14502H11.2875" fill="#F1B517"/>
<path d="M11.1563 8.15002H11.1983C11.1983 8.15002 11.1983 8.16502 11.2088 8.16502C11.2193 8.16502 11.2245 8.14502 11.2245 8.14502H11.2875" stroke="black" stroke-width="0.027"/>
<path d="M11.2403 8.045C11.277 8.02 11.2455 7.97 11.2193 7.97H11.1668C11.1353 7.97 11.0933 8 11.0985 8.02C11.0985 8.045 11.1195 8.055 11.1405 8.05C11.151 8.05 11.172 8.02 11.1825 8.02C11.1983 8.02 11.235 8.05 11.2403 8.045Z" fill="#D20014" stroke="#F1B517" stroke-width="0.027"/>
<path fill-rule="evenodd" clip-rule="evenodd" d="M8.62052 8.74002C8.58902 8.74502 8.58377 8.78002 8.59427 8.81502C8.45777 8.85002 8.33177 8.90002 8.20577 8.93502C8.20052 8.91002 8.26877 8.84502 8.26877 8.84502C8.28452 8.85002 8.30027 8.89002 8.30027 8.89002C8.30027 8.81002 8.38427 8.76002 8.38427 8.76002C8.33177 8.75002 8.19002 8.81002 8.17427 8.83002C8.17427 8.83002 8.22677 8.82002 8.23727 8.83002C8.23727 8.83002 8.12177 8.94502 8.11652 8.98002C8.13752 9.01502 8.32652 9.04502 8.32652 9.04502C8.32652 9.05502 8.27402 9.09502 8.27402 9.09502C8.35277 9.10502 8.46827 9.05502 8.49977 9.02502C8.49977 9.02502 8.41052 9.01502 8.34227 8.96002C8.34227 8.96002 8.35277 8.99502 8.34227 9.01002C8.34227 9.01002 8.23727 8.98002 8.22152 8.96002C8.22152 8.96002 8.48402 8.90002 8.61002 8.86002C8.61527 8.88502 8.64152 8.92502 8.67302 8.91502C8.68877 8.91002 8.68352 8.87502 8.67302 8.84502C8.67728 8.84864 8.68227 8.85139 8.68768 8.85311C8.6931 8.85483 8.69883 8.85548 8.70452 8.85502C8.72552 8.85502 8.74127 8.84002 8.74127 8.82002C8.74127 8.80002 8.72552 8.78502 8.70452 8.78502C8.69653 8.78542 8.68882 8.78799 8.68231 8.79242C8.6758 8.79684 8.67076 8.80295 8.66777 8.81002C8.66252 8.78502 8.64677 8.74002 8.62577 8.74502L8.62052 8.74002ZM8.72552 8.82002C8.72552 8.83002 8.71502 8.83502 8.70452 8.83502C8.70207 8.83585 8.69944 8.83609 8.69687 8.83572C8.6943 8.83534 8.69187 8.83437 8.68979 8.83289C8.68771 8.8314 8.68605 8.82945 8.68495 8.8272C8.68386 8.82496 8.68337 8.82249 8.68352 8.82002C8.68352 8.81002 8.69402 8.80002 8.70452 8.80002C8.71502 8.80002 8.72027 8.81002 8.72027 8.82002H8.72552Z" fill="#F1B517" stroke="black" stroke-width="0.027"/>
<path d="M12.7575 8.895C12.768 8.875 12.7575 8.785 12.7575 8.785C12.7313 8.785 12.705 8.82 12.705 8.82C12.7313 8.74 12.663 8.62 12.663 8.62C12.7103 8.625 12.8678 8.77 12.873 8.8C12.873 8.8 12.8048 8.775 12.7943 8.78C12.81 8.855 12.8625 8.89 12.8835 8.93C12.8835 8.93 12.7943 8.945 12.7995 9.02H12.7418C12.7208 8.995 12.747 8.955 12.747 8.955L12.3428 8.795C12.3165 8.785 12.2588 8.755 12.2693 8.725C12.2745 8.7 12.3743 8.74 12.3953 8.75L12.7628 8.895H12.7575Z" fill="#F1B517" stroke="black" stroke-width="0.027"/>
<path d="M12.369 8.82501L12.4215 8.74501C12.4373 8.72001 12.4005 8.69501 12.3743 8.72501L12.3218 8.80001C12.3008 8.84501 12.348 8.85501 12.3743 8.82501H12.369Z" fill="#F1B517" stroke="black" stroke-width="0.027"/>
<path d="M9.52219 9.01874L9.51891 8.92499L9.40407 8.93436L9.39751 9.03124L9.52219 9.01874Z" fill="white" stroke="black" stroke-width="0.0253125"/>
<path d="M8.67563 9.14691L8.52141 9.06253C9.15797 9.11878 9.28922 8.90628 9.44344 8.89691C9.54188 8.88753 9.55172 8.99691 9.36797 8.94378L9.41719 9.05628C9.41719 9.05628 8.96438 9.30003 8.51813 9.20003L8.67563 9.14691ZM11.4581 9.01878L11.4614 8.92503L11.6025 8.93128L11.6091 9.02815L11.4581 9.01878Z" fill="white" stroke="black" stroke-width="0.0253125"/>
<path d="M12.3342 9.12499L12.4819 9.04686C11.7469 9.06874 11.9142 8.93436 11.55 8.89686C11.4516 8.88436 11.3859 9.00311 11.6222 8.94374L11.5762 9.05624H11.6911C11.9405 9.21249 12.2752 9.22811 12.4983 9.17811L12.3342 9.12499Z" fill="white" stroke="black" stroke-width="0.0253125"/>
<path d="M9.36798 8.94687V9.10312C9.36798 9.10312 9.77157 9.24687 10.4967 9.24687C11.2252 9.24687 11.6255 9.10312 11.6255 9.10312V8.94687C11.6255 8.94687 11.3203 9.08124 10.4967 9.08124C9.67642 9.08124 9.36798 8.94687 9.36798 8.94687Z" fill="white" stroke="black" stroke-width="0.0253125"/>
<path d="M9.42703 9.10311L9.46313 8.98749L9.47953 8.99374L9.44672 9.09374L9.51235 9.10936L9.50578 9.12499L9.42703 9.10311ZM9.54516 9.05311V9.03124L9.55172 9.00936L9.57141 9.01561L9.56485 9.03436L9.555 9.05624L9.54516 9.05311ZM9.71906 9.04374L9.73547 9.04999L9.72234 9.11561L9.70922 9.14686C9.70504 9.15237 9.69937 9.15669 9.69281 9.15936H9.66C9.64922 9.15761 9.63907 9.15331 9.63047 9.14686C9.6238 9.14239 9.61912 9.1357 9.61735 9.12811L9.62063 9.09686L9.63703 9.02811L9.65344 9.03124L9.63703 9.09999C9.63535 9.10824 9.63535 9.11673 9.63703 9.12499C9.63773 9.12973 9.64003 9.13412 9.6436 9.13749L9.66 9.14374H9.69281L9.70594 9.11249L9.71906 9.04374ZM9.73875 9.16874L9.75844 9.05311H9.77813L9.82735 9.15936L9.84375 9.06561H9.86016L9.84047 9.18749L9.82406 9.18436L9.77156 9.08124L9.75516 9.17499L9.73875 9.17186V9.16874ZM9.87 9.19061L9.88969 9.07186H9.9061L9.88969 9.19061H9.87328H9.87ZM9.9225 9.13749C9.9225 9.11874 9.93235 9.10311 9.94547 9.09374C9.95859 9.08422 9.97499 9.07976 9.99141 9.08124C10.0045 9.08124 10.0144 9.08436 10.0242 9.09061L10.0406 9.11561C10.0472 9.12499 10.0472 9.13749 10.0439 9.14686C10.0433 9.15788 10.0399 9.1686 10.0341 9.17811C10.028 9.18789 10.0188 9.19556 10.0078 9.19999C9.99733 9.20367 9.98604 9.20475 9.975 9.20311C9.96339 9.20281 9.95206 9.19957 9.94219 9.19374C9.93435 9.18705 9.92867 9.17838 9.92578 9.16874C9.92205 9.15873 9.92092 9.148 9.9225 9.13749ZM9.93891 9.13749C9.93891 9.15311 9.93891 9.16874 9.94875 9.17499C9.95531 9.18436 9.96516 9.19061 9.97828 9.19061C9.99141 9.19061 10.0013 9.19061 10.0111 9.18124C10.0209 9.17499 10.0242 9.16249 10.0275 9.14999C10.0304 9.13976 10.0304 9.12897 10.0275 9.11874C10.0238 9.11208 10.0181 9.10663 10.0111 9.10311C10.0046 9.09787 9.99659 9.09461 9.98813 9.09374C9.97828 9.09374 9.96516 9.09374 9.95531 9.10311C9.94875 9.10936 9.94219 9.12186 9.93891 9.14061V9.13749ZM10.0603 9.20936L10.0702 9.09061H10.0898L10.1489 9.19061L10.1555 9.09686H10.1719L10.162 9.21874H10.1456L10.0833 9.11874L10.0767 9.21249H10.0603V9.20936ZM10.2441 9.22186L10.2473 9.10311L10.3359 9.10624V9.12186L10.267 9.11874L10.2638 9.15311L10.3261 9.15624V9.17186L10.2605 9.16874V9.22499H10.2441V9.22186ZM10.3425 9.22499L10.3917 9.10624H10.4114L10.4606 9.23124H10.4409L10.4278 9.19061H10.372L10.3589 9.22811H10.3392L10.3425 9.22499ZM10.3753 9.17811H10.4213L10.4081 9.14686C10.4055 9.13759 10.4033 9.12821 10.4016 9.11874L10.395 9.14374L10.3786 9.17811H10.3753ZM10.477 9.22811V9.10936H10.4967V9.22811H10.477ZM10.5591 9.22811V9.12499H10.5164V9.11249H10.6181V9.12499H10.5755V9.23124H10.5591V9.22811ZM10.6903 9.22811L10.6805 9.10311H10.7002L10.7034 9.20936H10.7691V9.22186L10.687 9.22499L10.6903 9.22811ZM10.7756 9.22186L10.815 9.09686H10.8347L10.9003 9.21249H10.8773L10.8609 9.18124H10.8052L10.7953 9.22186H10.7756ZM10.8084 9.16874H10.8544L10.838 9.13749L10.8248 9.10936C10.8245 9.11777 10.8234 9.12613 10.8216 9.13436L10.8084 9.16874ZM10.9627 9.20624L10.9495 9.08749L11.0348 9.07811L11.0381 9.09374L10.9692 9.09999V9.13749L11.0348 9.13124V9.14686L10.9725 9.15311L10.9791 9.20624H10.9627ZM11.0611 9.14061C11.0585 9.1323 11.0577 9.12356 11.0589 9.11495C11.06 9.10635 11.063 9.09806 11.0677 9.09061C11.0784 9.07841 11.0937 9.07058 11.1103 9.06874L11.1431 9.07186C11.1563 9.07499 11.1628 9.08124 11.1694 9.09061L11.1825 9.12186L11.1792 9.15311C11.1756 9.16323 11.1687 9.172 11.1595 9.17811C11.1509 9.18456 11.1408 9.18886 11.13 9.19061C11.119 9.19225 11.1077 9.19117 11.0972 9.18749C11.0867 9.18389 11.0775 9.17735 11.0709 9.16874C11.0638 9.15958 11.0593 9.14881 11.0578 9.13749L11.0611 9.14061ZM11.0775 9.13749C11.0775 9.14999 11.0841 9.16249 11.0939 9.16874C11.1038 9.17811 11.1136 9.17811 11.1267 9.17811C11.1398 9.17811 11.1497 9.17186 11.1595 9.16249C11.1661 9.15311 11.1661 9.14061 11.1661 9.12499C11.1647 9.11608 11.1614 9.10755 11.1563 9.09999C11.1515 9.09298 11.1447 9.08753 11.1366 9.08436C11.129 9.08251 11.1211 9.08251 11.1136 9.08436C11.1005 9.08436 11.0906 9.08749 11.0808 9.09686C11.0775 9.10624 11.0742 9.11874 11.0775 9.13749ZM11.212 9.17811L11.1923 9.05936L11.2481 9.04999H11.2744C11.2809 9.04999 11.2875 9.04999 11.2908 9.05624L11.3006 9.07499C11.3006 9.08436 11.3006 9.09061 11.2941 9.09686C11.2908 9.10311 11.2809 9.10936 11.2711 9.11249C11.2745 9.11317 11.2778 9.11422 11.2809 9.11561L11.2973 9.13124L11.3302 9.15936H11.3072L11.2842 9.14061C11.279 9.13516 11.2735 9.12994 11.2678 9.12499C11.2649 9.12244 11.2616 9.12034 11.258 9.11874C11.2547 9.11815 11.2514 9.11815 11.2481 9.11874H11.2383L11.2186 9.12186L11.2317 9.17499H11.212V9.17811ZM11.2186 9.10936L11.2514 9.10311C11.2583 9.10222 11.265 9.1001 11.2711 9.09686C11.2745 9.09503 11.2773 9.09226 11.279 9.08892C11.2808 9.08558 11.2814 9.08182 11.2809 9.07811C11.2805 9.0733 11.2782 9.06882 11.2744 9.06561H11.2514L11.2088 9.06874L11.2186 9.10936ZM11.4253 9.09686H11.4417C11.4417 9.10936 11.4384 9.12186 11.4319 9.12811C11.4231 9.13733 11.4117 9.14386 11.3991 9.14686C11.3883 9.14951 11.377 9.14951 11.3663 9.14686C11.3556 9.14344 11.3464 9.13687 11.34 9.12811C11.3322 9.11895 11.3266 9.10829 11.3236 9.09686C11.3211 9.08658 11.3211 9.07589 11.3236 9.06561C11.3236 9.05311 11.3334 9.04374 11.34 9.03749L11.3695 9.02499H11.4023C11.4155 9.03124 11.422 9.03749 11.4286 9.04999L11.4122 9.05624C11.4085 9.04958 11.4028 9.04413 11.3958 9.04061C11.3883 9.03823 11.3803 9.03823 11.3728 9.04061C11.3642 9.04073 11.3559 9.0441 11.3498 9.04999C11.3439 9.05593 11.3404 9.06369 11.34 9.07186V9.09374C11.3426 9.10281 11.3471 9.1113 11.3531 9.11874C11.3564 9.12499 11.363 9.13124 11.3728 9.13124H11.3958C11.4032 9.13014 11.4101 9.12686 11.4155 9.12186C11.422 9.11561 11.4253 9.10624 11.4253 9.09686ZM11.4713 9.12811L11.4384 9.01249L11.527 8.99061L11.5336 9.00311L11.4581 9.02186L11.468 9.05624L11.5369 9.04061L11.5434 9.05311L11.4713 9.07186L11.4844 9.10936L11.5631 9.09061V9.10311L11.4713 9.12811Z" fill="black"/>
</g>
<defs>
<clipPath id="clip0_132_5128">
<rect width="21" height="15" rx="3" fill="white"/>
</clipPath>
</defs>
</svg>
