<svg width="21" height="15" viewBox="0 0 21 15" fill="none" xmlns="http://www.w3.org/2000/svg">
<rect width="21" height="15" rx="3" fill="#F93939"/>
<path fill-rule="evenodd" clip-rule="evenodd" d="M10.1554 7.51385C7.44345 6.36585 8.64545 2.82985 11.2404 3.00585C10.7144 3.27585 10.6384 3.77985 10.9384 4.24585C11.2744 4.76985 10.9084 5.61085 10.4544 5.81585C9.70845 6.15085 9.55945 7.04585 10.1544 7.51385H10.1554ZM10.3824 7.39185C10.6354 4.45885 14.3724 4.50885 15.0024 7.02985C14.5844 6.61485 14.0824 6.69785 13.7304 7.12785C13.3374 7.60785 12.4244 7.51785 12.0904 7.15085C11.5404 6.54685 10.6404 6.68085 10.3824 7.39285V7.39185ZM10.4744 7.68485C13.3544 7.06985 14.3984 10.6569 12.1714 11.9989C12.4474 11.4759 12.2214 11.0189 11.7074 10.8089C11.1334 10.5729 10.9514 9.67385 11.2054 9.24685C11.6234 8.54385 11.2314 7.72385 10.4754 7.68385L10.4744 7.68485ZM6.75045 10.9799C7.33045 11.0799 7.69545 10.7229 7.73645 10.1699C7.78345 9.54985 8.58145 9.09985 9.06645 9.20985C9.86445 9.38985 10.5234 8.76385 10.3264 8.03185C11.8024 10.5819 8.71345 12.6819 6.74945 10.9789L6.75045 10.9799ZM6.15345 5.49985C6.26845 6.07785 6.73145 6.28985 7.26345 6.12985C7.85845 5.95185 8.56545 6.53585 8.63645 7.02985C8.75445 7.83785 9.57445 8.22785 10.1864 7.78385C8.33645 10.0739 5.26645 7.94385 6.15345 5.49885V5.49985Z" fill="white"/>
</svg>
