<svg width="21" height="15" viewBox="0 0 21 15" fill="none" xmlns="http://www.w3.org/2000/svg">
<g clip-path="url(#clip0_974_13146)">
<rect width="21" height="15" rx="3" fill="#249F58"/>
<path d="M0 0H21V15H0V0Z" fill="white"/>
<path fill-rule="evenodd" clip-rule="evenodd" d="M0 0V1L9.17964 7.5L0.0419163 14V15H1.38323L10.521 8.5L19.6168 15H20.9581V14L11.8623 7.5L21 1V0H19.6168L10.479 6.5L1.38323 0H0.0419163H0Z" fill="#DF112D"/>
<path d="M11.8751 2.25987C12.2064 3.56287 12.0248 5.17137 10.496 6.06737C8.97872 5.17137 8.78604 3.56287 9.12782 2.25987C9.49164 1.95487 11.116 1.76087 11.8751 2.25987Z" fill="#E8112D" stroke="black" stroke-width="0.040722"/>
<path d="M10.5071 1.99494C10.989 1.98427 11.4651 2.09684 11.8858 2.32094C11.9561 1.87686 12.1357 1.4549 12.4097 1.08944C12.1425 1.08944 12.0249 1.22144 12.0249 1.35394C11.9609 1.18094 11.7047 1.19094 11.6186 1.28244C11.9073 1.46594 11.6831 1.79194 11.4264 1.73044C11.3088 1.70044 11.2448 1.61844 11.2127 1.49644C11.2467 1.4901 11.2769 1.47196 11.2975 1.44556C11.3182 1.41915 11.3278 1.38637 11.3244 1.3536C11.3211 1.32084 11.3051 1.29042 11.2795 1.2683C11.2539 1.24617 11.2205 1.23391 11.186 1.23391C11.1514 1.23391 11.1181 1.24617 11.0925 1.2683C11.0669 1.29042 11.0508 1.32084 11.0475 1.3536C11.0441 1.38637 11.0537 1.41915 11.0744 1.44556C11.095 1.47196 11.1253 1.4901 11.1592 1.49644C11.0841 1.59844 10.956 1.65944 10.8279 1.62894C10.6888 1.59844 10.6247 1.47594 10.6247 1.37394C10.6247 1.09944 10.903 1.05894 10.988 1.10944C10.988 0.926438 10.6783 0.773438 10.5817 0.926438C10.6888 0.732938 10.6673 0.488438 10.4961 0.335938C10.418 0.410878 10.3675 0.507894 10.3522 0.612454C10.3369 0.717014 10.3575 0.823491 10.4111 0.915937C10.3145 0.763437 10.0152 0.915937 10.0152 1.09944C10.0903 1.04844 10.368 1.08944 10.368 1.36444C10.368 1.46594 10.304 1.58794 10.1759 1.61844C10.1115 1.63278 10.044 1.62779 9.98272 1.60416C9.92143 1.58053 9.86932 1.5394 9.83356 1.48644C9.85456 1.48644 9.87661 1.46594 9.89761 1.44544C9.91901 1.42369 9.93209 1.3957 9.93473 1.36599C9.93737 1.33628 9.92941 1.3066 9.91214 1.28173C9.89487 1.25687 9.8693 1.23827 9.83957 1.22896C9.80983 1.21965 9.77767 1.22015 9.74827 1.2304C9.71888 1.24065 9.69397 1.26004 9.67758 1.28544C9.66119 1.31083 9.65426 1.34075 9.65793 1.37036C9.6616 1.39997 9.67565 1.42753 9.6978 1.44859C9.71995 1.46966 9.74892 1.48299 9.78001 1.48644C9.75901 1.60844 9.68393 1.68994 9.56633 1.72044C9.50645 1.73462 9.44322 1.72779 9.38819 1.70119C9.33317 1.6746 9.29005 1.63002 9.26671 1.57562C9.24338 1.52122 9.2414 1.46064 9.26114 1.40496C9.28087 1.34928 9.321 1.30224 9.37418 1.27244C9.28861 1.17094 9.03188 1.17094 8.96783 1.34394C8.96783 1.21144 8.85023 1.07894 8.58301 1.07894C8.86089 1.4436 9.04405 1.86581 9.11746 2.31094C9.54391 2.09225 10.023 1.98349 10.5071 1.99544V1.99494Z" fill="#F9DD16" stroke="black" stroke-width="0.040722"/>
<path d="M11.6616 3.27809C11.6185 3.27809 11.6185 3.32909 11.608 3.32909C11.6936 3.32909 11.7361 3.29859 11.7577 3.25809V3.31909C11.8217 3.29859 11.8432 3.24759 11.8217 3.21709L11.8968 3.23709C11.8537 3.20709 11.8863 3.13559 11.8112 3.09509C11.8322 3.09509 11.8753 3.11509 11.8968 3.14609C11.8863 3.07459 11.8753 3.03409 11.8112 2.99309H11.8648C11.8507 2.98428 11.8394 2.97212 11.8318 2.95782C11.8243 2.94352 11.8208 2.92758 11.8217 2.91159C11.8217 2.87109 11.8007 2.87109 11.7577 2.88159L11.5655 2.89159C11.4584 2.89159 11.3513 2.89159 11.2663 2.83009C11.4049 2.89159 11.5865 2.76909 11.5865 2.67759C11.5865 2.57559 11.4369 2.47409 11.1592 2.53509C10.8809 2.59609 10.5391 2.57559 10.5391 2.48409C10.5391 2.39259 10.7848 2.38209 10.9135 2.40259C11.0416 2.42259 11.1271 2.43309 11.3623 2.35159C11.3088 2.37209 11.1161 2.38209 10.9665 2.34159C10.8169 2.30109 10.4536 2.30109 10.4536 2.48409C10.4536 2.67759 10.8384 2.65709 11.1807 2.60609C11.3728 2.58609 11.4799 2.60609 11.4799 2.65709C11.4799 2.71809 11.2983 2.73859 11.1592 2.72859C11.0124 2.70957 10.8632 2.71978 10.7208 2.75859C10.5817 2.79959 10.4856 2.75859 10.336 2.78959C10.2614 2.78959 10.0792 2.78959 9.99419 2.64709C9.94064 2.68759 9.77999 2.75909 9.74796 2.84059C9.71646 2.90159 9.74796 2.97259 9.79101 3.04409C9.85506 3.12559 9.75899 3.11509 9.68391 3.11509C9.59834 3.11509 9.47024 3.11509 9.40566 3.03409C9.34161 2.97259 9.26706 2.92209 9.20301 2.96259C9.17099 2.99309 9.20301 3.02359 9.22401 3.01359L9.30959 3.03359C9.29246 3.02621 9.2736 3.02324 9.25489 3.025C9.23618 3.02675 9.21829 3.03317 9.20301 3.04359C9.17099 3.06459 9.20301 3.10509 9.23451 3.09509C9.25656 3.08509 9.30959 3.07459 9.34161 3.09509C9.31011 3.09509 9.26706 3.09509 9.25656 3.11509C9.24606 3.13509 9.25656 3.15609 9.28806 3.15609C9.35264 3.15609 9.36314 3.19659 9.42719 3.18659C9.41231 3.18738 9.39784 3.19145 9.3849 3.19847C9.37196 3.2055 9.36092 3.2153 9.35264 3.22709C9.41669 3.19709 9.47024 3.26809 9.54479 3.24759C9.52379 3.25759 9.47024 3.28859 9.47024 3.30859C9.51276 3.25809 9.81201 3.34959 9.81201 3.23759L9.80151 3.31909C9.83354 3.29859 9.95114 3.28859 9.99419 3.21709C9.99419 3.23709 9.99419 3.26809 9.97266 3.27809C10.0042 3.27809 10.0582 3.25809 10.1113 3.18659C10.1328 3.15609 10.1328 3.13559 10.1328 3.11509C10.1863 3.11509 10.2184 3.10509 10.2614 3.07459C10.3039 3.04409 10.3465 3.10509 10.4215 3.05459C10.4856 3.01359 10.5496 3.05459 10.5927 3.03409C10.6242 3.01359 10.6783 3.03409 10.7208 3.01359C10.7633 2.99309 10.8279 3.02359 10.8919 2.97259C10.9985 3.01359 11.1376 3.07459 11.4479 3.02359C11.6185 2.99359 11.6831 3.05409 11.6831 3.12559C11.6831 3.18659 11.6401 3.18659 11.6185 3.18659C11.512 3.19659 11.4799 3.15609 11.4369 3.16659C11.4159 3.17659 11.3944 3.21709 11.4369 3.23759C11.4054 3.24759 11.4054 3.27809 11.4264 3.28859C11.4474 3.29909 11.4799 3.28859 11.512 3.27859C11.4689 3.28859 11.4369 3.31859 11.4584 3.34959C11.4689 3.36959 11.5009 3.37959 11.533 3.34959C11.5655 3.30859 11.6185 3.27809 11.6616 3.27809ZM9.67341 2.46359C9.58784 2.43359 9.56631 2.43359 9.57681 2.50459C9.57681 2.53459 9.60936 2.57559 9.63036 2.59609C9.63036 2.56559 9.64086 2.49409 9.67341 2.47409V2.46359Z" fill="#F9DD16" stroke="black" stroke-width="0.040722"/>
<path d="M9.96191 2.47405C10.0475 2.43305 10.0795 2.43305 10.0585 2.50405C10.0585 2.53505 10.0265 2.57555 10.005 2.59605C10.005 2.56555 10.005 2.49405 9.96191 2.47405Z" fill="#F9DD16" stroke="black" stroke-width="0.040722"/>
<path d="M9.82256 2.42285C9.99371 2.42285 10.0147 2.50435 10.0042 2.59585C10.0042 2.69785 9.95066 2.65685 9.91863 2.79935C9.90813 2.84035 9.86508 2.85035 9.81153 2.85035C9.78003 2.85035 9.73698 2.85035 9.71546 2.78935C9.68343 2.65685 9.62988 2.68735 9.62988 2.58585C9.62988 2.50435 9.65141 2.42285 9.82256 2.42285Z" fill="#F9DD16" stroke="black" stroke-width="0.040722"/>
<path d="M9.38449 2.80026C9.34144 2.77976 9.30941 2.80026 9.28841 2.80026C9.35246 2.81026 9.35246 2.88126 9.48056 2.90176C9.44906 2.90176 9.43804 2.92176 9.40601 2.90176C9.45904 2.94226 9.51259 2.99326 9.64121 2.99326C9.71576 2.99326 9.66221 3.02376 9.61969 3.00326C9.66221 3.05426 9.75881 3.01326 9.82286 3.10526C9.82286 3.03426 9.71576 2.93226 9.76931 2.86076C9.58766 2.85076 9.57664 2.75926 9.48056 2.68776C9.39499 2.62676 9.38449 2.56576 9.35246 2.45376C9.34196 2.40276 9.27739 2.37226 9.24536 2.38226C9.21386 2.38226 9.19181 2.41326 9.22436 2.43326C9.24536 2.45376 9.28841 2.45376 9.28841 2.50476C9.25639 2.46376 9.20284 2.45376 9.18131 2.47426C9.17081 2.49426 9.18131 2.52526 9.20231 2.52526C9.25639 2.52526 9.22436 2.58626 9.27739 2.62676C9.22436 2.57576 9.18131 2.56576 9.14929 2.59676C9.13879 2.61676 9.14929 2.64676 9.19181 2.64676C9.24536 2.64676 9.29891 2.76926 9.38449 2.79976V2.80026ZM10.7742 3.26826C10.7532 3.26826 10.7637 3.31926 10.7206 3.31926C10.8062 3.31926 10.8597 3.29876 10.8918 3.26826L10.8708 3.31926C10.9128 3.28876 11.0309 3.27826 11.0839 3.28876C11.1369 3.29926 11.148 3.27876 11.1695 3.24776C11.1905 3.20726 11.1695 3.18676 11.138 3.16626C11.1054 3.13626 11.0949 3.09526 11.1054 3.03426C10.9558 2.83026 10.6781 2.93226 10.6781 3.01376C10.7742 3.12576 10.7847 3.11526 10.8702 3.12576C10.9453 3.14576 10.9983 3.14576 10.9453 3.18676C10.9238 3.20676 10.8382 3.18676 10.7847 3.19676C10.6461 3.19676 10.571 3.10526 10.539 3.15626C10.5069 3.19676 10.539 3.21726 10.603 3.21726C10.5605 3.21726 10.4959 3.21726 10.5069 3.25826C10.5279 3.32926 10.5925 3.24826 10.6245 3.26826C10.6035 3.26826 10.5605 3.27826 10.5605 3.29876C10.5605 3.31876 10.6135 3.34976 10.6671 3.29876C10.6982 3.27747 10.7359 3.26673 10.7742 3.26826Z" fill="#F9DD16" stroke="black" stroke-width="0.040722"/>
<path d="M10.8916 2.97245C10.8454 2.95029 10.7928 2.94326 10.742 2.95245M10.1435 2.95245C10.1004 3.03395 10.1219 3.07445 10.133 3.11495M9.70508 2.54495C9.72608 2.56545 9.7476 2.52495 9.79065 2.56545C9.78015 2.55545 9.75863 2.59595 9.72608 2.56545M9.94028 2.55545C9.90825 2.55545 9.88673 2.52495 9.84368 2.56545C9.85418 2.55545 9.87623 2.59595 9.90825 2.56545M9.84368 2.56545V2.59595C9.85418 2.66745 9.87623 2.69795 9.81218 2.69795C9.75863 2.69795 9.77963 2.66745 9.79065 2.59595V2.56545" stroke="black" stroke-width="0.040722"/>
<path d="M9.82281 2.82C9.86533 2.82 9.88686 2.82 9.88686 2.759C9.88686 2.739 9.91888 2.7285 9.89736 2.6875C9.91888 2.7285 9.82281 2.7285 9.82281 2.708C9.82281 2.728 9.71571 2.728 9.73723 2.688C9.72673 2.728 9.75823 2.7385 9.74773 2.759C9.74773 2.82 9.76873 2.82 9.82281 2.82Z" fill="#FF0016" stroke="black" stroke-width="0.040722"/>
<path d="M9.76921 2.69798L9.66211 2.66748L9.76921 2.69798ZM9.76921 2.69748H9.66211H9.76921ZM9.76921 2.70798L9.67313 2.73848L9.76921 2.70798ZM9.85478 2.69798L9.96136 2.66748L9.85478 2.69798ZM9.85478 2.69748H9.98288H9.85478ZM9.85478 2.70798L9.96136 2.73848L9.85478 2.70798Z" fill="black"/>
<path d="M9.76921 2.69798L9.66211 2.66748M9.76921 2.69748H9.66211M9.76921 2.70798L9.67313 2.73848M9.85478 2.69798L9.96136 2.66748M9.85478 2.69748H9.98288M9.85478 2.70798L9.96136 2.73848" stroke="black" stroke-width="0.040722"/>
<path d="M9.2452 2.382C9.2137 2.3415 9.13863 2.382 9.13863 2.423C9.15963 2.3925 9.20268 2.433 9.2347 2.423C9.2452 2.423 9.26673 2.403 9.2452 2.382ZM9.2137 2.474C9.18115 2.433 9.09558 2.474 9.09558 2.5145C9.11658 2.4845 9.15963 2.5245 9.19165 2.5145C9.20215 2.5145 9.2242 2.4845 9.21318 2.474H9.2137ZM9.19165 2.596C9.14913 2.5555 9.07405 2.596 9.08508 2.647C9.10608 2.6165 9.14913 2.647 9.17065 2.647C9.19165 2.637 9.20215 2.606 9.18115 2.596H9.19165ZM9.2242 2.9725C9.18115 2.932 9.1171 2.9825 9.1171 3.034C9.1381 2.993 9.19165 3.034 9.2242 3.0135C9.2242 3.0135 9.2452 2.983 9.2242 2.9625V2.9725ZM9.2242 3.044C9.17065 3.034 9.1171 3.105 9.14913 3.146C9.14913 3.095 9.21318 3.115 9.2347 3.095L9.2242 3.044ZM9.28825 3.115C9.2347 3.095 9.18115 3.156 9.21318 3.1965C9.21318 3.1665 9.27723 3.1765 9.28825 3.156V3.105V3.115ZM10.5388 3.227C10.4853 3.217 10.4317 3.278 10.4637 3.329C10.4637 3.278 10.5283 3.2985 10.5493 3.278L10.5388 3.227ZM10.6029 3.2885C10.5493 3.2785 10.5068 3.3495 10.5388 3.39C10.5388 3.339 10.6029 3.3495 10.6134 3.329C10.6239 3.319 10.6239 3.2885 10.6134 3.2885H10.6029ZM10.5603 3.146C10.5173 3.1255 10.4532 3.1865 10.4637 3.227C10.4853 3.1865 10.5388 3.217 10.5603 3.197V3.1555V3.146ZM11.4476 3.2475C11.4045 3.2375 11.362 3.3085 11.383 3.3495C11.383 3.3085 11.4476 3.319 11.4686 3.2985C11.4686 3.2785 11.4686 3.2475 11.4476 3.2475ZM11.4476 3.1765C11.4045 3.146 11.3405 3.2065 11.362 3.2475C11.383 3.2175 11.4366 3.2375 11.4581 3.2175V3.1655L11.4476 3.1765ZM11.4901 3.3085C11.4366 3.3085 11.394 3.38 11.4261 3.4105C11.4261 3.3695 11.4901 3.38 11.5006 3.3595C11.5111 3.3395 11.5006 3.319 11.4901 3.3085ZM9.8227 2.78C9.8542 2.78 9.86523 2.79 9.86523 2.851C9.86523 2.953 9.86523 3.014 9.8227 3.014C9.79068 3.014 9.79068 2.963 9.79068 2.8815C9.79068 2.841 9.79068 2.8105 9.78018 2.8205C9.78018 2.79 9.79068 2.78 9.82218 2.78H9.8227Z" fill="#0051BA"/>
<path d="M11.5006 4.34698C11.4691 4.34698 11.4691 4.38798 11.4581 4.38798C11.5326 4.38798 11.5652 4.36748 11.5862 4.32648V4.37748C11.6502 4.36748 11.6717 4.31648 11.6502 4.28598L11.7148 4.30598C11.6828 4.28598 11.7148 4.21448 11.6397 4.18398C11.6607 4.18398 11.6933 4.19398 11.7148 4.22498C11.7148 4.16398 11.6933 4.12298 11.6397 4.09248H11.6828C11.6698 4.08322 11.6598 4.07065 11.6541 4.05622C11.6483 4.04179 11.647 4.0261 11.6502 4.01098C11.6502 3.98098 11.6292 3.98098 11.5862 3.99098H11.4155C11.3189 3.99098 11.2229 3.99098 11.1478 3.93998C11.2764 4.00098 11.4365 3.88898 11.4365 3.80748C11.4365 3.70548 11.2979 3.62448 11.0517 3.67498C10.806 3.73598 10.4957 3.71598 10.4957 3.63448C10.4957 3.55298 10.7099 3.53248 10.8275 3.55298C10.9451 3.57298 11.0197 3.58348 11.2334 3.51248C11.1908 3.53248 11.0197 3.54248 10.8806 3.50248C10.7414 3.46248 10.4212 3.46148 10.4212 3.63448C10.4212 3.80748 10.7635 3.78698 11.0627 3.73598C11.2444 3.72598 11.3405 3.73598 11.3405 3.78698C11.3405 3.83798 11.1803 3.85848 11.0517 3.84798C10.9191 3.83204 10.7845 3.8426 10.6564 3.87898C10.5283 3.91948 10.4427 3.87898 10.3141 3.90898C10.2395 3.90898 10.0789 3.90898 9.99383 3.77698C9.95078 3.81748 9.81165 3.87898 9.77963 3.94998C9.75863 4.01098 9.77963 4.07198 9.82268 4.13348C9.87623 4.20448 9.79065 4.19448 9.71558 4.19448C9.65153 4.19448 9.53393 4.19448 9.46988 4.12298C9.41633 4.07198 9.35228 4.02148 9.28823 4.06198C9.2667 4.09248 9.28823 4.11298 9.30923 4.10248L9.3843 4.12298C9.36879 4.11641 9.35172 4.11388 9.33485 4.11563C9.31797 4.11739 9.30188 4.12338 9.28823 4.13298C9.2667 4.15348 9.28823 4.19448 9.31973 4.18398C9.34125 4.17398 9.3843 4.16398 9.41633 4.18398L9.34125 4.19398C9.33075 4.20448 9.34125 4.23498 9.3738 4.23498C9.42683 4.23498 9.43785 4.27598 9.4914 4.26548C9.47896 4.26578 9.46673 4.26867 9.45558 4.27394C9.44442 4.2792 9.43461 4.28673 9.42683 4.29598C9.48038 4.27598 9.53393 4.33698 9.59798 4.31648C9.57698 4.32648 9.53393 4.35748 9.53393 4.37748C9.56595 4.32648 9.84368 4.40798 9.84368 4.30648L9.83318 4.37748C9.85418 4.36748 9.96128 4.35748 10.0043 4.28598C10.0043 4.30598 10.0043 4.33698 9.98333 4.34698C10.0148 4.34698 10.0579 4.32698 10.1109 4.26548C10.1324 4.23548 10.1324 4.21498 10.1324 4.19498C10.1755 4.19498 10.2075 4.19498 10.2395 4.16448C10.2821 4.13398 10.3251 4.19448 10.3892 4.14398C10.4427 4.10298 10.4957 4.14398 10.5388 4.12398C10.5708 4.10298 10.6244 4.12398 10.6564 4.10298C10.6884 4.08198 10.7635 4.11298 10.8165 4.07298C10.9131 4.10298 11.0307 4.16448 11.3084 4.11298C11.4686 4.09298 11.5221 4.14398 11.5221 4.21498C11.5221 4.26598 11.4906 4.26598 11.4686 4.26598C11.362 4.26598 11.3405 4.23598 11.2979 4.24598C11.2874 4.24598 11.2654 4.28648 11.2979 4.30698C11.2764 4.31698 11.2764 4.34748 11.2979 4.35798C11.3195 4.36848 11.3405 4.35798 11.3725 4.34798C11.33 4.34798 11.2979 4.37798 11.3189 4.40848C11.3294 4.42898 11.362 4.43898 11.394 4.40848C11.415 4.37848 11.4686 4.34748 11.5006 4.34748V4.34698ZM9.71558 3.61398C9.64103 3.58398 9.609 3.58398 9.63 3.64448C9.63 3.67498 9.66203 3.71598 9.67305 3.73598C9.67305 3.70598 9.68355 3.63448 9.71558 3.62448V3.61398Z" fill="#F9DD16" stroke="black" stroke-width="0.040722"/>
<path d="M9.98316 3.62432C10.0472 3.58332 10.0903 3.58332 10.0582 3.64432C10.0582 3.67482 10.0367 3.71582 10.0152 3.73582C10.0152 3.70582 10.0152 3.63432 9.97266 3.62432H9.98316Z" fill="#F9DD16" stroke="black" stroke-width="0.040722"/>
<path d="M9.85398 3.57324C10.0041 3.57324 10.0257 3.64424 10.0146 3.73574C10.0146 3.82774 9.96108 3.78674 9.94008 3.91924C9.92958 3.94974 9.88653 3.95974 9.83298 3.95974C9.81198 3.95974 9.76893 3.95974 9.75843 3.90924C9.72588 3.78674 9.67285 3.80724 9.67285 3.72574C9.67285 3.64424 9.69385 3.57324 9.8545 3.57324H9.85398Z" fill="#F9DD16" stroke="black" stroke-width="0.040722"/>
<path d="M9.44831 3.9197C9.41629 3.8997 9.38427 3.9197 9.37377 3.9197C9.42679 3.9197 9.42679 3.9912 9.54439 4.0112H9.46984C9.52339 4.0417 9.57642 4.0927 9.68352 4.0927C9.75859 4.0927 9.70451 4.1127 9.66251 4.0927C9.70451 4.1437 9.79061 4.1027 9.85466 4.1947C9.85466 4.1232 9.74757 4.0317 9.80112 3.9707C9.64099 3.9607 9.62997 3.8687 9.54439 3.8177C9.46984 3.7567 9.45882 3.7057 9.42679 3.6042C9.41629 3.5532 9.36274 3.5327 9.32022 3.5432C9.29869 3.5432 9.27717 3.5632 9.32022 3.5837C9.32022 3.6037 9.37377 3.6037 9.37377 3.6447C9.34122 3.6147 9.28819 3.6042 9.26666 3.6247C9.26666 3.6447 9.26666 3.6652 9.28766 3.6652C9.34121 3.6652 9.30919 3.7262 9.36274 3.7672C9.30919 3.7162 9.27717 3.7057 9.24514 3.7362C9.23464 3.7462 9.24514 3.7772 9.27717 3.7772C9.33072 3.7772 9.38427 3.8792 9.45882 3.9197H9.44831ZM10.7099 4.3267C10.6884 4.3267 10.6994 4.3777 10.6563 4.3777C10.7309 4.3777 10.7844 4.3677 10.8165 4.3372L10.7955 4.3777C10.827 4.3577 10.9341 4.3477 10.9876 4.3577C11.0412 4.3677 11.0412 4.3477 11.0627 4.3167C11.0837 4.2862 11.0627 4.2657 11.0307 4.2457C11.0091 4.2147 10.9981 4.1842 11.0091 4.1232C10.87 3.9402 10.6243 4.0317 10.6243 4.1032C10.7099 4.2047 10.7204 4.2047 10.7955 4.2047C10.8595 4.2247 10.902 4.2247 10.8595 4.2657C10.838 4.2862 10.7634 4.2657 10.7204 4.2657C10.5923 4.2657 10.5282 4.1947 10.4957 4.2357C10.4642 4.2757 10.4957 4.2862 10.5492 4.2862C10.5177 4.2862 10.4532 4.2862 10.4637 4.3267C10.4852 4.3882 10.5387 4.3267 10.5708 4.3267C10.5498 4.3267 10.5172 4.3472 10.5172 4.3677C10.5172 4.3777 10.5603 4.4082 10.6133 4.3677C10.6408 4.34709 10.6749 4.3363 10.7099 4.3372V4.3267Z" fill="#F9DD16" stroke="black" stroke-width="0.040722"/>
<path d="M10.8169 4.0717C10.7744 4.05038 10.7256 4.04333 10.6783 4.0517M10.1439 4.0517C10.1008 4.1227 10.1224 4.1532 10.1334 4.1942M9.74805 3.6852C9.75855 3.7052 9.78007 3.6647 9.82312 3.7052C9.81262 3.6952 9.7911 3.7357 9.75907 3.7052M9.95122 3.6952C9.93022 3.6952 9.9087 3.6647 9.86565 3.6952C9.87615 3.6952 9.89767 3.7357 9.9297 3.6952M9.86565 3.6952V3.7357C9.87615 3.7972 9.89767 3.8277 9.84465 3.8277C9.79162 3.8277 9.8121 3.7972 9.82312 3.7257V3.7057" stroke="black" stroke-width="0.040722"/>
<path d="M9.85451 3.92988C9.88706 3.92988 9.90859 3.92988 9.90859 3.87888C9.90859 3.85838 9.94009 3.84788 9.90859 3.81738C9.94009 3.84788 9.85504 3.84788 9.85504 3.82738C9.85504 3.84788 9.74794 3.84788 9.76946 3.81738C9.76946 3.84788 9.79046 3.85838 9.77996 3.87888C9.77996 3.92938 9.80149 3.92938 9.85504 3.92938L9.85451 3.92988Z" fill="#FF0016" stroke="black" stroke-width="0.040722"/>
<path d="M9.80115 3.82786L9.70508 3.79736L9.80115 3.82786ZM9.80115 3.82736H9.70508H9.80115ZM9.80115 3.82736L9.71558 3.85836L9.80115 3.82736ZM9.87623 3.82786L9.9828 3.79736L9.87623 3.82786ZM9.87623 3.82736H9.99383H9.87623ZM9.88673 3.82736L9.9723 3.85836L9.88673 3.82736Z" fill="black"/>
<path d="M9.80115 3.82786L9.70508 3.79736M9.80115 3.82736H9.70508M9.80115 3.82736L9.71558 3.85836M9.87623 3.82786L9.9828 3.79736M9.87623 3.82736H9.99383M9.88673 3.82736L9.9723 3.85836" stroke="black" stroke-width="0.040722"/>
<path d="M9.33129 3.54315C9.29927 3.50215 9.22472 3.54315 9.22472 3.57315C9.25622 3.55315 9.28877 3.58365 9.32079 3.57315C9.32079 3.57315 9.35229 3.55315 9.32079 3.54315H9.33129ZM9.29927 3.62465C9.27827 3.58365 9.19217 3.62465 9.19217 3.65465C9.21369 3.63465 9.25674 3.66515 9.27774 3.65465C9.28824 3.65465 9.30977 3.63465 9.29927 3.62465ZM9.27827 3.72615C9.24572 3.69565 9.17117 3.72615 9.18167 3.77715C9.20267 3.74665 9.24572 3.77715 9.26724 3.77715C9.27774 3.77715 9.28824 3.73615 9.26724 3.73615L9.27827 3.72615ZM9.30977 4.07215C9.27827 4.03165 9.21369 4.07215 9.21369 4.12315C9.23469 4.09315 9.27774 4.12315 9.32079 4.10315V4.07215H9.30977ZM9.30977 4.13365C9.26724 4.13365 9.21369 4.19465 9.24572 4.23515C9.24572 4.18415 9.29927 4.19465 9.32079 4.18415V4.13365H9.30977ZM9.37434 4.19465C9.32079 4.18465 9.26724 4.23515 9.29927 4.27615C9.29927 4.24565 9.36332 4.25565 9.37434 4.23515V4.19515V4.19465ZM10.4963 4.29615C10.4432 4.29615 10.3897 4.34715 10.4322 4.39815C10.4322 4.34715 10.4858 4.36765 10.5073 4.34715L10.4968 4.29615H10.4963ZM10.5498 4.35765C10.5073 4.34765 10.4642 4.40815 10.4963 4.44915C10.4963 4.39815 10.5498 4.40815 10.5608 4.38815V4.35765H10.5498ZM10.5183 4.22515C10.4753 4.20515 10.4112 4.26565 10.4322 4.29615C10.4427 4.26615 10.4963 4.29615 10.5178 4.27615V4.23515L10.5183 4.22515ZM11.309 4.32665C11.2769 4.30665 11.2339 4.37765 11.2554 4.40815C11.2554 4.37815 11.309 4.37815 11.3305 4.36765C11.3305 4.34765 11.3305 4.31665 11.309 4.31665V4.32665ZM11.309 4.25565C11.2769 4.22515 11.2129 4.28615 11.2339 4.31665C11.2554 4.28615 11.2985 4.31665 11.3195 4.28615V4.24565L11.309 4.25565ZM11.3515 4.37765C11.2985 4.37765 11.2659 4.43865 11.2985 4.46915C11.2985 4.42865 11.3515 4.43915 11.3625 4.41865L11.352 4.37765H11.3515ZM9.85524 3.89915C9.87624 3.89915 9.88674 3.89915 9.88674 3.96015C9.88674 4.05215 9.88674 4.10265 9.85524 4.10265C9.82374 4.10265 9.82322 4.06215 9.82322 3.99115C9.82322 3.95015 9.82322 3.91965 9.81272 3.92965C9.81272 3.90965 9.81272 3.89965 9.85472 3.89965L9.85524 3.89915Z" fill="#0051BA"/>
<path d="M11.4879 5.21493C11.4585 5.21493 11.4585 5.25243 11.4512 5.25243C11.51 5.25243 11.5394 5.22993 11.5541 5.19993V5.24493C11.5982 5.22993 11.6129 5.19243 11.5982 5.16993L11.6496 5.18493C11.6202 5.16243 11.6423 5.10993 11.5908 5.07993C11.6055 5.07993 11.6349 5.09493 11.6496 5.11743C11.6423 5.06493 11.6349 5.03493 11.5908 5.00493H11.6276C11.618 4.99841 11.6102 4.98945 11.605 4.97892C11.5999 4.9684 11.5975 4.95668 11.5982 4.94493C11.5982 4.91493 11.5835 4.91493 11.5541 4.92243L11.4218 4.92993C11.3483 4.92993 11.2748 4.92993 11.216 4.88493C11.3115 4.92993 11.4365 4.83993 11.4365 4.77243C11.4365 4.69743 11.3336 4.62243 11.1425 4.66743C10.9514 4.71243 10.7162 4.69743 10.7162 4.62993C10.7162 4.56243 10.8852 4.55493 10.9734 4.56993C11.0616 4.58493 11.1204 4.59243 11.2821 4.53243C11.2454 4.54743 11.1131 4.55493 11.0102 4.52493C10.9073 4.49493 10.6574 4.49493 10.6574 4.62993C10.6574 4.77243 10.922 4.75743 11.1572 4.71993C11.2895 4.70493 11.363 4.71993 11.363 4.75743C11.363 4.80243 11.238 4.81743 11.1425 4.80993C11.0416 4.79606 10.939 4.80372 10.8411 4.83243C10.7456 4.86243 10.6794 4.83243 10.5765 4.85493C10.5251 4.85493 10.4001 4.85493 10.3413 4.74993C10.3046 4.77993 10.1943 4.83243 10.1723 4.89243C10.1502 4.93743 10.1723 4.98993 10.2017 5.04243C10.2458 5.10243 10.1796 5.09493 10.1282 5.09493C10.0694 5.09493 9.98116 5.09493 9.93706 5.03493C9.89296 4.98993 9.84151 4.95243 9.79741 4.98243C9.77536 5.00493 9.79741 5.02743 9.81211 5.01993L9.87091 5.03493C9.8591 5.02945 9.84608 5.02726 9.83317 5.02858C9.82026 5.02989 9.80793 5.03467 9.79741 5.04243C9.77536 5.05743 9.79741 5.08743 9.81946 5.07993C9.83416 5.07243 9.87091 5.06493 9.89296 5.07993C9.87091 5.07993 9.84151 5.07993 9.83416 5.09493C9.82681 5.10993 9.83416 5.12493 9.85621 5.12493C9.90031 5.12493 9.90766 5.15493 9.95176 5.14743C9.94149 5.14801 9.93149 5.15102 9.92256 5.15623C9.91363 5.16143 9.90601 5.16869 9.90031 5.17743C9.94441 5.15493 9.98116 5.20743 10.0326 5.19243C10.0179 5.19993 9.98116 5.22243 9.98116 5.23743C10.0106 5.19993 10.2164 5.26743 10.2164 5.18493L10.209 5.24493C10.2311 5.22993 10.3119 5.22243 10.3413 5.16993C10.3413 5.18493 10.3413 5.20743 10.3266 5.21493C10.3487 5.21493 10.3854 5.19993 10.4222 5.14743C10.4369 5.12493 10.4369 5.10993 10.4369 5.09493C10.4736 5.09493 10.4957 5.08743 10.5251 5.06493C10.5545 5.04243 10.5839 5.08743 10.6353 5.04993C10.6794 5.01993 10.7235 5.04993 10.7529 5.03493C10.775 5.01993 10.8117 5.03493 10.8411 5.01993C10.8705 5.00493 10.9146 5.02743 10.9587 4.98993C11.0322 5.01993 11.1278 5.06493 11.3409 5.02743C11.4585 5.00493 11.5026 5.04993 11.5026 5.10243C11.5026 5.14743 11.4732 5.14743 11.4585 5.14743C11.385 5.15493 11.363 5.12493 11.3336 5.13243C11.3189 5.13993 11.3042 5.16993 11.3336 5.18493C11.3115 5.19243 11.3115 5.21493 11.3262 5.22243C11.3409 5.22993 11.363 5.22243 11.385 5.21493C11.3556 5.22243 11.3336 5.24493 11.3483 5.26743C11.3556 5.28243 11.3777 5.28993 11.3997 5.26743C11.4218 5.23743 11.4585 5.21493 11.4879 5.21493ZM10.1208 4.61493C10.062 4.59243 10.0473 4.59243 10.0547 4.64493C10.0547 4.66743 10.0767 4.69743 10.0914 4.71243C10.0914 4.68993 10.0988 4.63743 10.1208 4.62243V4.61493Z" fill="#F9DD16" stroke="black" stroke-width="0.0289828"/>
<path d="M10.3193 4.62232C10.3781 4.59232 10.4002 4.59232 10.3855 4.64482C10.3855 4.66732 10.3634 4.69732 10.3487 4.71232C10.3487 4.68982 10.3487 4.63732 10.3193 4.62232Z" fill="#F9DD16" stroke="black" stroke-width="0.0289828"/>
<path d="M10.2231 4.58496C10.3407 4.58496 10.3554 4.64496 10.3481 4.71246C10.3481 4.78746 10.3113 4.75746 10.2893 4.86246C10.2819 4.89246 10.2525 4.89996 10.2158 4.89996C10.1937 4.89996 10.1643 4.89996 10.1496 4.85496C10.1276 4.75746 10.0908 4.77996 10.0908 4.70496C10.0908 4.64496 10.1055 4.58496 10.2231 4.58496Z" fill="#F9DD16" stroke="black" stroke-width="0.0289828"/>
<path d="M9.92216 4.86265C9.89276 4.84765 9.87071 4.86265 9.85601 4.86265C9.90011 4.87015 9.90011 4.92265 9.98831 4.93765C9.96626 4.93765 9.95891 4.95265 9.93686 4.93765C9.97361 4.96765 10.0104 5.00515 10.0986 5.00515C10.15 5.00515 10.1133 5.02765 10.0839 5.01265C10.1133 5.05015 10.1794 5.02015 10.2235 5.08765C10.2235 5.03515 10.15 4.96015 10.1868 4.90765C10.0618 4.90015 10.0545 4.83265 9.98831 4.78015C9.92951 4.73515 9.92216 4.69015 9.90011 4.60765C9.89276 4.57015 9.84866 4.54765 9.82661 4.55515C9.80456 4.55515 9.78986 4.57765 9.81191 4.59265C9.82661 4.60765 9.85601 4.60765 9.85601 4.64515C9.83396 4.61515 9.79721 4.60765 9.78251 4.62265C9.77516 4.63765 9.78251 4.66015 9.79721 4.66015C9.83396 4.66015 9.81191 4.70515 9.84866 4.73515C9.81191 4.69765 9.78251 4.69015 9.76046 4.71265C9.75311 4.72765 9.76046 4.75015 9.78986 4.75015C9.82661 4.75015 9.86336 4.84015 9.92216 4.86265ZM10.8777 5.20765C10.863 5.20765 10.8703 5.24515 10.8409 5.24515C10.8997 5.24515 10.9365 5.23015 10.9585 5.20765L10.9438 5.24515C10.9732 5.22265 11.0541 5.21515 11.0908 5.22265C11.1276 5.23015 11.1349 5.21515 11.1496 5.19265C11.1643 5.16265 11.1496 5.14765 11.1276 5.13265C11.1055 5.11015 11.0982 5.08015 11.1055 5.03515C11.0026 4.88515 10.8115 4.96015 10.8115 5.02015C10.8777 5.10265 10.885 5.09515 10.9438 5.10265C10.9953 5.11765 11.032 5.11765 10.9953 5.14765C10.9806 5.16265 10.9218 5.14765 10.885 5.15515C10.7895 5.15515 10.738 5.08765 10.716 5.12515C10.6939 5.15515 10.716 5.17015 10.7601 5.17015C10.7307 5.17015 10.6866 5.17015 10.6939 5.20015C10.7086 5.25265 10.7527 5.19265 10.7748 5.20765C10.7601 5.20765 10.7307 5.21515 10.7307 5.23015C10.7307 5.24515 10.7674 5.26765 10.8042 5.23015C10.8255 5.21447 10.8514 5.20655 10.8777 5.20765Z" fill="#F9DD16" stroke="black" stroke-width="0.0289828"/>
<path d="M10.9584 4.98992C10.929 4.97492 10.8923 4.96742 10.8555 4.97492M10.4439 4.97492C10.4145 5.03492 10.4292 5.06492 10.4366 5.09492M10.1426 4.67492C10.1573 4.68992 10.172 4.65992 10.2014 4.68992C10.194 4.68242 10.1793 4.71242 10.1573 4.68992M10.3043 4.68242C10.2822 4.68242 10.2675 4.65992 10.2381 4.68992C10.2455 4.68242 10.2602 4.71242 10.2822 4.68992M10.2381 4.68992V4.71242C10.2455 4.76492 10.2602 4.78742 10.2161 4.78742C10.1793 4.78742 10.194 4.76492 10.2014 4.71242V4.68992" stroke="black" stroke-width="0.0289828"/>
<path d="M10.2229 4.87729C10.2523 4.87729 10.267 4.87729 10.267 4.83229C10.267 4.81729 10.289 4.80979 10.2743 4.77979C10.289 4.80979 10.2229 4.80979 10.2229 4.79479C10.2229 4.80979 10.1494 4.80979 10.1641 4.77979C10.1567 4.80979 10.1788 4.81729 10.1714 4.83229C10.1714 4.87729 10.1861 4.87729 10.2229 4.87729Z" fill="#FF0016" stroke="black" stroke-width="0.0289828"/>
<path d="M10.1868 4.78764L10.1133 4.76514L10.1868 4.78764ZM10.1868 4.78764H10.1133H10.1868ZM10.1868 4.79514L10.1206 4.81764L10.1868 4.79514ZM10.2456 4.78764L10.3191 4.76514L10.2456 4.78764ZM10.2456 4.78764H10.3338H10.2456ZM10.2456 4.79514L10.3191 4.81764L10.2456 4.79514Z" fill="black"/>
<path d="M10.1868 4.78764L10.1133 4.76514M10.1868 4.78764H10.1133M10.1868 4.79514L10.1206 4.81764M10.2456 4.78764L10.3191 4.76514M10.2456 4.78764H10.3338M10.2456 4.79514L10.3191 4.81764" stroke="black" stroke-width="0.0289828"/>
<path d="M9.80802 4.56245C9.78702 4.53195 9.73662 4.56245 9.73662 4.59245C9.75079 4.56995 9.77967 4.60045 9.80119 4.59245C9.80802 4.59245 9.82219 4.57745 9.80802 4.56245ZM9.78702 4.63095C9.76549 4.60045 9.70827 4.63095 9.70827 4.66145C9.72244 4.63845 9.75079 4.66895 9.77232 4.66145C9.77967 4.66145 9.79384 4.63845 9.78649 4.63145L9.78702 4.63095ZM9.77232 4.72245C9.74397 4.69245 9.69357 4.72245 9.70092 4.76095C9.71509 4.73795 9.74397 4.76095 9.75814 4.76095C9.77232 4.75295 9.77914 4.73045 9.76549 4.72245H9.77232ZM9.79384 5.00495C9.76549 4.97495 9.72244 5.01295 9.72244 5.05095C9.73662 5.02045 9.77232 5.05095 9.79384 5.03595C9.79384 5.03595 9.80802 5.01295 9.79384 4.99745V5.00495ZM9.79384 5.05845C9.75814 5.05095 9.72244 5.10445 9.74397 5.13495C9.74397 5.09695 9.78649 5.11195 9.80119 5.09695L9.79332 5.05845H9.79384ZM9.83689 5.11195C9.80119 5.09695 9.76549 5.14245 9.78649 5.17295C9.78649 5.14995 9.82954 5.15795 9.83689 5.14295V5.10445V5.11195ZM10.6748 5.19595C10.6391 5.18845 10.6034 5.23395 10.6249 5.27245C10.6249 5.23395 10.6674 5.24945 10.6821 5.23395L10.6748 5.19595ZM10.7178 5.24195C10.6821 5.23395 10.6533 5.28745 10.6748 5.31795C10.6748 5.27995 10.7178 5.28795 10.7252 5.27245C10.732 5.26495 10.732 5.24195 10.7252 5.24195H10.7178ZM10.689 5.13495C10.6606 5.11995 10.6176 5.16545 10.6249 5.19595C10.6391 5.16545 10.6748 5.18845 10.689 5.17295V5.14295V5.13495ZM11.2838 5.21145C11.2549 5.20345 11.226 5.25695 11.2407 5.28745C11.2407 5.25745 11.2838 5.26495 11.298 5.24945C11.298 5.23445 11.298 5.21145 11.2838 5.21145ZM11.2838 5.15795C11.2549 5.13495 11.2119 5.18095 11.226 5.21145C11.2407 5.18845 11.2764 5.20345 11.2906 5.18845V5.14995L11.2838 5.15795ZM11.3121 5.25695C11.2764 5.25695 11.2476 5.31045 11.2691 5.33345C11.2691 5.30295 11.3121 5.31045 11.3195 5.29545C11.3263 5.28045 11.3195 5.26495 11.3121 5.25695ZM10.1949 4.85995C10.2165 4.85995 10.2238 4.86745 10.2238 4.91345C10.2238 4.98995 10.2238 5.03545 10.1949 5.03545C10.1739 5.03545 10.1739 4.99745 10.1739 4.93645C10.1739 4.90595 10.1739 4.88295 10.1661 4.89045C10.1661 4.86745 10.1734 4.86045 10.1949 4.86045V4.85995Z" fill="#0051BA"/>
</g>
<defs>
<clipPath id="clip0_974_13146">
<rect width="21" height="15" rx="3" fill="white"/>
</clipPath>
</defs>
</svg>
