<svg width="21" height="15" viewBox="0 0 21 15" fill="none" xmlns="http://www.w3.org/2000/svg">
<g clip-path="url(#clip0_132_5297)">
<path d="M0 0H21V7.5H0V0Z" fill="#002B7F"/>
<path d="M0 7.5H21V15H0V7.5Z" fill="#CE1126"/>
<path d="M5.68034 3.05751L5.63046 4.62001H3.96621C3.76146 4.24001 3.59346 3.92001 3.59346 3.48251C3.59346 3.11751 3.89534 2.82751 4.32846 2.82751C4.78784 2.82751 5.29446 2.97501 5.68034 3.05751Z" fill="#FFD83D"/>
<path d="M3.79309 3.13002V4.03002V3.13002ZM3.92434 3.03752V4.23752V3.03752ZM4.06084 2.97502V4.40502V2.97502ZM4.19209 2.94502V4.06752V2.94502ZM4.32597 2.94002V4.07252V2.94002ZM4.45984 2.89752V4.07252V2.89752ZM4.59372 2.89752V4.07252V2.89752ZM4.72759 2.91002V4.08502V2.91002ZM4.86147 2.92252V4.09502V2.92252ZM4.99534 2.99502V4.17002V2.99502ZM5.12659 3.00752V4.33002V3.00752ZM5.26309 3.00752V4.18252V3.00752ZM5.39434 3.00752V4.18252V3.00752Z" fill="#FFD83D"/>
<path d="M3.79309 3.13002V4.03002M3.92434 3.03752V4.23752M4.06084 2.97502V4.40502M4.19209 2.94502V4.06752M4.32597 2.94002V4.07252M4.45984 2.89752V4.07252M4.59372 2.89752V4.07252M4.72759 2.91002V4.08502M4.86147 2.92252V4.09502M4.99534 2.99502V4.17002M5.12659 3.00752V4.33002M5.26309 3.00752V4.18252M5.39434 3.00752V4.18252" stroke="black" stroke-width="0.05" stroke-linecap="round" stroke-linejoin="round"/>
<path d="M4.63047 2.95001C4.91397 2.99251 5.53347 3.27001 5.4626 3.64251C5.36285 4.17251 5.03735 3.96001 4.60685 3.88501L4.28135 3.98751C4.16322 4.10001 3.9926 4.20501 3.8771 4.06751H3.68285V4.78751H5.8196V3.05001L4.63047 2.95001Z" fill="black" stroke="black" stroke-width="0.05" stroke-linecap="round" stroke-linejoin="round"/>
<path d="M5.58576 2.94748C5.6568 2.94748 5.71439 2.89264 5.71439 2.82498C5.71439 2.75733 5.6568 2.70248 5.58576 2.70248C5.51473 2.70248 5.45714 2.75733 5.45714 2.82498C5.45714 2.89264 5.51473 2.94748 5.58576 2.94748Z" fill="#FFD83D" stroke="black" stroke-width="0.05" stroke-linecap="round" stroke-linejoin="round"/>
<path d="M5.29446 2.88001C5.3655 2.88001 5.42308 2.82516 5.42308 2.75751C5.42308 2.68985 5.3655 2.63501 5.29446 2.63501C5.22342 2.63501 5.16583 2.68985 5.16583 2.75751C5.16583 2.82516 5.22342 2.88001 5.29446 2.88001Z" fill="#FFD83D" stroke="black" stroke-width="0.05" stroke-linecap="round" stroke-linejoin="round"/>
<path d="M4.99792 2.81003C5.06896 2.81003 5.12654 2.75519 5.12654 2.68753C5.12654 2.61988 5.06896 2.56503 4.99792 2.56503C4.92688 2.56503 4.86929 2.61988 4.86929 2.68753C4.86929 2.75519 4.92688 2.81003 4.99792 2.81003Z" fill="#FFD83D" stroke="black" stroke-width="0.05" stroke-linecap="round" stroke-linejoin="round"/>
<path d="M4.7012 2.76252C4.77223 2.76252 4.82982 2.70767 4.82982 2.64002C4.82982 2.57236 4.77223 2.51752 4.7012 2.51752C4.63016 2.51752 4.57257 2.57236 4.57257 2.64002C4.57257 2.70767 4.63016 2.76252 4.7012 2.76252Z" fill="#FFD83D" stroke="black" stroke-width="0.05" stroke-linecap="round" stroke-linejoin="round"/>
<path d="M4.40447 2.73499C4.47551 2.73499 4.5331 2.68015 4.5331 2.61249C4.5331 2.54484 4.47551 2.48999 4.40447 2.48999C4.33344 2.48999 4.27585 2.54484 4.27585 2.61249C4.27585 2.68015 4.33344 2.73499 4.40447 2.73499Z" fill="#FFD83D" stroke="black" stroke-width="0.05" stroke-linecap="round" stroke-linejoin="round"/>
<path d="M4.11596 2.75C4.187 2.75 4.24459 2.69516 4.24459 2.6275C4.24459 2.55985 4.187 2.505 4.11596 2.505C4.04492 2.505 3.98734 2.55985 3.98734 2.6275C3.98734 2.69516 4.04492 2.75 4.11596 2.75Z" fill="#FFD83D" stroke="black" stroke-width="0.05" stroke-linecap="round" stroke-linejoin="round"/>
<path d="M3.83756 2.84C3.9086 2.84 3.96619 2.78516 3.96619 2.7175C3.96619 2.64985 3.9086 2.595 3.83756 2.595C3.76653 2.595 3.70894 2.64985 3.70894 2.7175C3.70894 2.78516 3.76653 2.84 3.83756 2.84Z" fill="#FFD83D" stroke="black" stroke-width="0.05" stroke-linecap="round" stroke-linejoin="round"/>
<path d="M3.604 3.00501C3.67504 3.00501 3.73262 2.95016 3.73262 2.88251C3.73262 2.81485 3.67504 2.76001 3.604 2.76001C3.53296 2.76001 3.47537 2.81485 3.47537 2.88251C3.47537 2.95016 3.53296 3.00501 3.604 3.00501Z" fill="#FFD83D" stroke="black" stroke-width="0.05" stroke-linecap="round" stroke-linejoin="round"/>
<path d="M3.43862 3.23252C3.50966 3.23252 3.56725 3.17767 3.56725 3.11002C3.56725 3.04236 3.50966 2.98752 3.43862 2.98752C3.36758 2.98752 3.31 3.04236 3.31 3.11002C3.31 3.17767 3.36758 3.23252 3.43862 3.23252Z" fill="#FFD83D" stroke="black" stroke-width="0.05" stroke-linecap="round" stroke-linejoin="round"/>
<path d="M3.35717 3.50248C3.42821 3.50248 3.4858 3.44763 3.4858 3.37998C3.4858 3.31232 3.42821 3.25748 3.35717 3.25748C3.28613 3.25748 3.22855 3.31232 3.22855 3.37998C3.22855 3.44763 3.28613 3.50248 3.35717 3.50248Z" fill="#FFD83D" stroke="black" stroke-width="0.05" stroke-linecap="round" stroke-linejoin="round"/>
<path d="M3.35978 3.78C3.43082 3.78 3.48841 3.72516 3.48841 3.6575C3.48841 3.58985 3.43082 3.535 3.35978 3.535C3.28874 3.535 3.23116 3.58985 3.23116 3.6575C3.23116 3.72516 3.28874 3.78 3.35978 3.78Z" fill="#FFD83D" stroke="black" stroke-width="0.05" stroke-linecap="round" stroke-linejoin="round"/>
<path d="M3.41752 4.0525C3.48856 4.0525 3.54614 3.99765 3.54614 3.92999C3.54614 3.86234 3.48856 3.8075 3.41752 3.8075C3.34648 3.8075 3.28889 3.86234 3.28889 3.92999C3.28889 3.99765 3.34648 4.0525 3.41752 4.0525Z" fill="#FFD83D" stroke="black" stroke-width="0.05" stroke-linecap="round" stroke-linejoin="round"/>
<path d="M5.64369 2.98751L5.63057 3.15001C5.30769 3.10001 4.85094 2.93001 4.42307 2.93001C4.02932 2.93001 3.72482 3.08001 3.72482 3.46001C3.72482 3.83251 3.89019 4.17251 4.11069 4.51751L3.88232 4.61751C3.67757 4.24251 3.50694 3.91751 3.50694 3.48251C3.50694 3.11751 3.80882 2.75751 4.32857 2.75751C4.78794 2.75751 5.25782 2.90751 5.64369 2.98751Z" fill="#FFD83D" stroke="black" stroke-width="0.05" stroke-linecap="round" stroke-linejoin="round"/>
<path d="M5.68034 3.05751L5.63046 4.62001H3.96621C3.76146 4.24001 3.59346 3.92001 3.59346 3.48251C3.59346 3.11751 3.89534 2.82751 4.32846 2.82751C4.78784 2.82751 5.29446 2.97501 5.68034 3.05751Z" fill="#FFD83D"/>
<path d="M3.79309 3.13002V4.03002V3.13002ZM3.92434 3.03752V4.23752V3.03752ZM4.06084 2.97502V4.40502V2.97502ZM4.19209 2.94502V4.06752V2.94502ZM4.32597 2.94002V4.07252V2.94002ZM4.45984 2.89752V4.07252V2.89752ZM4.59372 2.89752V4.07252V2.89752ZM4.72759 2.91002V4.08502V2.91002ZM4.86147 2.92252V4.09502V2.92252ZM4.99534 2.99502V4.17002V2.99502ZM5.12659 3.00752V4.33002V3.00752ZM5.26309 3.00752V4.18252V3.00752ZM5.39434 3.00752V4.18252V3.00752Z" fill="#FFD83D"/>
<path d="M3.79309 3.13002V4.03002M3.92434 3.03752V4.23752M4.06084 2.97502V4.40502M4.19209 2.94502V4.06752M4.32597 2.94002V4.07252M4.45984 2.89752V4.07252M4.59372 2.89752V4.07252M4.72759 2.91002V4.08502M4.86147 2.92252V4.09502M4.99534 2.99502V4.17002M5.12659 3.00752V4.33002M5.26309 3.00752V4.18252M5.39434 3.00752V4.18252" stroke="black" stroke-width="0.05" stroke-linecap="round" stroke-linejoin="round"/>
<path d="M4.63047 2.95001C4.91397 2.99251 5.53347 3.27001 5.4626 3.64251C5.36285 4.17251 5.03735 3.96001 4.60685 3.88501L4.28135 3.98751C4.16322 4.10001 3.9926 4.20501 3.8771 4.06751H3.68285V4.78751H5.8196V3.05001L4.63047 2.95001Z" fill="black" stroke="black" stroke-width="0.05" stroke-linecap="round" stroke-linejoin="round"/>
<path d="M5.58576 2.94748C5.6568 2.94748 5.71439 2.89264 5.71439 2.82498C5.71439 2.75733 5.6568 2.70248 5.58576 2.70248C5.51473 2.70248 5.45714 2.75733 5.45714 2.82498C5.45714 2.89264 5.51473 2.94748 5.58576 2.94748Z" fill="#FFD83D" stroke="black" stroke-width="0.05" stroke-linecap="round" stroke-linejoin="round"/>
<path d="M5.29446 2.88001C5.3655 2.88001 5.42308 2.82516 5.42308 2.75751C5.42308 2.68985 5.3655 2.63501 5.29446 2.63501C5.22342 2.63501 5.16583 2.68985 5.16583 2.75751C5.16583 2.82516 5.22342 2.88001 5.29446 2.88001Z" fill="#FFD83D" stroke="black" stroke-width="0.05" stroke-linecap="round" stroke-linejoin="round"/>
<path d="M4.99792 2.81003C5.06896 2.81003 5.12654 2.75519 5.12654 2.68753C5.12654 2.61988 5.06896 2.56503 4.99792 2.56503C4.92688 2.56503 4.86929 2.61988 4.86929 2.68753C4.86929 2.75519 4.92688 2.81003 4.99792 2.81003Z" fill="#FFD83D" stroke="black" stroke-width="0.05" stroke-linecap="round" stroke-linejoin="round"/>
<path d="M4.7012 2.76252C4.77223 2.76252 4.82982 2.70767 4.82982 2.64002C4.82982 2.57236 4.77223 2.51752 4.7012 2.51752C4.63016 2.51752 4.57257 2.57236 4.57257 2.64002C4.57257 2.70767 4.63016 2.76252 4.7012 2.76252Z" fill="#FFD83D" stroke="black" stroke-width="0.05" stroke-linecap="round" stroke-linejoin="round"/>
<path d="M4.40447 2.73499C4.47551 2.73499 4.5331 2.68015 4.5331 2.61249C4.5331 2.54484 4.47551 2.48999 4.40447 2.48999C4.33344 2.48999 4.27585 2.54484 4.27585 2.61249C4.27585 2.68015 4.33344 2.73499 4.40447 2.73499Z" fill="#FFD83D" stroke="black" stroke-width="0.05" stroke-linecap="round" stroke-linejoin="round"/>
<path d="M4.11596 2.75C4.187 2.75 4.24459 2.69516 4.24459 2.6275C4.24459 2.55985 4.187 2.505 4.11596 2.505C4.04492 2.505 3.98734 2.55985 3.98734 2.6275C3.98734 2.69516 4.04492 2.75 4.11596 2.75Z" fill="#FFD83D" stroke="black" stroke-width="0.05" stroke-linecap="round" stroke-linejoin="round"/>
<path d="M3.83756 2.84C3.9086 2.84 3.96619 2.78516 3.96619 2.7175C3.96619 2.64985 3.9086 2.595 3.83756 2.595C3.76653 2.595 3.70894 2.64985 3.70894 2.7175C3.70894 2.78516 3.76653 2.84 3.83756 2.84Z" fill="#FFD83D" stroke="black" stroke-width="0.05" stroke-linecap="round" stroke-linejoin="round"/>
<path d="M3.604 3.00501C3.67504 3.00501 3.73262 2.95016 3.73262 2.88251C3.73262 2.81485 3.67504 2.76001 3.604 2.76001C3.53296 2.76001 3.47537 2.81485 3.47537 2.88251C3.47537 2.95016 3.53296 3.00501 3.604 3.00501Z" fill="#FFD83D" stroke="black" stroke-width="0.05" stroke-linecap="round" stroke-linejoin="round"/>
<path d="M3.43862 3.23252C3.50966 3.23252 3.56725 3.17767 3.56725 3.11002C3.56725 3.04236 3.50966 2.98752 3.43862 2.98752C3.36758 2.98752 3.31 3.04236 3.31 3.11002C3.31 3.17767 3.36758 3.23252 3.43862 3.23252Z" fill="#FFD83D" stroke="black" stroke-width="0.05" stroke-linecap="round" stroke-linejoin="round"/>
<path d="M3.35717 3.50248C3.42821 3.50248 3.4858 3.44763 3.4858 3.37998C3.4858 3.31232 3.42821 3.25748 3.35717 3.25748C3.28613 3.25748 3.22855 3.31232 3.22855 3.37998C3.22855 3.44763 3.28613 3.50248 3.35717 3.50248Z" fill="#FFD83D" stroke="black" stroke-width="0.05" stroke-linecap="round" stroke-linejoin="round"/>
<path d="M3.35978 3.78C3.43082 3.78 3.48841 3.72516 3.48841 3.6575C3.48841 3.58985 3.43082 3.535 3.35978 3.535C3.28874 3.535 3.23116 3.58985 3.23116 3.6575C3.23116 3.72516 3.28874 3.78 3.35978 3.78Z" fill="#FFD83D" stroke="black" stroke-width="0.05" stroke-linecap="round" stroke-linejoin="round"/>
<path d="M3.41752 4.0525C3.48856 4.0525 3.54614 3.99765 3.54614 3.92999C3.54614 3.86234 3.48856 3.8075 3.41752 3.8075C3.34648 3.8075 3.28889 3.86234 3.28889 3.92999C3.28889 3.99765 3.34648 4.0525 3.41752 4.0525Z" fill="#FFD83D" stroke="black" stroke-width="0.05" stroke-linecap="round" stroke-linejoin="round"/>
<path d="M5.64369 2.98751L5.63057 3.15001C5.30769 3.10001 4.85094 2.93001 4.42307 2.93001C4.02932 2.93001 3.72482 3.08001 3.72482 3.46001C3.72482 3.83251 3.89019 4.17251 4.11069 4.51751L3.88232 4.61751C3.67757 4.24251 3.50694 3.91751 3.50694 3.48251C3.50694 3.11751 3.80882 2.75751 4.32857 2.75751C4.78794 2.75751 5.25782 2.90751 5.64369 2.98751Z" fill="#FFD83D" stroke="black" stroke-width="0.05" stroke-linecap="round" stroke-linejoin="round"/>
<path d="M5.99421 3.05751L6.04408 4.62001H7.70833C7.91308 4.24001 8.08109 3.92001 8.08109 3.48251C8.08109 3.11751 7.77921 2.82751 7.34609 2.82751C6.88671 2.82751 6.38008 2.97501 5.99421 3.05751Z" fill="#FFD83D"/>
<path d="M7.88145 3.13002V4.03002V3.13002ZM7.7502 3.03752V4.23752V3.03752ZM7.6137 2.97502V4.40502V2.97502ZM7.48245 2.94502V4.06752V2.94502ZM7.34858 2.94002V4.07252V2.94002ZM7.2147 2.89752V4.07252V2.89752ZM7.08083 2.89752V4.07252V2.89752ZM6.94695 2.91002V4.08502V2.91002ZM6.81308 2.92252V4.09502V2.92252ZM6.6792 2.99502V4.17002V2.99502ZM6.54795 3.00752V4.33002V3.00752ZM6.41145 3.00752V4.18252V3.00752ZM6.2802 3.00752V4.18252V3.00752Z" fill="#FFD83D"/>
<path d="M7.88145 3.13002V4.03002M7.7502 3.03752V4.23752M7.6137 2.97502V4.40502M7.48245 2.94502V4.06752M7.34858 2.94002V4.07252M7.2147 2.89752V4.07252M7.08083 2.89752V4.07252M6.94695 2.91002V4.08502M6.81308 2.92252V4.09502M6.6792 2.99502V4.17002M6.54795 3.00752V4.33002M6.41145 3.00752V4.18252M6.2802 3.00752V4.18252" stroke="black" stroke-width="0.05" stroke-linecap="round" stroke-linejoin="round"/>
<path d="M7.04407 2.95001C6.76057 2.99251 6.14107 3.27001 6.21195 3.64251C6.3117 4.17251 6.6372 3.96001 7.0677 3.88501L7.3932 3.98751C7.51132 4.10001 7.68195 4.20501 7.79745 4.06751H7.9917V4.78751H5.85495V3.05001L7.04407 2.95001Z" fill="black" stroke="black" stroke-width="0.05" stroke-linecap="round" stroke-linejoin="round"/>
<path d="M6.08878 2.94748C6.01774 2.94748 5.96016 2.89264 5.96016 2.82498C5.96016 2.75733 6.01774 2.70248 6.08878 2.70248C6.15982 2.70248 6.21741 2.75733 6.21741 2.82498C6.21741 2.89264 6.15982 2.94748 6.08878 2.94748Z" fill="#FFD83D" stroke="black" stroke-width="0.05" stroke-linecap="round" stroke-linejoin="round"/>
<path d="M6.38009 2.88001C6.30905 2.88001 6.25146 2.82516 6.25146 2.75751C6.25146 2.68985 6.30905 2.63501 6.38009 2.63501C6.45113 2.63501 6.50871 2.68985 6.50871 2.75751C6.50871 2.82516 6.45113 2.88001 6.38009 2.88001Z" fill="#FFD83D" stroke="black" stroke-width="0.05" stroke-linecap="round" stroke-linejoin="round"/>
<path d="M6.67663 2.81003C6.60559 2.81003 6.548 2.75519 6.548 2.68753C6.548 2.61988 6.60559 2.56503 6.67663 2.56503C6.74766 2.56503 6.80525 2.61988 6.80525 2.68753C6.80525 2.75519 6.74766 2.81003 6.67663 2.81003Z" fill="#FFD83D" stroke="black" stroke-width="0.05" stroke-linecap="round" stroke-linejoin="round"/>
<path d="M6.97335 2.76252C6.90231 2.76252 6.84472 2.70767 6.84472 2.64002C6.84472 2.57236 6.90231 2.51752 6.97335 2.51752C7.04439 2.51752 7.10197 2.57236 7.10197 2.64002C7.10197 2.70767 7.04439 2.76252 6.97335 2.76252Z" fill="#FFD83D" stroke="black" stroke-width="0.05" stroke-linecap="round" stroke-linejoin="round"/>
<path d="M7.27007 2.73499C7.19903 2.73499 7.14145 2.68015 7.14145 2.61249C7.14145 2.54484 7.19903 2.48999 7.27007 2.48999C7.34111 2.48999 7.3987 2.54484 7.3987 2.61249C7.3987 2.68015 7.34111 2.73499 7.27007 2.73499Z" fill="#FFD83D" stroke="black" stroke-width="0.05" stroke-linecap="round" stroke-linejoin="round"/>
<path d="M7.55858 2.75C7.48755 2.75 7.42996 2.69516 7.42996 2.6275C7.42996 2.55985 7.48755 2.505 7.55858 2.505C7.62962 2.505 7.68721 2.55985 7.68721 2.6275C7.68721 2.69516 7.62962 2.75 7.55858 2.75Z" fill="#FFD83D" stroke="black" stroke-width="0.05" stroke-linecap="round" stroke-linejoin="round"/>
<path d="M7.83698 2.84C7.76594 2.84 7.70836 2.78516 7.70836 2.7175C7.70836 2.64985 7.76594 2.595 7.83698 2.595C7.90802 2.595 7.96561 2.64985 7.96561 2.7175C7.96561 2.78516 7.90802 2.84 7.83698 2.84Z" fill="#FFD83D" stroke="black" stroke-width="0.05" stroke-linecap="round" stroke-linejoin="round"/>
<path d="M8.07055 3.00501C7.99951 3.00501 7.94192 2.95016 7.94192 2.88251C7.94192 2.81485 7.99951 2.76001 8.07055 2.76001C8.14159 2.76001 8.19917 2.81485 8.19917 2.88251C8.19917 2.95016 8.14159 3.00501 8.07055 3.00501Z" fill="#FFD83D" stroke="black" stroke-width="0.05" stroke-linecap="round" stroke-linejoin="round"/>
<path d="M8.23592 3.23252C8.16489 3.23252 8.1073 3.17767 8.1073 3.11002C8.1073 3.04236 8.16489 2.98752 8.23592 2.98752C8.30696 2.98752 8.36455 3.04236 8.36455 3.11002C8.36455 3.17767 8.30696 3.23252 8.23592 3.23252Z" fill="#FFD83D" stroke="black" stroke-width="0.05" stroke-linecap="round" stroke-linejoin="round"/>
<path d="M8.31737 3.50248C8.24634 3.50248 8.18875 3.44763 8.18875 3.37998C8.18875 3.31232 8.24634 3.25748 8.31737 3.25748C8.38841 3.25748 8.446 3.31232 8.446 3.37998C8.446 3.44763 8.38841 3.50248 8.31737 3.50248Z" fill="#FFD83D" stroke="black" stroke-width="0.05" stroke-linecap="round" stroke-linejoin="round"/>
<path d="M8.31476 3.78C8.24373 3.78 8.18614 3.72516 8.18614 3.6575C8.18614 3.58985 8.24373 3.535 8.31476 3.535C8.3858 3.535 8.44339 3.58985 8.44339 3.6575C8.44339 3.72516 8.3858 3.78 8.31476 3.78Z" fill="#FFD83D" stroke="black" stroke-width="0.05" stroke-linecap="round" stroke-linejoin="round"/>
<path d="M8.25703 4.0525C8.18599 4.0525 8.1284 3.99765 8.1284 3.92999C8.1284 3.86234 8.18599 3.8075 8.25703 3.8075C8.32806 3.8075 8.38565 3.86234 8.38565 3.92999C8.38565 3.99765 8.32806 4.0525 8.25703 4.0525Z" fill="#FFD83D" stroke="black" stroke-width="0.05" stroke-linecap="round" stroke-linejoin="round"/>
<path d="M6.03085 2.98751L6.04398 3.15001C6.36685 3.10001 6.8236 2.93001 7.25148 2.93001C7.64523 2.93001 7.94973 3.08001 7.94973 3.46001C7.94973 3.83251 7.78435 4.17251 7.56385 4.51751L7.79223 4.61751C7.99698 4.24251 8.1676 3.91751 8.1676 3.48251C8.1676 3.11751 7.86573 2.75751 7.34598 2.75751C6.8866 2.75751 6.41673 2.90751 6.03085 2.98751Z" fill="#FFD83D" stroke="black" stroke-width="0.05" stroke-linecap="round" stroke-linejoin="round"/>
<path d="M5.82735 1.32751L5.69085 1.57001L5.82735 1.81001L5.96122 1.57001L5.82735 1.32501V1.32751ZM5.82735 1.93751L5.69085 2.17751L5.82735 2.42001L5.9586 2.17501L5.82472 1.93501L5.82735 1.93751ZM5.34435 1.87501L5.55697 2.00251L5.7696 1.87501L5.5596 1.74501L5.34435 1.87501ZM5.88247 1.87501L6.09509 2.00251L6.31034 1.87501L6.09509 1.74501L5.88509 1.87501H5.88247Z" fill="#FFD83D" stroke="black" stroke-width="0.05" stroke-linecap="round" stroke-linejoin="round"/>
<path d="M5.82735 1.975C5.88389 1.975 5.92973 1.93135 5.92973 1.8775C5.92973 1.82365 5.88389 1.78 5.82735 1.78C5.77081 1.78 5.72498 1.82365 5.72498 1.8775C5.72498 1.93135 5.77081 1.975 5.82735 1.975Z" fill="#FFD83D" stroke="black" stroke-width="0.05" stroke-linecap="round" stroke-linejoin="round"/>
<path d="M5.82755 2.76249C5.97977 2.76249 6.10318 2.64496 6.10318 2.49999C6.10318 2.35501 5.97977 2.23749 5.82755 2.23749C5.67533 2.23749 5.55193 2.35501 5.55193 2.49999C5.55193 2.64496 5.67533 2.76249 5.82755 2.76249Z" fill="#FFD83D" stroke="black" stroke-width="0.05" stroke-linecap="round" stroke-linejoin="round"/>
<path d="M5.75648 2.2475V2.4125C5.69137 2.41548 5.6265 2.42216 5.56223 2.4325M6.09248 2.4325C6.02734 2.42204 5.96159 2.41536 5.8956 2.4125V2.2475M5.5596 2.565C5.64804 2.55041 5.7376 2.54288 5.82735 2.5425C5.9166 2.5425 6.00585 2.55 6.08985 2.565" stroke="black" stroke-width="0.05" stroke-linecap="round" stroke-linejoin="round"/>
<path d="M5.55956 2.9425C5.53331 3.3675 5.48081 3.805 5.30493 4.12L5.58843 4.01C5.68818 3.6525 5.70918 3.19001 5.73806 2.97001L5.55956 2.9425ZM6.09506 2.9425L5.91393 2.97001C5.94543 3.19001 5.96643 3.6525 6.06356 4.01L6.34706 4.12C6.17381 3.805 6.12131 3.37 6.09506 2.9425Z" fill="#FFD83D" stroke="black" stroke-width="0.05" stroke-linecap="round" stroke-linejoin="round"/>
<path d="M5.82745 3.86749C5.4862 3.86749 5.23682 4.01749 5.2237 4.40749C5.1397 4.26749 4.79057 3.83249 4.46245 3.88999C4.2682 3.92499 4.09495 4.18249 4.12645 4.47499C3.9637 4.03499 3.49382 3.96249 3.14732 4.22499C3.45445 4.46249 3.59095 5.16999 3.8482 5.47499H7.80407C8.06132 5.16999 8.19782 4.46249 8.50495 4.22499C8.16107 3.96249 7.68857 4.03499 7.52845 4.47499C7.5547 4.18249 7.38407 3.92499 7.1872 3.88999C6.8617 3.83249 6.51257 4.26749 6.42857 4.40749C6.41545 4.01999 6.16607 3.86749 5.82482 3.86749H5.82745Z" fill="#FFD83D" stroke="black" stroke-width="0.05" stroke-linecap="round" stroke-linejoin="round"/>
<path d="M7.79881 5.47498C7.79881 5.61498 6.91681 5.76748 5.82744 5.76748C4.73806 5.76748 3.85344 5.61748 3.85344 5.47498C3.85344 5.33748 4.73806 5.26248 5.82744 5.26248C6.91419 5.26248 7.79881 5.33748 7.79881 5.47498Z" fill="black" stroke="black" stroke-width="0.05" stroke-linecap="round" stroke-linejoin="round"/>
<path d="M5.8273 2.94749C5.87804 2.94749 5.91918 2.90832 5.91918 2.85999C5.91918 2.81167 5.87804 2.77249 5.8273 2.77249C5.77656 2.77249 5.73543 2.81167 5.73543 2.85999C5.73543 2.90832 5.77656 2.94749 5.8273 2.94749Z" fill="#FFD83D" stroke="black" stroke-width="0.05" stroke-linecap="round" stroke-linejoin="round"/>
<path d="M5.82732 3.14249C5.88096 3.14249 5.92444 3.10108 5.92444 3.04999C5.92444 2.9989 5.88096 2.95749 5.82732 2.95749C5.77368 2.95749 5.73019 2.9989 5.73019 3.04999C5.73019 3.10108 5.77368 3.14249 5.82732 3.14249Z" fill="#FFD83D" stroke="black" stroke-width="0.05" stroke-linecap="round" stroke-linejoin="round"/>
<path d="M5.82735 3.3575C5.88679 3.3575 5.93498 3.31161 5.93498 3.255C5.93498 3.19839 5.88679 3.1525 5.82735 3.1525C5.76791 3.1525 5.71973 3.19839 5.71973 3.255C5.71973 3.31161 5.76791 3.3575 5.82735 3.3575Z" fill="#FFD83D" stroke="black" stroke-width="0.05" stroke-linecap="round" stroke-linejoin="round"/>
<path d="M5.82742 3.59999C5.89555 3.59999 5.95079 3.54738 5.95079 3.48249C5.95079 3.4176 5.89555 3.36499 5.82742 3.36499C5.75928 3.36499 5.70404 3.4176 5.70404 3.48249C5.70404 3.54738 5.75928 3.59999 5.82742 3.59999Z" fill="#FFD83D" stroke="black" stroke-width="0.05" stroke-linecap="round" stroke-linejoin="round"/>
<path d="M5.82745 3.86248C5.90139 3.86248 5.96132 3.8054 5.96132 3.73498C5.96132 3.66457 5.90139 3.60748 5.82745 3.60748C5.75351 3.60748 5.69357 3.66457 5.69357 3.73498C5.69357 3.8054 5.75351 3.86248 5.82745 3.86248Z" fill="#FFD83D" stroke="black" stroke-width="0.05" stroke-linecap="round" stroke-linejoin="round"/>
<path d="M5.7749 3.97998C5.75915 3.97998 5.74602 3.99248 5.74865 4.01498L5.7644 4.12248C5.76965 4.15998 5.79065 4.14748 5.79852 4.12248C5.80377 4.09248 5.80115 4.07248 5.80377 4.01998C5.80377 3.99248 5.78802 3.97998 5.77227 3.97998H5.7749ZM5.8799 3.97998C5.86415 3.97998 5.85102 3.99248 5.85102 4.01998C5.85102 4.07248 5.85102 4.09248 5.85627 4.11998C5.86152 4.14998 5.88252 4.15998 5.8904 4.11998L5.90352 4.01498C5.90877 3.98998 5.89302 3.97998 5.8799 3.97998ZM5.67777 3.99498C5.67081 3.99498 5.66414 3.99761 5.65921 4.0023C5.65429 4.00699 5.65152 4.01335 5.65152 4.01998C5.65152 4.04498 5.6594 4.07748 5.66202 4.11498C5.66727 4.15248 5.69615 4.13998 5.69877 4.11498C5.69877 4.09498 5.70402 4.05998 5.69877 4.01748C5.69877 4.00248 5.69352 3.99498 5.68302 3.99248C5.68128 3.99227 5.67952 3.99227 5.67777 3.99248V3.99498ZM5.96915 3.99498C5.96127 3.99498 5.9534 4.00248 5.95077 4.01998C5.94937 4.05173 5.95112 4.08354 5.95602 4.11498C5.95602 4.13998 5.98752 4.15248 5.99015 4.11498C5.99015 4.07748 6.00065 4.04748 6.00065 4.02248C6.00065 4.00748 5.98752 3.99748 5.9744 3.99498C5.97266 3.99477 5.97089 3.99477 5.96915 3.99498ZM5.5649 4.03748C5.55177 4.03998 5.53865 4.05498 5.5439 4.06998C5.55177 4.10248 5.55965 4.13748 5.55965 4.16998C5.55965 4.19748 5.58327 4.18748 5.5859 4.16998C5.58795 4.13668 5.58882 4.10333 5.58852 4.06998C5.58852 4.04498 5.5754 4.03498 5.56227 4.03748H5.5649ZM6.0794 4.03748C6.07152 4.03998 6.06365 4.04998 6.06365 4.06998L6.0689 4.16998C6.0689 4.18748 6.09515 4.19748 6.09515 4.16998C6.09515 4.13748 6.1004 4.10248 6.10827 4.06998C6.11352 4.05498 6.1004 4.03998 6.0899 4.03748C6.08732 4.03685 6.08461 4.03685 6.08202 4.03748H6.0794ZM4.53065 4.04248C4.5149 4.04248 4.5044 4.05998 4.5149 4.07998C4.53065 4.11498 4.54902 4.13498 4.56477 4.16998C4.5779 4.20248 4.60152 4.18248 4.59365 4.15998L4.5569 4.06748C4.54902 4.04998 4.53852 4.04248 4.53065 4.04248ZM7.12415 4.04248C7.11365 4.04248 7.10577 4.04998 7.0979 4.06748C7.07427 4.11498 7.0664 4.13748 7.05852 4.15998C7.05327 4.18498 7.07427 4.20248 7.09002 4.16998L7.13727 4.07998C7.14777 4.05998 7.13727 4.04248 7.12415 4.04248ZM4.63565 4.04248C4.62252 4.04748 4.61727 4.05998 4.62252 4.07498C4.63827 4.10498 4.65665 4.13748 4.66977 4.16998C4.68027 4.19748 4.70652 4.18998 4.69602 4.16498L4.66977 4.07248C4.65927 4.04748 4.64352 4.03998 4.63565 4.04248ZM7.01127 4.04248C7.00077 4.04498 6.99027 4.05498 6.98502 4.07248C6.96665 4.12248 6.96402 4.13748 6.95615 4.16498C6.94565 4.18998 6.9719 4.19748 6.9824 4.16998L7.02965 4.07498C7.0349 4.05998 7.02965 4.04748 7.01915 4.04248C7.01657 4.04185 7.01386 4.04185 7.01127 4.04248ZM4.7669 4.06748C4.75115 4.06998 4.74065 4.08998 4.75115 4.11498C4.76165 4.14498 4.7774 4.17248 4.79315 4.20748C4.8089 4.24248 4.83252 4.23498 4.82727 4.21248C4.8194 4.18998 4.81415 4.15498 4.79577 4.09998C4.7879 4.07498 4.7774 4.06498 4.7669 4.06748ZM6.8879 4.06748C6.8774 4.06748 6.86427 4.07498 6.8564 4.09998C6.84065 4.15498 6.83015 4.18998 6.82752 4.21248C6.81965 4.23748 6.8459 4.24248 6.85902 4.20748C6.87477 4.17248 6.89052 4.14498 6.90102 4.11498C6.91152 4.08998 6.90102 4.06998 6.8879 4.06748ZM4.4414 4.08498C4.42565 4.08498 4.41515 4.10998 4.42302 4.12748C4.43615 4.15248 4.44665 4.16248 4.45977 4.19248C4.47552 4.22248 4.49127 4.19998 4.48602 4.17998C4.47815 4.15998 4.47027 4.13748 4.46502 4.10998C4.45977 4.08998 4.44927 4.08498 4.43877 4.08498H4.4414ZM7.2134 4.08498C7.2029 4.08498 7.19502 4.08998 7.18715 4.10998L7.16877 4.17998C7.16352 4.19998 7.17927 4.22248 7.19502 4.19248C7.20815 4.16248 7.21602 4.15498 7.23177 4.12748C7.23965 4.10998 7.22652 4.08748 7.2134 4.08498ZM5.45465 4.15498C5.43627 4.15498 5.42052 4.17498 5.4284 4.19248C5.43365 4.22248 5.4494 4.24748 5.45727 4.28498C5.46777 4.31748 5.4914 4.30248 5.48877 4.27998C5.48687 4.2464 5.48248 4.21298 5.47565 4.17998C5.4704 4.16248 5.46252 4.15498 5.45202 4.15498H5.45465ZM6.20015 4.15498C6.19227 4.15498 6.18177 4.16248 6.17915 4.17998C6.17144 4.21292 6.16617 4.24634 6.1634 4.27998C6.1634 4.30248 6.18702 4.31748 6.1949 4.28498L6.2264 4.19248C6.23165 4.17498 6.2159 4.15498 6.20015 4.15498ZM5.8274 4.18498C5.8064 4.18498 5.80377 4.20998 5.80377 4.22748C5.80217 4.28442 5.784 4.33981 5.75127 4.38748C5.72502 4.41748 5.6909 4.40998 5.6594 4.39248C5.62887 4.37663 5.59988 4.35823 5.57277 4.33748C5.53602 4.31248 5.50977 4.32748 5.55177 4.38498C5.67252 4.54998 5.80377 4.68998 5.80377 4.95998C5.80377 4.99248 5.81165 5.00248 5.8274 5.00248C5.84315 5.00248 5.8484 4.99248 5.8484 4.95748C5.8484 4.68998 5.97965 4.54998 6.1004 4.38248C6.1424 4.32748 6.11615 4.31248 6.08202 4.33748C6.05504 4.35838 6.02603 4.37679 5.9954 4.39248C5.96127 4.40998 5.92715 4.41748 5.90352 4.38748C5.8708 4.33981 5.85263 4.28442 5.85102 4.22748C5.8484 4.20998 5.84577 4.18498 5.82477 4.18498H5.8274ZM4.90077 4.14498C4.89904 4.1447 4.89726 4.1447 4.89552 4.14498C4.88765 4.14748 4.88502 4.15498 4.88765 4.16998L4.91652 4.26748C4.9244 4.29248 4.95327 4.28498 4.94802 4.25498L4.93227 4.17748C4.92702 4.15748 4.91127 4.14498 4.90077 4.14498ZM6.75402 4.14498C6.7409 4.14498 6.72777 4.15748 6.72252 4.17748C6.71202 4.21248 6.71202 4.22248 6.70677 4.25248C6.6989 4.28498 6.7304 4.28998 6.73565 4.26748L6.76715 4.16748C6.76715 4.15498 6.76452 4.14748 6.75665 4.14498C6.75491 4.1447 6.75314 4.1447 6.7514 4.14498H6.75402ZM4.34952 4.15498C4.33377 4.15498 4.32327 4.17498 4.33902 4.19998C4.35477 4.22998 4.38365 4.26498 4.39677 4.28748C4.4099 4.30748 4.43352 4.29248 4.41777 4.26748C4.40202 4.24248 4.39677 4.20998 4.37577 4.17248C4.37404 4.16721 4.37053 4.16264 4.36578 4.15947C4.36103 4.15631 4.35531 4.15473 4.34952 4.15498ZM7.30265 4.15498C7.29478 4.15498 7.28428 4.15998 7.2764 4.17248C7.25802 4.20998 7.25015 4.23998 7.23703 4.26748C7.22128 4.29248 7.24227 4.30748 7.2554 4.28748C7.26852 4.26498 7.2974 4.22998 7.31315 4.19998C7.3289 4.17498 7.3184 4.15498 7.30265 4.15498ZM3.5174 4.23748C3.50165 4.23748 3.4964 4.26748 3.51215 4.28748C3.53253 4.31205 3.55539 4.33465 3.5804 4.35498C3.6014 4.37498 3.60665 4.34998 3.59615 4.32998L3.5489 4.26248C3.53577 4.24498 3.52527 4.23748 3.5174 4.23748ZM8.13477 4.23748C8.1269 4.23748 8.1164 4.24498 8.1059 4.26248L8.05602 4.32998C8.04552 4.34998 8.05078 4.37498 8.0744 4.35498C8.09943 4.33468 8.12229 4.31207 8.14265 4.28748C8.1584 4.26748 8.15315 4.23748 8.13477 4.23748ZM3.65127 4.26248C3.63552 4.26248 3.62502 4.27248 3.63815 4.29498L3.68802 4.38998C3.70115 4.41498 3.74052 4.42248 3.72477 4.38498L3.69065 4.28998C3.68277 4.27248 3.6644 4.26498 3.65127 4.26498V4.26248ZM8.00352 4.26248C7.98777 4.26248 7.9694 4.27248 7.96152 4.28998L7.93003 4.38498C7.91427 4.42248 7.95365 4.41498 7.96677 4.38998C7.9799 4.36498 8.0009 4.32748 8.01402 4.29498C8.02715 4.27248 8.01665 4.26248 8.00352 4.26248ZM3.39402 4.27248C3.37302 4.27248 3.37302 4.28998 3.3914 4.30248C3.41502 4.31998 3.4439 4.33748 3.47015 4.35998C3.50427 4.38498 3.51477 4.35998 3.4964 4.33998C3.48065 4.31998 3.4649 4.29998 3.42027 4.27748C3.40977 4.27248 3.4019 4.27248 3.39402 4.27248ZM8.25815 4.27248C8.2529 4.27248 8.2424 4.27248 8.2319 4.27748C8.1899 4.29998 8.17153 4.31998 8.15315 4.33998C8.1374 4.36248 8.15053 4.38498 8.18202 4.35998C8.20828 4.33748 8.23978 4.31998 8.26078 4.30248C8.28177 4.28998 8.27915 4.27248 8.26078 4.27248H8.25815ZM5.38115 4.28998C5.36802 4.28998 5.36015 4.30248 5.36277 4.31998L5.38902 4.40998C5.39427 4.43748 5.4284 4.43748 5.42315 4.40998C5.4179 4.38498 5.41527 4.35248 5.40477 4.31248C5.40215 4.29748 5.39427 4.28998 5.38377 4.28748C5.3829 4.28741 5.38202 4.28741 5.38115 4.28748V4.28998ZM6.2684 4.28998C6.26052 4.28998 6.25265 4.29748 6.2474 4.31498C6.2369 4.35248 6.23427 4.38498 6.22902 4.41248C6.22377 4.43748 6.2579 4.43748 6.26315 4.40998L6.2894 4.31998C6.29465 4.30248 6.28415 4.28998 6.27365 4.28998C6.27191 4.2897 6.27014 4.2897 6.2684 4.28998ZM4.5884 4.23998C4.58052 4.23998 4.57527 4.25748 4.58315 4.28248C4.61099 4.35453 4.62521 4.43071 4.62515 4.50748C4.61727 4.53748 4.5989 4.53998 4.57527 4.53248C4.54952 4.52038 4.52493 4.50616 4.50177 4.48998C4.48077 4.47748 4.45715 4.49248 4.48865 4.51748C4.64615 4.64248 4.75902 4.78498 4.80365 4.95748C4.8089 4.99248 4.83252 4.99748 4.82727 4.95748C4.79052 4.73998 4.78265 4.55998 4.83777 4.44998C4.85877 4.40748 4.83777 4.36748 4.80627 4.43498C4.78265 4.47998 4.74852 4.49748 4.71965 4.45998C4.67861 4.39897 4.64346 4.33454 4.61465 4.26748C4.6094 4.24998 4.60152 4.24248 4.59365 4.23998C4.59278 4.23984 4.59189 4.23984 4.59102 4.23998H4.5884ZM7.05852 4.23998C7.05065 4.23998 7.04277 4.24998 7.03752 4.26498C7.01915 4.31498 6.9614 4.41998 6.93252 4.45998C6.90365 4.49998 6.86952 4.47998 6.84852 4.43498C6.8144 4.36748 6.79602 4.40748 6.8144 4.44998C6.86952 4.55998 6.86165 4.73998 6.82752 4.95748C6.81965 4.99748 6.84327 4.99248 6.85377 4.95748C6.90232 4.7819 7.01141 4.62694 7.16352 4.51748C7.19502 4.49248 7.1714 4.47748 7.1504 4.49248C7.12711 4.50702 7.10251 4.51957 7.0769 4.52998C7.05065 4.53998 7.0349 4.53748 7.02702 4.50498C7.02178 4.47498 7.03227 4.40748 7.07165 4.27998C7.0769 4.25998 7.07165 4.24248 7.06377 4.23998C7.06208 4.23941 7.06022 4.23941 7.05852 4.23998ZM3.7904 4.29998C3.77727 4.29998 3.76415 4.30998 3.77202 4.32998C3.78252 4.36498 3.80352 4.39998 3.8114 4.41998C3.81927 4.44248 3.8429 4.43248 3.83765 4.40248L3.82452 4.32498C3.82452 4.30998 3.80615 4.29998 3.7904 4.29998ZM7.86177 4.29998C7.84602 4.29998 7.83028 4.30998 7.82765 4.32498L7.81715 4.40248C7.8119 4.43248 7.83552 4.44248 7.8434 4.41998C7.84865 4.39998 7.86965 4.36498 7.88015 4.32998C7.88803 4.30998 7.87752 4.29998 7.86177 4.29998ZM4.2839 4.25748C4.26815 4.25498 4.26552 4.29498 4.27865 4.31248L4.35215 4.38998C4.37315 4.41498 4.38627 4.39248 4.37315 4.37248L4.3049 4.27748C4.29702 4.26498 4.28915 4.25748 4.2839 4.25748ZM7.36827 4.25748C7.36302 4.25748 7.35515 4.26498 7.34727 4.27748L7.27902 4.37248C7.2659 4.39248 7.27903 4.41498 7.30265 4.38998L7.37352 4.31248C7.38665 4.29498 7.38665 4.25498 7.36827 4.25748ZM3.90327 4.35748C3.89277 4.35748 3.8849 4.36248 3.89015 4.38248C3.8954 4.41248 3.90327 4.43248 3.91115 4.45998C3.91902 4.48498 3.9374 4.48248 3.9374 4.45748L3.92952 4.37748C3.92838 4.37149 3.92518 4.36603 3.92043 4.36196C3.91568 4.35789 3.90965 4.35544 3.90327 4.35498V4.35748ZM7.7489 4.35748C7.74276 4.35736 7.73677 4.3593 7.73197 4.36295C7.72718 4.36661 7.72388 4.37175 7.72265 4.37748L7.71477 4.45748C7.71477 4.48248 7.73577 4.48748 7.74102 4.45998L7.76465 4.38498C7.7699 4.36248 7.7594 4.35498 7.7489 4.35498V4.35748ZM4.24715 4.39248C4.2314 4.39248 4.21827 4.40998 4.23665 4.43248C4.26552 4.46998 4.29965 4.49498 4.31277 4.50748C4.32327 4.52248 4.35215 4.51748 4.33377 4.48998L4.2734 4.40248C4.26815 4.39248 4.25765 4.38998 4.24715 4.39248ZM7.39715 4.39248C7.3919 4.39248 7.38403 4.39498 7.3814 4.40248L7.3184 4.48998C7.30002 4.51748 7.3289 4.52248 7.34203 4.50998C7.35252 4.49498 7.38665 4.46998 7.41815 4.43248C7.43652 4.40748 7.42077 4.39248 7.40503 4.39248C7.40328 4.39229 7.40152 4.39229 7.39977 4.39248H7.39715ZM3.70377 4.49498C3.69327 4.49498 3.68802 4.50498 3.70377 4.52748C3.74431 4.57431 3.77385 4.62887 3.7904 4.68748C3.79302 4.72248 3.77727 4.72248 3.76152 4.72248C3.71165 4.72248 3.68802 4.68748 3.64602 4.67748C3.6014 4.66998 3.59352 4.68998 3.62502 4.71248C3.77549 4.8031 3.90644 4.92019 4.0109 5.05748C4.03715 5.10498 4.07127 5.11998 4.0529 5.07748C4.0019 4.97999 3.9801 4.871 3.9899 4.76248C4.00302 4.69248 4.0214 4.64748 4.01877 4.60748C4.01877 4.56998 3.99252 4.57248 3.98465 4.60748L3.9584 4.67748C3.9479 4.68998 3.91115 4.69748 3.87965 4.65498C3.83501 4.60281 3.78583 4.5543 3.73265 4.50998C3.72477 4.50248 3.71427 4.49748 3.7064 4.49498H3.70377ZM7.9484 4.49498C7.94052 4.49498 7.93003 4.49998 7.91953 4.50998C7.86727 4.55442 7.81898 4.60292 7.77515 4.65498C7.74102 4.69748 7.70428 4.68998 7.6964 4.67998C7.68443 4.65698 7.67561 4.63262 7.67015 4.60748C7.65965 4.57248 7.63602 4.56998 7.6334 4.60748C7.6334 4.64748 7.64915 4.69248 7.66227 4.76248C7.6754 4.83248 7.66227 4.94248 7.6019 5.07748C7.5809 5.11998 7.61765 5.10248 7.6439 5.05748C7.74739 4.92026 7.87747 4.80316 8.02715 4.71248C8.05865 4.68998 8.0534 4.66998 8.00877 4.67748C7.96415 4.68748 7.94053 4.72248 7.89328 4.72248C7.87752 4.72248 7.85915 4.72248 7.86177 4.68748C7.8644 4.65498 7.90902 4.57748 7.9484 4.52748C7.96415 4.50248 7.96152 4.49498 7.9484 4.49498Z" fill="black"/>
<path d="M3.93996 5.31748L3.99246 5.46998L3.93996 5.31748ZM4.04496 5.28748L4.09221 5.44248L4.04496 5.28748ZM4.16046 5.26748L4.19196 5.42748L4.16046 5.26748ZM4.26546 5.24998L4.29958 5.40748L4.26546 5.24998ZM4.39933 5.23748L4.42558 5.39748L4.39933 5.23748ZM4.54371 5.23748L4.57258 5.39498L4.54371 5.23748ZM4.68546 5.19248L4.70646 5.35248L4.68546 5.19248ZM4.81671 5.19998L4.83771 5.35998L4.81671 5.19998ZM4.94533 5.18498L4.96633 5.34498L4.94533 5.18498ZM5.07133 5.16998L5.08446 5.33248L5.07133 5.16998ZM5.21046 5.16998L5.22096 5.33248L5.21046 5.16998ZM5.33646 5.16248L5.34433 5.32498L5.33646 5.16248ZM5.47296 5.15498L5.48083 5.31498L5.47296 5.15498ZM5.63046 5.14998L5.63833 5.31248L5.63046 5.14998ZM7.71208 5.31748L7.65958 5.46998L7.71208 5.31748ZM7.60708 5.28748L7.56246 5.44248L7.60708 5.28748ZM7.49421 5.26748L7.46271 5.42748L7.49421 5.26748ZM7.38921 5.24998L7.35508 5.40748L7.38921 5.24998ZM7.25008 5.23748L7.22383 5.39748L7.25008 5.23748ZM7.10833 5.23748L7.07946 5.39748L7.10833 5.23748ZM6.96921 5.19248L6.94821 5.35248L6.96921 5.19248ZM6.83533 5.19998L6.81433 5.35998L6.83533 5.19998ZM6.70933 5.18498L6.68571 5.34498L6.70933 5.18498ZM6.58071 5.16998L6.56758 5.33248L6.58071 5.16998ZM6.44158 5.16998L6.43108 5.33248L6.44158 5.16998ZM6.31821 5.16248L6.31033 5.32498L6.31821 5.16248ZM6.17908 5.15498L6.17383 5.31498L6.17908 5.15498ZM6.02158 5.14998L6.01633 5.31248L6.02158 5.14998ZM5.82733 5.13748V5.31748V5.13748Z" fill="#FFD83D"/>
<path d="M3.93996 5.31748L3.99246 5.46998M4.04496 5.28748L4.09221 5.44248M4.16046 5.26748L4.19196 5.42748M4.26546 5.24998L4.29958 5.40748M4.39933 5.23748L4.42558 5.39748M4.54371 5.23748L4.57258 5.39498M4.68546 5.19248L4.70646 5.35248M4.81671 5.19998L4.83771 5.35998M4.94533 5.18498L4.96633 5.34498M5.07133 5.16998L5.08446 5.33248M5.21046 5.16998L5.22096 5.33248M5.33646 5.16248L5.34433 5.32498M5.47296 5.15498L5.48083 5.31498M5.63046 5.14998L5.63833 5.31248M7.71208 5.31748L7.65958 5.46998M7.60708 5.28748L7.56246 5.44248M7.49421 5.26748L7.46271 5.42748M7.38921 5.24998L7.35508 5.40748M7.25008 5.23748L7.22383 5.39748M7.10833 5.23748L7.07946 5.39748M6.96921 5.19248L6.94821 5.35248M6.83533 5.19998L6.81433 5.35998M6.70933 5.18498L6.68571 5.34498M6.58071 5.16998L6.56758 5.33248M6.44158 5.16998L6.43108 5.33248M6.31821 5.16248L6.31033 5.32498M6.17908 5.15498L6.17383 5.31498M6.02158 5.14998L6.01633 5.31248M5.82733 5.13748V5.31748" stroke="black" stroke-width="0.05" stroke-linecap="round" stroke-linejoin="round"/>
</g>
<defs>
<clipPath id="clip0_132_5297">
<rect width="21" height="15" rx="3" fill="white"/>
</clipPath>
</defs>
</svg>
