<svg width="21" height="15" viewBox="0 0 21 15" fill="none" xmlns="http://www.w3.org/2000/svg">
<g clip-path="url(#clip0_123_2017)">
<rect width="21" height="15" rx="3" fill="#249F58"/>
<path d="M-0.000366211 0H20.9996V15H-0.000366211V0Z" fill="#00785E"/>
<path d="M9.67957 3.39687L11.0085 4.31875L10.4999 2.82812L9.99128 4.31875L11.3235 3.39687H9.67957Z" fill="#FBD116"/>
<path d="M10.4999 10.3625H7.13661C7.09423 10.3216 7.05266 10.28 7.01192 10.2375H10.4999C10.5134 10.2421 10.5251 10.2506 10.5334 10.2618C10.5416 10.273 10.546 10.2864 10.5458 10.3C10.5458 10.325 10.5294 10.3532 10.4999 10.3625ZM10.4999 9.38442C10.5379 9.31085 10.5516 9.22806 10.5393 9.14692C10.533 9.10558 10.5197 9.06548 10.4999 9.02817C10.1976 9.30218 9.83249 9.50545 9.43349 9.62192C9.1835 9.69428 8.92367 9.73114 8.66239 9.7313H6.59192C6.65235 9.81668 6.71582 9.90006 6.78224 9.9813H8.7838C9.44005 9.9813 10.0372 9.7563 10.4999 9.38442V9.38442ZM6.90364 8.61255C6.80155 8.64884 6.6942 8.66992 6.58536 8.67505C6.83473 8.94502 7.14163 9.1613 7.48562 9.30948C7.82962 9.45767 8.20282 9.53435 8.58036 9.53442C8.93915 9.53451 9.29423 9.46532 9.62415 9.33104C9.95407 9.19676 10.252 9.00018 10.4999 8.75317C10.5921 8.1445 10.6414 7.53063 10.6475 6.91567C10.6555 6.2079 10.6061 5.5006 10.4999 4.80005C10.2833 4.98755 9.87646 5.38442 9.68614 5.99692C9.61477 6.23147 9.5794 6.47461 9.58114 6.7188C9.58103 7.21966 9.73753 7.70921 10.0307 8.12505C9.66946 7.68276 9.4732 7.1385 9.47286 6.57817C9.47286 6.19067 9.56474 5.82192 9.7288 5.4938C9.61461 5.37852 9.53033 5.2394 9.48271 5.08755C9.25581 5.46864 9.13707 5.89945 9.13817 6.33755C9.13817 6.90005 9.33177 7.42192 9.65989 7.84067C9.35127 7.5318 8.9764 7.28986 8.56081 7.13132C8.14521 6.97279 7.69863 6.90137 7.25146 6.92192C7.34212 7.00168 7.41761 7.09578 7.47458 7.20005C7.89547 7.20053 8.31189 7.28218 8.69875 7.44008C9.08561 7.59799 9.43488 7.82886 9.72552 8.1188C9.16456 7.6709 8.45598 7.4253 7.72396 7.42505C7.31064 7.4243 6.90129 7.50185 6.51974 7.65317C6.72436 8.16841 7.09948 8.60623 7.58843 8.90051C8.07737 9.19479 8.65359 9.32955 9.23005 9.28442C9.07583 9.30942 8.91833 9.32505 8.75755 9.32505C8.06677 9.32623 7.40278 9.07059 6.90692 8.61255H6.90364ZM10.4999 11.3875H8.75755C9.31209 11.5969 9.90336 11.704 10.4999 11.7032C10.5269 11.6551 10.5416 11.6015 10.5425 11.5469C10.5421 11.4913 10.5274 11.4366 10.4999 11.3875V11.3875ZM10.4999 10.6219H7.42864C7.51158 10.6893 7.59694 10.7539 7.68458 10.8157H10.4999C10.5264 10.7897 10.5417 10.7551 10.5425 10.7188C10.5432 10.7007 10.5398 10.6826 10.5324 10.6659C10.5251 10.6492 10.514 10.6342 10.4999 10.6219ZM10.4999 11.0125H7.98317C8.13552 11.1044 8.29328 11.1879 8.45568 11.2625H10.4999C10.5262 11.2234 10.5399 11.1778 10.5393 11.1313C10.5376 11.0891 10.524 11.048 10.4999 11.0125V11.0125Z" fill="white"/>
<path d="M6.57887 5.46251L7.41231 6.20001L7.19246 5.13751L6.7134 6.11876L7.70762 5.59376L6.57887 5.46251ZM7.78965 4.46251L8.92824 4.48126L8.01934 3.82501L8.35074 4.86564L8.72152 3.83751L7.78965 4.46251Z" fill="#FBD116"/>
<path d="M10.5001 10.3625H13.8633C13.9057 10.3216 13.9473 10.28 13.988 10.2375H10.5001C10.4865 10.2421 10.4748 10.2506 10.4666 10.2618C10.4583 10.273 10.454 10.2864 10.4541 10.3C10.4541 10.325 10.4705 10.3532 10.5001 10.3625ZM10.5001 9.38442C10.4621 9.31085 10.4484 9.22806 10.4607 9.14692C10.467 9.10558 10.4803 9.06548 10.5001 9.02817C10.8024 9.30218 11.1675 9.50545 11.5665 9.62192C11.8165 9.69428 12.0763 9.73114 12.3376 9.7313H14.408C14.3476 9.81668 14.2841 9.90006 14.2177 9.9813H12.2162C11.5599 9.9813 10.9627 9.7563 10.5001 9.38442V9.38442ZM14.0963 8.61255C14.1984 8.64884 14.3058 8.66992 14.4146 8.67505C14.1652 8.94502 13.8583 9.1613 13.5143 9.30948C13.1703 9.45767 12.7971 9.53435 12.4196 9.53442C12.0608 9.53451 11.7057 9.46532 11.3758 9.33104C11.0459 9.19676 10.748 9.00018 10.5001 8.75317C10.4079 8.1445 10.3585 7.53063 10.3524 6.91567C10.3445 6.2079 10.3939 5.5006 10.5001 4.80005C10.7166 4.98755 11.1235 5.38442 11.3138 5.99692C11.3852 6.23147 11.4206 6.47461 11.4188 6.7188C11.4189 7.21966 11.2624 7.70921 10.9693 8.12505C11.3305 7.68276 11.5268 7.1385 11.5271 6.57817C11.5271 6.19067 11.4352 5.82192 11.2712 5.4938C11.3854 5.37852 11.4696 5.2394 11.5173 5.08755C11.7442 5.46864 11.8629 5.89945 11.8618 6.33755C11.8618 6.90005 11.6682 7.42192 11.3401 7.84067C11.6487 7.5318 12.0236 7.28986 12.4392 7.13132C12.8548 6.97279 13.3013 6.90137 13.7485 6.92192C13.6578 7.00168 13.5824 7.09578 13.5254 7.20005C13.1045 7.20053 12.6881 7.28218 12.3012 7.44008C11.9144 7.59799 11.5651 7.82886 11.2744 8.1188C11.8354 7.6709 12.544 7.4253 13.276 7.42505C13.6893 7.4243 14.0987 7.50185 14.4802 7.65317C14.2756 8.16841 13.9005 8.60623 13.4115 8.90051C12.9226 9.19479 12.3464 9.32955 11.7699 9.28442C11.9241 9.30942 12.0816 9.32505 12.2424 9.32505C12.9332 9.32623 13.5972 9.07059 14.093 8.61255H14.0963ZM10.5001 11.3875H12.2424C11.6879 11.5969 11.0966 11.704 10.5001 11.7032C10.473 11.6551 10.4584 11.6015 10.4574 11.5469C10.4579 11.4913 10.4725 11.4366 10.5001 11.3875V11.3875ZM10.5001 10.6219H13.5713C13.4884 10.6893 13.403 10.7539 13.3154 10.8157H10.5001C10.4735 10.7897 10.4583 10.7551 10.4574 10.7188C10.4567 10.7007 10.4602 10.6826 10.4675 10.6659C10.4749 10.6492 10.486 10.6342 10.5001 10.6219ZM10.5001 11.0125H13.0168C12.8644 11.1044 12.7067 11.1879 12.5443 11.2625H10.5001C10.4737 11.2234 10.46 11.1778 10.4607 11.1313C10.4623 11.0891 10.4759 11.048 10.5001 11.0125V11.0125Z" fill="white"/>
<path d="M14.4211 5.46251L13.5877 6.20001L13.8075 5.13751L14.2866 6.11876L13.2923 5.59376L14.4211 5.46251ZM13.2103 4.46251L12.0717 4.48126L12.9806 3.82501L12.6492 4.86564L12.2784 3.83751L13.2103 4.46251Z" fill="#FBD116"/>
</g>
<defs>
<clipPath id="clip0_123_2017">
<rect width="21" height="15" rx="3" fill="white"/>
</clipPath>
</defs>
</svg>
