<svg width="21" height="15" viewBox="0 0 21 15" fill="none" xmlns="http://www.w3.org/2000/svg">
<g clip-path="url(#clip0_132_5370)">
<path d="M-0.000274658 0H20.9997V15H-0.000274658V0Z" fill="#CC0000"/>
<path d="M0.0162659 1.24689H20.9835V2.44689H0.0162659V1.24689ZM0.0162659 3.70626H20.9835V4.90626H0.0162659V3.70626ZM0.0162659 6.16876H20.9835V7.36876H0.0162659V6.16876Z" fill="white"/>
<path d="M-0.00012207 0.015625H10.4999V8.76562H-0.00012207V0.015625Z" fill="#000066"/>
<path d="M6.80845 2.30625L7.00532 3.57813L7.76001 2.51563L7.35313 3.74063L8.51798 3.09063L7.59595 4.02813L8.94126 3.92813L7.68454 4.39063L8.94126 4.85313L7.59595 4.75313L8.51798 5.69063L7.35313 5.04063L7.75673 6.26875L7.00204 5.20313L6.80516 6.475L6.61157 5.20313L5.85688 6.26563L6.26376 5.04063L5.09891 5.69063L6.01766 4.75313L4.67235 4.85313L5.93235 4.39063L4.67563 3.92813L6.02095 4.02813L5.09891 3.09063L6.26376 3.74063L5.85688 2.5125L6.61157 3.57813L6.80845 2.30625ZM5.71579 2.35938C5.36062 2.20943 4.97174 2.14633 4.58447 2.17581C4.1972 2.20529 3.82379 2.32642 3.49814 2.52819C3.17248 2.72996 2.90489 3.00599 2.71965 3.33123C2.53441 3.65647 2.43738 4.02062 2.43738 4.39063C2.43738 4.76063 2.53441 5.12478 2.71965 5.45002C2.90489 5.77526 3.17248 6.05129 3.49814 6.25306C3.82379 6.45483 4.1972 6.57596 4.58447 6.60544C4.97174 6.63492 5.36062 6.57182 5.71579 6.42188C5.32353 6.68992 4.86125 6.84974 4.37979 6.88377C3.89833 6.9178 3.41635 6.82472 2.98684 6.61476C2.55733 6.4048 2.19694 6.08609 1.9453 5.6937C1.69366 5.30131 1.56052 4.85042 1.56052 4.39063C1.56052 3.93083 1.69366 3.47995 1.9453 3.08755C2.19694 2.69516 2.55733 2.37646 2.98684 2.1665C3.41635 1.95654 3.89833 1.86345 4.37979 1.89748C4.86125 1.93151 5.32353 2.09133 5.71579 2.35938Z" fill="#FFCC00"/>
<path d="M0.0162842 8.63129H20.9835V9.83129H0.0162842V8.63129ZM0.0162842 11.075H20.9835V12.275H0.0162842V11.075ZM-0.00012207 13.8H20.9671V15H-0.00012207V13.8Z" fill="white"/>
</g>
<defs>
<clipPath id="clip0_132_5370">
<rect width="21" height="15" rx="3" fill="white"/>
</clipPath>
</defs>
</svg>
