<svg width="21" height="15" viewBox="0 0 21 15" fill="none" xmlns="http://www.w3.org/2000/svg">
<g clip-path="url(#clip0_123_3254)">
<path fill-rule="evenodd" clip-rule="evenodd" d="M0 0H21V15H0V0Z" fill="#00247D"/>
<path d="M16.0921 3.34955V3.82359L17.0876 3.34955H16.0921Z" fill="white"/>
<path d="M16.3042 3.87646L16.0116 3.49295L17.1095 3.31919L16.3042 3.87646Z" fill="white"/>
<path d="M16.0921 3.34955V3.82359L15.0966 3.34955H16.0921Z" fill="white"/>
<path d="M15.88 3.87646L16.1726 3.49295L15.0747 3.31919L15.88 3.87646Z" fill="white"/>
<path d="M16.3687 3.5462L15.9027 3.68779L16.6837 4.45278L16.3687 3.5462Z" fill="white"/>
<path d="M15.9155 3.89566L16.2028 3.51758L16.7262 4.45835L15.9155 3.89566Z" fill="white"/>
<path d="M15.808 3.55112L16.274 3.6927L16.123 2.64454L15.808 3.55112Z" fill="white"/>
<path d="M16.3997 3.51196L15.9187 3.66333L16.0996 2.61517L16.3997 3.51196Z" fill="white"/>
<path d="M15.8154 3.5462L16.2814 3.68779L15.5004 4.45278L15.8154 3.5462Z" fill="white"/>
<path d="M16.2686 3.89566L15.9814 3.51758L15.458 4.45835L16.2686 3.89566Z" fill="white"/>
<path d="M16.0921 3.44611V3.75935L16.7499 3.44611H16.0921Z" fill="#CC142B"/>
<path d="M16.2322 3.79416L16.0389 3.54074L16.7644 3.42592L16.2322 3.79416Z" fill="#CC142B"/>
<path d="M16.0921 3.44611V3.75935L15.4343 3.44611H16.0921Z" fill="#CC142B"/>
<path d="M15.9519 3.79416L16.1453 3.54074L15.4198 3.42592L15.9519 3.79416Z" fill="#CC142B"/>
<path d="M16.2749 3.5759L15.9669 3.66945L16.483 4.17496L16.2749 3.5759Z" fill="#CC142B"/>
<path d="M15.9754 3.80684L16.1652 3.55701L16.5111 4.17866L15.9754 3.80684Z" fill="#CC142B"/>
<path d="M15.9044 3.57919L16.2123 3.67275L16.1125 2.98013L15.9044 3.57919Z" fill="#CC142B"/>
<path d="M16.2953 3.55342L15.9775 3.65344L16.097 2.96082L16.2953 3.55342Z" fill="#CC142B"/>
<path d="M15.9093 3.5759L16.2172 3.66945L15.7011 4.17496L15.9093 3.5759Z" fill="#CC142B"/>
<path d="M16.2087 3.80684L16.0189 3.55701L15.673 4.17866L16.2087 3.80684Z" fill="#CC142B"/>
<path d="M18.7005 5.53748L18.7037 5.95449L19.5831 5.5423L18.7005 5.53748Z" fill="white"/>
<path d="M18.8921 6.0063L18.6289 5.66257L19.6059 5.51287L18.8921 6.0063Z" fill="white"/>
<path d="M18.6973 5.5423L18.7005 5.95931L17.8147 5.53748L18.6973 5.5423Z" fill="white"/>
<path d="M18.5147 6.0063L18.7721 5.66748L17.7951 5.50796L18.5147 6.0063Z" fill="white"/>
<path d="M18.9442 5.71243L18.532 5.83708L19.227 6.52051L18.9442 5.71243Z" fill="white"/>
<path d="M18.5434 6.02193L18.7972 5.68695L19.2666 6.52411L18.5434 6.02193Z" fill="white"/>
<path d="M18.4477 5.71472L18.8659 5.84268L18.7245 4.90996L18.4477 5.71472Z" fill="white"/>
<path d="M18.9742 5.68394L18.5499 5.81668L18.7035 4.88395L18.9742 5.68394Z" fill="white"/>
<path d="M18.4507 5.7124L18.869 5.84036L18.174 6.51717L18.4507 5.7124Z" fill="white"/>
<path d="M18.8576 6.02557L18.5994 5.68695L18.1388 6.52411L18.8576 6.02557Z" fill="white"/>
<path d="M18.7005 5.63394L18.7025 5.89199L19.2467 5.63693L18.7005 5.63394Z" fill="#CC142B"/>
<path d="M18.8191 5.92398L18.6562 5.71127L19.2608 5.61864L18.8191 5.92398Z" fill="#CC142B"/>
<path d="M18.6985 5.63693L18.7005 5.89498L18.1523 5.63395L18.6985 5.63693Z" fill="#CC142B"/>
<path d="M18.5855 5.92408L18.7448 5.71442L18.1402 5.6157L18.5855 5.92408Z" fill="#CC142B"/>
<path d="M18.8513 5.74213L18.5962 5.81926L19.0263 6.24217L18.8513 5.74213Z" fill="#CC142B"/>
<path d="M18.6033 5.93367L18.7603 5.72638L19.0508 6.24443L18.6033 5.93367Z" fill="#CC142B"/>
<path d="M18.5441 5.74365L18.8029 5.82284L18.7153 5.24565L18.5441 5.74365Z" fill="#CC142B"/>
<path d="M18.8699 5.72456L18.6073 5.8067L18.7024 5.22952L18.8699 5.72456Z" fill="#CC142B"/>
<path d="M18.546 5.74213L18.8048 5.82131L18.3747 6.24012L18.546 5.74213Z" fill="#CC142B"/>
<path d="M18.7977 5.93592L18.6379 5.72638L18.3529 6.24443L18.7977 5.93592Z" fill="#CC142B"/>
<path d="M13.054 6.26276L13.0576 6.73138L14.0459 6.26817L13.054 6.26276Z" fill="white"/>
<path d="M13.2693 6.78966L12.9735 6.40338L14.0714 6.23516L13.2693 6.78966Z" fill="white"/>
<path d="M13.0504 6.26819L13.054 6.73681L12.0585 6.26277L13.0504 6.26819Z" fill="white"/>
<path d="M12.8452 6.78966L13.1345 6.40891L12.0365 6.22964L12.8452 6.78966Z" fill="white"/>
<path d="M13.3278 6.45929L12.8646 6.59937L13.6456 7.36737L13.3278 6.45929Z" fill="white"/>
<path d="M12.8774 6.80719L13.1626 6.43076L13.6901 7.37153L12.8774 6.80719Z" fill="white"/>
<path d="M12.77 6.46201L13.24 6.6058L13.081 5.55764L12.77 6.46201Z" fill="white"/>
<path d="M13.3616 6.42737L12.8848 6.57654L13.0574 5.52837L13.3616 6.42737Z" fill="white"/>
<path d="M12.7733 6.45929L13.2433 6.60309L12.4623 7.36365L12.7733 6.45929Z" fill="white"/>
<path d="M13.2305 6.81128L12.9404 6.43076L12.4227 7.37153L13.2305 6.81128Z" fill="white"/>
<path d="M13.054 6.35925L13.0563 6.66892L13.7094 6.36283L13.054 6.35925Z" fill="#CC142B"/>
<path d="M13.1963 6.7074L13.0008 6.45215L13.7263 6.34099L13.1963 6.7074Z" fill="#CC142B"/>
<path d="M13.0516 6.36285L13.054 6.67252L12.3962 6.35927L13.0516 6.36285Z" fill="#CC142B"/>
<path d="M12.916 6.70741L13.1071 6.45581L12.3816 6.33735L12.916 6.70741Z" fill="#CC142B"/>
<path d="M13.2349 6.48914L12.9289 6.5817L13.4449 7.08919L13.2349 6.48914Z" fill="#CC142B"/>
<path d="M12.9373 6.71896L13.1258 6.47021L13.4743 7.09187L12.9373 6.71896Z" fill="#CC142B"/>
<path d="M12.8663 6.49097L13.1769 6.58599L13.0718 5.89337L12.8663 6.49097Z" fill="#CC142B"/>
<path d="M13.2573 6.46799L12.9422 6.56656L13.0563 5.87394L13.2573 6.46799Z" fill="#CC142B"/>
<path d="M12.8685 6.48914L13.1791 6.58416L12.663 7.08673L12.8685 6.48914Z" fill="#CC142B"/>
<path d="M13.1706 6.72166L12.9789 6.47021L12.6369 7.09187L13.1706 6.72166Z" fill="#CC142B"/>
<path d="M16.092 10.8362V11.3624L17.1972 10.8362H16.092Z" fill="white"/>
<path d="M16.3275 11.421L16.0027 10.9952L17.2215 10.8023L16.3275 11.421Z" fill="white"/>
<path d="M16.0921 10.8362V11.3624L14.9869 10.8362H16.0921Z" fill="white"/>
<path d="M15.8566 11.421L16.1814 10.9952L14.9625 10.8023L15.8566 11.421Z" fill="white"/>
<path d="M16.3991 11.0543L15.8818 11.2115L16.7488 12.0607L16.3991 11.0543Z" fill="white"/>
<path d="M15.896 11.4422L16.2149 11.0225L16.796 12.0669L15.896 11.4422Z" fill="white"/>
<path d="M15.7767 11.0597L16.2941 11.2169L16.1265 10.0533L15.7767 11.0597Z" fill="white"/>
<path d="M16.4336 11.0163L15.8996 11.1843L16.1005 10.0207L16.4336 11.0163Z" fill="white"/>
<path d="M15.7849 11.0543L16.3022 11.2115L15.4352 12.0607L15.7849 11.0543Z" fill="white"/>
<path d="M16.288 11.4422L15.9691 11.0225L15.388 12.0669L16.288 11.4422Z" fill="white"/>
<path d="M16.0921 10.9326V11.298L16.8595 10.9326H16.0921Z" fill="#CC142B"/>
<path d="M16.2555 11.3387L16.03 11.0431L16.8764 10.9091L16.2555 11.3387Z" fill="#CC142B"/>
<path d="M16.092 10.9326V11.298L15.3245 10.9326H16.092Z" fill="#CC142B"/>
<path d="M15.9285 11.3387L16.154 11.0431L15.3076 10.9091L15.9285 11.3387Z" fill="#CC142B"/>
<path d="M16.3053 11.0841L15.946 11.1932L16.5481 11.783L16.3053 11.0841Z" fill="#CC142B"/>
<path d="M15.9559 11.3536L16.1774 11.0621L16.5809 11.7874L15.9559 11.3536Z" fill="#CC142B"/>
<path d="M15.8731 11.0879L16.2323 11.197L16.1159 10.389L15.8731 11.0879Z" fill="#CC142B"/>
<path d="M16.3292 11.0577L15.9584 11.1744L16.0979 10.3663L16.3292 11.0577Z" fill="#CC142B"/>
<path d="M15.8788 11.0841L16.238 11.1932L15.6359 11.783L15.8788 11.0841Z" fill="#CC142B"/>
<path d="M16.2281 11.3536L16.0067 11.0621L15.6032 11.7874L16.2281 11.3536Z" fill="#CC142B"/>
<path d="M0 0H10.5V7.5H0V0Z" fill="#012169"/>
<path d="M1.23047 0L5.23359 2.82812L9.22031 0H10.5V0.96875L6.5625 3.76562L10.5 6.54688V7.5H9.1875L5.25 4.70312L1.32891 7.5H0V6.5625L3.92109 3.78125L0 1V0H1.23047Z" fill="white"/>
<path d="M6.95625 4.39062L10.5 6.875V7.5L6.05391 4.39062H6.95625ZM3.9375 4.70312L4.03594 5.25L0.885937 7.5H0L3.9375 4.70312ZM10.5 0V0.046875L6.41484 2.98438L6.44766 2.29688L9.67969 0H10.5ZM0 0L3.92109 2.75H2.93672L0 0.65625V0Z" fill="#C8102E"/>
<path d="M3.95391 0V7.5H6.57891V0H3.95391ZM0 2.5V5H10.5V2.5H0Z" fill="white"/>
<path d="M0 3.01562V4.51562H10.5V3.01562H0ZM4.47891 0V7.5H6.05391V0H4.47891Z" fill="#C8102E"/>
</g>
<defs>
<clipPath id="clip0_123_3254">
<rect width="21" height="15" rx="3" fill="white"/>
</clipPath>
</defs>
</svg>
