<svg width="21" height="15" viewBox="0 0 21 15" fill="none" xmlns="http://www.w3.org/2000/svg">
<g clip-path="url(#clip0_237_1853)">
<rect width="21" height="15" rx="3" fill="#F93939"/>
<path d="M19 0H2C0.89543 0 0 0.89543 0 2V13C0 14.1046 0.89543 15 2 15H19C20.1046 15 21 14.1046 21 13V2C21 0.89543 20.1046 0 19 0Z" fill="#F93939"/>
<path fill-rule="evenodd" clip-rule="evenodd" d="M6 10H21V15H6V10Z" fill="#249F58"/>
<path fill-rule="evenodd" clip-rule="evenodd" d="M5.99972 0H20.9997V5H5.99972V0ZM4.57572 3.903C4.52072 3.986 4.45772 4.063 4.38572 4.136C3.79872 4.722 2.84872 4.722 2.26372 4.136C1.67772 3.551 1.67772 2.601 2.26372 2.016C2.33572 1.942 2.41372 1.879 2.49672 1.824C2.27172 2.244 2.45672 2.916 2.97072 3.429C3.48472 3.941 4.15572 4.127 4.57672 3.902L4.57572 3.903Z" fill="white"/>
<path fill-rule="evenodd" clip-rule="evenodd" d="M2.42385 3.90322C2.47885 3.98622 2.54185 4.06322 2.61385 4.13622C3.20085 4.72222 4.15085 4.72222 4.73585 4.13622C5.32185 3.55122 5.32185 2.60122 4.73585 2.01622C4.66385 1.94222 4.58585 1.87922 4.50285 1.82422C4.72785 2.24422 4.54285 2.91622 4.02885 3.42922C3.51485 3.94122 2.84385 4.12722 2.42285 3.90222L2.42385 3.90322Z" fill="white"/>
</g>
<defs>
<clipPath id="clip0_237_1853">
<rect width="21" height="15" rx="3" fill="white"/>
</clipPath>
</defs>
</svg>
