<svg width="21" height="15" viewBox="0 0 21 15" fill="none" xmlns="http://www.w3.org/2000/svg">
<g clip-path="url(#clip0_132_5376)">
<path d="M8.39999 0H21V15H8.39999V0Z" fill="#FF0000"/>
<path d="M0 0H8.4V15H0V0Z" fill="#006600"/>
<path fill-rule="evenodd" clip-rule="evenodd" d="M11.1399 9.56876C10.0801 9.53751 5.23365 6.65626 5.20084 6.19376L5.46662 5.77188C5.94896 6.43751 10.9036 9.24063 11.3926 9.14063L11.1399 9.56876Z" fill="#FFFF00" stroke="black" stroke-width="0.05" stroke-linecap="round" stroke-linejoin="round"/>
<path fill-rule="evenodd" clip-rule="evenodd" d="M5.4109 5.71252C5.31575 5.95627 6.67747 6.75627 8.31153 7.70627C9.94887 8.65315 11.3598 9.23752 11.4615 9.15627L11.5107 9.06878C11.4911 9.10003 11.4451 9.1094 11.3697 9.08752C10.9267 8.96565 9.77496 8.46252 8.34762 7.63752C6.917 6.81252 5.67668 6.05315 5.48309 5.73127C5.468 5.7011 5.46122 5.66776 5.4634 5.6344H5.45684L5.41747 5.70315L5.4109 5.71252ZM11.1629 9.58127C11.1465 9.61252 11.1104 9.61252 11.0481 9.60627C10.6543 9.56565 9.4534 9.0094 8.03262 8.20002C6.37887 7.25627 5.01387 6.40002 5.16481 6.17502L5.20418 6.10627L5.21075 6.1094C5.0795 6.49065 7.90465 8.02815 8.072 8.12815C9.70606 9.09065 11.0842 9.65627 11.2056 9.5094L11.1629 9.58127Z" fill="#FFFF00" stroke="black" stroke-width="0.05" stroke-linecap="round" stroke-linejoin="round"/>
<path fill-rule="evenodd" clip-rule="evenodd" d="M8.40661 6.475C9.46318 6.46562 10.7691 6.3375 11.5238 6.05L11.3597 5.8C10.9168 6.03438 9.60427 6.19063 8.39677 6.2125C6.97271 6.2 5.96536 6.07188 5.46005 5.75L5.30911 6.01875C6.23443 6.39375 7.18599 6.47188 8.40661 6.475Z" fill="#FFFF00"/>
<path d="M8.40661 6.475C9.46318 6.46562 10.7691 6.3375 11.5238 6.05L11.3597 5.8C10.9168 6.03438 9.60427 6.19063 8.39677 6.2125C6.97271 6.2 5.96536 6.07188 5.46005 5.75L5.30911 6.01875C6.23443 6.39375 7.18599 6.47187 8.40661 6.475" stroke="black" stroke-width="0.05" stroke-linecap="round" stroke-linejoin="round"/>
<path fill-rule="evenodd" clip-rule="evenodd" d="M11.5665 6.05624C11.5403 6.09686 11.0481 6.25624 10.3262 6.37499C9.68986 6.46683 9.04701 6.51175 8.4034 6.50936C7.78675 6.51157 7.17065 6.47398 6.55934 6.39686C5.80137 6.28436 5.4109 6.12811 5.26325 6.07186L5.29934 6.00311C5.71606 6.15936 6.10981 6.25311 6.56918 6.32186C7.17604 6.3999 7.78776 6.43853 8.40012 6.43749C9.0404 6.43813 9.67984 6.39321 10.3131 6.30311C11.0514 6.18749 11.455 6.04061 11.514 5.97499L11.5665 6.05936V6.05624ZM11.4222 5.80311C11.3434 5.86561 10.9431 5.99999 10.2409 6.10624C9.63454 6.18979 9.02264 6.23156 8.40996 6.23124C7.68809 6.23124 7.09418 6.18124 6.64465 6.11874C5.92934 6.03124 5.54871 5.86874 5.4109 5.82499L5.45356 5.75624C5.56184 5.80936 5.92606 5.94999 6.65121 6.04686C7.23415 6.12123 7.82183 6.15673 8.40996 6.15311C9.01827 6.15329 9.6258 6.11152 10.2278 6.02811C10.9332 5.93436 11.3139 5.76561 11.3729 5.72186L11.4222 5.80311ZM4.93184 7.68749C5.58153 8.02186 7.02856 8.18749 8.39684 8.19999C9.64371 8.20311 11.2647 8.01874 11.8717 7.71249L11.8553 7.37811C11.665 7.65936 9.9259 7.93124 8.38371 7.92186C6.84153 7.90936 5.40762 7.68436 4.92856 7.39061V7.68749" fill="#FFFF00"/>
<path d="M4.93184 7.68749C5.58153 8.02186 7.02856 8.18749 8.39684 8.19999C9.64371 8.20311 11.2647 8.01874 11.8717 7.71249L11.8553 7.37811C11.665 7.65936 9.9259 7.93124 8.38371 7.92186C6.84153 7.90936 5.40762 7.68436 4.92856 7.39061V7.68749M11.5665 6.05624C11.5403 6.09686 11.0481 6.25624 10.3262 6.37499C9.68986 6.46683 9.04701 6.51175 8.4034 6.50936C7.78675 6.51157 7.17065 6.47398 6.55934 6.39686C5.80137 6.28436 5.4109 6.12811 5.26325 6.07186L5.29934 6.00311C5.71606 6.15936 6.10981 6.25311 6.56918 6.32186C7.17604 6.3999 7.78776 6.43853 8.40012 6.43749C9.0404 6.43813 9.67984 6.39321 10.3131 6.30311C11.0514 6.18749 11.455 6.04061 11.514 5.97499L11.5665 6.05936V6.05624ZM11.4222 5.80311C11.3434 5.86561 10.9431 5.99999 10.2409 6.10624C9.63454 6.18979 9.02264 6.23156 8.40996 6.23124C7.68809 6.23124 7.09418 6.18124 6.64465 6.11874C5.92934 6.03124 5.54871 5.86874 5.4109 5.82499L5.45356 5.75624C5.56184 5.80936 5.92606 5.94999 6.65121 6.04686C7.23415 6.12123 7.82183 6.15673 8.40996 6.15311C9.01828 6.15329 9.6258 6.11152 10.2278 6.02811C10.9332 5.93436 11.3139 5.76561 11.3729 5.72186L11.4222 5.80311V5.80311Z" stroke="black" stroke-width="0.05" stroke-linecap="round" stroke-linejoin="round"/>
<path fill-rule="evenodd" clip-rule="evenodd" d="M11.9045 7.64061V7.71874C11.8126 7.82499 11.2416 7.98124 10.5263 8.09374C9.81568 8.19102 9.09832 8.23699 8.38039 8.23124C7.69964 8.23676 7.01946 8.19184 6.34602 8.09686C5.84352 8.04156 5.35249 7.91517 4.88914 7.72186V7.63124C5.20743 7.83124 6.06711 7.98124 6.35586 8.02499C6.8743 8.09999 7.54039 8.15624 8.38039 8.15624C9.26305 8.15624 9.96852 8.09686 10.5132 8.01874C11.0284 7.94686 11.7601 7.76249 11.9045 7.64061ZM11.9045 7.35936V7.43749C11.8126 7.54061 11.2416 7.69686 10.5263 7.80936C9.81576 7.90769 9.09841 7.9547 8.38039 7.94999C7.69969 7.9538 7.01965 7.90889 6.34602 7.81561C5.84352 7.76031 5.35249 7.63392 4.88914 7.44061V7.34686C5.20743 7.54999 6.07039 7.69686 6.35586 7.74061C7.02617 7.83412 7.70295 7.87905 8.38039 7.87499C9.26305 7.87499 9.9718 7.81249 10.5132 7.73436C11.0284 7.66561 11.7601 7.48124 11.9045 7.35936ZM8.39352 9.50936C6.89727 9.50311 5.6143 9.12186 5.34196 9.05936L5.53883 9.35311C6.45919 9.66356 7.43039 9.81489 8.40665 9.79999C9.54524 9.76874 10.5395 9.68436 11.2384 9.35936L11.4418 9.05311C10.966 9.26874 9.3418 9.50936 8.39024 9.50936" fill="#FFFF00"/>
<path d="M8.39352 9.50936C6.89727 9.50311 5.6143 9.12186 5.34196 9.05936L5.53883 9.35311C6.45919 9.66356 7.43039 9.81489 8.40665 9.79999C9.54524 9.76874 10.5395 9.68436 11.2384 9.35936L11.4418 9.05311C10.966 9.26874 9.3418 9.50936 8.39024 9.50936M11.9045 7.64061V7.71874C11.8126 7.82499 11.2416 7.98124 10.5263 8.09374C9.81568 8.19102 9.09832 8.23699 8.38039 8.23124C7.69964 8.23676 7.01946 8.19184 6.34602 8.09686C5.84352 8.04156 5.35249 7.91517 4.88914 7.72186V7.63124C5.20743 7.83124 6.06711 7.98124 6.35586 8.02499C6.8743 8.09999 7.54039 8.15624 8.38039 8.15624C9.26305 8.15624 9.96852 8.09686 10.5132 8.01874C11.0284 7.94686 11.7601 7.76249 11.9045 7.64061V7.64061ZM11.9045 7.35936V7.43749C11.8126 7.54061 11.2416 7.69686 10.5263 7.80936C9.81576 7.90769 9.09841 7.9547 8.38039 7.94999C7.69969 7.9538 7.01965 7.90889 6.34602 7.81561C5.84352 7.76031 5.35249 7.63392 4.88914 7.44061V7.34686C5.20743 7.54999 6.07039 7.69686 6.35586 7.74061C7.02617 7.83412 7.70295 7.87905 8.38039 7.87499C9.26305 7.87499 9.9718 7.81249 10.5132 7.73436C11.0284 7.66561 11.7601 7.48124 11.9045 7.35936V7.35936Z" stroke="black" stroke-width="0.05" stroke-linecap="round" stroke-linejoin="round"/>
<path fill-rule="evenodd" clip-rule="evenodd" d="M11.3171 9.29064C11.2873 9.3328 11.2566 9.37447 11.2253 9.41564C10.8971 9.52814 10.3721 9.64689 10.1556 9.67814C9.57445 9.78127 8.98465 9.83357 8.39354 9.83439C7.06791 9.81564 5.98182 9.56876 5.47323 9.35626L5.43057 9.29064L5.43713 9.27814L5.50604 9.30626C6.43989 9.60057 7.41646 9.75348 8.4001 9.75939C9.01698 9.75939 9.63057 9.69376 10.126 9.60939C10.8873 9.46251 11.1957 9.35314 11.2909 9.30314L11.3138 9.29064H11.3171ZM11.491 9.01564C11.4694 9.05224 11.4476 9.0887 11.4254 9.12501C11.2482 9.18751 10.7692 9.31876 10.0703 9.41251C9.61088 9.47189 9.32541 9.53126 8.40994 9.54689C7.36343 9.53688 6.32335 9.38966 5.31901 9.10939L5.28291 9.03126C6.30333 9.29985 7.3548 9.44681 8.41323 9.46876C9.24994 9.45314 9.6076 9.39376 10.0637 9.33439C10.8774 9.21564 11.2876 9.08439 11.409 9.05001C11.4091 9.04793 11.4091 9.04584 11.409 9.04376L11.4943 9.01251L11.491 9.01564Z" fill="#FFFF00" stroke="black" stroke-width="0.05" stroke-linecap="round" stroke-linejoin="round"/>
<path fill-rule="evenodd" clip-rule="evenodd" d="M11.5108 7.425C11.514 8.3625 11.0087 9.20625 10.6051 9.575C10.009 10.1287 9.21299 10.444 8.38044 10.4563C7.38622 10.4719 6.45106 9.85625 6.19841 9.58438C5.63319 9.01352 5.3115 8.26262 5.29606 7.47813C5.35513 6.45312 5.77841 5.74063 6.38872 5.25C6.98159 4.78518 7.72739 4.53403 8.49528 4.54063C8.94354 4.56132 9.38232 4.67097 9.78349 4.86255C10.1847 5.05412 10.5394 5.3234 10.825 5.65312C11.2351 6.12812 11.4156 6.64375 11.5108 7.425ZM8.387 4.21875C9.30493 4.21873 10.1856 4.56429 10.8372 5.1801C11.4887 5.79592 11.8582 6.63206 11.8651 7.50625C11.8651 7.94002 11.7754 8.36955 11.6011 8.7703C11.4268 9.17105 11.1713 9.53519 10.8493 9.84191C10.5272 10.1486 10.1449 10.3919 9.7241 10.5579C9.30331 10.7239 8.85231 10.8094 8.39684 10.8094C7.94138 10.8094 7.49038 10.7239 7.06959 10.5579C6.6488 10.3919 6.26646 10.1486 5.9444 9.84191C5.62234 9.53519 5.36687 9.17105 5.19257 8.7703C5.01827 8.36955 4.92856 7.94002 4.92856 7.50625C4.92528 5.69375 6.4806 4.21875 8.387 4.21875Z" fill="#FFFF00"/>
<path d="M8.387 4.21875C9.30493 4.21873 10.1856 4.56429 10.8372 5.1801C11.4887 5.79592 11.8582 6.63206 11.8651 7.50625C11.8651 7.94002 11.7754 8.36955 11.6011 8.7703C11.4268 9.17105 11.1713 9.53519 10.8493 9.84191C10.5272 10.1486 10.1449 10.3919 9.7241 10.5579C9.30331 10.7239 8.85231 10.8094 8.39684 10.8094C7.94138 10.8094 7.49038 10.7239 7.06959 10.5579C6.6488 10.3919 6.26646 10.1486 5.9444 9.84191C5.62234 9.53519 5.36687 9.17105 5.19257 8.7703C5.01827 8.36955 4.92856 7.94002 4.92856 7.50625C4.92528 5.69375 6.4806 4.21875 8.387 4.21875M11.5108 7.425C11.514 8.3625 11.0087 9.20625 10.6051 9.575C10.009 10.1287 9.21299 10.444 8.38044 10.4563C7.38622 10.4719 6.45106 9.85625 6.19841 9.58438C5.63319 9.01352 5.3115 8.26262 5.29606 7.47813C5.35513 6.45313 5.77841 5.74062 6.38872 5.25C6.98159 4.78518 7.72739 4.53403 8.49528 4.54063C8.94354 4.56132 9.38232 4.67097 9.78349 4.86255C10.1847 5.05412 10.5394 5.3234 10.825 5.65312C11.2351 6.12812 11.4156 6.64375 11.5108 7.425V7.425Z" stroke="black" stroke-width="0.05" stroke-linecap="round" stroke-linejoin="round"/>
<path fill-rule="evenodd" clip-rule="evenodd" d="M8.39676 4.20312C10.3064 4.20312 11.8618 5.68438 11.8618 7.50313C11.8618 9.32188 10.3064 10.8031 8.40004 10.8031C6.49364 10.8031 4.93504 9.32188 4.93504 7.50313C4.93504 5.68438 6.49036 4.20312 8.40004 4.20312H8.39676ZM5.00723 7.5C5.00723 9.275 6.53957 10.7281 8.39676 10.7281C10.254 10.7281 11.7863 9.275 11.7863 7.5C11.7863 5.725 10.254 4.27187 8.39676 4.27187C6.53957 4.27187 5.00723 5.725 5.00723 7.5Z" fill="#FFFF00" stroke="black" stroke-width="0.05" stroke-linecap="round" stroke-linejoin="round"/>
<path fill-rule="evenodd" clip-rule="evenodd" d="M8.40013 4.47812C9.24085 4.48059 10.0464 4.79976 10.6409 5.36594C11.2354 5.93211 11.5705 6.6993 11.5731 7.49999C11.5705 8.30097 11.2355 9.06849 10.6411 9.63516C10.0467 10.2018 9.24115 10.5217 8.40013 10.525C6.66106 10.525 5.22716 9.16249 5.22716 7.49999C5.23061 6.69956 5.56602 5.93284 6.16032 5.36684C6.75462 4.80084 7.55967 4.48141 8.40013 4.47812ZM5.30263 7.49999C5.30263 9.12499 6.70044 10.45 8.40013 10.45C10.0998 10.45 11.4976 9.12187 11.4976 7.49999C11.4976 5.87499 10.0998 4.54999 8.40013 4.54999C7.57968 4.55328 6.79383 4.86514 6.21368 5.41766C5.63353 5.97018 5.30608 6.71862 5.30263 7.49999Z" fill="#FFFF00" stroke="black" stroke-width="0.05" stroke-linecap="round" stroke-linejoin="round"/>
<path fill-rule="evenodd" clip-rule="evenodd" d="M8.54124 4.1875H8.24265V10.8219H8.53796L8.54124 4.1875Z" fill="#FFFF00" stroke="black" stroke-width="0.05" stroke-linecap="round" stroke-linejoin="round"/>
<path fill-rule="evenodd" clip-rule="evenodd" d="M8.5084 4.14999H8.58387V10.8594H8.51168V4.14999H8.5084ZM8.21309 4.14999H8.29184V10.8594H8.21637V4.14999H8.21309Z" fill="#FFFF00" stroke="black" stroke-width="0.05" stroke-linecap="round" stroke-linejoin="round"/>
<path fill-rule="evenodd" clip-rule="evenodd" d="M11.8651 7.63125V7.3875L11.6551 7.2L10.464 6.9L8.7512 6.73438L6.68401 6.83437L5.21401 7.16563L4.9187 7.375V7.62187L5.67011 7.3L7.45511 7.03438H9.1712L10.4312 7.16563L11.304 7.36562L11.8651 7.63125Z" fill="#FFFF00" stroke="black" stroke-width="0.05" stroke-linecap="round" stroke-linejoin="round"/>
<path fill-rule="evenodd" clip-rule="evenodd" d="M8.40008 6.99376C9.21711 6.99376 10.0079 7.06563 10.6412 7.18126C11.2909 7.30626 11.747 7.46251 11.9045 7.63438V7.72188C11.7141 7.50313 11.1006 7.34688 10.6248 7.25313C10.0013 7.14063 9.21383 7.06563 8.3968 7.06563C7.54039 7.06563 6.73977 7.14688 6.1229 7.25938C5.63071 7.35313 4.97118 7.54063 4.88914 7.72188V7.63126C4.9318 7.50626 5.42399 7.31876 6.11305 7.18438C6.73321 7.06876 7.53383 6.99376 8.3968 6.99376H8.40008ZM8.40008 6.70938C9.1515 6.70795 9.90153 6.7707 10.6412 6.89688C11.2909 7.02188 11.747 7.17813 11.9045 7.35313V7.43751C11.7141 7.22188 11.1006 7.06251 10.6248 6.97188C10.0013 6.85626 9.21383 6.78438 8.3968 6.78438C7.63527 6.78209 6.87515 6.84695 6.12618 6.97813C5.65039 7.06251 4.96461 7.25626 4.88914 7.43751V7.35001C4.93508 7.22501 5.43383 7.02813 6.11305 6.90313C6.73649 6.78751 7.53383 6.70938 8.40008 6.70938ZM8.38039 5.26563C9.66993 5.25938 10.7954 5.43751 11.3106 5.68751L11.4976 6.00001C11.0513 5.76876 9.83727 5.53126 8.38368 5.56251C7.19914 5.57188 5.93258 5.68751 5.2993 6.01251L5.52243 5.65626C6.04414 5.39688 7.27133 5.26563 8.38039 5.26563Z" fill="#FFFF00"/>
<path d="M8.38039 5.26563C9.66993 5.25938 10.7954 5.43751 11.3106 5.68751L11.4976 6.00001C11.0513 5.76876 9.83727 5.53126 8.38368 5.56251C7.19914 5.57188 5.93258 5.68751 5.2993 6.01251L5.52243 5.65626C6.04414 5.39688 7.27133 5.26563 8.38039 5.26563M8.40008 6.99376C9.21711 6.99376 10.0079 7.06563 10.6412 7.18126C11.2909 7.30626 11.747 7.46251 11.9045 7.63438V7.72188C11.7141 7.50313 11.1006 7.34688 10.6248 7.25313C10.0013 7.14063 9.21383 7.06563 8.3968 7.06563C7.54039 7.06563 6.73977 7.14688 6.1229 7.25938C5.63071 7.35313 4.97118 7.54063 4.88914 7.72188V7.63126C4.9318 7.50626 5.42399 7.31876 6.11305 7.18438C6.73321 7.06876 7.53383 6.99376 8.3968 6.99376H8.40008ZM8.40008 6.70938C9.1515 6.70795 9.90153 6.7707 10.6412 6.89688C11.2909 7.02188 11.747 7.17813 11.9045 7.35313V7.43751C11.7141 7.22188 11.1006 7.06251 10.6248 6.97188C10.0013 6.85626 9.21383 6.78438 8.3968 6.78438C7.63527 6.78209 6.87515 6.84695 6.12618 6.97813C5.65039 7.06251 4.96461 7.25626 4.88914 7.43751V7.35001C4.93508 7.22501 5.43383 7.02813 6.11305 6.90313C6.73649 6.78751 7.53383 6.70938 8.40008 6.70938V6.70938Z" stroke="black" stroke-width="0.05" stroke-linecap="round" stroke-linejoin="round"/>
<path fill-rule="evenodd" clip-rule="evenodd" d="M8.40006 5.52188C9.07335 5.51106 9.74635 5.55603 10.4115 5.65626C10.9365 5.75001 11.4385 5.88751 11.5107 5.96251L11.5665 6.05626C11.3926 5.95001 10.9561 5.82813 10.3983 5.72813C9.84052 5.62813 9.12849 5.59376 8.39677 5.59688C7.56662 5.59376 6.92021 5.63438 6.36896 5.72813C5.98896 5.77886 5.62002 5.88754 5.27631 6.05001L5.33209 5.95313C5.52896 5.85938 5.83412 5.74376 6.35256 5.65313C6.92677 5.55313 7.57974 5.52501 8.40006 5.52188ZM8.40006 5.24063C9.10224 5.23438 9.79787 5.27188 10.3393 5.36563C10.69 5.41523 11.0295 5.52088 11.3433 5.67813L11.4254 5.80313C11.2876 5.65626 10.7691 5.51563 10.3065 5.44063C9.76834 5.35001 9.10224 5.31563 8.40006 5.30938C7.74641 5.30383 7.0934 5.34982 6.44771 5.44688C6.1101 5.49169 5.7822 5.58769 5.47646 5.73126L5.54865 5.62813C5.73896 5.53438 6.0474 5.44688 6.43459 5.37501C7.08453 5.27668 7.74201 5.23068 8.40006 5.23751V5.24063ZM10.1194 8.87501C9.5507 8.78123 8.97386 8.73937 8.39677 8.75001C6.24756 8.77501 5.55521 9.17188 5.4699 9.29063L5.30584 9.04063C5.85709 8.66563 7.02521 8.45313 8.4099 8.47188C9.12849 8.48438 9.74865 8.53126 10.2671 8.62813L10.1194 8.87813" fill="#FFFF00"/>
<path d="M10.1194 8.87501C9.5507 8.78123 8.97386 8.73937 8.39677 8.75001C6.24756 8.77501 5.55521 9.17188 5.4699 9.29063L5.30584 9.04063C5.85709 8.66563 7.02521 8.45313 8.4099 8.47188C9.12849 8.48438 9.74865 8.53126 10.2671 8.62813L10.1194 8.87813M8.40006 5.52188C9.07335 5.51106 9.74635 5.55603 10.4115 5.65626C10.9365 5.75001 11.4385 5.88751 11.5107 5.96251L11.5665 6.05626C11.3926 5.95001 10.9561 5.82813 10.3983 5.72813C9.84052 5.62813 9.12849 5.59376 8.39677 5.59688C7.56662 5.59376 6.92021 5.63438 6.36896 5.72813C5.98896 5.77886 5.62002 5.88754 5.27631 6.05001L5.33209 5.95313C5.52896 5.85938 5.83412 5.74376 6.35256 5.65313C6.92677 5.55313 7.57974 5.52501 8.40006 5.52188V5.52188ZM8.40006 5.24063C9.10224 5.23438 9.79787 5.27188 10.3393 5.36563C10.69 5.41523 11.0295 5.52088 11.3433 5.67813L11.4254 5.80313C11.2876 5.65626 10.7691 5.51563 10.3065 5.44063C9.76834 5.35001 9.10224 5.31563 8.40006 5.30938C7.74641 5.30383 7.0934 5.34982 6.44771 5.44688C6.1101 5.49169 5.7822 5.58769 5.47646 5.73126L5.54865 5.62813C5.73896 5.53438 6.0474 5.44688 6.43459 5.37501C7.08453 5.27668 7.74201 5.23068 8.40006 5.23751V5.24063Z" stroke="black" stroke-width="0.05" stroke-linecap="round" stroke-linejoin="round"/>
<path fill-rule="evenodd" clip-rule="evenodd" d="M8.38701 8.71561C8.98419 8.72498 9.56826 8.74686 10.1359 8.84686L10.0965 8.91561C9.57154 8.82186 9.00716 8.79061 8.39029 8.79061C7.59294 8.78436 6.79232 8.85623 6.09341 9.04686C5.87357 9.10623 5.50935 9.24061 5.46998 9.35311L5.4306 9.29061C5.44373 9.22186 5.66029 9.08436 6.07373 8.97811C6.87435 8.75936 7.62248 8.71873 8.38701 8.71561ZM8.41326 8.42811C9.04358 8.42749 9.67273 8.47978 10.2934 8.58436L10.2508 8.65623C9.64466 8.55035 9.02945 8.49908 8.41326 8.50311C7.61919 8.50311 6.77591 8.55936 6.0081 8.77186C5.76201 8.84061 5.33216 8.99061 5.31904 9.10623L5.27966 9.03748C5.28623 8.93123 5.65701 8.79061 5.99169 8.69998C6.76279 8.48436 7.60935 8.43123 8.41326 8.42811Z" fill="#FFFF00" stroke="black" stroke-width="0.05" stroke-linecap="round" stroke-linejoin="round"/>
<path fill-rule="evenodd" clip-rule="evenodd" d="M11.4647 9.07815L11.2088 9.46252L10.464 8.8344L8.54116 7.60002L6.36897 6.46565L5.2435 6.10002L5.48303 5.67502L5.56506 5.6344L6.26397 5.80002L8.57397 6.9344L9.90616 7.7344L11.0251 8.50002L11.4812 9.00002L11.4647 9.07815Z" fill="#FFFF00" stroke="black" stroke-width="0.05" stroke-linecap="round" stroke-linejoin="round"/>
<path fill-rule="evenodd" clip-rule="evenodd" d="M5.20408 6.10939C5.40095 5.98439 6.85127 6.59689 8.37377 7.47189C9.88642 8.34689 11.3367 9.33439 11.2055 9.51877L11.1628 9.58439L11.1431 9.60002C11.1464 9.59689 11.1694 9.56877 11.1431 9.50314C11.0775 9.30002 10.0472 8.51877 8.34424 7.53752C6.68064 6.59689 5.29595 6.02814 5.16142 6.19064L5.20408 6.10939ZM11.5172 9.07502C11.6419 8.83752 10.2966 7.87189 8.62642 6.93127C6.92017 6.00939 5.68642 5.46564 5.46002 5.62814L5.41408 5.71877C5.41408 5.72189 5.41408 5.71252 5.4272 5.70314C5.46658 5.67189 5.53549 5.67189 5.56502 5.67189C5.9522 5.67814 7.05799 6.16252 8.61002 7.00939C9.29252 7.38439 11.4844 8.72814 11.4745 9.10314C11.4745 9.13439 11.4778 9.14064 11.4647 9.15939L11.5205 9.07814L11.5172 9.07502Z" fill="#FFFF00" stroke="black" stroke-width="0.05" stroke-linecap="round" stroke-linejoin="round"/>
<path d="M6.32095 7.86771C6.32147 8.12646 6.37587 8.38255 6.48101 8.62114C6.58615 8.85973 6.73993 9.0761 6.93346 9.25771C7.12462 9.44258 7.35231 9.58959 7.6034 9.69028C7.85449 9.79097 8.12402 9.84334 8.39646 9.84438C8.94783 9.84434 9.47661 9.63571 9.86646 9.26438C10.0593 9.08176 10.2124 8.86467 10.3169 8.62556C10.4214 8.38645 10.4753 8.13004 10.4755 7.87104V5.23103L6.32095 5.22437V7.86771Z" fill="white" stroke="black" stroke-width="0.0622224"/>
<path d="M6.39798 7.87107C6.39872 8.11928 6.45106 8.3649 6.55198 8.59374C6.6529 8.82259 6.8004 9.03014 6.98598 9.20441C7.35861 9.56116 7.86462 9.76256 8.39299 9.76441C8.92042 9.76469 9.42643 9.56569 9.79999 9.21108C9.98493 9.03653 10.1318 8.82886 10.2321 8.60002C10.3324 8.37119 10.3842 8.12572 10.3845 7.87774V5.31107H6.40498V7.87107M9.58999 6.08107V7.71107L9.58649 7.88107C9.58767 8.02999 9.55728 8.1776 9.49714 8.31506C9.437 8.45253 9.34834 8.57702 9.23649 8.68108C9.01392 8.89379 8.7118 9.01368 8.39649 9.01441C8.06748 9.01441 7.77698 8.88108 7.55998 8.67441C7.33664 8.46244 7.21075 8.17471 7.20998 7.87441V6.0744L9.58999 6.08107Z" fill="#FF0000"/>
<path d="M6.39798 7.87107C6.39872 8.11928 6.45106 8.3649 6.55198 8.59374C6.6529 8.82259 6.80041 9.03014 6.98598 9.20441C7.35861 9.56116 7.86462 9.76256 8.39299 9.76441C8.92042 9.76469 9.42643 9.56569 9.79999 9.21108C9.98493 9.03653 10.1318 8.82886 10.2321 8.60002C10.3324 8.37119 10.3842 8.12572 10.3845 7.87774V5.31107H6.40498V7.87107M9.58999 6.08107V7.71107L9.58649 7.88107C9.58767 8.02999 9.55728 8.1776 9.49714 8.31506C9.437 8.45253 9.34834 8.57702 9.23649 8.68108C9.01392 8.89379 8.7118 9.01368 8.39649 9.01441C8.06748 9.01441 7.77698 8.88108 7.55998 8.67441C7.33664 8.46244 7.21075 8.17471 7.20998 7.87441V6.0744L9.58999 6.08107Z" stroke="black" stroke-width="0.0444446"/>
<path d="M6.65692 5.981C6.66042 5.79767 6.79692 5.75433 6.79692 5.75433C6.80042 5.75433 6.94742 5.801 6.94742 5.98433H6.65692" fill="#FFFF00"/>
<path d="M6.53796 5.75767L6.51346 5.96767H6.66046C6.66046 5.79433 6.80047 5.76767 6.80047 5.76767C6.80397 5.76767 6.94047 5.80433 6.94397 5.96767H7.09097L7.06297 5.75433H6.53796V5.75767ZM6.50296 5.971H7.09797C7.10847 5.971 7.11897 5.981 7.11897 5.99433C7.11897 6.011 7.10847 6.021 7.09797 6.021H6.50296C6.49246 6.021 6.48196 6.011 6.48196 5.99433C6.48196 5.981 6.49246 5.971 6.50646 5.971H6.50296Z" fill="#FFFF00" stroke="black" stroke-width="0.0444446"/>
<path d="M6.71991 5.96769C6.71991 5.85769 6.80041 5.82769 6.80041 5.82769C6.80041 5.82769 6.88091 5.86102 6.88091 5.96769H6.71991ZM6.51691 5.66769H7.08741C7.09791 5.66769 7.10841 5.68102 7.10841 5.69436C7.10841 5.70436 7.09791 5.71436 7.08741 5.71436H6.51691C6.50641 5.71436 6.49591 5.70436 6.49591 5.69102C6.49591 5.68102 6.50641 5.67102 6.51691 5.67102V5.66769ZM6.53091 5.71769H7.06991C7.08041 5.71769 7.09091 5.72769 7.09091 5.74102C7.09091 5.75436 7.08041 5.76436 7.06991 5.76436H6.52741C6.51341 5.76436 6.50641 5.75436 6.50641 5.74102C6.50641 5.72769 6.51341 5.71769 6.52741 5.71769H6.53091ZM6.70591 5.36436H6.74791V5.39102H6.77941V5.36436H6.82491V5.39436H6.85641V5.36102H6.89841V5.42769C6.89841 5.44102 6.89141 5.44769 6.88091 5.44769H6.72691C6.71641 5.44769 6.70591 5.44102 6.70591 5.43102V5.36436ZM6.86691 5.45436L6.87741 5.66769H6.72691L6.73741 5.45102H6.86691" fill="#FFFF00"/>
<path d="M6.86691 5.45436L6.87741 5.66769H6.72691L6.73741 5.45102H6.86691M6.71991 5.96769C6.71991 5.85769 6.80041 5.82769 6.80041 5.82769C6.80041 5.82769 6.88091 5.86102 6.88091 5.96769H6.71991ZM6.51691 5.66769H7.08741C7.09791 5.66769 7.10841 5.68102 7.10841 5.69436C7.10841 5.70436 7.09791 5.71436 7.08741 5.71436H6.51691C6.50641 5.71436 6.49591 5.70436 6.49591 5.69102C6.49591 5.68102 6.50641 5.67102 6.51691 5.67102V5.66769ZM6.53091 5.71769H7.06991C7.08041 5.71769 7.09091 5.72769 7.09091 5.74102C7.09091 5.75436 7.08041 5.76436 7.06991 5.76436H6.52741C6.51341 5.76436 6.50641 5.75436 6.50641 5.74102C6.50641 5.72769 6.51341 5.71769 6.52741 5.71769H6.53091ZM6.70591 5.36436H6.74791V5.39102H6.77941V5.36436H6.82491V5.39436H6.85641V5.36102H6.89841V5.42769C6.89841 5.44102 6.89141 5.44769 6.88091 5.44769H6.72691C6.71641 5.44769 6.70591 5.44102 6.70591 5.43102V5.36436Z" stroke="black" stroke-width="0.0444446"/>
<path d="M6.68492 5.55435V5.66769H6.54492V5.55435H6.68492Z" fill="#FFFF00" stroke="black" stroke-width="0.0444446"/>
<path d="M7.05588 5.55435V5.66769H6.91588V5.55435H7.05588Z" fill="#FFFF00" stroke="black" stroke-width="0.0444446"/>
<path d="M6.52042 5.46771H6.56242V5.50105H6.59392V5.46771H6.63592V5.50105H6.66742V5.46771H6.70942V5.53438C6.70942 5.54771 6.70242 5.55438 6.69192 5.55438H6.54142C6.53585 5.55438 6.53051 5.55227 6.52657 5.54852C6.52263 5.54477 6.52042 5.53968 6.52042 5.53438V5.46771Z" fill="#FFFF00" stroke="black" stroke-width="0.0444446"/>
<path d="M6.89148 5.46771H6.93348V5.50105H6.96498V5.46771H7.00698V5.50105H7.03848V5.46771H7.08048V5.53438C7.08048 5.54771 7.07348 5.55438 7.06298 5.55438H6.91248C6.90691 5.55438 6.90157 5.55227 6.89763 5.54852C6.89369 5.54477 6.89148 5.53968 6.89148 5.53438V5.46771Z" fill="#FFFF00" stroke="black" stroke-width="0.0444446"/>
<path d="M6.78633 5.52104C6.78633 5.50104 6.81783 5.50104 6.81783 5.52104V5.57438H6.78633V5.52104Z" fill="black"/>
<path d="M6.60092 5.59438C6.60092 5.57438 6.62892 5.57438 6.62892 5.59438V5.63438H6.60092V5.59438Z" fill="black"/>
<path d="M6.97186 5.59438C6.97186 5.57438 6.99986 5.57438 6.99986 5.59438V5.63438H6.97186V5.59438Z" fill="black"/>
<path d="M6.65692 7.52434C6.66042 7.341 6.79692 7.29767 6.79692 7.29767C6.80042 7.29767 6.94742 7.34434 6.94742 7.52767H6.65692" fill="#FFFF00"/>
<path d="M6.53796 7.301L6.51346 7.511H6.66046C6.66046 7.33767 6.80047 7.311 6.80047 7.311C6.80397 7.311 6.94047 7.34767 6.94397 7.511H7.09097L7.06297 7.29767H6.53796V7.301ZM6.50296 7.51434H7.09797C7.10847 7.51434 7.11897 7.52434 7.11897 7.53767C7.11897 7.55434 7.10847 7.56434 7.09797 7.56434H6.50296C6.49246 7.56434 6.48196 7.55434 6.48196 7.53767C6.48196 7.52434 6.49246 7.51434 6.50646 7.51434H6.50296Z" fill="#FFFF00" stroke="black" stroke-width="0.0444446"/>
<path d="M6.7199 7.51103C6.7199 7.40103 6.8004 7.37103 6.8004 7.37103C6.8004 7.37103 6.8809 7.40436 6.8809 7.51103H6.7199ZM6.5169 7.21103H7.0874C7.0979 7.21103 7.1084 7.22436 7.1084 7.23769C7.1084 7.24769 7.0979 7.25769 7.0874 7.25769H6.5169C6.5064 7.25769 6.4959 7.24769 6.4959 7.23436C6.4959 7.22436 6.5064 7.21436 6.5169 7.21436V7.21103ZM6.5309 7.26103H7.0699C7.0804 7.26103 7.0909 7.27103 7.0909 7.28436C7.0909 7.29769 7.0804 7.30769 7.0699 7.30769H6.5274C6.5134 7.30769 6.50639 7.29769 6.50639 7.28436C6.50639 7.27103 6.5134 7.26103 6.5274 7.26103H6.5309ZM6.7059 6.90769H6.7479V6.93436H6.7794V6.90769H6.8249V6.93769H6.8564V6.90436H6.8984V6.97102C6.8984 6.98436 6.8914 6.99102 6.8809 6.99102H6.7269C6.7164 6.99102 6.7059 6.98436 6.7059 6.97436V6.90769ZM6.8669 6.99769L6.8774 7.21103H6.7269L6.7374 6.99436H6.8669" fill="#FFFF00"/>
<path d="M6.8669 6.99769L6.8774 7.21103H6.7269L6.7374 6.99436H6.8669M6.7199 7.51103C6.7199 7.40103 6.8004 7.37103 6.8004 7.37103C6.8004 7.37103 6.8809 7.40436 6.8809 7.51103H6.7199ZM6.5169 7.21103H7.0874C7.0979 7.21103 7.1084 7.22436 7.1084 7.23769C7.1084 7.24769 7.0979 7.25769 7.0874 7.25769H6.5169C6.5064 7.25769 6.4959 7.24769 6.4959 7.23436C6.4959 7.22436 6.5064 7.21436 6.5169 7.21436V7.21103ZM6.5309 7.26103H7.0699C7.0804 7.26103 7.0909 7.27103 7.0909 7.28436C7.0909 7.29769 7.0804 7.30769 7.0699 7.30769H6.5274C6.5134 7.30769 6.50639 7.29769 6.50639 7.28436C6.50639 7.27103 6.5134 7.26103 6.5274 7.26103H6.5309ZM6.7059 6.90769H6.7479V6.93436H6.7794V6.90769H6.8249V6.93769H6.8564V6.90436H6.8984V6.97102C6.8984 6.98436 6.8914 6.99102 6.8809 6.99102H6.7269C6.7164 6.99102 6.7059 6.98436 6.7059 6.97436V6.90769Z" stroke="black" stroke-width="0.0444446"/>
<path d="M6.68492 7.09766V7.21099H6.54492V7.09766H6.68492Z" fill="#FFFF00" stroke="black" stroke-width="0.0444446"/>
<path d="M7.05588 7.09766V7.21099H6.91588V7.09766H7.05588Z" fill="#FFFF00" stroke="black" stroke-width="0.0444446"/>
<path d="M6.52042 7.01102H6.56242V7.04435H6.59392V7.01102H6.63592V7.04435H6.66742V7.01102H6.70942V7.07768C6.70942 7.09102 6.70242 7.09768 6.69192 7.09768H6.54142C6.53585 7.09768 6.53051 7.09558 6.52657 7.09183C6.52263 7.08808 6.52042 7.08299 6.52042 7.07768V7.01102Z" fill="#FFFF00" stroke="black" stroke-width="0.0444446"/>
<path d="M6.89148 7.01102H6.93348V7.04435H6.96498V7.01102H7.00698V7.04435H7.03848V7.01102H7.08048V7.07768C7.08048 7.09102 7.07348 7.09768 7.06298 7.09768H6.91248C6.90691 7.09768 6.90157 7.09558 6.89763 7.09183C6.89369 7.08808 6.89148 7.08299 6.89148 7.07768V7.01102Z" fill="#FFFF00" stroke="black" stroke-width="0.0444446"/>
<path d="M6.78633 7.06435C6.78633 7.04435 6.81783 7.04435 6.81783 7.06435V7.11768H6.78633V7.06435Z" fill="black"/>
<path d="M6.60092 7.13768C6.60092 7.11768 6.62892 7.11768 6.62892 7.13768V7.17768H6.60092V7.13768Z" fill="black"/>
<path d="M6.97186 7.13768C6.97186 7.11768 6.99986 7.11768 6.99986 7.13768V7.17768H6.97186V7.13768Z" fill="black"/>
<path d="M7.28857 9.13283C7.15447 9.00131 7.21838 8.87852 7.21838 8.87852C7.22085 8.87615 7.35921 8.80968 7.49578 8.93884L7.29105 9.13518" fill="#FFFF00"/>
<path d="M7.03838 9.05593L7.17753 9.22043L7.28113 9.12108C7.15202 8.99897 7.23081 8.88556 7.23081 8.88556C7.23328 8.8832 7.35678 8.81678 7.48091 8.92947L7.5845 8.83012L7.40587 8.69876L7.03589 9.05358L7.03838 9.05593ZM7.17262 9.22987L7.59192 8.82774C7.59932 8.82064 7.61417 8.82059 7.6241 8.82998C7.63651 8.84173 7.63656 8.85587 7.62916 8.86296L7.20986 9.2651C7.20246 9.27219 7.18761 9.27224 7.1752 9.2605C7.16527 9.25111 7.16522 9.23697 7.17508 9.22751L7.17262 9.22987Z" fill="#FFFF00" stroke="black" stroke-width="0.0444446"/>
<path d="M7.323 9.08085C7.24106 9.00335 7.27544 8.9278 7.27544 8.9278C7.27544 8.9278 7.35701 8.89688 7.43647 8.97203L7.323 9.08085ZM6.95646 9.0067L7.35852 8.6211C7.36592 8.614 7.38325 8.6163 7.39319 8.62569C7.40063 8.63274 7.40068 8.64688 7.39328 8.65397L6.99122 9.03958C6.98382 9.04667 6.96897 9.04672 6.95904 9.03733C6.95159 9.03029 6.95154 9.01614 6.95894 9.00905L6.95646 9.0067ZM7.00357 9.03246L7.38343 8.66815C7.39083 8.66105 7.40568 8.661 7.41562 8.6704C7.42555 8.67979 7.4256 8.69393 7.4182 8.70103L7.03586 9.0677C7.026 9.07717 7.01362 9.07485 7.00368 9.06546C6.99375 9.05607 6.99124 9.04429 7.0011 9.03483L7.00357 9.03246ZM6.86369 8.66525L6.89329 8.63686L6.91316 8.65565L6.93536 8.63436L6.91549 8.61557L6.94756 8.58482L6.96991 8.60595L6.99211 8.58466L6.96728 8.56118L6.99688 8.53279L7.04654 8.57976C7.05647 8.58915 7.0565 8.59858 7.0491 8.60568L6.94057 8.70977C6.93317 8.71686 6.9208 8.71926 6.91336 8.71222L6.86369 8.66525ZM7.0442 8.61984L7.21052 8.76304L7.10445 8.86476L6.95045 8.70502L7.04172 8.61749" fill="#FFFF00"/>
<path d="M7.0442 8.61984L7.21052 8.76304L7.10445 8.86476L6.95045 8.70502L7.04172 8.61749M7.323 9.08085C7.24106 9.00335 7.27544 8.9278 7.27544 8.9278C7.27544 8.9278 7.35701 8.89688 7.43647 8.97203L7.323 9.08085ZM6.95646 9.0067L7.35852 8.6211C7.36592 8.614 7.38325 8.6163 7.39319 8.62569C7.40063 8.63274 7.40068 8.64688 7.39328 8.65397L6.99122 9.03958C6.98382 9.04667 6.96897 9.04672 6.95904 9.03733C6.95159 9.03029 6.95154 9.01614 6.95894 9.00905L6.95646 9.0067ZM7.00357 9.03246L7.38343 8.66815C7.39083 8.66105 7.40568 8.661 7.41562 8.6704C7.42555 8.67979 7.4256 8.69393 7.4182 8.70103L7.03586 9.0677C7.026 9.07717 7.01362 9.07485 7.00368 9.06546C6.99375 9.05607 6.99124 9.04429 7.0011 9.03483L7.00357 9.03246ZM6.86369 8.66525L6.89329 8.63686L6.91316 8.65565L6.93536 8.63436L6.91549 8.61557L6.94756 8.58482L6.96991 8.60595L6.99211 8.58466L6.96728 8.56118L6.99688 8.53279L7.04654 8.57976C7.05647 8.58915 7.0565 8.59858 7.0491 8.60568L6.94057 8.70977C6.93317 8.71686 6.9208 8.71926 6.91336 8.71222L6.86369 8.66525Z" stroke="black" stroke-width="0.0444446"/>
<path d="M6.99043 8.81327L7.07486 8.89312L6.97619 8.98774L6.89177 8.9079L6.99043 8.81327Z" fill="#FFFF00" stroke="black" stroke-width="0.0444446"/>
<path d="M7.25191 8.56257L7.33633 8.64242L7.23767 8.73704L7.15324 8.6572L7.25191 8.56257Z" fill="#FFFF00" stroke="black" stroke-width="0.0444446"/>
<path d="M6.80994 8.8634L6.83953 8.83502L6.86436 8.8585L6.88656 8.83721L6.86173 8.81373L6.89133 8.78534L6.91616 8.80882L6.93836 8.78753L6.91353 8.76405L6.94313 8.73567L6.99279 8.78263C7.00272 8.79202 7.00275 8.80145 6.99535 8.80855L6.88929 8.91027C6.88537 8.91403 6.88003 8.91615 6.87446 8.91617C6.86889 8.91619 6.86355 8.91411 6.8596 8.91037L6.80994 8.8634Z" fill="#FFFF00" stroke="black" stroke-width="0.0444446"/>
<path d="M7.07141 8.61267L7.10101 8.58428L7.12584 8.60777L7.14804 8.58648L7.12321 8.563L7.15281 8.53461L7.17764 8.55809L7.19983 8.5368L7.175 8.51332L7.2046 8.48493L7.25426 8.5319C7.26419 8.54129 7.26423 8.55072 7.25683 8.55782L7.15077 8.65953C7.14684 8.6633 7.14151 8.66542 7.13594 8.66544C7.13037 8.66546 7.12502 8.66337 7.12107 8.65964L7.07141 8.61267Z" fill="#FFFF00" stroke="black" stroke-width="0.0444446"/>
<path d="M7.03705 8.7212C7.02215 8.70711 7.04436 8.68582 7.05926 8.69991L7.09899 8.73748L7.07679 8.75878L7.03705 8.7212Z" fill="black"/>
<path d="M6.96099 8.89823C6.94609 8.88414 6.96582 8.86522 6.98072 8.87931L7.01052 8.90749L6.99079 8.92642L6.96099 8.89823Z" fill="black"/>
<path d="M7.22246 8.64753C7.20756 8.63344 7.2273 8.61451 7.2422 8.62861L7.272 8.65679L7.25226 8.67571L7.22246 8.64753Z" fill="black"/>
<path d="M8.2565 5.981C8.26 5.79767 8.3965 5.75433 8.3965 5.75433C8.4 5.75433 8.547 5.801 8.547 5.98433H8.2565" fill="#FFFF00"/>
<path d="M8.13754 5.75767L8.11304 5.96767H8.26004C8.26004 5.79433 8.40004 5.76767 8.40004 5.76767C8.40354 5.76767 8.54004 5.80433 8.54354 5.96767H8.69055L8.66255 5.75433H8.13754V5.75767ZM8.10254 5.971H8.69755C8.70805 5.971 8.71854 5.981 8.71854 5.99433C8.71854 6.011 8.70805 6.021 8.69755 6.021H8.10254C8.09204 6.021 8.08154 6.011 8.08154 5.99433C8.08154 5.981 8.09204 5.971 8.10604 5.971H8.10254Z" fill="#FFFF00" stroke="black" stroke-width="0.0444446"/>
<path d="M8.31947 5.96769C8.31947 5.85769 8.39998 5.82769 8.39998 5.82769C8.39998 5.82769 8.48048 5.86102 8.48048 5.96769H8.31947ZM8.11647 5.66769H8.68698C8.69748 5.66769 8.70798 5.68102 8.70798 5.69436C8.70798 5.70436 8.69748 5.71436 8.68698 5.71436H8.11647C8.10597 5.71436 8.09547 5.70436 8.09547 5.69102C8.09547 5.68102 8.10597 5.67102 8.11647 5.67102V5.66769ZM8.13047 5.71769H8.66948C8.67998 5.71769 8.69048 5.72769 8.69048 5.74102C8.69048 5.75436 8.67998 5.76436 8.66948 5.76436H8.12697C8.11297 5.76436 8.10597 5.75436 8.10597 5.74102C8.10597 5.72769 8.11297 5.71769 8.12697 5.71769H8.13047ZM8.30547 5.36436H8.34747V5.39102H8.37897V5.36436H8.42448V5.39436H8.45597V5.36102H8.49798V5.42769C8.49798 5.44102 8.49098 5.44769 8.48048 5.44769H8.32647C8.31597 5.44769 8.30547 5.44102 8.30547 5.43102V5.36436ZM8.46648 5.45436L8.47698 5.66769H8.32647L8.33697 5.45102H8.46648" fill="#FFFF00"/>
<path d="M8.46648 5.45436L8.47698 5.66769H8.32647L8.33697 5.45102H8.46648M8.31947 5.96769C8.31947 5.85769 8.39998 5.82769 8.39998 5.82769C8.39998 5.82769 8.48048 5.86102 8.48048 5.96769H8.31947ZM8.11647 5.66769H8.68698C8.69748 5.66769 8.70798 5.68102 8.70798 5.69436C8.70798 5.70436 8.69748 5.71436 8.68698 5.71436H8.11647C8.10597 5.71436 8.09547 5.70436 8.09547 5.69102C8.09547 5.68102 8.10597 5.67102 8.11647 5.67102V5.66769ZM8.13047 5.71769H8.66948C8.67998 5.71769 8.69048 5.72769 8.69048 5.74102C8.69048 5.75436 8.67998 5.76436 8.66948 5.76436H8.12697C8.11297 5.76436 8.10597 5.75436 8.10597 5.74102C8.10597 5.72769 8.11297 5.71769 8.12697 5.71769H8.13047ZM8.30547 5.36436H8.34747V5.39102H8.37897V5.36436H8.42448V5.39436H8.45597V5.36102H8.49798V5.42769C8.49798 5.44102 8.49098 5.44769 8.48048 5.44769H8.32647C8.31597 5.44769 8.30547 5.44102 8.30547 5.43102V5.36436Z" stroke="black" stroke-width="0.0444446"/>
<path d="M8.2845 5.55435V5.66769H8.1445V5.55435H8.2845Z" fill="#FFFF00" stroke="black" stroke-width="0.0444446"/>
<path d="M8.65556 5.55435V5.66769H8.51556V5.55435H8.65556Z" fill="#FFFF00" stroke="black" stroke-width="0.0444446"/>
<path d="M8.12 5.46771H8.162V5.50105H8.1935V5.46771H8.2355V5.50105H8.267V5.46771H8.309V5.53438C8.309 5.54771 8.302 5.55438 8.2915 5.55438H8.14099C8.13543 5.55438 8.13008 5.55227 8.12615 5.54852C8.12221 5.54477 8.12 5.53968 8.12 5.53438V5.46771Z" fill="#FFFF00" stroke="black" stroke-width="0.0444446"/>
<path d="M8.49106 5.46771H8.53306V5.50105H8.56456V5.46771H8.60656V5.50105H8.63806V5.46771H8.68006V5.53438C8.68006 5.54771 8.67306 5.55438 8.66256 5.55438H8.51206C8.50649 5.55438 8.50115 5.55227 8.49721 5.54852C8.49327 5.54477 8.49106 5.53968 8.49106 5.53438V5.46771Z" fill="#FFFF00" stroke="black" stroke-width="0.0444446"/>
<path d="M8.38603 5.52104C8.38603 5.50104 8.41753 5.50104 8.41753 5.52104V5.57438H8.38603V5.52104Z" fill="black"/>
<path d="M8.2005 5.59438C8.2005 5.57438 8.2285 5.57438 8.2285 5.59438V5.63438H8.2005V5.59438Z" fill="black"/>
<path d="M8.57144 5.59438C8.57144 5.57438 8.59944 5.57438 8.59944 5.59438V5.63438H8.57144V5.59438Z" fill="black"/>
<path d="M10.1359 5.981C10.1324 5.79767 9.99594 5.75433 9.99594 5.75433C9.99244 5.75433 9.84544 5.801 9.84544 5.98433H10.1359" fill="#FFFF00"/>
<path d="M10.2549 5.75767L10.2794 5.96767H10.1324C10.1324 5.79433 9.9924 5.76767 9.9924 5.76767C9.9889 5.76767 9.8524 5.80433 9.8489 5.96767H9.7019L9.7299 5.75433H10.2549V5.75767ZM10.2899 5.971H9.6949C9.6844 5.971 9.6739 5.981 9.6739 5.99433C9.6739 6.011 9.6844 6.021 9.6949 6.021H10.2899C10.3004 6.021 10.3109 6.011 10.3109 5.99433C10.3109 5.981 10.3004 5.971 10.2864 5.971H10.2899Z" fill="#FFFF00" stroke="black" stroke-width="0.0444446"/>
<path d="M10.0728 5.96769C10.0728 5.85769 9.99234 5.82769 9.99234 5.82769C9.99234 5.82769 9.91184 5.86102 9.91184 5.96769H10.0728ZM10.2758 5.66769H9.70534C9.69484 5.66769 9.68434 5.68102 9.68434 5.69436C9.68434 5.70436 9.69484 5.71436 9.70534 5.71436H10.2758C10.2863 5.71436 10.2968 5.70436 10.2968 5.69102C10.2968 5.68102 10.2863 5.67102 10.2758 5.67102V5.66769ZM10.2618 5.71769H9.72284C9.71234 5.71769 9.70184 5.72769 9.70184 5.74102C9.70184 5.75436 9.71234 5.76436 9.72284 5.76436H10.2653C10.2793 5.76436 10.2863 5.75436 10.2863 5.74102C10.2863 5.72769 10.2793 5.71769 10.2653 5.71769H10.2618ZM10.0868 5.36436H10.0448V5.39102H10.0133V5.36436H9.96784V5.39436H9.93634V5.36102H9.89434V5.42769C9.89434 5.44102 9.90134 5.44769 9.91184 5.44769H10.0658C10.0763 5.44769 10.0868 5.44102 10.0868 5.43102V5.36436ZM9.92584 5.45436L9.91534 5.66769H10.0658L10.0553 5.45102H9.92584" fill="#FFFF00"/>
<path d="M9.92584 5.45436L9.91534 5.66769H10.0658L10.0553 5.45102H9.92584M10.0728 5.96769C10.0728 5.85769 9.99234 5.82769 9.99234 5.82769C9.99234 5.82769 9.91184 5.86102 9.91184 5.96769H10.0728ZM10.2758 5.66769H9.70534C9.69484 5.66769 9.68434 5.68102 9.68434 5.69436C9.68434 5.70436 9.69484 5.71436 9.70534 5.71436H10.2758C10.2863 5.71436 10.2968 5.70436 10.2968 5.69102C10.2968 5.68102 10.2863 5.67102 10.2758 5.67102V5.66769ZM10.2618 5.71769H9.72284C9.71234 5.71769 9.70184 5.72769 9.70184 5.74102C9.70184 5.75436 9.71234 5.76436 9.72284 5.76436H10.2653C10.2793 5.76436 10.2863 5.75436 10.2863 5.74102C10.2863 5.72769 10.2793 5.71769 10.2653 5.71769H10.2618ZM10.0868 5.36436H10.0448V5.39102H10.0133V5.36436H9.96784V5.39436H9.93634V5.36102H9.89434V5.42769C9.89434 5.44102 9.90134 5.44769 9.91184 5.44769H10.0658C10.0763 5.44769 10.0868 5.44102 10.0868 5.43102V5.36436Z" stroke="black" stroke-width="0.0444446"/>
<path d="M10.1078 5.55435V5.66769H10.2478V5.55435H10.1078Z" fill="#FFFF00" stroke="black" stroke-width="0.0444446"/>
<path d="M9.73687 5.55435V5.66769H9.87687V5.55435H9.73687Z" fill="#FFFF00" stroke="black" stroke-width="0.0444446"/>
<path d="M10.2724 5.46771H10.2304V5.50105H10.1989V5.46771H10.1569V5.50105H10.1254V5.46771H10.0834V5.53438C10.0834 5.54771 10.0904 5.55438 10.1009 5.55438H10.2514C10.257 5.55438 10.2624 5.55227 10.2663 5.54852C10.2702 5.54477 10.2724 5.53968 10.2724 5.53438V5.46771Z" fill="#FFFF00" stroke="black" stroke-width="0.0444446"/>
<path d="M9.90138 5.46771H9.85938V5.50105H9.82788V5.46771H9.78588V5.50105H9.75438V5.46771H9.71238V5.53438C9.71238 5.54771 9.71938 5.55438 9.72988 5.55438H9.88038C9.88595 5.55438 9.89129 5.55227 9.89523 5.54852C9.89917 5.54477 9.90138 5.53968 9.90138 5.53438V5.46771Z" fill="#FFFF00" stroke="black" stroke-width="0.0444446"/>
<path d="M10.0064 5.52104C10.0064 5.50104 9.9749 5.50104 9.9749 5.52104V5.57438H10.0064V5.52104Z" fill="black"/>
<path d="M10.1919 5.59438C10.1919 5.57438 10.1639 5.57438 10.1639 5.59438V5.63438H10.1919V5.59438Z" fill="black"/>
<path d="M9.82087 5.59438C9.82087 5.57438 9.79287 5.57438 9.79287 5.59438V5.63438H9.82087V5.59438Z" fill="black"/>
<path d="M10.1359 7.52434C10.1324 7.341 9.99587 7.29767 9.99587 7.29767C9.99237 7.29767 9.84537 7.34434 9.84537 7.52767H10.1359" fill="#FFFF00"/>
<path d="M10.2548 7.301L10.2793 7.511H10.1323C10.1323 7.33767 9.99233 7.311 9.99233 7.311C9.98883 7.311 9.85233 7.34767 9.84883 7.511H9.70183L9.72983 7.29767H10.2548V7.301ZM10.2898 7.51434H9.69483C9.68433 7.51434 9.67383 7.52434 9.67383 7.53767C9.67383 7.55434 9.68433 7.56434 9.69483 7.56434H10.2898C10.3003 7.56434 10.3108 7.55434 10.3108 7.53767C10.3108 7.52434 10.3003 7.51434 10.2863 7.51434H10.2898Z" fill="#FFFF00" stroke="black" stroke-width="0.0444446"/>
<path d="M10.0728 7.51103C10.0728 7.40103 9.99227 7.37103 9.99227 7.37103C9.99227 7.37103 9.91177 7.40436 9.91177 7.51103H10.0728ZM10.2758 7.21103H9.70527C9.69477 7.21103 9.68427 7.22436 9.68427 7.23769C9.68427 7.24769 9.69477 7.25769 9.70527 7.25769H10.2758C10.2863 7.25769 10.2968 7.24769 10.2968 7.23436C10.2968 7.22436 10.2863 7.21436 10.2758 7.21436V7.21103ZM10.2618 7.26103H9.72277C9.71227 7.26103 9.70177 7.27103 9.70177 7.28436C9.70177 7.29769 9.71227 7.30769 9.72277 7.30769H10.2653C10.2793 7.30769 10.2863 7.29769 10.2863 7.28436C10.2863 7.27103 10.2793 7.26103 10.2653 7.26103H10.2618ZM10.0868 6.90769H10.0448V6.93436H10.0133V6.90769H9.96777V6.93769H9.93627V6.90436H9.89427V6.97102C9.89427 6.98436 9.90127 6.99102 9.91177 6.99102H10.0658C10.0763 6.99102 10.0868 6.98436 10.0868 6.97436V6.90769ZM9.92577 6.99769L9.91527 7.21103H10.0658L10.0553 6.99436H9.92577" fill="#FFFF00"/>
<path d="M9.92577 6.99769L9.91527 7.21103H10.0658L10.0553 6.99436H9.92577M10.0728 7.51103C10.0728 7.40103 9.99227 7.37103 9.99227 7.37103C9.99227 7.37103 9.91177 7.40436 9.91177 7.51103H10.0728ZM10.2758 7.21103H9.70527C9.69477 7.21103 9.68427 7.22436 9.68427 7.23769C9.68427 7.24769 9.69477 7.25769 9.70527 7.25769H10.2758C10.2863 7.25769 10.2968 7.24769 10.2968 7.23436C10.2968 7.22436 10.2863 7.21436 10.2758 7.21436V7.21103ZM10.2618 7.26103H9.72277C9.71227 7.26103 9.70177 7.27103 9.70177 7.28436C9.70177 7.29769 9.71227 7.30769 9.72277 7.30769H10.2653C10.2793 7.30769 10.2863 7.29769 10.2863 7.28436C10.2863 7.27103 10.2793 7.26103 10.2653 7.26103H10.2618ZM10.0868 6.90769H10.0448V6.93436H10.0133V6.90769H9.96777V6.93769H9.93627V6.90436H9.89427V6.97102C9.89427 6.98436 9.90127 6.99102 9.91177 6.99102H10.0658C10.0763 6.99102 10.0868 6.98436 10.0868 6.97436V6.90769Z" stroke="black" stroke-width="0.0444446"/>
<path d="M10.1077 7.09766V7.21099H10.2477V7.09766H10.1077Z" fill="#FFFF00" stroke="black" stroke-width="0.0444446"/>
<path d="M9.7368 7.09766V7.21099H9.8768V7.09766H9.7368Z" fill="#FFFF00" stroke="black" stroke-width="0.0444446"/>
<path d="M10.2724 7.01102H10.2304V7.04435H10.1989V7.01102H10.1569V7.04435H10.1254V7.01102H10.0834V7.07768C10.0834 7.09102 10.0904 7.09768 10.1009 7.09768H10.2514C10.2569 7.09768 10.2623 7.09558 10.2662 7.09183C10.2702 7.08808 10.2724 7.08299 10.2724 7.07768V7.01102Z" fill="#FFFF00" stroke="black" stroke-width="0.0444446"/>
<path d="M9.90131 7.01102H9.85931V7.04435H9.82781V7.01102H9.78581V7.04435H9.75431V7.01102H9.71231V7.07768C9.71231 7.09102 9.71931 7.09768 9.72981 7.09768H9.88031C9.88588 7.09768 9.89122 7.09558 9.89516 7.09183C9.8991 7.08808 9.90131 7.08299 9.90131 7.07768V7.01102Z" fill="#FFFF00" stroke="black" stroke-width="0.0444446"/>
<path d="M10.0063 7.06435C10.0063 7.04435 9.97483 7.04435 9.97483 7.06435V7.11768H10.0063V7.06435Z" fill="black"/>
<path d="M10.1919 7.13768C10.1919 7.11768 10.1639 7.11768 10.1639 7.13768V7.17768H10.1919V7.13768Z" fill="black"/>
<path d="M9.8208 7.13768C9.8208 7.11768 9.7928 7.11768 9.7928 7.13768V7.17768H9.8208V7.13768Z" fill="black"/>
<path d="M9.50417 9.13283C9.63827 9.00131 9.57436 8.87852 9.57436 8.87852C9.57189 8.87615 9.43353 8.80968 9.29696 8.93884L9.50169 9.13518" fill="#FFFF00"/>
<path d="M9.75448 9.05593L9.61532 9.22043L9.51173 9.12108C9.64084 8.99897 9.56204 8.88556 9.56204 8.88556C9.55958 8.8832 9.43607 8.81678 9.31194 8.92947L9.20835 8.83012L9.38699 8.69876L9.75696 9.05358L9.75448 9.05593ZM9.62024 9.22987L9.20093 8.82774C9.19353 8.82064 9.17869 8.82059 9.16875 8.82998C9.15634 8.84173 9.15629 8.85587 9.16369 8.86296L9.58299 9.2651C9.59039 9.27219 9.60524 9.27224 9.61765 9.2605C9.62759 9.25111 9.62764 9.23697 9.61777 9.22751L9.62024 9.22987Z" fill="#FFFF00" stroke="black" stroke-width="0.0444446"/>
<path d="M9.46974 9.08085C9.55168 9.00335 9.5173 8.9278 9.5173 8.9278C9.5173 8.9278 9.43573 8.89688 9.35627 8.97203L9.46974 9.08085ZM9.83628 9.0067L9.43422 8.6211C9.42682 8.614 9.40949 8.6163 9.39955 8.62569C9.39211 8.63274 9.39206 8.64688 9.39946 8.65397L9.80152 9.03958C9.80892 9.04667 9.82377 9.04672 9.8337 9.03733C9.84115 9.03029 9.8412 9.01614 9.8338 9.00905L9.83628 9.0067ZM9.78917 9.03246L9.40931 8.66815C9.40191 8.66105 9.38706 8.661 9.37712 8.6704C9.36719 8.67979 9.36714 8.69393 9.37454 8.70103L9.75688 9.0677C9.76674 9.07717 9.77912 9.07485 9.78906 9.06546C9.79899 9.05607 9.8015 9.04429 9.79164 9.03483L9.78917 9.03246ZM9.92905 8.66525L9.89945 8.63686L9.87958 8.65565L9.85738 8.63436L9.87725 8.61557L9.84518 8.58482L9.82283 8.60595L9.80063 8.58466L9.82546 8.56118L9.79586 8.53279L9.7462 8.57976C9.73627 8.58915 9.73624 8.59858 9.74364 8.60568L9.85217 8.70977C9.85957 8.71686 9.87194 8.71926 9.87938 8.71222L9.92905 8.66525ZM9.74854 8.61984L9.58222 8.76304L9.68829 8.86476L9.84229 8.70502L9.75102 8.61749" fill="#FFFF00"/>
<path d="M9.74854 8.61984L9.58222 8.76304L9.68829 8.86476L9.84229 8.70502L9.75102 8.61749M9.46974 9.08085C9.55168 9.00335 9.5173 8.9278 9.5173 8.9278C9.5173 8.9278 9.43573 8.89688 9.35627 8.97203L9.46974 9.08085ZM9.83628 9.0067L9.43422 8.6211C9.42682 8.614 9.40949 8.6163 9.39955 8.62569C9.39211 8.63274 9.39206 8.64688 9.39946 8.65397L9.80152 9.03958C9.80892 9.04667 9.82377 9.04672 9.8337 9.03733C9.84115 9.03029 9.8412 9.01614 9.8338 9.00905L9.83628 9.0067ZM9.78917 9.03246L9.40931 8.66815C9.40191 8.66105 9.38706 8.661 9.37712 8.6704C9.36719 8.67979 9.36714 8.69393 9.37454 8.70103L9.75688 9.0677C9.76674 9.07717 9.77912 9.07485 9.78906 9.06546C9.79899 9.05607 9.8015 9.04429 9.79164 9.03483L9.78917 9.03246ZM9.92905 8.66525L9.89945 8.63686L9.87958 8.65565L9.85738 8.63436L9.87725 8.61557L9.84518 8.58482L9.82283 8.60595L9.80063 8.58466L9.82546 8.56118L9.79586 8.53279L9.7462 8.57976C9.73627 8.58915 9.73624 8.59858 9.74364 8.60568L9.85217 8.70977C9.85957 8.71686 9.87194 8.71926 9.87938 8.71222L9.92905 8.66525Z" stroke="black" stroke-width="0.0444446"/>
<path d="M9.80231 8.81327L9.71788 8.89312L9.81655 8.98774L9.90097 8.9079L9.80231 8.81327Z" fill="#FFFF00" stroke="black" stroke-width="0.0444446"/>
<path d="M9.54095 8.56257L9.45652 8.64242L9.55519 8.73704L9.63961 8.6572L9.54095 8.56257Z" fill="#FFFF00" stroke="black" stroke-width="0.0444446"/>
<path d="M9.9828 8.8634L9.9532 8.83502L9.92837 8.8585L9.90617 8.83721L9.931 8.81373L9.9014 8.78534L9.87657 8.80882L9.85437 8.78753L9.8792 8.76405L9.8496 8.73567L9.79995 8.78263C9.79001 8.79202 9.78998 8.80145 9.79738 8.80855L9.90344 8.91027C9.90737 8.91403 9.9127 8.91615 9.91827 8.91617C9.92384 8.91619 9.92919 8.91411 9.93314 8.91037L9.9828 8.8634Z" fill="#FFFF00" stroke="black" stroke-width="0.0444446"/>
<path d="M9.72144 8.61267L9.69185 8.58428L9.66702 8.60777L9.64482 8.58648L9.66965 8.563L9.64005 8.53461L9.61522 8.55809L9.59302 8.5368L9.61785 8.51332L9.58825 8.48493L9.53859 8.5319C9.52866 8.54129 9.52863 8.55072 9.53603 8.55782L9.64209 8.65953C9.64601 8.6633 9.65135 8.66542 9.65692 8.66544C9.66248 8.66546 9.66783 8.66337 9.67178 8.65964L9.72144 8.61267Z" fill="#FFFF00" stroke="black" stroke-width="0.0444446"/>
<path d="M9.75569 8.7212C9.77059 8.70711 9.74839 8.68582 9.73349 8.69991L9.69376 8.73748L9.71596 8.75878L9.75569 8.7212Z" fill="black"/>
<path d="M9.83175 8.89823C9.84665 8.88414 9.82692 8.86522 9.81202 8.87931L9.78222 8.90749L9.80195 8.92642L9.83175 8.89823Z" fill="black"/>
<path d="M9.57028 8.64753C9.58518 8.63344 9.56544 8.61451 9.55054 8.62861L9.52074 8.65679L9.54048 8.67571L9.57028 8.64753Z" fill="black"/>
<path d="M8.14096 7.58104C8.14032 7.65139 8.16786 7.71934 8.21796 7.77104C8.24133 7.79593 8.2699 7.8159 8.30184 7.82968C8.33379 7.84346 8.36839 7.85073 8.40346 7.85104C8.47696 7.85104 8.54346 7.81771 8.58896 7.77104C8.63906 7.71934 8.66659 7.65139 8.66596 7.58104V7.22104H8.14096V7.58104Z" fill="#003399"/>
<path d="M8.26345 7.40774C8.29245 7.40774 8.31595 7.38535 8.31595 7.35774C8.31595 7.33013 8.29245 7.30774 8.26345 7.30774C8.23446 7.30774 8.21095 7.33013 8.21095 7.35774C8.21095 7.38535 8.23446 7.40774 8.26345 7.40774Z" fill="white"/>
<path d="M8.55389 7.40774C8.58288 7.40774 8.60639 7.38535 8.60639 7.35774C8.60639 7.33013 8.58288 7.30774 8.55389 7.30774C8.52489 7.30774 8.50139 7.33013 8.50139 7.35774C8.50139 7.38535 8.52489 7.40774 8.55389 7.40774Z" fill="white"/>
<path d="M8.40693 7.54107C8.43593 7.54107 8.45943 7.51869 8.45943 7.49107C8.45943 7.46346 8.43593 7.44107 8.40693 7.44107C8.37794 7.44107 8.35443 7.46346 8.35443 7.49107C8.35443 7.51869 8.37794 7.54107 8.40693 7.54107Z" fill="white"/>
<path d="M8.26345 7.68105C8.29245 7.68105 8.31595 7.65867 8.31595 7.63105C8.31595 7.60344 8.29245 7.58105 8.26345 7.58105C8.23446 7.58105 8.21095 7.60344 8.21095 7.63105C8.21095 7.65867 8.23446 7.68105 8.26345 7.68105Z" fill="white"/>
<path d="M8.55389 7.68105C8.58288 7.68105 8.60639 7.65867 8.60639 7.63105C8.60639 7.60344 8.58288 7.58105 8.55389 7.58105C8.52489 7.58105 8.50139 7.60344 8.50139 7.63105C8.50139 7.65867 8.52489 7.68105 8.55389 7.68105Z" fill="white"/>
<path d="M8.14096 6.71437C8.14032 6.78472 8.16786 6.85267 8.21796 6.90437C8.24133 6.92926 8.2699 6.94924 8.30184 6.96301C8.33379 6.97679 8.36839 6.98406 8.40346 6.98437C8.47696 6.98437 8.54346 6.95104 8.58896 6.90437C8.63906 6.85267 8.66659 6.78472 8.66596 6.71437V6.35437H8.14096V6.71437Z" fill="#003399"/>
<path d="M8.26345 6.54101C8.29245 6.54101 8.31595 6.51862 8.31595 6.49101C8.31595 6.4634 8.29245 6.44101 8.26345 6.44101C8.23446 6.44101 8.21095 6.4634 8.21095 6.49101C8.21095 6.51862 8.23446 6.54101 8.26345 6.54101Z" fill="white"/>
<path d="M8.55389 6.54101C8.58288 6.54101 8.60639 6.51862 8.60639 6.49101C8.60639 6.4634 8.58288 6.44101 8.55389 6.44101C8.52489 6.44101 8.50139 6.4634 8.50139 6.49101C8.50139 6.51862 8.52489 6.54101 8.55389 6.54101Z" fill="white"/>
<path d="M8.40693 6.67437C8.43593 6.67437 8.45943 6.65199 8.45943 6.62437C8.45943 6.59676 8.43593 6.57437 8.40693 6.57437C8.37794 6.57437 8.35443 6.59676 8.35443 6.62437C8.35443 6.65199 8.37794 6.67437 8.40693 6.67437Z" fill="white"/>
<path d="M8.26345 6.81436C8.29245 6.81436 8.31595 6.79197 8.31595 6.76436C8.31595 6.73674 8.29245 6.71436 8.26345 6.71436C8.23446 6.71436 8.21095 6.73674 8.21095 6.76436C8.21095 6.79197 8.23446 6.81436 8.26345 6.81436Z" fill="white"/>
<path d="M8.55389 6.81436C8.58288 6.81436 8.60639 6.79197 8.60639 6.76436C8.60639 6.73674 8.58288 6.71436 8.55389 6.71436C8.52489 6.71436 8.50139 6.73674 8.50139 6.76436C8.50139 6.79197 8.52489 6.81436 8.55389 6.81436Z" fill="white"/>
<path d="M7.41288 7.58104C7.41225 7.65139 7.43978 7.71934 7.48988 7.77104C7.51326 7.79593 7.54183 7.8159 7.57377 7.82968C7.60571 7.84346 7.64032 7.85073 7.67538 7.85104C7.74888 7.85104 7.81538 7.81771 7.86088 7.77104C7.91098 7.71934 7.93852 7.65139 7.93788 7.58104V7.22104H7.41288V7.58104Z" fill="#003399"/>
<path d="M7.53541 7.40774C7.56441 7.40774 7.58791 7.38535 7.58791 7.35774C7.58791 7.33013 7.56441 7.30774 7.53541 7.30774C7.50642 7.30774 7.48291 7.33013 7.48291 7.35774C7.48291 7.38535 7.50642 7.40774 7.53541 7.40774Z" fill="white"/>
<path d="M7.82583 7.40774C7.85483 7.40774 7.87833 7.38535 7.87833 7.35774C7.87833 7.33013 7.85483 7.30774 7.82583 7.30774C7.79684 7.30774 7.77333 7.33013 7.77333 7.35774C7.77333 7.38535 7.79684 7.40774 7.82583 7.40774Z" fill="white"/>
<path d="M7.67887 7.54107C7.70787 7.54107 7.73137 7.51869 7.73137 7.49107C7.73137 7.46346 7.70787 7.44107 7.67887 7.44107C7.64988 7.44107 7.62637 7.46346 7.62637 7.49107C7.62637 7.51869 7.64988 7.54107 7.67887 7.54107Z" fill="white"/>
<path d="M7.53541 7.68105C7.56441 7.68105 7.58791 7.65867 7.58791 7.63105C7.58791 7.60344 7.56441 7.58105 7.53541 7.58105C7.50642 7.58105 7.48291 7.60344 7.48291 7.63105C7.48291 7.65867 7.50642 7.68105 7.53541 7.68105Z" fill="white"/>
<path d="M7.82583 7.68105C7.85483 7.68105 7.87833 7.65867 7.87833 7.63105C7.87833 7.60344 7.85483 7.58105 7.82583 7.58105C7.79684 7.58105 7.77333 7.60344 7.77333 7.63105C7.77333 7.65867 7.79684 7.68105 7.82583 7.68105Z" fill="white"/>
<path d="M8.86889 7.58104C8.86826 7.65139 8.89579 7.71934 8.94589 7.77104C8.96927 7.79593 8.99784 7.8159 9.02978 7.82968C9.06172 7.84346 9.09633 7.85073 9.13139 7.85104C9.20489 7.85104 9.27139 7.81771 9.31689 7.77104C9.36699 7.71934 9.39453 7.65139 9.39389 7.58104V7.22104H8.86889V7.58104Z" fill="#003399"/>
<path d="M8.99143 7.40774C9.02043 7.40774 9.04393 7.38535 9.04393 7.35774C9.04393 7.33013 9.02043 7.30774 8.99143 7.30774C8.96244 7.30774 8.93893 7.33013 8.93893 7.35774C8.93893 7.38535 8.96244 7.40774 8.99143 7.40774Z" fill="white"/>
<path d="M9.28187 7.40774C9.31087 7.40774 9.33437 7.38535 9.33437 7.35774C9.33437 7.33013 9.31087 7.30774 9.28187 7.30774C9.25288 7.30774 9.22937 7.33013 9.22937 7.35774C9.22937 7.38535 9.25288 7.40774 9.28187 7.40774Z" fill="white"/>
<path d="M9.13491 7.54107C9.16391 7.54107 9.18741 7.51869 9.18741 7.49107C9.18741 7.46346 9.16391 7.44107 9.13491 7.44107C9.10592 7.44107 9.08241 7.46346 9.08241 7.49107C9.08241 7.51869 9.10592 7.54107 9.13491 7.54107Z" fill="white"/>
<path d="M8.99143 7.68105C9.02043 7.68105 9.04393 7.65867 9.04393 7.63105C9.04393 7.60344 9.02043 7.58105 8.99143 7.58105C8.96244 7.58105 8.93893 7.60344 8.93893 7.63105C8.93893 7.65867 8.96244 7.68105 8.99143 7.68105Z" fill="white"/>
<path d="M9.28187 7.68105C9.31087 7.68105 9.33437 7.65867 9.33437 7.63105C9.33437 7.60344 9.31087 7.58105 9.28187 7.58105C9.25288 7.58105 9.22937 7.60344 9.22937 7.63105C9.22937 7.65867 9.25288 7.68105 9.28187 7.68105Z" fill="white"/>
<path d="M8.14096 8.44106C8.14032 8.51141 8.16786 8.57935 8.21796 8.63106C8.24133 8.65595 8.2699 8.67592 8.30184 8.6897C8.33379 8.70347 8.36839 8.71075 8.40346 8.71106C8.47696 8.71106 8.54346 8.67772 8.58896 8.63106C8.63906 8.57935 8.66659 8.51141 8.66596 8.44106V8.08105H8.14096V8.44106Z" fill="#003399"/>
<path d="M8.26345 8.26769C8.29245 8.26769 8.31595 8.24531 8.31595 8.21769C8.31595 8.19008 8.29245 8.16769 8.26345 8.16769C8.23446 8.16769 8.21095 8.19008 8.21095 8.21769C8.21095 8.24531 8.23446 8.26769 8.26345 8.26769Z" fill="white"/>
<path d="M8.55389 8.26769C8.58288 8.26769 8.60639 8.24531 8.60639 8.21769C8.60639 8.19008 8.58288 8.16769 8.55389 8.16769C8.52489 8.16769 8.50139 8.19008 8.50139 8.21769C8.50139 8.24531 8.52489 8.26769 8.55389 8.26769Z" fill="white"/>
<path d="M8.40693 8.40103C8.43593 8.40103 8.45943 8.37864 8.45943 8.35103C8.45943 8.32341 8.43593 8.30103 8.40693 8.30103C8.37794 8.30103 8.35443 8.32341 8.35443 8.35103C8.35443 8.37864 8.37794 8.40103 8.40693 8.40103Z" fill="white"/>
<path d="M8.26345 8.54104C8.29245 8.54104 8.31595 8.51865 8.31595 8.49104C8.31595 8.46343 8.29245 8.44104 8.26345 8.44104C8.23446 8.44104 8.21095 8.46343 8.21095 8.49104C8.21095 8.51865 8.23446 8.54104 8.26345 8.54104Z" fill="white"/>
<path d="M8.55389 8.54104C8.58288 8.54104 8.60639 8.51865 8.60639 8.49104C8.60639 8.46343 8.58288 8.44104 8.55389 8.44104C8.52489 8.44104 8.50139 8.46343 8.50139 8.49104C8.50139 8.51865 8.52489 8.54104 8.55389 8.54104Z" fill="white"/>
</g>
<defs>
<clipPath id="clip0_132_5376">
<rect width="21" height="15" rx="3" fill="white"/>
</clipPath>
</defs>
</svg>
