<svg width="21" height="15" viewBox="0 0 21 15" fill="none" xmlns="http://www.w3.org/2000/svg">
<g clip-path="url(#clip0_123_2026)">
<rect width="21" height="15" rx="3" fill="#249F58"/>
<path fill-rule="evenodd" clip-rule="evenodd" d="M0 7.49994H21V14.9999H0V7.49994Z" fill="#5EB6E4"/>
<path fill-rule="evenodd" clip-rule="evenodd" d="M0 -0.00012207H21V7.49988H0V-0.00012207Z" fill="white"/>
<path d="M10.4979 11.0068C10.4209 11.0037 8.60385 10.9183 7.69191 9.76897C7.16042 9.09929 7.05437 8.20855 7.37669 7.12152L7.50689 7.1542C7.19605 8.20277 7.29479 9.05761 7.80054 9.69534C8.67356 10.7963 10.4855 10.882 10.5038 10.8828L10.4979 11.0068Z" fill="#B46446"/>
<path d="M7.37474 6.63958C7.28516 6.85424 7.3056 7.07903 7.40933 7.24941C7.61042 7.18666 7.78911 7.03219 7.87874 6.81754C7.96831 6.60288 7.94788 6.37808 7.84414 6.2077C7.64301 6.27045 7.46432 6.42487 7.37474 6.63958Z" fill="#41AA5A"/>
<path d="M8.51324 9.60721C8.41378 9.75813 8.38768 9.96047 8.4614 10.1569C8.53018 10.3404 8.67217 10.4758 8.8367 10.5442C8.67685 10.4671 8.47355 10.4478 8.27401 10.5111C8.06046 10.5788 7.90334 10.7225 7.83539 10.8875C7.99946 10.9789 8.21939 11.003 8.43298 10.9352C8.64653 10.8675 8.80365 10.7238 8.8716 10.5588L8.8714 10.5587C8.97004 10.408 8.99588 10.2064 8.92247 10.0107C8.8488 9.81424 8.69271 9.66967 8.51324 9.60721Z" fill="#41AA5A"/>
<path d="M8.12389 9.05942C7.97048 9.16535 7.86422 9.34416 7.85295 9.55167C7.84239 9.74559 7.91925 9.9199 8.0442 10.0397C7.92708 9.91336 7.74622 9.82571 7.53556 9.816C7.30997 9.80558 7.10595 9.885 6.97601 10.0148C7.09118 10.156 7.28557 10.2537 7.51111 10.2641C7.7367 10.2745 7.94072 10.1951 8.07066 10.0652C8.07061 10.0652 8.07056 10.0651 8.07056 10.0651C8.2231 9.95901 8.32874 9.78086 8.34006 9.57407C8.35134 9.36656 8.26505 9.17885 8.12389 9.05942Z" fill="#41AA5A"/>
<path d="M7.9555 8.44177C7.76996 8.48662 7.59817 8.61533 7.50262 8.80351C7.41325 8.97944 7.41294 9.16753 7.47951 9.32186C7.42288 9.16421 7.29139 9.02026 7.10019 8.9381C6.8955 8.85016 6.67403 8.85281 6.50049 8.92796C6.54924 9.09863 6.68917 9.25665 6.89375 9.34454C7.09844 9.43248 7.31992 9.42983 7.49346 9.35468C7.49346 9.35468 7.49341 9.35453 7.49335 9.35449C7.67822 9.30922 7.84914 9.18093 7.94438 8.99336C8.04009 8.80527 8.03725 8.6014 7.9555 8.44177Z" fill="#41AA5A"/>
<path d="M8.05109 7.82893C7.86015 7.81146 7.65041 7.87709 7.48953 8.02289C7.33916 8.15918 7.26755 8.33539 7.27151 8.50137C7.27815 8.33548 7.20943 8.15838 7.06131 8.0201C6.90275 7.87207 6.69415 7.8036 6.503 7.81842C6.484 7.99406 6.55531 8.18688 6.71387 8.33496C6.87243 8.48304 7.08103 8.55147 7.27218 8.53664C7.27218 8.53664 7.27218 8.5365 7.27218 8.53636C7.46261 8.55317 7.67142 8.48778 7.83178 8.34244C7.99276 8.19669 8.06721 8.00476 8.05109 7.82893Z" fill="#41AA5A"/>
<path d="M8.18596 7.24562C8.00083 7.19931 7.78219 7.23213 7.59727 7.35141C7.42445 7.46293 7.32215 7.62579 7.29621 7.79016C7.33261 7.62754 7.29667 7.44248 7.17554 7.28356C7.04585 7.11346 6.85244 7.01415 6.66119 6.99966C6.61084 7.16995 6.64651 7.37107 6.7762 7.54116C6.90588 7.71126 7.09929 7.81057 7.29055 7.82506C7.29055 7.82496 7.29055 7.82491 7.29055 7.82491C7.47526 7.87042 7.69303 7.83765 7.87733 7.71875C8.06225 7.59941 8.1702 7.4215 8.18596 7.24562Z" fill="#41AA5A"/>
<path d="M8.23966 10.5931C8.3173 10.5931 8.38025 10.5352 8.38025 10.4638C8.38025 10.3923 8.3173 10.3344 8.23966 10.3344C8.16201 10.3344 8.09906 10.3923 8.09906 10.4638C8.09906 10.5352 8.16201 10.5931 8.23966 10.5931Z" fill="#FFE15A"/>
<path d="M8.88553 10.6655C8.96318 10.6655 9.02612 10.6076 9.02612 10.5362C9.02612 10.4648 8.96318 10.4069 8.88553 10.4069C8.80788 10.4069 8.74493 10.4648 8.74493 10.5362C8.74493 10.6076 8.80788 10.6655 8.88553 10.6655Z" fill="#FFE15A"/>
<path d="M7.8685 9.61568C7.94615 9.61568 8.0091 9.55777 8.0091 9.48635C8.0091 9.41493 7.94615 9.35703 7.8685 9.35703C7.79085 9.35703 7.72791 9.41493 7.72791 9.48635C7.72791 9.55777 7.79085 9.61568 7.8685 9.61568Z" fill="#FFE15A"/>
<path d="M6.97409 8.64302C7.05174 8.64302 7.11469 8.58512 7.11469 8.51369C7.11469 8.44227 7.05174 8.38437 6.97409 8.38437C6.89644 8.38437 6.8335 8.44227 6.8335 8.51369C6.8335 8.58512 6.89644 8.64302 6.97409 8.64302Z" fill="#FFE15A"/>
<path d="M7.59854 7.98475C7.67619 7.98475 7.73914 7.92685 7.73914 7.85543C7.73914 7.784 7.67619 7.7261 7.59854 7.7261C7.52089 7.7261 7.45795 7.784 7.45795 7.85543C7.45795 7.92685 7.52089 7.98475 7.59854 7.98475Z" fill="#FFE15A"/>
<path d="M7.36179 7.30949C7.43944 7.30949 7.50238 7.25159 7.50238 7.18017C7.50238 7.10874 7.43944 7.05084 7.36179 7.05084C7.28414 7.05084 7.22119 7.10874 7.22119 7.18017C7.22119 7.25159 7.28414 7.30949 7.36179 7.30949Z" fill="#FFE15A"/>
<path d="M10.5034 11.0069L10.4975 10.8827C10.5158 10.8821 12.3278 10.7962 13.2008 9.69528C13.7065 9.05765 13.8053 8.20271 13.4944 7.15413L13.6246 7.12146C13.9469 8.20848 13.8408 9.09927 13.3094 9.76891C12.3975 10.9183 10.5804 11.0038 10.5034 11.0069Z" fill="#B46446"/>
<path d="M13.625 6.63958C13.7145 6.85424 13.6941 7.07903 13.5904 7.24941C13.3893 7.18666 13.2106 7.03219 13.121 6.81754C13.0314 6.60288 13.0518 6.37808 13.1555 6.2077C13.3566 6.27045 13.5353 6.42487 13.625 6.63958Z" fill="#41AA5A"/>
<path d="M12.4868 9.60721C12.5863 9.75813 12.6124 9.96047 12.5387 10.1569C12.4699 10.3404 12.3279 10.4758 12.1634 10.5442C12.3232 10.4671 12.5265 10.4478 12.7261 10.5111C12.9396 10.5788 13.0967 10.7225 13.1647 10.8875C13.0006 10.9789 12.7807 11.003 12.5671 10.9352C12.3536 10.8675 12.1964 10.7238 12.1285 10.5588C12.1285 10.5588 12.1286 10.5588 12.1286 10.5588C12.0301 10.4079 12.0043 10.2064 12.0777 10.0107C12.1513 9.81424 12.3074 9.66967 12.4868 9.60721Z" fill="#41AA5A"/>
<path d="M12.876 9.05942C13.0294 9.16535 13.1357 9.34416 13.147 9.55167C13.1575 9.74559 13.0807 9.9199 12.9557 10.0397C13.0728 9.91336 13.2537 9.82571 13.4643 9.816C13.6899 9.80558 13.894 9.885 14.0239 10.0148C13.9087 10.156 13.7143 10.2537 13.4888 10.2641C13.2632 10.2745 13.0591 10.1951 12.9292 10.0652C12.9293 10.0652 12.9293 10.0651 12.9293 10.0651C12.7768 9.95901 12.6711 9.78086 12.6598 9.57407C12.6485 9.36656 12.7349 9.17885 12.876 9.05942Z" fill="#41AA5A"/>
<path d="M13.0441 8.44177C13.2297 8.48662 13.4015 8.61533 13.497 8.80351C13.5864 8.97944 13.5867 9.16753 13.5201 9.32186C13.5768 9.16421 13.7082 9.02026 13.8994 8.9381C14.1041 8.85016 14.3256 8.85281 14.4991 8.92796C14.4504 9.09863 14.3105 9.25665 14.1059 9.34454C13.9012 9.43248 13.6797 9.42983 13.5062 9.35468C13.5062 9.35468 13.5062 9.35453 13.5063 9.35449C13.3214 9.30922 13.1505 9.18093 13.0553 8.99336C12.9595 8.80527 12.9624 8.6014 13.0441 8.44177Z" fill="#41AA5A"/>
<path d="M12.9489 7.82893C13.1399 7.81146 13.3496 7.87709 13.5105 8.02289C13.6609 8.15918 13.7325 8.33539 13.7285 8.50137C13.7219 8.33548 13.7906 8.15838 13.9387 8.0201C14.0973 7.87207 14.3059 7.8036 14.497 7.81842C14.516 7.99406 14.4447 8.18688 14.2862 8.33496C14.1276 8.48304 13.919 8.55147 13.7278 8.53664C13.7278 8.53664 13.7278 8.5365 13.7278 8.53636C13.5374 8.55317 13.3286 8.48778 13.1682 8.34244C13.0073 8.19669 12.9328 8.00476 12.9489 7.82893Z" fill="#41AA5A"/>
<path d="M12.8139 7.24562C12.999 7.19931 13.2177 7.23213 13.4026 7.35141C13.5754 7.46293 13.6777 7.62579 13.7037 7.79016C13.6673 7.62754 13.7032 7.44248 13.8243 7.28356C13.954 7.11346 14.1474 7.01415 14.3387 6.99966C14.389 7.16995 14.3533 7.37107 14.2237 7.54116C14.094 7.71126 13.9006 7.81057 13.7093 7.82506C13.7093 7.82496 13.7093 7.82491 13.7093 7.82491C13.5246 7.87042 13.3068 7.83765 13.1225 7.71875C12.9376 7.59941 12.8297 7.4215 12.8139 7.24562Z" fill="#41AA5A"/>
<path d="M12.7611 10.5931C12.8388 10.5931 12.9017 10.5352 12.9017 10.4638C12.9017 10.3923 12.8388 10.3344 12.7611 10.3344C12.6835 10.3344 12.6205 10.3923 12.6205 10.4638C12.6205 10.5352 12.6835 10.5931 12.7611 10.5931Z" fill="#FFE15A"/>
<path d="M12.1139 10.6655C12.1915 10.6655 12.2545 10.6076 12.2545 10.5362C12.2545 10.4648 12.1915 10.4069 12.1139 10.4069C12.0362 10.4069 11.9733 10.4648 11.9733 10.5362C11.9733 10.6076 12.0362 10.6655 12.1139 10.6655Z" fill="#FFE15A"/>
<path d="M13.1316 9.61568C13.2093 9.61568 13.2722 9.55777 13.2722 9.48635C13.2722 9.41493 13.2093 9.35703 13.1316 9.35703C13.054 9.35703 12.991 9.41493 12.991 9.48635C12.991 9.55777 13.054 9.61568 13.1316 9.61568Z" fill="#FFE15A"/>
<path d="M14.0258 8.64302C14.1035 8.64302 14.1664 8.58512 14.1664 8.51369C14.1664 8.44227 14.1035 8.38437 14.0258 8.38437C13.9482 8.38437 13.8853 8.44227 13.8853 8.51369C13.8853 8.58512 13.9482 8.64302 14.0258 8.64302Z" fill="#FFE15A"/>
<path d="M13.402 7.98475C13.4797 7.98475 13.5426 7.92685 13.5426 7.85543C13.5426 7.784 13.4797 7.7261 13.402 7.7261C13.3244 7.7261 13.2614 7.784 13.2614 7.85543C13.2614 7.92685 13.3244 7.98475 13.402 7.98475Z" fill="#FFE15A"/>
<path d="M13.6387 7.30949C13.7164 7.30949 13.7793 7.25159 13.7793 7.18017C13.7793 7.10874 13.7164 7.05084 13.6387 7.05084C13.5611 7.05084 13.4981 7.10874 13.4981 7.18017C13.4981 7.25159 13.5611 7.30949 13.6387 7.30949Z" fill="#FFE15A"/>
<path d="M10.1415 12.0002C10.1314 12.0002 10.1211 11.9981 10.1115 11.9935C10.0781 11.9783 10.0646 11.941 10.0812 11.9103L10.4411 11.2482C10.4578 11.2178 10.4983 11.2051 10.5316 11.2206C10.565 11.2358 10.5785 11.2731 10.5618 11.3038L10.202 11.9659C10.1901 11.9876 10.1663 12.0002 10.1415 12.0002Z" fill="#B46446"/>
<path d="M10.8614 11.9999C10.8366 11.9999 10.8128 11.9874 10.8009 11.9657L10.4411 11.3036C10.4244 11.2729 10.4379 11.2355 10.4713 11.2203C10.5046 11.2047 10.5451 11.2174 10.5618 11.248L10.9217 11.9101C10.9383 11.9408 10.9248 11.9781 10.8914 11.9933C10.8817 11.9979 10.8715 11.9999 10.8614 11.9999Z" fill="#B46446"/>
<path d="M11.2921 6.66269H9.67941C9.17742 6.66269 8.77051 7.03698 8.77051 7.49873V8.80548C8.77051 9.26729 9.17742 9.64153 9.67941 9.64153H11.2921C11.794 9.64153 12.201 9.26729 12.201 8.80548V7.49873C12.201 7.03698 11.7941 6.66269 11.2921 6.66269Z" fill="#8CD7FF"/>
<path d="M10.7519 7.79987V7.96542H10.572V7.79987H10.4334V7.96542H10.2535V7.79987H10.1409V8.13092L10.2309 8.23576V9.45505H10.7707V8.23576L10.8606 8.13092V7.79987H10.7519Z" fill="#F5F5F5"/>
<path d="M10.5269 7.27578C10.616 7.2361 10.6394 7.4034 10.6394 7.4034C10.8269 7.31717 10.778 7.17724 10.7332 7.11032C10.6732 7.02064 10.4333 6.98616 10.3321 7.17241C10.2309 7.35865 10.5046 7.72759 10.5046 7.72759C10.5194 7.61375 10.4107 7.32754 10.5269 7.27578Z" fill="#F5F5F5"/>
<path d="M11.6766 8.10849V8.27404H11.4967V8.10849H11.3581V8.27404H11.1782V8.10849H11.0656V8.43959L11.1556 8.54439V9.76368H11.6954V8.54439L11.7854 8.43959V8.10849H11.6766Z" fill="#F5F5F5"/>
<path d="M11.4521 7.5844C11.5411 7.54472 11.5646 7.71203 11.5646 7.71203C11.752 7.62579 11.7031 7.48586 11.6584 7.41895C11.5984 7.32926 11.3585 7.29478 11.2573 7.48103C11.1561 7.66728 11.4297 8.03621 11.4297 8.03621C11.4447 7.92237 11.336 7.63616 11.4521 7.5844Z" fill="#F5F5F5"/>
<path d="M9.82685 8.10849V8.27404H9.64687V8.10849H9.50834V8.27404H9.32841V8.10849H9.21582V8.43959L9.30581 8.54439V9.76368H9.84564V8.54439L9.93563 8.43959V8.10849H9.82685Z" fill="#F5F5F5"/>
<path d="M9.6019 7.5844C9.69091 7.54472 9.71438 7.71203 9.71438 7.71203C9.90183 7.62579 9.85292 7.48586 9.80813 7.41895C9.74816 7.32926 9.50825 7.29478 9.40704 7.48103C9.30583 7.66728 9.5795 8.03621 9.5795 8.03621C9.59448 7.92237 9.48576 7.63616 9.6019 7.5844Z" fill="#F5F5F5"/>
<path d="M11.9769 9.54335C11.8567 9.48871 11.7233 9.45509 11.5802 9.45509C11.4268 9.45509 11.2846 9.49368 11.1582 9.55595C10.9939 9.3931 10.7611 9.28958 10.5005 9.28958C10.2398 9.28958 10.0071 9.3931 9.84276 9.55595C9.71638 9.49368 9.57419 9.45509 9.42082 9.45509C9.27765 9.45509 9.14421 9.48871 9.02411 9.54335C9.281 9.97674 9.77296 10.6771 10.5005 10.9447C11.228 10.6771 11.72 9.97674 11.9769 9.54335Z" fill="#6EC86E"/>
<path d="M10.4937 3.99688L10.5023 3.99313C10.5023 3.99313 10.4994 3.99376 10.4937 3.99688Z" fill="#FFE15A"/>
<path d="M10.5016 3.99313L10.5103 3.99688C10.5044 3.99376 10.5016 3.99313 10.5016 3.99313Z" fill="#FFE15A"/>
<path d="M12.228 4.70172C12.1773 4.4328 11.8006 4.3862 11.3676 4.36034C10.9346 4.33449 10.7491 4.1069 10.7491 4.1069H10.2542C10.2542 4.1069 10.0686 4.33449 9.63567 4.36034C9.20271 4.3862 8.82592 4.43275 8.77531 4.70172C8.7247 4.97065 9.09583 5.39481 9.09583 5.39481L9.42197 5.15173C9.42197 5.15173 9.02273 4.80003 9.21949 4.67071C9.41383 4.54299 9.98049 4.63145 10.2328 4.32488C10.2222 4.38895 10.2259 4.46803 10.2691 4.56548C10.3516 4.75173 10.3216 4.98618 10.3216 4.98618H10.5016H10.6816C10.6816 4.98618 10.6515 4.75168 10.7341 4.56548C10.7773 4.46803 10.7811 4.38885 10.7703 4.32488C11.0227 4.63145 11.5894 4.54299 11.7837 4.67071C11.9805 4.80003 11.5812 5.15173 11.5812 5.15173L11.9073 5.39481C11.9074 5.39481 12.2786 4.97065 12.228 4.70172Z" fill="#FFE15A"/>
<path d="M10.6853 3.17587H10.5915V3.08278C10.5915 3.03703 10.5513 3 10.5015 3C10.4518 3 10.4116 3.03703 10.4116 3.08278V3.17587H10.314C10.2643 3.17587 10.2241 3.21291 10.2241 3.25865C10.2241 3.30439 10.2643 3.34143 10.314 3.34143H10.4116V3.57933C10.4116 3.62508 10.4518 3.66211 10.5015 3.66211C10.5513 3.66211 10.5915 3.62508 10.5915 3.57933V3.34143H10.6853C10.735 3.34143 10.7753 3.30439 10.7753 3.25865C10.7753 3.21291 10.735 3.17587 10.6853 3.17587Z" fill="#FFE15A"/>
<path d="M10.5002 3.82765C10.5996 3.82765 10.6802 3.75353 10.6802 3.6621C10.6802 3.57067 10.5996 3.49655 10.5002 3.49655C10.4008 3.49655 10.3203 3.57067 10.3203 3.6621C10.3203 3.75353 10.4008 3.82765 10.5002 3.82765Z" fill="#FFF0E1"/>
<path d="M9.21109 6.99307C9.28358 7.02636 9.36822 7.05515 9.45476 7.05515C9.75288 7.05515 9.89899 6.90006 9.89899 6.62583C9.89899 6.3516 9.71911 6.14481 9.42104 6.14481C9.42104 6.14481 9.38742 6.14533 9.33357 6.1529C9.32198 6.15461 9.3105 6.15622 9.29918 6.15859C9.01258 6.20888 8.3043 6.45176 8.16144 7.63444C7.96175 9.28768 9.42104 10.7793 10.5007 11.1103V10.9447C10.5006 10.9448 7.9515 9.15168 9.21109 6.99307Z" fill="#FFC75A"/>
<path d="M9.4212 6.31027L10.5009 6.64133L9.4212 6.97234V6.31027Z" fill="#FFC75A"/>
<path d="M11.5805 6.97234L10.5009 6.64133L11.5805 6.31027V6.97234Z" fill="#FFE15A"/>
<path d="M8.34029 7.65274C8.4692 6.58546 9.07735 6.36602 9.33933 6.31994C9.34505 6.31876 9.35092 6.31795 9.3608 6.31649C9.39375 6.31185 9.41645 6.31057 9.42356 6.31028C9.62083 6.31151 9.75093 6.44823 9.75093 6.61373C9.75093 6.79624 9.63468 6.86542 9.51854 6.86888C9.51854 6.86888 9.61229 6.68955 9.42104 6.64129C9.29202 6.60866 9.12867 6.70337 9.14365 6.87574C9.15421 6.99692 9.27926 7.11365 9.42104 7.11365C9.71916 7.11365 9.96087 6.91547 9.96087 6.64124C9.96087 6.36701 9.71916 6.14468 9.42104 6.14468C9.42104 6.14468 9.38742 6.1452 9.33357 6.15278C9.32199 6.15449 9.31051 6.1561 9.29918 6.15846C9.01258 6.20875 8.3043 6.45164 8.16144 7.63432C7.96175 9.28756 9.42104 10.7791 10.5007 11.1101V10.9446C10.5007 10.9446 10.1183 10.7687 9.85693 10.5979C9.04924 10.0702 8.19449 8.85981 8.34029 7.65274Z" fill="#FFE15A"/>
<path d="M11.7895 6.99304C11.7171 7.02633 11.6324 7.05512 11.5459 7.05512C11.2478 7.05512 11.1017 6.90003 11.1017 6.6258C11.1017 6.35157 11.2815 6.14478 11.5796 6.14478C11.5796 6.14478 11.6132 6.1453 11.6671 6.15287C11.6787 6.15458 11.6901 6.15619 11.7015 6.15856C11.9881 6.20885 12.6963 6.45173 12.8392 7.63441C13.0389 9.28765 11.5796 10.7792 10.4999 11.1102V10.9447C10.4999 10.9447 13.0491 9.15165 11.7895 6.99304Z" fill="#FFC75A"/>
<path d="M11.5796 6.31024L10.4999 6.6413L11.5796 6.97231V6.31024Z" fill="#FFC75A"/>
<path d="M12.6607 7.65271C12.5318 6.58543 11.9236 6.36599 11.6616 6.31991C11.6559 6.31873 11.6501 6.31792 11.6402 6.31646C11.6072 6.31182 11.5845 6.31054 11.5774 6.31025C11.3801 6.31148 11.25 6.4482 11.25 6.6137C11.25 6.79621 11.3663 6.86539 11.4824 6.86885C11.4824 6.86885 11.3887 6.68952 11.5799 6.64126C11.7089 6.60863 11.8723 6.70334 11.8573 6.87571C11.8468 6.99689 11.7217 7.11362 11.5799 7.11362C11.2818 7.11362 11.0401 6.91544 11.0401 6.64121C11.0401 6.36698 11.2818 6.14465 11.5799 6.14465C11.5799 6.14465 11.6136 6.14517 11.6674 6.15275C11.679 6.15446 11.6905 6.15607 11.7018 6.15843C11.9884 6.20872 12.6967 6.45161 12.8395 7.63429C13.0392 9.28753 11.5799 10.7791 10.5003 11.1101V10.9446C10.5003 10.9446 10.8826 10.7687 11.144 10.5979C11.9518 10.0702 12.8065 8.85978 12.6607 7.65271Z" fill="#FFE15A"/>
<path d="M10.5002 6.80721C10.5996 6.80721 10.6801 6.73309 10.6801 6.64166C10.6801 6.55022 10.5996 6.4761 10.5002 6.4761C10.4008 6.4761 10.3202 6.55022 10.3202 6.64166C10.3202 6.73309 10.4008 6.80721 10.5002 6.80721Z" fill="#FFE15A"/>
<path d="M11.7854 5.31198C11.8332 5.19818 11.7686 5.04561 11.7686 5.04561C11.6027 5.04044 11.4874 5.15163 11.4874 5.15163C11.5015 5.01459 11.4368 4.89043 11.4368 4.89043C11.2231 4.91368 11.1528 5.03012 11.1528 5.03012C11.1416 4.81546 11.001 4.72753 11.001 4.72753C10.8154 4.77924 10.7592 4.96544 10.7592 4.96544C10.7311 4.75338 10.5006 4.65512 10.5006 4.65512C10.5006 4.65512 10.27 4.75343 10.2419 4.96544C10.2419 4.96544 10.1857 4.77919 10.0002 4.72753C10.0002 4.72753 9.85958 4.81546 9.8483 5.03012C9.8483 5.03012 9.77803 4.91377 9.56433 4.89043C9.56433 4.89043 9.49967 5.01459 9.51372 5.15163C9.51372 5.15163 9.39846 5.04044 9.23259 5.04561C9.23259 5.04561 9.16793 5.19818 9.2157 5.31198C9.2157 5.31198 9.02733 5.25771 8.87268 5.34039C8.87268 5.34039 9.15614 5.44125 9.2506 5.56537H11.7506C11.845 5.44121 12.1285 5.34039 12.1285 5.34039C11.9739 5.25766 11.7854 5.31198 11.7854 5.31198Z" fill="#FFC75A"/>
<path d="M11.7505 5.56548C11.7505 5.63992 11.5614 5.87016 11.5614 5.87016C11.5614 5.87016 10.948 5.94867 10.5006 5.94867C10.0502 5.94867 9.43547 5.86798 9.43547 5.86798C9.43547 5.86798 9.25055 5.63902 9.25055 5.56539C9.25055 5.35371 9.8102 5.1821 10.5005 5.1821C11.1909 5.18215 11.7505 5.35381 11.7505 5.56548Z" fill="#FFE15A"/>
<path d="M10.5001 6.14493C11.0966 6.14493 11.5801 5.99673 11.5801 5.81392C11.5801 5.63111 11.0966 5.48291 10.5001 5.48291C9.90372 5.48291 9.42023 5.63111 9.42023 5.81392C9.42023 5.99673 9.90372 6.14493 10.5001 6.14493Z" fill="#FFC75A"/>
<path d="M10.7648 3.97756C10.7648 3.86893 10.6768 3.73098 10.5006 3.82754C10.3244 3.73098 10.2363 3.86893 10.2363 3.97756C10.2363 4.08619 10.1014 4.10172 10.0845 4.09135C10.0845 4.09135 10.197 4.22584 10.3262 4.1379C10.3262 4.1379 10.3956 4.231 10.5005 4.231C10.6055 4.231 10.6749 4.1379 10.6749 4.1379C10.8043 4.22584 10.9167 4.09135 10.9167 4.09135C10.8998 4.10168 10.7648 4.08614 10.7648 3.97756Z" fill="#FFC75A"/>
<path d="M8.24442 11.6139L8.25457 11.6367L8.25455 11.6367L8.25449 11.6367L8.25424 11.6368L8.25322 11.6373L8.24918 11.6391L8.23377 11.6461C8.22048 11.6522 8.20148 11.661 8.17872 11.6717C8.13315 11.6933 8.07261 11.7228 8.0125 11.7547C7.95221 11.7867 7.89312 11.8208 7.85005 11.8513C7.83043 11.8653 7.81496 11.8779 7.80435 11.8888C8.45523 11.9417 9.10905 11.9144 9.74892 11.8099V11.2092C9.0861 11.3244 8.40776 11.3577 7.73211 11.3045C7.74601 11.3161 7.7638 11.3291 7.78472 11.343C7.83738 11.3781 7.90702 11.4174 7.97694 11.4543C8.04673 11.4911 8.11621 11.5253 8.16829 11.5504C8.19432 11.5629 8.21597 11.5731 8.23111 11.5801L8.24865 11.5883L8.25325 11.5904L8.25442 11.5909L8.25471 11.5911L8.25478 11.5911L8.2548 11.5911L8.24442 11.6139ZM8.24442 11.6139L8.25457 11.6367L8.30527 11.6142L8.2548 11.5911L8.24442 11.6139Z" fill="#F5F5F5" stroke="black" stroke-width="0.05"/>
<path d="M12.7606 11.6139L12.7504 11.6367L12.7504 11.6367L12.7505 11.6367L12.7508 11.6368L12.7518 11.6373L12.7558 11.6391L12.7712 11.6461C12.7845 11.6522 12.8035 11.661 12.8263 11.6717C12.8719 11.6933 12.9324 11.7228 12.9925 11.7547C13.0528 11.7867 13.1119 11.8208 13.155 11.8513C13.1746 11.8653 13.19 11.8779 13.2007 11.8888C12.5498 11.9417 11.896 11.9144 11.2561 11.8099V11.2092C11.9189 11.3244 12.5972 11.3577 13.2729 11.3045C13.259 11.3161 13.2412 11.3291 13.2203 11.343C13.1676 11.3781 13.098 11.4174 13.0281 11.4543C12.9583 11.4911 12.8888 11.5253 12.8367 11.5504C12.8107 11.5629 12.789 11.5731 12.7739 11.5801L12.7564 11.5883L12.7518 11.5904L12.7506 11.5909L12.7503 11.5911L12.7502 11.5911L12.7502 11.5911L12.7606 11.6139ZM12.7606 11.6139L12.7504 11.6367L12.6997 11.6142L12.7502 11.5911L12.7606 11.6139Z" fill="#F5F5F5" stroke="black" stroke-width="0.05"/>
<path d="M12.0957 11.3996V11.4002C11.0454 11.6134 9.95712 11.6134 8.90677 11.4002V11.3996V11.3985V11.3975V11.3964V11.3954V11.3943V11.3933V11.3922V11.3912V11.3901V11.389V11.388V11.3869V11.3858V11.3848V11.3837V11.3826V11.3815V11.3804V11.3793V11.3782V11.3771V11.376V11.3749V11.3738V11.3727V11.3716V11.3705V11.3694V11.3683V11.3672V11.366V11.3649V11.3638V11.3626V11.3615V11.3604V11.3592V11.3581V11.357V11.3558V11.3547V11.3535V11.3524V11.3512V11.35V11.3489V11.3477V11.3465V11.3454V11.3442V11.343V11.3419V11.3407V11.3395V11.3383V11.3371V11.3359V11.3348V11.3336V11.3324V11.3312V11.33V11.3288V11.3276V11.3264V11.3252V11.324V11.3227V11.3215V11.3203V11.3191V11.3179V11.3167V11.3154V11.3142V11.313V11.3117V11.3105V11.3093V11.308V11.3068V11.3056V11.3043V11.3031V11.3018V11.3006V11.2993V11.2981V11.2968V11.2956V11.2943V11.293V11.2918V11.2905V11.2893V11.288V11.2867V11.2854V11.2842V11.2829V11.2816V11.2803V11.2791V11.2778V11.2765V11.2752V11.2739V11.2726V11.2714V11.2701V11.2688V11.2675V11.2662V11.2649V11.2636V11.2623V11.261V11.2597V11.2584V11.2571V11.2558V11.2545V11.2531V11.2518V11.2505V11.2492V11.2479V11.2466V11.2452V11.2439V11.2426V11.2413V11.24V11.2386V11.2373V11.236V11.2346V11.2333V11.232V11.2306V11.2293V11.228V11.2266V11.2253V11.224V11.2226V11.2213V11.2199V11.2186V11.2172V11.2159V11.2145V11.2132V11.2118V11.2105V11.2091V11.2078V11.2064V11.2051V11.2037V11.2024V11.201V11.1997V11.1983V11.1969V11.1956V11.1942V11.1928V11.1915V11.1901V11.1888V11.1874V11.186V11.1847V11.1833V11.1819V11.1805V11.1792V11.1778V11.1764V11.1751V11.1737V11.1723V11.1709V11.1696V11.1682V11.1668V11.1654V11.164V11.1627V11.1613V11.1599V11.1585V11.1571V11.1558V11.1544V11.153V11.1516V11.1502V11.1488V11.1475V11.1461V11.1447V11.1433V11.1419V11.1405V11.1391V11.1377V11.1364V11.135V11.1336V11.1322V11.1308V11.1294V11.128V11.1266V11.1252V11.1239V11.1225V11.1211V11.1197V11.1183V11.1169V11.1155V11.1141V11.1127V11.1113V11.1099V11.1085V11.1072V11.1058V11.1044V11.103V11.1016V11.1002V11.0988V11.0974V11.096V11.0946V11.0932V11.0918V11.0904V11.0891V11.0877V11.0863V11.0849V11.0835V11.0821V11.0807V11.0793V11.0779V11.0765V11.0751V11.0737V11.0724V11.071V11.0696V11.0682V11.0668V11.0654V11.064V11.0626V11.0612V11.0599V11.0585V11.0571V11.0557V11.0543V11.0529V11.0515V11.0502V11.0488V11.0474V11.046V11.0446V11.0432V11.0419V11.0405V11.0391V11.0377V11.0363V11.035V11.0336V11.0322V11.0308V11.0295V11.0281V11.0267V11.0253V11.024V11.0226V11.0212V11.0198V11.0185V11.0171V11.0157V11.0144V11.013V11.0116V11.0103V11.0089V11.0075V11.0062V11.0048V11.0035V11.0021V11.0007V10.9994V10.998V10.9967V10.9953V10.9939V10.9926V10.9912V10.9899V10.9885V10.9872V10.9858V10.9845V10.9831V10.9818V10.9805V10.9791V10.9778V10.9764V10.9751V10.9738V10.9724V10.9711V10.9697V10.9684V10.9671V10.9657V10.9644V10.9631V10.9618V10.9604V10.9591V10.9578V10.9565V10.9551V10.9538V10.9525V10.9512V10.9499V10.9486V10.9473V10.9459V10.9446V10.9433V10.942V10.9407V10.9394V10.9381V10.9368V10.9355V10.9342V10.9329V10.9316V10.9303V10.929V10.9277V10.9265V10.9252V10.9239V10.9226V10.9213V10.92V10.9188V10.9175V10.9162V10.9149V10.9137V10.9124V10.9111V10.9099V10.9086V10.9074V10.9061V10.9048V10.9036V10.9023V10.9011V10.8998V10.8986V10.8973V10.8961V10.8948V10.8936V10.8924V10.8911V10.8899V10.8887V10.8874V10.8862V10.885V10.8837V10.8825V10.8813V10.8801V10.8789V10.8777V10.8764V10.8752V10.874V10.8728V10.8716V10.8704V10.8692V10.868V10.8668V10.8656V10.8645V10.8633V10.8621V10.8609V10.8597V10.8585V10.8574V10.8562V10.855V10.8539V10.8527V10.8515V10.8504V10.8492V10.848V10.8469V10.8457V10.8446V10.8435V10.8423V10.8412V10.84V10.8389V10.8378V10.8366V10.8355V10.8344V10.8333V10.8321V10.831V10.8299V10.8288V10.8277V10.8266V10.8255V10.8244V10.8233V10.8222V10.8211V10.82V10.8189V10.8178V10.8167V10.8157V10.8146V10.8135V10.8124V10.8114V10.8104C9.95729 11.0222 11.0452 11.0222 12.0957 10.8104V10.8114V10.8124V10.8135V10.8146V10.8157V10.8167V10.8178V10.8189V10.82V10.8211V10.8222V10.8233V10.8244V10.8255V10.8266V10.8277V10.8288V10.8299V10.831V10.8321V10.8333V10.8344V10.8355V10.8366V10.8378V10.8389V10.84V10.8412V10.8423V10.8435V10.8446V10.8458V10.8469V10.8481V10.8492V10.8504V10.8515V10.8527V10.8539V10.855V10.8562V10.8574V10.8586V10.8597V10.8609V10.8621V10.8633V10.8645V10.8657V10.8669V10.868V10.8692V10.8704V10.8716V10.8728V10.8741V10.8753V10.8765V10.8777V10.8789V10.8801V10.8813V10.8825V10.8838V10.885V10.8862V10.8875V10.8887V10.8899V10.8911V10.8924V10.8936V10.8949V10.8961V10.8974V10.8986V10.8998V10.9011V10.9024V10.9036V10.9049V10.9061V10.9074V10.9086V10.9099V10.9112V10.9124V10.9137V10.915V10.9163V10.9175V10.9188V10.9201V10.9214V10.9226V10.9239V10.9252V10.9265V10.9278V10.9291V10.9304V10.9317V10.9329V10.9342V10.9355V10.9368V10.9381V10.9394V10.9407V10.9421V10.9434V10.9447V10.946V10.9473V10.9486V10.9499V10.9512V10.9525V10.9539V10.9552V10.9565V10.9578V10.9592V10.9605V10.9618V10.9631V10.9645V10.9658V10.9671V10.9685V10.9698V10.9711V10.9725V10.9738V10.9751V10.9765V10.9778V10.9792V10.9805V10.9818V10.9832V10.9845V10.9859V10.9872V10.9886V10.9899V10.9913V10.9926V10.994V10.9953V10.9967V10.9981V10.9994V11.0008V11.0021V11.0035V11.0049V11.0062V11.0076V11.0089V11.0103V11.0117V11.013V11.0144V11.0158V11.0172V11.0185V11.0199V11.0213V11.0226V11.024V11.0254V11.0268V11.0281V11.0295V11.0309V11.0323V11.0336V11.035V11.0364V11.0378V11.0392V11.0405V11.0419V11.0433V11.0447V11.0461V11.0474V11.0488V11.0502V11.0516V11.053V11.0544V11.0558V11.0571V11.0585V11.0599V11.0613V11.0627V11.0641V11.0655V11.0669V11.0682V11.0696V11.071V11.0724V11.0738V11.0752V11.0766V11.078V11.0794V11.0808V11.0821V11.0835V11.0849V11.0863V11.0877V11.0891V11.0905V11.0919V11.0933V11.0947V11.0961V11.0975V11.0989V11.1002V11.1016V11.103V11.1044V11.1058V11.1072V11.1086V11.11V11.1114V11.1128V11.1142V11.1156V11.117V11.1183V11.1197V11.1211V11.1225V11.1239V11.1253V11.1267V11.1281V11.1295V11.1309V11.1322V11.1336V11.135V11.1364V11.1378V11.1392V11.1406V11.142V11.1434V11.1447V11.1461V11.1475V11.1489V11.1503V11.1517V11.153V11.1544V11.1558V11.1572V11.1586V11.16V11.1613V11.1627V11.1641V11.1655V11.1669V11.1682V11.1696V11.171V11.1724V11.1737V11.1751V11.1765V11.1779V11.1792V11.1806V11.182V11.1833V11.1847V11.1861V11.1874V11.1888V11.1902V11.1915V11.1929V11.1943V11.1956V11.197V11.1983V11.1997V11.2011V11.2024V11.2038V11.2051V11.2065V11.2078V11.2092V11.2105V11.2119V11.2133V11.2146V11.2159V11.2173V11.2186V11.22V11.2213V11.2227V11.224V11.2253V11.2267V11.228V11.2294V11.2307V11.232V11.2334V11.2347V11.236V11.2374V11.2387V11.24V11.2413V11.2427V11.244V11.2453V11.2466V11.2479V11.2492V11.2506V11.2519V11.2532V11.2545V11.2558V11.2571V11.2584V11.2597V11.261V11.2623V11.2636V11.2649V11.2662V11.2675V11.2688V11.2701V11.2714V11.2727V11.274V11.2753V11.2766V11.2778V11.2791V11.2804V11.2817V11.2829V11.2842V11.2855V11.2868V11.288V11.2893V11.2906V11.2918V11.2931V11.2943V11.2956V11.2969V11.2981V11.2994V11.3006V11.3019V11.3031V11.3044V11.3056V11.3068V11.3081V11.3093V11.3105V11.3118V11.313V11.3142V11.3155V11.3167V11.3179V11.3191V11.3204V11.3216V11.3228V11.324V11.3252V11.3264V11.3276V11.3288V11.33V11.3312V11.3324V11.3336V11.3348V11.336V11.3372V11.3384V11.3395V11.3407V11.3419V11.3431V11.3442V11.3454V11.3466V11.3477V11.3489V11.3501V11.3512V11.3524V11.3535V11.3547V11.3558V11.357V11.3581V11.3593V11.3604V11.3615V11.3627V11.3638V11.3649V11.3661V11.3672V11.3683V11.3694V11.3705V11.3716V11.3728V11.3739V11.375V11.3761V11.3772V11.3783V11.3793V11.3804V11.3815V11.3826V11.3837V11.3848V11.3858V11.3869V11.388V11.3891V11.3901V11.3912V11.3922V11.3933V11.3943V11.3954V11.3964V11.3975V11.3985V11.3996Z" fill="#F5F5F5" stroke="black" stroke-width="0.05"/>
<path d="M9.5 11.3826V11.0533H9.55349V11.3303H9.70208V11.3826H9.5Z" fill="black"/>
<path d="M9.74664 11.3977V11.0685H9.80311V11.3977H9.74664Z" fill="black"/>
<path d="M9.99333 11.4223H9.89526V11.0993L9.99036 11.0931C10.024 11.0931 10.0488 11.1003 10.0647 11.1146C10.0845 11.1311 10.0944 11.1526 10.0944 11.1793C10.0944 11.2039 10.0815 11.2244 10.0557 11.2408C10.0954 11.2552 10.1152 11.2849 10.1152 11.33C10.1152 11.3608 10.1033 11.3844 10.0795 11.4008C10.0597 11.4172 10.032 11.4254 9.9963 11.4254L9.99333 11.4223ZM9.9547 11.1423V11.2193H9.98442C10.0181 11.2193 10.0349 11.2049 10.0349 11.1762C10.0349 11.1536 10.0181 11.1423 9.98442 11.1423H9.9547ZM9.9547 11.2654V11.3731H9.98442C10.0082 11.3731 10.025 11.369 10.0349 11.3608C10.0488 11.3546 10.0557 11.3413 10.0557 11.3208C10.0557 11.3003 10.0508 11.287 10.0409 11.2808C10.031 11.2705 10.0122 11.2654 9.98442 11.2654H9.9547Z" fill="black"/>
<path d="M10.2489 11.1608V11.2439H10.3499V11.2962H10.2489V11.3916H10.3975V11.4439H10.1924V11.1147H10.3916V11.167L10.2489 11.1608Z" fill="black"/>
<path d="M10.6531 11.45L10.5699 11.3116H10.5283V11.45H10.4748V11.1208H10.5105L10.558 11.1147C10.6412 11.1147 10.6828 11.1475 10.6828 11.2131C10.6828 11.2336 10.6779 11.2511 10.668 11.2654C10.6541 11.2818 10.6392 11.2931 10.6234 11.2993L10.7214 11.45H10.6531ZM10.5283 11.1731V11.2593H10.555L10.6026 11.2531C10.6164 11.247 10.6234 11.2336 10.6234 11.2131C10.6234 11.1967 10.6184 11.1844 10.6085 11.1762C10.5947 11.17 10.5748 11.167 10.5491 11.167H10.5283V11.1731Z" fill="black"/>
<path d="M10.8818 11.1608V11.4377H10.8224V11.1608H10.7214V11.1116H10.9859V11.1608H10.8818Z" fill="black"/>
<path d="M11.2028 11.3917L11.179 11.3271H11.0691L11.0483 11.3917H10.9859L11.1137 11.0594H11.1374L11.2682 11.3917H11.2028ZM11.1226 11.161L11.0899 11.284H11.1642L11.1226 11.161Z" fill="black"/>
<path d="M11.3128 11.367L11.3306 11.3147C11.3544 11.329 11.3762 11.3362 11.396 11.3362C11.4297 11.3362 11.4465 11.3239 11.4465 11.2993L11.4346 11.2685L11.3871 11.2347L11.3366 11.2039L11.3158 11.1731L11.3128 11.1362C11.3128 11.1095 11.3207 11.087 11.3366 11.0685C11.3564 11.0562 11.3792 11.05 11.4049 11.05C11.4426 11.05 11.4713 11.0562 11.4911 11.0685L11.4703 11.1208C11.4505 11.1044 11.4287 11.0962 11.4049 11.0962C11.393 11.0962 11.3831 11.0993 11.3752 11.1054C11.3693 11.1116 11.3663 11.1218 11.3663 11.1362C11.3663 11.1526 11.3861 11.1711 11.4257 11.1916C11.4495 11.2018 11.4663 11.2121 11.4763 11.2224L11.4941 11.2531L11.5 11.2962C11.5 11.3229 11.4901 11.3444 11.4703 11.3608C11.4505 11.3772 11.4238 11.3865 11.3901 11.3885C11.3584 11.3885 11.3326 11.3793 11.3128 11.3608V11.367Z" fill="black"/>
</g>
<defs>
<clipPath id="clip0_123_2026">
<rect width="21" height="15" rx="3" fill="white"/>
</clipPath>
</defs>
</svg>
