<svg width="21" height="15" viewBox="0 0 21 15" fill="none" xmlns="http://www.w3.org/2000/svg">
<g clip-path="url(#clip0_132_5514)">
<path fill-rule="evenodd" clip-rule="evenodd" d="M0 0H21V15H0V0Z" fill="white"/>
<path fill-rule="evenodd" clip-rule="evenodd" d="M0 0H21V7.5H0V0Z" fill="#DF0000"/>
<path fill-rule="evenodd" clip-rule="evenodd" d="M4.79065 1.25632C4.16911 1.38352 3.61246 1.71051 3.21414 2.18238C2.81582 2.65425 2.60009 3.24227 2.60317 3.84771C2.60625 4.45316 2.82795 5.03916 3.23105 5.50733C3.63415 5.97551 4.1941 6.29734 4.8169 6.41881C4.46011 6.51714 4.08646 6.54742 3.71737 6.50791C3.34827 6.4684 2.991 6.35989 2.66604 6.1886C2.34107 6.0173 2.05481 5.7866 1.82367 5.50971C1.59253 5.23282 1.42105 4.9152 1.31908 4.57507C1.11655 3.89134 1.20651 3.15906 1.56929 2.53833C1.93207 1.9176 2.53815 1.45891 3.25502 1.26257C3.78002 1.11882 4.26565 1.11569 4.79393 1.25632H4.79065Z" fill="white"/>
<path fill-rule="evenodd" clip-rule="evenodd" d="M4.36407 3.43754L4.52485 3.90629L4.09829 3.61879L3.67829 3.91254L3.83251 3.43754L3.41251 3.14691L3.93422 3.14066L4.09829 2.67191L4.26235 3.14066H4.78079L4.36407 3.43754ZM4.93829 5.06254L5.10235 5.53441L4.67579 5.24691L4.25251 5.53754L4.41001 5.06566L3.99001 4.77191L4.51172 4.76879L4.67251 4.29691L4.83657 4.76566H5.36157L4.93829 5.06254ZM6.85782 5.05004L7.0186 5.52504L6.59204 5.23441L6.17204 5.52504L6.32626 5.05316L5.90626 4.76254L6.42797 4.75629L6.59204 4.28754L6.7561 4.75629H7.27454L6.85782 5.05004ZM7.42876 3.43754L7.58954 3.90941L7.16297 3.62191L6.74297 3.91254L6.90047 3.44066L6.47719 3.14691L7.00219 3.14379L7.15969 2.67191L7.32376 3.14066H7.84876L7.42876 3.43754ZM5.90954 2.36566L6.0736 2.84066L5.64704 2.55004L5.22376 2.84379L5.38126 2.36879L4.96126 2.07504L5.47969 2.07191L5.64376 1.60004L5.80782 2.06879H6.33282L5.90954 2.36566Z" fill="white"/>
</g>
<defs>
<clipPath id="clip0_132_5514">
<rect width="21" height="15" rx="3" fill="white"/>
</clipPath>
</defs>
</svg>
