<svg width="21" height="15" viewBox="0 0 21 15" fill="none" xmlns="http://www.w3.org/2000/svg">
<g clip-path="url(#clip0_237_1711)">
<rect width="21" height="15" rx="3" fill="#1A47B8"/>
<path fill-rule="evenodd" clip-rule="evenodd" d="M0 15H21V0L0 15Z" fill="#FFDA2C"/>
<path fill-rule="evenodd" clip-rule="evenodd" d="M2 15H21V2L2 15Z" fill="#249F58"/>
<path fill-rule="evenodd" clip-rule="evenodd" d="M5.12207 5.658L4.50407 6L4.62207 5.276L4.12207 4.764L4.81207 4.658L5.12207 4L5.43207 4.658L6.12207 4.764L5.62207 5.276L5.74007 6L5.12207 5.658ZM3.12207 3.658L2.50407 4L2.62207 3.276L2.12207 2.764L2.81207 2.658L3.12207 2L3.43207 2.658L4.12207 2.764L3.62207 3.276L3.74007 4L3.12207 3.658ZM7.12207 3.658L6.50407 4L6.62207 3.276L6.12207 2.764L6.81207 2.658L7.12207 2L7.43207 2.658L8.12207 2.764L7.62207 3.276L7.74007 4L7.12207 3.658ZM7.12207 7.658L6.50407 8L6.62207 7.276L6.12207 6.764L6.81207 6.658L7.12207 6L7.43207 6.658L8.12207 6.764L7.62207 7.276L7.74007 8L7.12207 7.658ZM3.12207 7.658L2.50407 8L2.62207 7.276L2.12207 6.764L2.81207 6.658L3.12207 6L3.43207 6.658L4.12207 6.764L3.62207 7.276L3.74007 8L3.12207 7.658Z" fill="white"/>
</g>
<defs>
<clipPath id="clip0_237_1711">
<rect width="21" height="15" rx="3" fill="white"/>
</clipPath>
</defs>
</svg>
