<svg width="21" height="15" viewBox="0 0 21 15" fill="none" xmlns="http://www.w3.org/2000/svg">
<g clip-path="url(#clip0_237_1759)">
<rect width="21" height="15" rx="3" fill="#FFDA2C"/>
<path fill-rule="evenodd" clip-rule="evenodd" d="M0 11V15H21V11H0ZM0 0V4H21V0H0Z" fill="#00B731"/>
<path fill-rule="evenodd" clip-rule="evenodd" d="M10.5004 8.42L9.35544 9.023L9.57544 7.748L8.64844 6.845L9.92844 6.66L10.5004 5.5L11.0724 6.66L12.3524 6.845L11.4264 7.748L11.6464 9.023L10.5004 8.42ZM16.5004 8.42L15.3554 9.023L15.5754 7.748L14.6484 6.845L15.9284 6.66L16.5004 5.5L17.0724 6.66L18.3524 6.845L17.4264 7.748L17.6464 9.023" fill="#151515"/>
<path fill-rule="evenodd" clip-rule="evenodd" d="M0 0V15.033L7 7.5L0 0Z" fill="#F93939"/>
</g>
<defs>
<clipPath id="clip0_237_1759">
<rect width="21" height="15" rx="3" fill="white"/>
</clipPath>
</defs>
</svg>
