<svg width="21" height="15" viewBox="0 0 21 15" fill="none" xmlns="http://www.w3.org/2000/svg">
<g clip-path="url(#clip0_123_2108)">
<rect width="21" height="15" rx="3" fill="#249F58"/>
<path d="M0 0H21V15H0V0Z" fill="#FF0000"/>
<path d="M0 0H11.8125V7.5H0V0Z" fill="#000095"/>
<path d="M5.0531 3.96556L4.97107 4.26556L5.27951 4.34681L5.22044 4.12494L5.0531 3.96556ZM6.59201 4.12494L6.53294 4.34681L6.84138 4.26556L6.75935 3.96556L6.59201 4.12494ZM5.22044 3.37494L5.0531 3.53431L5.11544 3.74994L5.22044 3.37494Z" fill="white"/>
<path d="M5.11544 3.74994L5.0531 3.96556L5.22044 4.12494L5.11544 3.74994Z" fill="white"/>
<path d="M5.05313 3.5343L4.82672 3.74993L5.05313 3.96555L5.11547 3.74993L5.05313 3.5343ZM5.5125 4.40305L5.67985 4.56243L5.90625 4.50305L5.5125 4.40305ZM6.13266 4.56243L6.44766 4.64055L6.53297 4.3468L6.3 4.40305L6.13266 4.56243Z" fill="white"/>
<path d="M6.29998 4.40306L6.53295 4.34681L6.59201 4.12494L6.29998 4.40306ZM5.27951 4.34681L5.36482 4.64056L5.67982 4.56244L5.51248 4.40306L5.27951 4.34681ZM5.90623 4.50306L6.13264 4.56244L6.29998 4.40306L5.90623 4.50306Z" fill="white"/>
<path d="M5.67982 4.56242L5.90623 4.77805L6.13263 4.56242L5.90623 4.50305L5.67982 4.56242ZM5.27951 3.15305L4.97107 3.2343L5.0531 3.5343L5.22044 3.37492L5.27951 3.15305ZM5.22044 4.12492L5.27951 4.3468L5.51248 4.40305L5.22044 4.12492ZM6.69701 3.74992L6.75935 3.5343L6.59201 3.37492L6.69701 3.74992Z" fill="white"/>
<path d="M5.51249 3.09683L5.27952 3.15308L5.22046 3.37496L5.51249 3.09683ZM6.59202 3.37496L6.53296 3.15308L6.29999 3.09683L6.59202 3.37496ZM6.75937 3.96558L6.98577 3.74996L6.75937 3.53433L6.69702 3.74996L6.75937 3.96558Z" fill="white"/>
<path d="M6.59201 3.37492L6.29998 3.0968L5.90623 2.9968L5.51248 3.0968L5.22045 3.37492L5.11545 3.74992L5.22045 4.12492L5.51248 4.40305L5.90623 4.50305L6.29998 4.40305L6.59201 4.12492L6.69701 3.74992L6.59201 3.37492Z" fill="white"/>
<path d="M6.59201 4.12494L6.75935 3.96556L6.69701 3.74994L6.59201 4.12494ZM6.75935 3.53431L6.84139 3.23431L6.53295 3.15306L6.59201 3.37494L6.75935 3.53431ZM6.53295 3.15306L6.44764 2.85931L6.13264 2.93744L6.29998 3.09681L6.53295 3.15306ZM5.67982 2.93744L5.36482 2.85931L5.27951 3.15306L5.51248 3.09681L5.67982 2.93744ZM5.90623 2.99681L5.67982 2.93744L5.51248 3.09681L5.90623 2.99681Z" fill="white"/>
<path d="M6.13265 2.93743L5.90625 2.7218L5.67984 2.93743L5.90625 2.9968L6.13265 2.93743Z" fill="white"/>
<path d="M6.3 3.09681L6.13266 2.93744L5.90625 2.99681L6.3 3.09681ZM5.67985 4.56244L5.36485 4.64056L5.5125 5.15931L5.90625 4.77806L5.67985 4.56244ZM5.5125 5.15931L5.90625 6.56244L6.3 5.15931L5.90625 4.77806L5.5125 5.15931ZM5.27953 4.34681L4.9711 4.26556L4.82672 4.77806L5.36485 4.64056L5.27953 4.34681Z" fill="white"/>
<path d="M4.82671 4.77806L4.43296 6.18744L5.51249 5.15931L5.36483 4.64056L4.82671 4.77806ZM4.43296 4.12494L3.34686 5.15931L4.82671 4.77806L4.97108 4.26556L4.43296 4.12494Z" fill="white"/>
<path d="M5.05311 3.96553L4.8267 3.74991L4.43295 4.12491L4.97108 4.26553L5.05311 3.96553ZM5.05311 3.53428L4.97108 3.23428L4.43295 3.37491L4.8267 3.74991L5.05311 3.53428Z" fill="white"/>
<path d="M4.43297 3.37494L2.95312 3.74994L4.43297 4.12494L4.82672 3.74994L4.43297 3.37494ZM7.38609 4.12494L6.84141 4.26556L6.98578 4.77806L8.46563 5.15931L7.38609 4.12494Z" fill="white"/>
<path d="M6.53297 4.34681L6.44766 4.64056L6.98578 4.77806L6.84141 4.26556L6.53297 4.34681ZM6.13266 4.56244L5.90625 4.77806L6.3 5.15931L6.44766 4.64056L6.13266 4.56244ZM6.75937 3.96556L6.84141 4.26556L7.38609 4.12494L6.98578 3.74994L6.75937 3.96556Z" fill="white"/>
<path d="M6.29999 5.1593L7.38608 6.18743L6.98577 4.77805L6.44764 4.64055L6.29999 5.1593ZM6.53296 3.15305L6.84139 3.2343L6.98577 2.7218L6.44764 2.8593L6.53296 3.15305Z" fill="white"/>
<path d="M7.38608 3.37494L8.46561 2.34681L6.98577 2.72181L6.84139 3.23431L7.38608 3.37494ZM6.98577 2.72181L7.38608 1.31244L6.29999 2.34681L6.44764 2.85931L6.98577 2.72181ZM7.38608 4.12494L8.85936 3.74994L7.38608 3.37494L6.98577 3.74994L7.38608 4.12494Z" fill="white"/>
<path d="M6.75936 3.53431L6.98577 3.74994L7.38608 3.37494L6.84139 3.23431L6.75936 3.53431ZM5.51248 2.34681L4.43295 1.31244L4.8267 2.72181L5.36483 2.85931L5.51248 2.34681Z" fill="white"/>
<path d="M5.27953 3.15305L5.36485 2.8593L4.82672 2.7218L4.9711 3.2343L5.27953 3.15305Z" fill="white"/>
<path d="M4.82671 2.7218L3.34686 2.3468L4.43296 3.37493L4.97108 3.2343L4.82671 2.7218ZM6.13264 2.93743L6.44764 2.8593L6.29999 2.3468L5.90624 2.7218L6.13264 2.93743Z" fill="white"/>
<path d="M6.30001 2.34681L5.90626 0.937439L5.51251 2.34681L5.90626 2.72181L6.30001 2.34681Z" fill="white"/>
<path d="M5.67984 2.93743L5.90624 2.7218L5.51249 2.3468L5.36484 2.8593L5.67984 2.93743Z" fill="white"/>
<path d="M5.90627 5.34686C6.8323 5.34686 7.58299 4.63191 7.58299 3.74998C7.58299 2.86805 6.8323 2.15311 5.90627 2.15311C4.98025 2.15311 4.22955 2.86805 4.22955 3.74998C4.22955 4.63191 4.98025 5.34686 5.90627 5.34686Z" fill="#000095"/>
<path d="M5.9063 5.15936C6.72359 5.15936 7.38614 4.52836 7.38614 3.74998C7.38614 2.97161 6.72359 2.34061 5.9063 2.34061C5.089 2.34061 4.42645 2.97161 4.42645 3.74998C4.42645 4.52836 5.089 5.15936 5.9063 5.15936Z" fill="white"/>
</g>
<defs>
<clipPath id="clip0_123_2108">
<rect width="21" height="15" rx="3" fill="white"/>
</clipPath>
</defs>
</svg>
