<svg width="21" height="15" viewBox="0 0 21 15" fill="none" xmlns="http://www.w3.org/2000/svg">
<g clip-path="url(#clip0_123_3394)">
<path fill-rule="evenodd" clip-rule="evenodd" d="M0 0H21V1.15625H0V0ZM0 2.30938H21V3.46563H0V2.30938ZM0 4.61562H21V5.77187H0V4.61562ZM0 6.92188H21V8.07812H0V6.92188ZM0 9.23438H21V10.3844H0V9.23438ZM0 11.5375H21V12.6938H0V11.5375ZM0 13.8438H21V15H0V13.8438Z" fill="#BD3D44"/>
<path fill-rule="evenodd" clip-rule="evenodd" d="M-6.10352e-05 1.15625H20.9999V2.30938H-6.10352e-05V1.15625ZM-6.10352e-05 3.4625H20.9999V4.61562H-6.10352e-05V3.4625ZM-6.10352e-05 5.76875H20.9999V6.925H-6.10352e-05V5.76875ZM-6.10352e-05 8.07812H20.9999V9.23438H-6.10352e-05V8.07812ZM-6.10352e-05 10.3844H20.9999V11.5406H-6.10352e-05V10.3844ZM-6.10352e-05 12.6906H20.9999V13.8469H-6.10352e-05V12.6906Z" fill="white"/>
<path fill-rule="evenodd" clip-rule="evenodd" d="M0 0H11.97V8.07812H0V0Z" fill="#192F5D"/>
<path fill-rule="evenodd" clip-rule="evenodd" d="M0.997385 0.34375L1.10895 0.665625H1.45676L1.17457 0.8625L1.28285 1.18438L0.997385 0.984375L0.715198 1.18125L0.820198 0.8625L0.534729 0.665625H0.892385L0.997385 0.34375ZM2.99238 0.34375L3.10067 0.665625H3.45504L3.16957 0.8625L3.27457 1.18438L2.99238 0.984375L2.70692 1.18125L2.8152 0.8625L2.53301 0.665625H2.88082L2.99238 0.34375ZM4.98738 0.34375L5.09567 0.665625H5.44676L5.16457 0.8625L5.27285 1.18438L4.98738 0.984375L4.70192 1.18125L4.8102 0.8625L4.52473 0.665625H4.8791L4.98738 0.34375ZM6.98238 0.34375L7.09067 0.665625H7.44504L7.15957 0.8625L7.26785 1.18438L6.98238 0.984375L6.69692 1.18125L6.80848 0.8625L6.51973 0.665625H6.87082L6.98238 0.34375ZM8.97739 0.34375L9.08567 0.665625H9.43676L9.15457 0.8625L9.26285 1.18438L8.97739 0.984375L8.69192 1.18125L8.8002 0.8625L8.51801 0.665625H8.8691L8.97739 0.34375ZM10.9724 0.34375L11.0807 0.665625H11.435L11.1463 0.8625L11.2579 1.18438L10.9724 0.984375L10.6869 1.18125L10.7985 0.8625L10.5097 0.665625H10.8641L10.9724 0.34375ZM1.99489 1.15625L2.10317 1.475H2.46082L2.17535 1.66875L2.28035 1.99063L2.00145 1.79375L1.71598 1.99063L1.8177 1.66875L1.54207 1.475H1.89317L1.99489 1.15625ZM3.98989 1.15625L4.10145 1.475H4.45254L4.16379 1.66875L4.27535 1.99063L3.98989 1.79375L3.70442 1.99063L3.8127 1.66875L3.52723 1.475H3.8816L3.98989 1.15625ZM5.98488 1.15625L6.09317 1.475H6.44754L6.16207 1.66875L6.27035 1.99063L5.98488 1.79375L5.69942 1.99063L5.8077 1.66875L5.52551 1.475H5.87332L5.98488 1.15625ZM7.97988 1.15625L8.09145 1.475H8.44254L8.15379 1.66875L8.26535 1.99063L7.97988 1.79375L7.6977 1.99063L7.8027 1.66875L7.51723 1.475H7.87488L7.97988 1.15625ZM9.97489 1.15625L10.0832 1.475H10.4375L10.1521 1.66875L10.2604 1.99063L9.97489 1.79375L9.68942 1.99063L9.7977 1.66875L9.51551 1.475H9.8666L9.97489 1.15625ZM0.997385 1.95625L1.10895 2.28125H1.45676L1.17457 2.47813L1.28285 2.79688L0.997385 2.6L0.715198 2.79688L0.820198 2.47813L0.534729 2.28125H0.892385L0.997385 1.95625ZM2.99238 1.95625L3.10067 2.28125H3.45504L3.16957 2.47813L3.27457 2.79688L2.99238 2.6L2.70692 2.79688L2.8152 2.475L2.53301 2.27813H2.88082L2.99238 1.95625ZM4.98738 1.95625L5.09567 2.27813H5.44676L5.16457 2.475L5.27285 2.79375L4.98738 2.59687L4.70192 2.79375L4.8102 2.47187L4.52473 2.275H4.8791L4.98738 1.95625ZM6.98238 1.95625L7.09067 2.27813H7.44504L7.15957 2.475L7.26785 2.79375L6.98238 2.59687L6.69692 2.79375L6.80848 2.47187L6.51973 2.275H6.87082L6.98238 1.95625ZM8.97739 1.95625L9.08567 2.27813H9.43676L9.15457 2.475L9.26285 2.79375L8.97739 2.59687L8.69192 2.79375L8.8002 2.47187L8.51801 2.275H8.8691L8.97739 1.95625ZM10.9724 1.95625L11.0807 2.27813H11.435L11.1463 2.475L11.2579 2.79375L10.9724 2.59687L10.6869 2.79375L10.7985 2.47187L10.5097 2.275H10.8641L10.9724 1.95625ZM1.99489 2.76875L2.10317 3.0875H2.46082L2.17535 3.28437L2.28364 3.60625L1.99817 3.40625L1.7127 3.60313L1.82098 3.28437L1.53879 3.0875H1.88989L1.99489 2.76875ZM3.98989 2.76875L4.10145 3.0875H4.45254L4.16379 3.28437L4.27535 3.60625L3.98989 3.40625L3.70442 3.60313L3.8127 3.28437L3.52723 3.0875H3.8816L3.98989 2.76875ZM5.98488 2.76875L6.09317 3.0875H6.44754L6.16207 3.28437L6.27035 3.60625L5.98488 3.40625L5.69942 3.60313L5.8077 3.28437L5.52551 3.0875H5.87332L5.98488 2.76875ZM7.97988 2.76875L8.09145 3.0875H8.44254L8.15707 3.28437L8.26535 3.60625L7.97988 3.40625L7.6977 3.60313L7.8027 3.28437L7.51723 3.0875H7.87488L7.97988 2.76875ZM9.97489 2.76875L10.0832 3.0875H10.4375L10.1521 3.28437L10.2604 3.60625L9.97489 3.40625L9.68942 3.60313L9.7977 3.28437L9.51551 3.0875H9.8666L9.97489 2.76875ZM0.997385 3.57812L1.10895 3.89687H1.45676L1.17457 4.09375L1.28285 4.41563L0.997385 4.21562L0.715198 4.4125L0.820198 4.09375L0.534729 3.89687H0.892385L0.997385 3.57812ZM2.99238 3.57812L3.10067 3.89687H3.45504L3.16957 4.09375L3.27457 4.4125L2.99238 4.21562L2.70692 4.4125L2.8152 4.09375L2.53301 3.89687H2.88082L2.99238 3.57812ZM4.98738 3.57812L5.09567 3.89687H5.44676L5.16457 4.09375L5.27285 4.41563L4.98738 4.21562L4.70192 4.4125L4.8102 4.09375L4.52473 3.89687H4.8791L4.98738 3.57812ZM6.98238 3.57812L7.09067 3.89687H7.44504L7.15957 4.09375L7.26785 4.41563L6.98238 4.21562L6.69692 4.4125L6.80848 4.09375L6.51973 3.89687H6.87082L6.98238 3.57812ZM8.97739 3.57812L9.08567 3.89687H9.43676L9.15457 4.09375L9.26285 4.41563L8.97739 4.21562L8.69192 4.4125L8.8002 4.09375L8.51801 3.89687H8.8691L8.97739 3.57812ZM10.9724 3.57812L11.0807 3.89687H11.435L11.1463 4.09375L11.2579 4.41563L10.9724 4.21562L10.6869 4.4125L10.7952 4.09375L10.5064 3.89687H10.8608L10.9724 3.57812ZM1.99489 4.38438L2.10317 4.70625H2.46082L2.17535 4.9L2.28364 5.22188L1.99817 5.02187L1.7127 5.22188L1.82098 4.9L1.53879 4.70312H1.88989L1.99489 4.38438ZM3.98989 4.38438L4.10145 4.70625H4.45254L4.16379 4.9L4.27535 5.22188L3.98989 5.02187L3.70442 5.22188L3.8127 4.9L3.52723 4.70312H3.8816L3.98989 4.38438ZM5.98488 4.38438L6.09317 4.70625H6.44754L6.16207 4.9L6.27035 5.22188L5.98488 5.02187L5.69942 5.22188L5.8077 4.9L5.52551 4.70312H5.87332L5.98488 4.38438ZM7.97988 4.38438L8.09145 4.70625H8.44254L8.15707 4.9L8.26535 5.22188L7.97988 5.02187L7.6977 5.22188L7.8027 4.9L7.51723 4.70312H7.87488L7.97988 4.38438ZM9.97489 4.38438L10.0832 4.70625H10.4375L10.1521 4.9L10.2604 5.22188L9.97489 5.02187L9.68942 5.22188L9.7977 4.9L9.51551 4.70312H9.8666L9.97489 4.38438ZM0.997385 5.19063L1.10895 5.5125H1.45676L1.17457 5.70937L1.28285 6.025L0.997385 5.83125L0.715198 6.025L0.820198 5.70625L0.534729 5.50938H0.892385L0.997385 5.19063ZM2.99238 5.19063L3.10067 5.5125H3.45504L3.16957 5.70937L3.27785 6.025L2.99238 5.83125L2.70692 6.025L2.81848 5.70625L2.53301 5.50938H2.88082L2.99238 5.19063ZM4.98738 5.19063L5.09567 5.5125H5.44676L5.16457 5.70937L5.27285 6.025L4.98738 5.83125L4.70192 6.025L4.8102 5.70625L4.52473 5.50938H4.8791L4.98738 5.19063ZM6.98238 5.19063L7.09067 5.5125H7.44504L7.15957 5.70937L7.26785 6.025L6.98238 5.83125L6.69692 6.025L6.80848 5.70625L6.51973 5.50938H6.87082L6.98238 5.19063ZM8.97739 5.19063L9.08567 5.5125H9.43676L9.15457 5.70937L9.26285 6.025L8.97739 5.83125L8.69192 6.025L8.8002 5.70625L8.51801 5.50938H8.8691L8.97739 5.19063ZM10.9724 5.19063L11.0807 5.5125H11.435L11.1463 5.70937L11.2579 6.025L10.9724 5.83125L10.6869 6.025L10.7985 5.70625L10.5097 5.50938H10.8641L10.9724 5.19063ZM1.99489 6L2.10317 6.31875H2.46082L2.17535 6.51562L2.28364 6.8375L1.99817 6.6375L1.7127 6.83437L1.82098 6.51562L1.53879 6.31875H1.88989L1.99489 6ZM3.98989 6L4.10145 6.31875H4.45254L4.16379 6.51562L4.27535 6.8375L3.98989 6.6375L3.70442 6.83437L3.8127 6.51562L3.52723 6.31875H3.8816L3.98989 6ZM5.98488 6L6.09317 6.31875H6.44754L6.16207 6.51562L6.27035 6.8375L5.98488 6.6375L5.69942 6.83437L5.8077 6.51562L5.52551 6.31875H5.87332L5.98488 6ZM7.97988 6L8.09145 6.31875H8.44254L8.15707 6.51562L8.26535 6.8375L7.97988 6.6375L7.6977 6.83437L7.8027 6.51562L7.51723 6.31875H7.87488L7.97988 6ZM9.97489 6L10.0832 6.31875H10.4375L10.1521 6.51562L10.2604 6.8375L9.97489 6.6375L9.68942 6.83437L9.7977 6.51562L9.51551 6.31875H9.8666L9.97489 6ZM0.997385 6.80937L1.10895 7.12813H1.45676L1.17457 7.325L1.28285 7.64375L0.997385 7.44688L0.715198 7.64375L0.820198 7.32188L0.534729 7.125H0.892385L0.997385 6.80937ZM2.99238 6.80937L3.10067 7.12813H3.45504L3.16957 7.325L3.27785 7.64375L2.99238 7.44688L2.70692 7.64375L2.81848 7.32188L2.53301 7.125H2.88082L2.99238 6.80937ZM4.98738 6.80937L5.09567 7.12813H5.44676L5.17114 7.325L5.27942 7.64375L4.99395 7.44688L4.70848 7.64375L4.81676 7.32188L4.53129 7.125H4.88567L4.98738 6.80937ZM6.98238 6.80937L7.09067 7.12813H7.44504L7.15957 7.325L7.26785 7.64375L6.98238 7.44688L6.69692 7.64375L6.80848 7.32188L6.51973 7.125H6.87082L6.98238 6.80937ZM8.97739 6.80937L9.08567 7.12813H9.43676L9.15457 7.325L9.26285 7.64375L8.97739 7.44688L8.69192 7.64375L8.8002 7.32188L8.51801 7.125H8.8691L8.97739 6.80937ZM10.9724 6.80937L11.0807 7.12813H11.435L11.1463 7.325L11.2579 7.64375L10.9724 7.44688L10.6869 7.64375L10.7985 7.32188L10.5097 7.125H10.8641L10.9724 6.80937Z" fill="white"/>
</g>
<defs>
<clipPath id="clip0_123_3394">
<rect width="21" height="15" rx="3" fill="white"/>
</clipPath>
</defs>
</svg>
