<svg width="21" height="15" viewBox="0 0 21 15" fill="none" xmlns="http://www.w3.org/2000/svg">
<g clip-path="url(#clip0_123_3400)">
<path d="M0 0H21V15H0V0Z" fill="white"/>
<path d="M8.72806 1.66565H20.9999V3.3344H8.72806V1.66565ZM8.72806 5.00002H20.9999V6.66565H8.72806V5.00002ZM-6.10352e-05 8.3344H20.9999V10H-6.10352e-05V8.3344ZM-6.10352e-05 11.6657H20.9999V13.3344H-6.10352e-05V11.6657Z" fill="#0038A8"/>
<path d="M4.17557 4.98043L4.46522 5.39235C3.27501 6.21267 4.00165 6.69776 3.15819 6.96034C3.68279 6.47276 3.07558 6.43166 3.51758 5.41539" fill="#FCD116"/>
<path d="M4.17557 4.98043L4.46522 5.39235C3.27501 6.21267 4.00165 6.69776 3.15819 6.96034C3.68279 6.47276 3.07558 6.43166 3.51758 5.41539" stroke="black" stroke-width="0.146667" stroke-miterlimit="20" stroke-linecap="square"/>
<path d="M3.96855 5.09719C3.31187 6.12798 3.74254 6.69475 3.15822 6.96034" stroke="black" stroke-width="0.146667" stroke-miterlimit="20"/>
<path d="M4.37373 4.16562H4.95123L4.37373 7.19062L3.79623 4.16562H4.37373V7.19062Z" fill="#FCD116"/>
<path d="M4.37373 4.16562H4.95123L4.37373 7.19062L3.79623 4.16562H4.37373ZM4.37373 4.16562V7.19062" stroke="black" stroke-width="0.146667" stroke-miterlimit="20"/>
<path d="M3.62877 4.60836L3.52775 5.0947C2.07708 4.87322 2.23073 5.70558 1.43936 5.32323C2.17232 5.33175 1.77348 4.89377 2.84056 4.47282" fill="#FCD116"/>
<path d="M3.62877 4.60836L3.52775 5.0947C2.07708 4.87322 2.23073 5.70558 1.43936 5.32323C2.17232 5.33175 1.77348 4.89377 2.84056 4.47282" stroke="black" stroke-width="0.146667" stroke-miterlimit="20" stroke-linecap="square"/>
<path d="M3.39556 4.55147C2.16589 4.83812 2.04961 5.52892 1.43924 5.32321" stroke="black" stroke-width="0.146667" stroke-miterlimit="20"/>
<path d="M4.37369 4.16561L4.78205 4.55452L2.12775 6.30461L3.96534 3.7767L4.37369 4.16561L2.12775 6.30461Z" fill="#FCD116"/>
<path d="M4.37369 4.16561L4.78205 4.55452L2.12775 6.30461L3.96534 3.7767L4.37369 4.16561ZM4.37369 4.16561L2.12775 6.30461" stroke="black" stroke-width="0.146667" stroke-miterlimit="20"/>
<path d="M3.51806 3.97696L3.08554 4.25282C2.2242 3.11928 1.71486 3.81132 1.43915 3.00802C1.95111 3.50764 1.99426 2.92935 3.06134 3.3503" fill="#FCD116"/>
<path d="M3.51806 3.97696L3.08554 4.25282C2.2242 3.11928 1.71486 3.81132 1.43915 3.00802C1.95111 3.50764 1.99426 2.92935 3.06134 3.3503" stroke="black" stroke-width="0.146667" stroke-miterlimit="20" stroke-linecap="square"/>
<path d="M3.39564 3.77974C2.3133 3.15433 1.71819 3.56449 1.43933 3.008" stroke="black" stroke-width="0.146667" stroke-miterlimit="20"/>
<path d="M4.3737 4.16563V4.71563L1.19745 4.16563L4.3737 3.61563V4.16563H1.19745Z" fill="#FCD116"/>
<path d="M4.3737 4.16563V4.71563L1.19745 4.16563L4.3737 3.61563V4.16563ZM4.3737 4.16563H1.19745" stroke="black" stroke-width="0.146667" stroke-miterlimit="20"/>
<path d="M3.90868 3.45675L3.39802 3.36054C3.63058 1.97895 2.7566 2.12528 3.15807 1.37159C3.14913 2.06965 3.609 1.6898 4.051 2.70607" fill="#FCD116"/>
<path d="M3.90868 3.45675L3.39802 3.36054C3.63058 1.97895 2.7566 2.12528 3.15807 1.37159C3.14913 2.06965 3.609 1.6898 4.051 2.70607" stroke="black" stroke-width="0.146667" stroke-miterlimit="20" stroke-linecap="square"/>
<path d="M3.96827 3.23473C3.66729 2.06361 2.94195 1.95287 3.15794 1.37157" stroke="black" stroke-width="0.146667" stroke-miterlimit="20"/>
<path d="M4.37372 4.16628L3.96537 4.55519L2.12778 2.02729L4.78208 3.77737L4.37372 4.16628L2.12778 2.02729Z" fill="#FCD116"/>
<path d="M4.37372 4.16628L3.96537 4.55519L2.12778 2.02729L4.78208 3.77737L4.37372 4.16628ZM4.37372 4.16628L2.12778 2.02729" stroke="black" stroke-width="0.146667" stroke-miterlimit="20"/>
<path d="M4.57167 3.35078L4.28202 2.93886C5.47224 2.11854 4.74559 1.63344 5.58906 1.37087C5.06445 1.85845 5.67166 1.89955 5.22966 2.91581" fill="#FCD116"/>
<path d="M4.57167 3.35078L4.28202 2.93886C5.47224 2.11854 4.74559 1.63344 5.58906 1.37087C5.06445 1.85845 5.67166 1.89955 5.22966 2.91581" stroke="black" stroke-width="0.146667" stroke-miterlimit="20" stroke-linecap="square"/>
<path d="M4.7787 3.23402C5.43537 2.20323 5.00471 1.63646 5.58903 1.37087" stroke="black" stroke-width="0.146667" stroke-miterlimit="20"/>
<path d="M4.3737 4.16562H3.7962L4.3737 1.14062L4.95119 4.16562H4.3737V1.14062Z" fill="#FCD116"/>
<path d="M4.3737 4.16562H3.7962L4.3737 1.14062L4.95119 4.16562H4.3737ZM4.3737 4.16562V1.14062" stroke="black" stroke-width="0.146667" stroke-miterlimit="20"/>
<path d="M5.11847 3.72287L5.21949 3.23654C6.67016 3.45802 6.5165 2.62566 7.30788 3.008C6.57491 2.99949 6.97376 3.43747 5.90668 3.85842" fill="#FCD116"/>
<path d="M5.11847 3.72287L5.21949 3.23654C6.67016 3.45802 6.5165 2.62566 7.30788 3.008C6.57491 2.99949 6.97376 3.43747 5.90668 3.85842" stroke="black" stroke-width="0.146667" stroke-miterlimit="20" stroke-linecap="square"/>
<path d="M5.35169 3.77977C6.58136 3.49311 6.69763 2.80232 7.308 3.00802" stroke="black" stroke-width="0.146667" stroke-miterlimit="20"/>
<path d="M4.37355 4.1656L3.9652 3.77669L6.61949 2.0266L4.7819 4.5545L4.37355 4.1656L6.61949 2.0266Z" fill="#FCD116"/>
<path d="M4.37355 4.1656L3.9652 3.77669L6.61949 2.0266L4.7819 4.5545L4.37355 4.1656ZM4.37355 4.1656L6.61949 2.0266" stroke="black" stroke-width="0.146667" stroke-miterlimit="20"/>
<path d="M5.22918 4.35431L5.6617 4.07845C6.52304 5.21199 7.03238 4.51995 7.30809 5.32325C6.79613 4.82363 6.75297 5.40192 5.68589 4.98097" fill="#FCD116"/>
<path d="M5.22918 4.35431L5.6617 4.07845C6.52304 5.21199 7.03238 4.51995 7.30809 5.32325C6.79613 4.82363 6.75297 5.40192 5.68589 4.98097" stroke="black" stroke-width="0.146667" stroke-miterlimit="20" stroke-linecap="square"/>
<path d="M5.35179 4.5515C6.43412 5.1769 7.02923 4.76674 7.3081 5.32324" stroke="black" stroke-width="0.146667" stroke-miterlimit="20"/>
<path d="M4.37354 4.16561V3.61561L7.54979 4.16561L4.37354 4.71561V4.16561H7.54979Z" fill="#FCD116"/>
<path d="M4.37354 4.16561V3.61561L7.54979 4.16561L4.37354 4.71561V4.16561ZM4.37354 4.16561H7.54979" stroke="black" stroke-width="0.146667" stroke-miterlimit="20"/>
<path d="M4.83865 4.87519L5.34931 4.9714C5.11675 6.35299 5.99073 6.20666 5.58926 6.96035C5.5982 6.26229 5.13833 6.64214 4.69633 5.62587" fill="#FCD116"/>
<path d="M4.83865 4.87519L5.34931 4.9714C5.11675 6.35299 5.99073 6.20666 5.58926 6.96035C5.5982 6.26229 5.13833 6.64214 4.69633 5.62587" stroke="black" stroke-width="0.146667" stroke-miterlimit="20" stroke-linecap="square"/>
<path d="M4.77887 5.09718C5.07986 6.2683 5.80519 6.37904 5.5892 6.96034" stroke="black" stroke-width="0.146667" stroke-miterlimit="20"/>
<path d="M4.3738 4.1656L4.78215 3.77669L6.61974 6.30459L3.96544 4.5545L4.3738 4.1656L6.61974 6.30459Z" fill="#FCD116"/>
<path d="M4.3738 4.1656L4.78215 3.77669L6.61974 6.30459L3.96544 4.5545L4.3738 4.1656ZM4.3738 4.1656L6.61974 6.30459" stroke="black" stroke-width="0.146667" stroke-miterlimit="20"/>
<path d="M4.37369 5.17395C4.95842 5.17395 5.43244 4.72251 5.43244 4.16562C5.43244 3.60873 4.95842 3.15729 4.37369 3.15729C3.78896 3.15729 3.31494 3.60873 3.31494 4.16562C3.31494 4.72251 3.78896 5.17395 4.37369 5.17395Z" fill="#FCD116" stroke="black" stroke-width="0.146667" stroke-miterlimit="20"/>
<path d="M5.15349 3.76231C5.08612 3.83564 5.04762 3.70731 4.807 3.70731C4.56637 3.70731 4.52787 3.84481 4.48937 3.81731C4.45088 3.78981 4.6915 3.62481 4.7685 3.61565C4.8455 3.60648 5.06687 3.67981 5.15349 3.76231ZM4.87437 3.84481C4.94174 3.89981 4.884 4.01897 4.81662 4.01897C4.74925 4.01897 4.62412 3.90898 4.68187 3.83564" fill="black"/>
<path d="M4.5567 3.92731C4.56632 3.81731 4.66257 3.79898 4.81657 3.79898C4.97057 3.79898 5.03794 3.90898 5.09569 3.93648C5.02832 3.93648 4.97057 3.84481 4.81657 3.84481C4.66257 3.84481 4.66257 3.84481 4.5567 3.93648M4.58557 3.95481C4.62407 3.89981 4.6722 4.00981 4.77807 4.00981C4.88394 4.00981 4.94169 3.98231 5.00907 3.93648C5.07644 3.89065 4.91282 4.04648 4.80694 4.04648C4.70107 4.04648 4.5567 3.99148 4.58557 3.95481Z" fill="black"/>
<path d="M4.91273 4.00977C5.03785 3.9456 4.96085 3.85393 4.91273 3.8356C4.93198 3.85393 5.00897 3.9456 4.91273 4.00977ZM4.37373 4.55976C4.43148 4.55976 4.45073 4.54143 4.52773 4.54143C4.60473 4.54143 4.7876 4.64226 4.89348 4.60559C4.6721 4.68809 4.75873 4.63309 4.37373 4.63309H4.32561M4.93198 4.68809C4.89348 4.62393 4.9031 4.64226 4.8261 4.54143C4.9031 4.59643 4.92235 4.62393 4.93198 4.68809ZM4.37373 4.77976C4.61435 4.77976 4.57585 4.73392 4.89348 4.60559C4.66248 4.63309 4.61435 4.70643 4.37373 4.70643H4.32561M4.37373 4.44059C4.44111 4.44059 4.46036 4.39476 4.53735 4.39476C4.61435 4.39476 4.72023 4.42226 4.76835 4.45893C4.77798 4.46809 4.73948 4.3856 4.66248 4.37643C4.58548 4.36726 4.61435 4.2481 4.52773 4.22976C4.52773 4.26643 4.5566 4.25726 4.56623 4.31226C4.56623 4.3581 4.47961 4.3581 4.46036 4.31226C4.47961 4.3856 4.42186 4.3856 4.37373 4.3856" fill="black"/>
<path d="M3.59422 3.76231C3.6616 3.83564 3.7001 3.70731 3.94072 3.70731C4.18134 3.70731 4.21984 3.84481 4.25834 3.81731C4.29684 3.78981 4.05622 3.62481 3.97922 3.61565C3.90222 3.60648 3.68085 3.67981 3.59422 3.76231ZM3.87334 3.84481C3.80597 3.89981 3.86372 4.01897 3.93109 4.01897C3.99847 4.01897 4.12359 3.90898 4.06584 3.83564" fill="black"/>
<path d="M4.19083 3.92731C4.18121 3.81731 4.08496 3.79898 3.93096 3.79898C3.77696 3.79898 3.70959 3.90898 3.65184 3.93648C3.71921 3.93648 3.77696 3.84481 3.93096 3.84481C4.08496 3.84481 4.08496 3.84481 4.19083 3.93648M4.16196 3.95481C4.12346 3.89981 4.07533 4.00981 3.96946 4.00981C3.86358 4.00981 3.80583 3.98231 3.73846 3.93648C3.67109 3.89065 3.83471 4.04648 3.94058 4.04648C4.04646 4.04648 4.19083 3.99148 4.16196 3.95481Z" fill="black"/>
<path d="M3.8348 4.00977C3.70968 3.9456 3.78667 3.85393 3.8348 3.8356C3.81555 3.85393 3.73855 3.9456 3.8348 4.00977ZM4.37379 4.55976C4.31604 4.55976 4.29679 4.54143 4.21979 4.54143C4.1428 4.54143 3.95992 4.64226 3.85405 4.60559C4.07542 4.68809 3.9888 4.63309 4.37379 4.63309H4.42192M3.81555 4.68809C3.85405 4.62393 3.84442 4.64226 3.92142 4.54143C3.84442 4.59643 3.82517 4.62393 3.81555 4.68809ZM4.37379 4.77976C4.13317 4.77976 4.17167 4.73392 3.85405 4.60559C4.08505 4.63309 4.13317 4.70643 4.37379 4.70643H4.42192M4.37379 4.44059C4.30642 4.44059 4.28717 4.39476 4.21017 4.39476C4.13317 4.39476 4.0273 4.42226 3.97917 4.45893C3.96955 4.46809 4.00805 4.3856 4.08505 4.37643C4.16204 4.36726 4.13317 4.2481 4.21979 4.22976C4.21979 4.26643 4.19092 4.25726 4.18129 4.31226C4.18129 4.3581 4.26792 4.3581 4.28717 4.31226C4.26792 4.3856 4.32567 4.3856 4.37379 4.3856" fill="black"/>
<path d="M4.37372 4.8623C4.32559 4.8623 4.20047 4.8898 4.37372 4.8898C4.54697 4.8898 4.42184 4.8623 4.37372 4.8623Z" fill="black"/>
</g>
<defs>
<clipPath id="clip0_123_3400">
<rect width="21" height="15" rx="3" fill="white"/>
</clipPath>
</defs>
</svg>
