<svg width="21" height="15" viewBox="0 0 21 15" fill="none" xmlns="http://www.w3.org/2000/svg">
<g clip-path="url(#clip0_974_13286)">
<rect width="21" height="15" rx="3" fill="#249F58"/>
<mask id="mask0_974_13286" style="mask-type:alpha" maskUnits="userSpaceOnUse" x="0" y="0" width="21" height="15">
<path d="M0 0H21V15H0V0Z" fill="white"/>
</mask>
<g mask="url(#mask0_974_13286)">
<path fill-rule="evenodd" clip-rule="evenodd" d="M0 0H21V15H0V0Z" fill="#F7FCFF"/>
<path fill-rule="evenodd" clip-rule="evenodd" d="M0 0H9.1875V15H0V0Z" fill="#FFDC17"/>
<path d="M14.9507 7.96973L14.7241 7.98379C14.7783 8.72491 14.9454 9.29735 15.2291 9.70135C15.6867 10.3529 16.2905 10.8567 16.6945 10.8567C16.7863 10.8567 16.8076 10.8891 16.7773 10.9692C16.7343 11.0832 16.5982 11.1952 16.4231 11.2382C16.1319 11.3098 15.4695 11.3468 14.4473 11.3468V11.5561C15.49 11.5561 16.1643 11.5184 16.4816 11.4405C16.7279 11.38 16.9234 11.219 16.9917 11.038C17.0708 10.8288 16.9515 10.6474 16.6945 10.6474C16.3944 10.6474 15.8377 10.1829 15.4197 9.58766C15.1599 9.21766 15.0024 8.67829 14.9507 7.96973Z" fill="#AF0100"/>
<path d="M13.8777 7.96973L14.1042 7.98379C14.0501 8.72491 13.883 9.29735 13.5992 9.70135C13.1417 10.3529 12.5379 10.8567 12.1339 10.8567C12.0421 10.8567 12.0208 10.8891 12.051 10.9692C12.0941 11.0832 12.2302 11.1952 12.4053 11.2382C12.6965 11.3098 13.3589 11.3468 14.3811 11.3468V11.5561C13.3384 11.5561 12.664 11.5184 12.3468 11.4405C12.1005 11.38 11.905 11.219 11.8366 11.038C11.7576 10.8288 11.8769 10.6474 12.1339 10.6474C12.434 10.6474 12.9906 10.1829 13.4086 9.58766C13.6685 9.21766 13.826 8.67829 13.8777 7.96973Z" fill="#AF0100"/>
<path fill-rule="evenodd" clip-rule="evenodd" d="M18.4193 4.24854L12.4202 8.70229C12.2102 8.6371 11.9808 8.60147 11.7419 8.60147C10.7686 8.60147 9.9541 9.19353 9.9541 9.96191C9.9541 10.7303 10.7686 11.3223 11.7419 11.3223C11.8536 11.3223 11.9631 11.3146 12.0696 11.2997C11.9711 11.2264 11.8975 11.1348 11.8608 11.0375C11.8165 10.9203 11.8344 10.812 11.9038 10.7392C11.8511 10.7442 11.797 10.7468 11.7419 10.7468C11.0853 10.7468 10.5785 10.3783 10.5785 9.96191C10.5785 9.54541 11.0853 9.17703 11.7419 9.17703C12.3986 9.17703 12.9055 9.54541 12.9055 9.96191C12.9055 10.0893 12.858 10.2122 12.7734 10.3215C12.7893 10.308 12.8053 10.294 12.8213 10.2798C13.0292 10.0955 12.562 10.8561 12.158 10.8561C12.0662 10.8561 12.0449 10.8885 12.0752 10.9687C12.1155 11.0754 12.2375 11.1805 12.3967 11.2287C13.0547 11.0327 13.5298 10.5487 13.5298 9.96191C13.5298 9.72185 13.4503 9.49904 13.3113 9.3061L16.5354 6.7001L16.7511 6.91241L16.9065 6.77822L17.4451 7.15835L17.2198 7.32366L17.6795 7.85579L18.6068 7.17497L18.6225 7.16722L18.6198 7.16547L18.6772 7.12322L18.2176 6.59116L17.9954 6.75428L17.3932 6.35779L17.4638 6.29685L17.27 6.10621L17.5614 5.87073L17.716 6.02288L17.8821 5.87945L18.4042 6.27304L18.1847 6.43416L18.6444 6.96628L19.4388 6.38303L19.5297 6.3356L19.5165 6.32597L19.6421 6.23371L19.1825 5.7016L18.9229 5.89221L18.351 5.47437L18.4287 5.4073L18.2961 5.27687L18.8897 4.7971L18.4193 4.24854Z" fill="#F4B300"/>
<path fill-rule="evenodd" clip-rule="evenodd" d="M10.2946 9.20336C10.467 9.20336 10.6068 9.09792 10.6068 8.96786C10.6068 8.8378 10.467 8.73242 10.2946 8.73242C10.1222 8.73242 9.98242 8.8378 9.98242 8.96786C9.98242 9.09792 10.1222 9.20336 10.2946 9.20336ZM10.4081 11.3487C10.5805 11.3487 10.7202 11.2432 10.7202 11.1132C10.7202 10.9832 10.5805 10.8777 10.4081 10.8777C10.2357 10.8777 10.096 10.9832 10.096 11.1132C10.096 11.2432 10.2357 11.3487 10.4081 11.3487ZM13.5014 11.1132C13.5014 11.2432 13.3616 11.3487 13.1892 11.3487C13.0168 11.3487 12.877 11.2432 12.877 11.1132C12.877 10.9832 13.0168 10.8777 13.1892 10.8777C13.3616 10.8777 13.5014 10.9832 13.5014 11.1132Z" fill="#BFBFBF"/>
<path fill-rule="evenodd" clip-rule="evenodd" d="M15.3457 9.9624C15.3457 9.61703 15.5103 9.30728 15.7799 9.0709L12.3348 6.53009L12.2956 6.5589L12.396 6.64565L12.1244 6.9129L11.9813 6.78934L11.454 7.17615L11.6557 7.32421L11.196 7.85628L10.2786 7.18271L10.253 7.16771L10.2557 7.16596L10.1983 7.12371L10.6579 6.59165L10.8801 6.75478L11.4823 6.35828L11.4118 6.29734L11.672 6.04121L11.3687 5.81751L11.1595 6.02338L10.9997 5.88533L10.4843 6.28303L10.6908 6.43465L10.2312 6.96678L9.46204 6.40209L9.34581 6.33609L9.359 6.32646L9.2334 6.23421L9.69304 5.70209L9.95265 5.89271L10.5245 5.47487L10.4469 5.4078L10.6038 5.25336L9.98585 4.79759L10.3759 4.34814L16.3358 8.74384C16.5772 8.65271 16.8485 8.60196 17.1336 8.60196C18.1069 8.60196 18.9214 9.19403 18.9214 9.9624C18.9214 10.7308 18.1069 11.3229 17.1336 11.3229C17.022 11.3229 16.9124 11.3151 16.8059 11.3001C16.9044 11.2269 16.978 11.1353 17.0148 11.038C17.059 10.9208 17.0411 10.8125 16.9718 10.7397C17.0245 10.7447 17.0785 10.7473 17.1336 10.7473C17.7902 10.7473 18.2971 10.3789 18.2971 9.9624C18.2971 9.54596 17.7902 9.17753 17.1336 9.17753C16.4769 9.17753 15.9701 9.54596 15.9701 9.9624C15.9701 10.0898 16.0175 10.2127 16.1022 10.322C16.0862 10.3085 16.0702 10.2945 16.0542 10.2803C15.8463 10.096 16.3135 10.8566 16.7175 10.8566C16.8093 10.8566 16.8306 10.889 16.8004 10.9692C16.7601 11.0759 16.6381 11.181 16.4789 11.2292C15.8208 11.0332 15.3457 10.5492 15.3457 9.9624Z" fill="#BFBFBF"/>
<path fill-rule="evenodd" clip-rule="evenodd" d="M18.5808 9.20336C18.4084 9.20336 18.2686 9.09792 18.2686 8.96786C18.2686 8.8378 18.4084 8.73242 18.5808 8.73242C18.7532 8.73242 18.893 8.8378 18.893 8.96786C18.893 9.09792 18.7532 9.20336 18.5808 9.20336ZM18.4673 11.3487C18.2949 11.3487 18.1551 11.2432 18.1551 11.1132C18.1551 10.9832 18.2949 10.8777 18.4673 10.8777C18.6397 10.8777 18.7794 10.9832 18.7794 11.1132C18.7794 11.2432 18.6397 11.3487 18.4673 11.3487ZM15.374 11.1132C15.374 11.2432 15.5138 11.3487 15.6862 11.3487C15.8586 11.3487 15.9984 11.2432 15.9984 11.1132C15.9984 10.9832 15.8586 10.8777 15.6862 10.8777C15.5138 10.8777 15.374 10.9832 15.374 11.1132Z" fill="#F4B300"/>
<path fill-rule="evenodd" clip-rule="evenodd" d="M14.2676 7.37207C14.2206 7.37207 14.1825 7.40838 14.1825 7.45313V7.7907H13.8676C13.822 7.7907 13.7852 7.82582 13.7852 7.8692C13.7852 7.91251 13.822 7.94763 13.8676 7.94763H14.1825V12.4189C14.1825 12.4637 14.2206 12.5 14.2676 12.5H14.4379C14.4849 12.5 14.523 12.4637 14.523 12.4189V7.94763H15.0081C15.0536 7.94763 15.0906 7.91251 15.0906 7.8692C15.0906 7.82582 15.0536 7.7907 15.0081 7.7907H14.523V7.45313C14.523 7.40838 14.4849 7.37207 14.4379 7.37207H14.2676Z" fill="#AF0100"/>
<path fill-rule="evenodd" clip-rule="evenodd" d="M10.9951 4.74601L11.134 4.8368C11.4578 4.41578 11.7491 4.33121 12.0454 4.55218C12.5571 4.93366 12.6014 5.86443 12.0542 6.17606C11.4017 6.54772 11.071 7.27253 11.3603 7.66703C11.6273 8.03103 12.271 7.89328 12.9064 7.43603C13.0193 7.35491 13.1268 7.26822 13.2279 7.17716L13.0937 7.07847C13.0016 7.16047 12.904 7.23872 12.8017 7.31228C12.2349 7.72009 11.6903 7.83666 11.5013 7.57909C11.2758 7.27159 11.5642 6.63972 12.1438 6.30959C12.7993 5.93617 12.7488 4.87476 12.1525 4.43012C11.7679 4.14333 11.3696 4.25893 10.9951 4.74601ZM13.4941 6.65303L13.6326 6.74453C13.8736 6.43484 14.0382 6.09941 14.0929 5.76904L13.9246 5.74539C13.8742 6.04964 13.7203 6.36234 13.4941 6.65303Z" fill="#979797"/>
<path fill-rule="evenodd" clip-rule="evenodd" d="M17.8956 4.74601L17.7567 4.8368C17.433 4.41578 17.1416 4.33121 16.8453 4.55218C16.3337 4.93366 16.2894 5.86443 16.8365 6.17606C17.4891 6.54772 17.8198 7.27253 17.5304 7.66703C17.2634 8.03103 16.6198 7.89328 15.9843 7.43603C15.8715 7.35491 15.7639 7.26822 15.6629 7.17716L15.7971 7.07847C15.8891 7.16047 15.9868 7.23872 16.0891 7.31228C16.6559 7.72009 17.2004 7.83666 17.3894 7.57909C17.6149 7.27159 17.3266 6.63972 16.747 6.30959C16.0914 5.93617 16.1419 4.87476 16.7383 4.43012C17.1228 4.14333 17.5211 4.25893 17.8956 4.74601ZM15.3967 6.65303L15.2581 6.74453C15.0172 6.43484 14.8525 6.09941 14.7979 5.76904L14.9662 5.74539C15.0165 6.04964 15.1705 6.36234 15.3967 6.65303Z" fill="#979797"/>
<path fill-rule="evenodd" clip-rule="evenodd" d="M14.3522 12.5103C14.5403 12.5103 14.6928 12.4377 14.6928 12.3482C14.6928 12.2586 14.5403 12.186 14.3522 12.186C14.1642 12.186 14.0117 12.2586 14.0117 12.3482C14.0117 12.4377 14.1642 12.5103 14.3522 12.5103Z" fill="#AF0100"/>
<path fill-rule="evenodd" clip-rule="evenodd" d="M14.2954 5.76217C14.9537 5.76217 15.4873 5.67746 15.4873 5.57298C15.4873 5.4685 14.9537 5.38379 14.2954 5.38379C13.6372 5.38379 13.1035 5.4685 13.1035 5.57298C13.1035 5.67746 13.6372 5.76217 14.2954 5.76217Z" fill="#AF0100"/>
<path fill-rule="evenodd" clip-rule="evenodd" d="M14.3625 1.27393H14.1923V1.46088H14.031V1.61786H14.1923V2.07598H14.3625V1.61786H14.559V1.46088H14.3625V1.27393ZM13.0822 3.53538L13.0062 3.41344C13.0478 3.39682 13.0903 3.38113 13.1337 3.36638L12.9121 2.90373L13.0679 2.84034L13.2959 3.31662C13.3443 3.30335 13.3936 3.29114 13.4439 3.27998C13.4089 3.24224 13.3873 3.19061 13.3873 3.13366C13.3873 3.01807 13.4762 2.92436 13.5859 2.92436C13.6957 2.92436 13.7846 3.01807 13.7846 3.13366C13.7846 3.16629 13.7775 3.19716 13.7648 3.22469C13.8998 3.20765 14.0406 3.19711 14.1875 3.19303V3.01566H13.9742V2.88941H14.1875V2.73904H14.4126V2.88941H14.6725V3.01566H14.4126V3.19179C14.58 3.19456 14.7367 3.20564 14.8829 3.2251C14.8701 3.19748 14.8629 3.16645 14.8629 3.13366C14.8629 3.01807 14.9519 2.92436 15.0616 2.92436C15.1713 2.92436 15.2602 3.01807 15.2602 3.13366C15.2602 3.19286 15.2369 3.24632 15.1995 3.28439C15.2629 3.30016 15.3239 3.31793 15.3823 3.33771L15.5453 2.99731L15.7011 3.06071L15.5394 3.39839C15.5522 3.40399 15.5648 3.40972 15.5773 3.41556L15.4916 3.53326L15.4779 3.52694L15.4517 3.58158L15.2959 3.51819L15.3213 3.46504C15.0729 3.38013 14.7702 3.33426 14.4126 3.32809V3.38412H14.1875V3.32938C13.7631 3.3417 13.3948 3.41053 13.0822 3.53538ZM13.0062 3.67508L13.0459 3.73882L12.9121 3.79327L13.1337 4.25591C13.0903 4.27066 13.0478 4.28636 13.0062 4.30298L13.0822 4.42491C13.3948 4.30006 13.7631 4.23123 14.1875 4.21891V4.27365H14.4126V4.21762C14.7702 4.2238 15.0729 4.26967 15.3213 4.35458L15.2959 4.40772L15.4517 4.47112L15.4779 4.41648L15.4916 4.4228L15.5773 4.30509C15.5648 4.29925 15.5522 4.29353 15.5394 4.28793L15.7011 3.95024L15.5453 3.88685L15.3823 4.22724C15.3239 4.20746 15.2629 4.18969 15.1995 4.17393C15.2369 4.13586 15.2602 4.0824 15.2602 4.0232C15.2602 3.90761 15.1713 3.81389 15.0616 3.81389C14.9519 3.81389 14.8629 3.90761 14.8629 4.0232C14.8629 4.05599 14.8701 4.08701 14.8829 4.11464C14.7367 4.09518 14.58 4.08409 14.4126 4.08133V3.90519H14.6725V3.77894H14.4126V3.62858H14.1875V3.77894H13.9742V3.90519H14.1875V4.08256C14.0406 4.08664 13.8998 4.09719 13.7648 4.11422C13.7775 4.0867 13.7846 4.05582 13.7846 4.0232C13.7846 3.90761 13.6957 3.81389 13.5859 3.81389C13.4762 3.81389 13.3873 3.90761 13.3873 4.0232C13.3873 4.08014 13.4089 4.13178 13.4439 4.16951C13.3936 4.18067 13.3443 4.19288 13.2959 4.20615L13.0972 3.79107C13.4408 3.65656 13.8509 3.58899 14.3282 3.58899C14.811 3.58899 15.1986 3.65812 15.4916 3.79489L15.5773 3.67718C15.2557 3.52705 14.8391 3.45273 14.3282 3.45273C13.8188 3.45273 13.3779 3.52662 13.0062 3.67508ZM13.0062 4.56461L13.0459 4.62835L12.9121 4.68281L13.1337 5.14544C13.0903 5.1602 13.0478 5.17589 13.0062 5.19251L13.0822 5.31444C13.3948 5.18959 13.7631 5.12077 14.1875 5.10845V5.16319H14.4126V5.10716C14.7702 5.11334 15.0729 5.1592 15.3213 5.24411L15.2959 5.29726L15.4517 5.36065L15.4779 5.30601L15.4916 5.31233L15.5773 5.19463C15.5648 5.18879 15.5522 5.18306 15.5394 5.17746L15.7011 4.83978L15.5453 4.77638L15.3823 5.11678C15.3239 5.09699 15.2629 5.07923 15.1995 5.06346C15.2369 5.02539 15.2602 4.97193 15.2602 4.91273C15.2602 4.79714 15.1713 4.70343 15.0616 4.70343C14.9519 4.70343 14.8629 4.79714 14.8629 4.91273C14.8629 4.94552 14.8701 4.97654 14.8829 5.00418C14.7367 4.98471 14.58 4.97363 14.4126 4.97086V4.79473H14.6725V4.66848H14.4126V4.51811H14.1875V4.66848H13.9742V4.79473H14.1875V4.9721C14.0406 4.97618 13.8998 4.98673 13.7648 5.00376C13.7775 4.97623 13.7846 4.94536 13.7846 4.91273C13.7846 4.79714 13.6957 4.70343 13.5859 4.70343C13.4762 4.70343 13.3873 4.79714 13.3873 4.91273C13.3873 4.96968 13.4089 5.02131 13.4439 5.05904C13.3936 5.07021 13.3443 5.08242 13.2959 5.09569L13.0972 4.68061C13.4408 4.5461 13.8509 4.47853 14.3282 4.47853C14.811 4.47853 15.1986 4.54766 15.4916 4.68443L15.5773 4.56672C15.2557 4.41659 14.8391 4.34226 14.3282 4.34226C13.8188 4.34226 13.3779 4.41616 13.0062 4.56461ZM13.0062 5.45414L13.0822 5.57607C13.4288 5.43762 13.8439 5.36806 14.3282 5.36806C14.811 5.36806 15.1986 5.43719 15.4916 5.57396L15.5773 5.45625C15.2557 5.30612 14.8391 5.23179 14.3282 5.23179C13.8188 5.23179 13.3779 5.30569 13.0062 5.45414Z" fill="#F4B300"/>
</g>
</g>
<defs>
<clipPath id="clip0_974_13286">
<rect width="21" height="15" rx="3" fill="white"/>
</clipPath>
</defs>
</svg>
