<svg width="48" height="48" viewBox="0 0 48 48" fill="none" xmlns="http://www.w3.org/2000/svg">
<rect width="48" height="48" fill="white"/>
<path d="M23.0164 0L22.997 4.30779C19.5191 5.56138 17.6649 6.59191 15.6763 7.69704C15.4297 7.83414 15.1809 7.97238 14.9268 8.11234V0H23.0164Z" fill="#407BFF"/>
<path d="M32.6527 4.14613C40.9552 3.3812 41.9228 6.03834 41.9228 6.03834L45 13.2046C44.4388 12.1578 42.6583 10.0442 37.6458 10.0442C36.9491 10.0442 35.3041 10.0643 33.0978 10.4065L33.1172 46.4793H25.0082L25.0275 12.6007C24.447 12.8221 23.8664 13.0838 23.2858 13.3455C17.0348 16.224 14.9639 17.7137 13.4157 18.8812C2.98431 26.7721 4.04873 31.6838 4.49386 32.8312L2.05536 27.1344C2.05536 27.1344 1.0877 24.8598 1.707 23.4104C4.20356 17.6533 8.49996 14.0098 12.7189 11.3526C16.9573 8.69548 24.1567 4.9312 32.6527 4.14613Z" fill="#407BFF"/>
<path d="M4.49386 32.8312C4.55237 33.0124 4.61117 33.0932 4.61117 33.0932L4.49386 32.8312Z" fill="#407BFF"/>
<path d="M34.8984 20.2107L34.9178 27.6386C34.9178 27.6386 38.1691 26.4107 42.4268 21.5594C43.8396 19.949 44.4976 17.775 44.3621 16.2451C44.1686 14.1918 43.7235 13.0444 41.3624 12.4204C40.0851 15.9431 34.8984 20.2107 34.8984 20.2107Z" fill="#407BFF"/>
<path d="M6.54491 33.8188C5.80949 32.4499 5.94496 30.9402 6.64168 29.2896C6.99049 29.35 7.32839 29.4559 7.67177 29.5635C8.24286 29.7424 8.82912 29.9261 9.50594 29.9136C11.1703 29.9136 13.2992 29.9538 13.2992 29.9538V36.4558C13.2992 36.4558 11.5961 36.5766 9.64142 36.1538C8.01575 35.8116 7.0868 34.8253 6.54491 33.8188Z" fill="#407BFF"/>
<path d="M14.8857 19.9083V46.4596L23.0334 46.4998L23.0528 15.4395C20.1111 16.8485 18.0984 17.8148 14.8857 19.9083Z" fill="#407BFF"/>
</svg>
