<svg width="48" height="48" viewBox="0 0 48 48" fill="none" xmlns="http://www.w3.org/2000/svg">
<path d="M23.7744 2L23.7557 6.0762C20.3978 7.26239 18.6074 8.23753 16.6875 9.28325C16.4493 9.41297 16.2092 9.54378 15.9638 9.67622V2H23.7744Z" fill="#407BFF"/>
<path d="M33.0785 5.92323C41.0947 5.19942 42.029 7.71372 42.029 7.71372L45 14.4947C44.4581 13.5042 42.739 11.5042 37.8994 11.5042C37.2267 11.5042 35.6384 11.5233 33.5082 11.8471L33.5269 45.9805H25.6976L25.7163 13.9233C25.1557 14.1328 24.5951 14.3804 24.0346 14.628C17.9991 17.3518 15.9996 18.7614 14.5048 19.8661C4.43313 27.3328 5.46085 31.9805 5.89062 33.0662L3.53621 27.6757C3.53621 27.6757 2.60192 25.5233 3.19986 24.1519C5.61033 18.7042 9.75858 15.2566 13.8321 12.7423C17.9243 10.228 24.8754 6.66609 33.0785 5.92323Z" fill="#407BFF"/>
<path d="M5.89062 33.0662C5.94711 33.2376 6.00388 33.3141 6.00388 33.3141L5.89062 33.0662Z" fill="#407BFF"/>
<path d="M35.2468 21.1241L35.2655 28.1527C35.2655 28.1527 38.4047 26.9908 42.5155 22.4003C43.8796 20.8765 44.5149 18.8194 44.3841 17.3717C44.1973 15.4289 43.7675 14.3432 41.4878 13.7527C40.2546 17.086 35.2468 21.1241 35.2468 21.1241Z" fill="#407BFF"/>
<path d="M7.87095 34.0007C7.16089 32.7054 7.29169 31.2768 7.96438 29.7149C8.30116 29.7722 8.62741 29.8723 8.95895 29.9742C9.51035 30.1435 10.0764 30.3173 10.7299 30.3054C12.3369 30.3054 14.3923 30.3435 14.3923 30.3435V36.4959C14.3923 36.4959 12.7479 36.6102 10.8607 36.2102C9.29107 35.8864 8.39415 34.953 7.87095 34.0007Z" fill="#407BFF"/>
<path d="M15.9242 20.838V45.9619L23.7909 46L23.8096 16.6094C20.9693 17.9428 19.026 18.857 15.9242 20.838Z" fill="#407BFF"/>
</svg>
